<?xml version="1.0" encoding="UTF-8" standalone="no"?><!DOCTYPE svg PUBLIC "-//W3C//DTD SVG 1.1//EN" "http://www.w3.org/Graphics/SVG/1.1/DTD/svg11.dtd"><svg width="100%" height="100%" viewBox="0 0 400 400" version="1.1" xmlns="http://www.w3.org/2000/svg" xmlns:xlink="http://www.w3.org/1999/xlink" xml:space="preserve" xmlns:serif="http://www.serif.com/" style="fill-rule:evenodd;clip-rule:evenodd;stroke-linecap:round;stroke-linejoin:round;stroke-miterlimit:1.5;"><g id="Arts-Circle" serif:id="Arts Circle"><circle cx="200" cy="200" r="200" style="fill:#282c34;"/><clipPath id="_clip1"><circle cx="200" cy="200" r="200"/></clipPath><g clip-path="url(#_clip1)"><circle cx="361.785" cy="146.279" r="74.279" style="fill:#3fc56b;"/><circle cx="258.013" cy="243.497" r="40.416" style="fill:#0098dd;"/><circle cx="162.225" cy="296.394" r="21.991" style="fill:#3fc56b;stroke:#5caa51;stroke-width:0.06px;"/><circle cx="110.105" cy="325.177" r="11.966" style="fill:#0098dd;stroke:#5caa51;stroke-width:0.04px;"/><circle cx="81.746" cy="340.838" r="6.511" style="fill:#3fc56b;stroke:#5caa51;stroke-width:0.02px;"/><circle cx="66.315" cy="349.36" r="3.543" style="fill:#0098dd;stroke:#5caa51;stroke-width:0.01px;"/><circle cx="152" cy="72" r="120" style="fill:#ce33c0;"/><circle cx="348" cy="472" r="154" style="fill:#a05a48;stroke:#5caa51;stroke-width:0.45px;"/><circle cx="50.748" cy="222.617" r="61.307" style="fill:#d52753;stroke:#5caa51;stroke-width:0.18px;"/><circle cx="-0.981" cy="299.566" r="31.321" style="fill:#ce33c0;stroke:#5caa51;stroke-width:0.09px;"/></g><circle cx="200" cy="200" r="200" style="fill:#282c34;fill-opacity:0.2;"/><g transform="matrix(2,0,0,2,-429.926,-133.539)"><path d="M270.605,142.502l0.087,0.024l0.082,0.04l0.073,0.054l0.062,0.066l0.049,0.076l0.035,0.084l0.283,0.92l0.28,0.913l0.275,0.904l0.271,0.897l0.266,0.888l0.262,0.879l0.257,0.872l0.253,0.864l0.248,0.855l0.244,0.847l0.239,0.839l0.235,0.83l0.231,0.823l0.226,0.814l0.221,0.806l0.217,0.798l0.213,0.79l0.208,0.781l0.204,0.773l0.199,0.765l0.195,0.757l0.19,0.749l0.186,0.741l0.181,0.732l0.177,0.724l0.173,0.716l0.168,0.708l0.163,0.7l0.159,0.691l0.155,0.684l0.15,0.675l0.145,0.667l0.142,0.659l0.136,0.65l0.133,0.643l0.127,0.634l0.124,0.626l0.119,0.618l0.114,0.61l0.11,0.602l0.105,0.593l0.051,0.294l0.05,0.292l0.049,0.289l0.048,0.288l0.046,0.286l0.046,0.283l0.044,0.282l0.043,0.279l0.043,0.278l0.041,0.275l0.039,0.274l0.039,0.271l0.038,0.269l0.036,0.268l0.036,0.265l0.034,0.263l0.033,0.261l0.032,0.26l0.031,0.257l0.03,0.255l0.029,0.253l0.027,0.251l0.027,0.249l0.025,0.247l0.024,0.245l0.023,0.243l0.022,0.241l0.021,0.239l0.02,0.237l0.018,0.235l0.018,0.233l0.016,0.231l0.015,0.229l0.014,0.227l0.013,0.224l0.012,0.223l0.011,0.221l0.01,0.219l0.008,0.217l0.007,0.215l0.007,0.212l0.005,0.211l0.004,0.209l0.003,0.207l0.001,0.205l0.001,0.202l0,4.736l-0.008,0.087l-0.022,0.084l-0.037,0.079l-0.05,0.072l-0.062,0.061l-0.071,0.05l-0.079,0.037l-0.084,0.023l-0.087,0.007l-7.232,0l-0.087,-0.007l-0.084,-0.023l-0.079,-0.037l-0.072,-0.05l-0.061,-0.061l-0.05,-0.072l-0.037,-0.079l-0.023,-0.084l-0.007,-0.087l0,-4.735l-0.001,-0.311l-0.004,-0.317l-0.006,-0.322l-0.009,-0.328l-0.011,-0.333l-0.014,-0.339l-0.016,-0.344l-0.018,-0.351l-0.021,-0.355l-0.024,-0.362l-0.026,-0.367l-0.029,-0.372l-0.031,-0.378l-0.033,-0.384l-0.031,-0.334l-9.588,0l-0.031,0.334l-0.034,0.384l-0.031,0.378l-0.028,0.372l-0.026,0.367l-0.024,0.362l-0.021,0.355l-0.019,0.351l-0.016,0.344l-0.013,0.339l-0.011,0.333l-0.009,0.328l-0.006,0.322l-0.004,0.317l-0.001,0.311l0,4.735l-0.008,0.087l-0.022,0.084l-0.037,0.079l-0.05,0.072l-0.062,0.061l-0.071,0.05l-0.079,0.037l-0.084,0.023l-0.087,0.007l-7.232,0l-0.087,-0.007l-0.084,-0.023l-0.079,-0.037l-0.072,-0.05l-0.061,-0.061l-0.05,-0.072l-0.037,-0.079l-0.023,-0.084l-0.007,-0.087l0,-4.736l0,-0.202l0.002,-0.205l0.003,-0.207l0.004,-0.209l0.005,-0.211l0.006,-0.212l0.008,-0.215l0.008,-0.217l0.01,-0.219l0.01,-0.221l0.012,-0.223l0.013,-0.224l0.014,-0.227l0.015,-0.229l0.017,-0.231l0.017,-0.233l0.019,-0.235l0.02,-0.237l0.02,-0.239l0.022,-0.241l0.023,-0.243l0.025,-0.245l0.025,-0.247l0.026,-0.249l0.028,-0.251l0.029,-0.253l0.029,-0.255l0.031,-0.257l0.032,-0.26l0.034,-0.261l0.034,-0.263l0.035,-0.265l0.037,-0.268l0.037,-0.269l0.039,-0.271l0.04,-0.274l0.041,-0.275l0.042,-0.278l0.043,-0.279l0.045,-0.282l0.045,-0.283l0.047,-0.286l0.047,-0.288l0.049,-0.289l0.05,-0.292l0.051,-0.294l0.106,-0.593l0.11,-0.602l0.114,-0.61l0.119,-0.618l0.123,-0.626l0.128,-0.634l0.132,-0.643l0.137,-0.65l0.141,-0.659l0.146,-0.667l0.15,-0.675l0.154,-0.684l0.159,-0.691l0.164,-0.7l0.168,-0.708l0.172,-0.716l0.177,-0.724l0.182,-0.732l0.185,-0.741l0.191,-0.749l0.194,-0.757l0.2,-0.765l0.203,-0.773l0.209,-0.781l0.212,-0.79l0.217,-0.798l0.222,-0.806l0.226,-0.814l0.23,-0.823l0.235,-0.83l0.24,-0.839l0.243,-0.847l0.249,-0.855l0.253,-0.864l0.257,-0.872l0.262,-0.879l0.266,-0.888l0.27,-0.897l0.276,-0.904l0.279,-0.913l0.284,-0.92l0.034,-0.084l0.05,-0.076l0.062,-0.066l0.073,-0.054l0.081,-0.04l0.087,-0.024l0.091,-0.009l7.296,0l0.09,0.009Zm-7.017,0.991l-0.175,0.567l-0.279,0.911l-0.275,0.902l-0.27,0.895l-0.265,0.886l-0.261,0.878l-0.257,0.869l-0.252,0.861l-0.248,0.853l-0.243,0.845l-0.239,0.837l-0.234,0.828l-0.23,0.82l-0.225,0.812l-0.221,0.804l-0.217,0.795l-0.211,0.787l-0.208,0.779l-0.203,0.771l-0.198,0.762l-0.194,0.754l-0.19,0.746l-0.185,0.738l-0.181,0.729l-0.176,0.721l-0.171,0.713l-0.168,0.704l-0.162,0.697l-0.159,0.688l-0.153,0.679l-0.15,0.672l-0.145,0.663l-0.14,0.655l-0.136,0.647l-0.131,0.638l-0.127,0.63l-0.123,0.622l-0.118,0.614l-0.113,0.605l-0.109,0.597l-0.105,0.589l-0.05,0.291l-0.05,0.289l-0.048,0.287l-0.047,0.285l-0.047,0.283l-0.045,0.281l-0.044,0.279l-0.042,0.277l-0.042,0.274l-0.041,0.273l-0.039,0.27l-0.038,0.269l-0.038,0.266l-0.036,0.264l-0.035,0.263l-0.034,0.26l-0.032,0.258l-0.032,0.256l-0.03,0.253l-0.03,0.252l-0.028,0.25l-0.027,0.247l-0.026,0.246l-0.025,0.243l-0.024,0.242l-0.023,0.239l-0.022,0.237l-0.02,0.235l-0.019,0.233l-0.019,0.231l-0.017,0.229l-0.016,0.226l-0.015,0.225l-0.014,0.222l-0.012,0.221l-0.012,0.218l-0.01,0.216l-0.01,0.214l-0.008,0.212l-0.007,0.21l-0.006,0.208l-0.005,0.206l-0.004,0.203l-0.003,0.202l-0.002,0.199l0,0.198l0,4.235l6.232,0l0,-4.237l0.001,-0.317l0.004,-0.324l0.006,-0.33l0.009,-0.334l0.011,-0.341l0.014,-0.345l0.017,-0.351l0.019,-0.357l0.021,-0.361l0.024,-0.368l0.026,-0.372l0.029,-0.378l0.032,-0.384l0.034,-0.388l0.036,-0.395l0.039,-0.398l0.017,-0.09l0.034,-0.086l0.049,-0.078l0.062,-0.068l0.073,-0.055l0.083,-0.041l0.088,-0.025l0.092,-0.009l10.496,0l0.091,0.009l0.089,0.025l0.082,0.041l0.074,0.055l0.062,0.068l0.049,0.078l0.033,0.086l0.017,0.09l0.039,0.398l0.037,0.395l0.034,0.389l0.031,0.383l0.029,0.378l0.027,0.372l0.024,0.368l0.021,0.361l0.019,0.357l0.016,0.351l0.014,0.345l0.012,0.341l0.008,0.334l0.007,0.33l0.004,0.324l0.001,0.317l0,4.237l6.232,0l0,-4.235l-0.001,-0.198l-0.001,-0.199l-0.003,-0.202l-0.004,-0.203l-0.005,-0.206l-0.006,-0.208l-0.007,-0.21l-0.009,-0.212l-0.009,-0.214l-0.01,-0.216l-0.012,-0.218l-0.013,-0.221l-0.014,-0.222l-0.015,-0.225l-0.016,-0.226l-0.017,-0.229l-0.018,-0.231l-0.019,-0.233l-0.021,-0.235l-0.021,-0.237l-0.023,-0.239l-0.024,-0.242l-0.025,-0.243l-0.026,-0.246l-0.027,-0.247l-0.029,-0.25l-0.029,-0.252l-0.03,-0.253l-0.032,-0.256l-0.033,-0.258l-0.034,-0.26l-0.035,-0.263l-0.036,-0.264l-0.037,-0.266l-0.038,-0.269l-0.04,-0.27l-0.04,-0.273l-0.042,-0.274l-0.043,-0.277l-0.044,-0.279l-0.045,-0.281l-0.046,-0.283l-0.047,-0.285l-0.049,-0.287l-0.049,-0.289l-0.051,-0.291l-0.104,-0.589l-0.109,-0.597l-0.114,-0.605l-0.118,-0.614l-0.122,-0.622l-0.127,-0.63l-0.132,-0.638l-0.136,-0.647l-0.14,-0.655l-0.145,-0.663l-0.149,-0.672l-0.154,-0.679l-0.158,-0.688l-0.163,-0.697l-0.167,-0.704l-0.172,-0.713l-0.176,-0.721l-0.18,-0.729l-0.185,-0.738l-0.19,-0.746l-0.194,-0.754l-0.199,-0.762l-0.202,-0.771l-0.208,-0.779l-0.212,-0.787l-0.216,-0.795l-0.221,-0.804l-0.225,-0.812l-0.23,-0.82l-0.235,-0.828l-0.238,-0.837l-0.244,-0.845l-0.247,-0.853l-0.252,-0.861l-0.257,-0.869l-0.261,-0.878l-0.266,-0.886l-0.27,-0.895l-0.274,-0.902l-0.279,-0.911l-0.175,-0.567l-6.558,0Zm3.373,8.097l0.091,0.027l0.085,0.044l0.074,0.058l0.063,0.072l0.047,0.082l0.031,0.089l0.187,0.762l0.183,0.754l0.181,0.748l0.177,0.742l0.174,0.734l0.171,0.728l0.168,0.721l0.165,0.715l0.162,0.707l0.158,0.701l0.156,0.694l0.152,0.688l0.149,0.681l0.146,0.674l0.143,0.667l0.14,0.661l0.137,0.653l0.133,0.648l0.131,0.64l0.127,0.634l0.124,0.627l0.121,0.62l0.118,0.613l0.115,0.607l0.112,0.6l0.109,0.594l0.105,0.586l0.102,0.58l0.1,0.574l0.096,0.566l0.093,0.56l0.089,0.552l0.007,0.096l-0.013,0.095l-0.03,0.092l-0.047,0.083l-0.062,0.074l-0.075,0.059l-0.086,0.045l-0.092,0.027l-0.095,0.009l-8.832,0l-0.096,-0.009l-0.092,-0.027l-0.085,-0.045l-0.075,-0.059l-0.062,-0.074l-0.048,-0.083l-0.03,-0.092l-0.012,-0.095l0.006,-0.096l0.09,-0.552l0.093,-0.56l0.096,-0.566l0.099,-0.574l0.103,-0.58l0.105,-0.586l0.109,-0.594l0.111,-0.6l0.115,-0.607l0.118,-0.613l0.121,-0.62l0.124,-0.627l0.128,-0.634l0.13,-0.64l0.134,-0.648l0.137,-0.653l0.139,-0.661l0.143,-0.667l0.146,-0.674l0.15,-0.681l0.152,-0.688l0.155,-0.694l0.159,-0.701l0.161,-0.707l0.165,-0.715l0.168,-0.721l0.171,-0.728l0.174,-0.734l0.178,-0.742l0.18,-0.748l0.184,-0.755l0.186,-0.761l0.031,-0.089l0.048,-0.082l0.062,-0.072l0.075,-0.058l0.084,-0.044l0.091,-0.027l0.095,-0.009l0.094,0.009Zm-0.158,2.87l-0.177,0.739l-0.174,0.733l-0.17,0.726l-0.168,0.719l-0.164,0.712l-0.161,0.706l-0.158,0.699l-0.155,0.692l-0.152,0.685l-0.149,0.679l-0.145,0.671l-0.143,0.665l-0.139,0.658l-0.136,0.652l-0.133,0.644l-0.13,0.638l-0.127,0.631l-0.124,0.625l-0.12,0.617l-0.118,0.611l-0.114,0.604l-0.111,0.597l-0.108,0.59l-0.105,0.584l-0.102,0.577l-0.098,0.57l-0.096,0.563l-0.087,0.526l7.656,0l-0.088,-0.526l-0.095,-0.563l-0.099,-0.57l-0.102,-0.577l-0.104,-0.584l-0.108,-0.59l-0.112,-0.597l-0.114,-0.604l-0.117,-0.611l-0.121,-0.617l-0.124,-0.625l-0.126,-0.631l-0.13,-0.638l-0.133,-0.644l-0.136,-0.652l-0.14,-0.658l-0.142,-0.665l-0.146,-0.671l-0.149,-0.679l-0.151,-0.685l-0.155,-0.692l-0.158,-0.699l-0.162,-0.706l-0.164,-0.712l-0.167,-0.719l-0.171,-0.726l-0.174,-0.733l-0.176,-0.739l-0.064,-0.265l-0.064,0.265Z" style="fill:#d4d7de;"/><path d="M296.781,155.638l0.073,0.03l0.067,0.041l0.059,0.051l0.051,0.06l0.041,0.066l0.03,0.073l0.019,0.076l0.006,0.078l0,3.847l0.058,-0.1l0.097,-0.161l0.099,-0.159l0.099,-0.156l0.101,-0.154l0.102,-0.151l0.104,-0.148l0.104,-0.145l0.106,-0.142l0.108,-0.14l0.108,-0.138l0.11,-0.134l0.111,-0.132l0.113,-0.129l0.114,-0.126l0.115,-0.124l0.116,-0.12l0.118,-0.118l0.119,-0.116l0.121,-0.112l0.122,-0.11l0.123,-0.107l0.124,-0.104l0.126,-0.101l0.127,-0.098l0.128,-0.096l0.13,-0.093l0.131,-0.09l0.132,-0.087l0.134,-0.084l0.135,-0.081l0.133,-0.077l0.11,-0.062l0.113,-0.061l0.115,-0.06l0.115,-0.057l0.117,-0.056l0.117,-0.053l0.119,-0.051l0.119,-0.05l0.121,-0.047l0.122,-0.045l0.122,-0.043l0.124,-0.041l0.125,-0.039l0.125,-0.038l0.127,-0.035l0.128,-0.033l0.128,-0.031l0.13,-0.029l0.13,-0.027l0.132,-0.025l0.132,-0.022l0.133,-0.021l0.134,-0.019l0.136,-0.017l0.136,-0.015l0.137,-0.013l0.138,-0.011l0.138,-0.009l0.14,-0.007l0.141,-0.005l0.141,-0.003l0.143,-0.001l0.144,0.002l0.143,0.003l0.143,0.006l0.143,0.008l0.143,0.01l0.142,0.013l0.142,0.015l0.141,0.018l0.141,0.019l0.141,0.023l0.14,0.024l0.14,0.027l0.139,0.029l0.139,0.031l0.139,0.034l0.138,0.036l0.138,0.038l0.137,0.041l0.137,0.042l0.136,0.046l0.136,0.047l0.135,0.05l0.135,0.052l0.135,0.054l0.134,0.057l0.133,0.059l0.133,0.061l0.133,0.064l0.132,0.065l0.132,0.068l0.131,0.071l0.131,0.072l0.13,0.075l0.129,0.078l0.128,0.079l0.126,0.081l0.124,0.084l0.123,0.086l0.121,0.087l0.12,0.09l0.118,0.092l0.117,0.094l0.115,0.096l0.113,0.098l0.112,0.1l0.11,0.102l0.108,0.104l0.107,0.106l0.105,0.108l0.104,0.11l0.102,0.112l0.1,0.114l0.099,0.116l0.097,0.118l0.095,0.12l0.094,0.122l0.092,0.124l0.09,0.126l0.089,0.128l0.087,0.13l0.086,0.131l0.083,0.134l0.083,0.135l0.084,0.145l0.079,0.151l0.072,0.142l0.07,0.143l0.067,0.144l0.066,0.144l0.064,0.145l0.061,0.146l0.06,0.146l0.058,0.146l0.055,0.147l0.053,0.148l0.051,0.148l0.05,0.149l0.047,0.149l0.045,0.15l0.042,0.147l0.015,0.077l0.003,0.078l-0.008,0.078l-0.021,0.075l-0.032,0.071l-0.043,0.065l-0.053,0.058l-0.061,0.049l-0.068,0.039l-6.784,3.2l-0.075,0.028l-0.078,0.016l-0.08,0.003l-0.079,-0.009l-0.077,-0.022l-0.072,-0.034l-0.066,-0.045l-0.058,-0.055l-0.048,-0.064l-0.038,-0.07l-0.026,-0.076l-0.02,-0.075l-0.019,-0.071l-0.021,-0.07l-0.021,-0.069l-0.023,-0.068l-0.023,-0.067l-0.025,-0.067l-0.025,-0.065l-0.026,-0.064l-0.027,-0.064l-0.029,-0.063l-0.029,-0.061l-0.03,-0.061l-0.031,-0.06l-0.032,-0.06l-0.033,-0.058l-0.033,-0.058l-0.035,-0.056l-0.036,-0.056l-0.037,-0.055l-0.037,-0.055l-0.039,-0.053l-0.04,-0.053l-0.04,-0.052l-0.042,-0.051l-0.042,-0.051l-0.044,-0.049l-0.045,-0.049l-0.045,-0.049l-0.047,-0.047l-0.048,-0.047l-0.055,-0.052l-0.071,-0.07l-0.066,-0.061l-0.065,-0.059l-0.067,-0.057l-0.066,-0.054l-0.068,-0.052l-0.068,-0.051l-0.068,-0.048l-0.07,-0.046l-0.069,-0.044l-0.071,-0.042l-0.071,-0.04l-0.071,-0.037l-0.073,-0.036l-0.073,-0.034l-0.073,-0.032l-0.075,-0.03l-0.075,-0.028l-0.076,-0.027l-0.077,-0.024l-0.077,-0.022l-0.079,-0.021l-0.079,-0.018l-0.08,-0.017l-0.081,-0.014l-0.083,-0.013l-0.083,-0.011l-0.084,-0.009l-0.085,-0.007l-0.086,-0.005l-0.087,-0.003l-0.089,-0.001l-0.068,0.001l-0.067,0.001l-0.067,0.003l-0.067,0.004l-0.066,0.004l-0.065,0.006l-0.065,0.006l-0.064,0.008l-0.064,0.008l-0.063,0.01l-0.063,0.01l-0.061,0.011l-0.062,0.013l-0.061,0.013l-0.06,0.015l-0.06,0.015l-0.06,0.016l-0.059,0.017l-0.058,0.019l-0.058,0.019l-0.057,0.02l-0.057,0.021l-0.057,0.022l-0.056,0.023l-0.055,0.024l-0.056,0.025l-0.054,0.026l-0.055,0.027l-0.054,0.028l-0.053,0.029l-0.053,0.03l-0.06,0.035l-0.07,0.04l-0.063,0.038l-0.063,0.039l-0.062,0.04l-0.061,0.042l-0.062,0.043l-0.061,0.045l-0.061,0.047l-0.06,0.048l-0.061,0.05l-0.06,0.051l-0.059,0.053l-0.06,0.054l-0.059,0.056l-0.059,0.058l-0.058,0.06l-0.058,0.061l-0.058,0.062l-0.058,0.064l-0.057,0.066l-0.057,0.068l-0.057,0.069l-0.056,0.071l-0.056,0.073l-0.056,0.074l-0.055,0.076l-0.055,0.078l-0.054,0.079l-0.055,0.081l-0.054,0.083l-0.053,0.084l-0.049,0.081l-0.042,0.073l-0.044,0.081l-0.044,0.081l-0.042,0.082l-0.043,0.083l-0.041,0.085l-0.041,0.085l-0.04,0.085l-0.039,0.087l-0.039,0.088l-0.038,0.089l-0.038,0.09l-0.036,0.09l-0.037,0.092l-0.035,0.093l-0.035,0.093l-0.034,0.095l-0.033,0.095l-0.033,0.096l-0.031,0.097l-0.032,0.099l-0.03,0.099l-0.03,0.1l-0.029,0.101l-0.029,0.102l-0.027,0.103l-0.027,0.104l-0.027,0.105l-0.025,0.105l-0.025,0.107l-0.025,0.108l-0.023,0.108l-0.023,0.11l-0.022,0.11l-0.021,0.112l-0.021,0.112l-0.02,0.114l-0.019,0.114l-0.019,0.115l-0.018,0.116l-0.017,0.118l-0.016,0.118l-0.016,0.119l-0.015,0.12l-0.014,0.121l-0.014,0.122l-0.012,0.123l-0.012,0.123l-0.012,0.125l-0.01,0.126l-0.01,0.126l-0.009,0.128l-0.009,0.128l-0.007,0.13l-0.007,0.13l-0.007,0.132l-0.005,0.132l-0.005,0.133l-0.004,0.134l-0.003,0.136l-0.003,0.136l-0.002,0.137l-0.001,0.138l0,0.139l0,17.983l-0.006,0.079l-0.019,0.076l-0.03,0.072l-0.041,0.067l-0.051,0.06l-0.059,0.051l-0.067,0.041l-0.073,0.03l-0.076,0.018l-0.078,0.006l-7.232,0l-0.078,-0.006l-0.077,-0.018l-0.072,-0.03l-0.067,-0.041l-0.06,-0.051l-0.051,-0.06l-0.041,-0.067l-0.03,-0.072l-0.018,-0.076l-0.006,-0.079l0,-33.92l0.006,-0.078l0.018,-0.076l0.03,-0.073l0.041,-0.066l0.051,-0.06l0.06,-0.051l0.067,-0.041l0.072,-0.03l0.077,-0.018l0.078,-0.007l7.232,0l0.078,0.007l0.076,0.018Zm5.827,5.996l0.109,0.007l0.109,0.009l0.108,0.011l0.108,0.014l0.106,0.016l0.106,0.02l0.105,0.021l0.104,0.024l0.103,0.027l0.102,0.03l0.102,0.032l0.1,0.034l0.099,0.037l0.099,0.04l0.097,0.042l0.097,0.045l0.095,0.048l0.094,0.049l0.093,0.053l0.092,0.055l0.091,0.057l0.09,0.06l0.088,0.062l0.088,0.064l0.086,0.067l0.085,0.07l0.084,0.071l0.083,0.074l0.081,0.076l0.073,0.072l0.056,0.053l0.061,0.06l0.06,0.061l0.058,0.061l0.058,0.063l0.056,0.064l0.054,0.065l0.054,0.066l0.052,0.067l0.051,0.068l0.05,0.069l0.048,0.069l0.047,0.071l0.046,0.072l0.045,0.072l0.043,0.074l0.042,0.074l0.041,0.076l0.039,0.076l0.038,0.077l0.037,0.078l0.035,0.079l0.035,0.08l0.032,0.081l0.032,0.081l0.007,0.018l5.874,-2.771l-0.002,-0.008l-0.045,-0.135l-0.047,-0.136l-0.048,-0.135l-0.051,-0.134l-0.052,-0.134l-0.055,-0.133l-0.056,-0.133l-0.059,-0.133l-0.06,-0.132l-0.062,-0.132l-0.064,-0.131l-0.066,-0.131l-0.064,-0.123l-0.068,-0.117l-0.075,-0.122l-0.076,-0.121l-0.077,-0.119l-0.078,-0.116l-0.08,-0.115l-0.081,-0.113l-0.082,-0.111l-0.084,-0.109l-0.085,-0.107l-0.087,-0.106l-0.087,-0.103l-0.09,-0.102l-0.09,-0.099l-0.092,-0.098l-0.094,-0.096l-0.094,-0.094l-0.096,-0.092l-0.098,-0.09l-0.098,-0.089l-0.101,-0.086l-0.101,-0.085l-0.103,-0.083l-0.105,-0.081l-0.105,-0.079l-0.108,-0.078l-0.108,-0.076l-0.11,-0.073l-0.112,-0.073l-0.113,-0.07l-0.114,-0.068l-0.116,-0.067l-0.118,-0.065l-0.118,-0.064l-0.118,-0.061l-0.119,-0.059l-0.118,-0.057l-0.119,-0.054l-0.12,-0.053l-0.119,-0.05l-0.12,-0.049l-0.12,-0.046l-0.121,-0.045l-0.12,-0.042l-0.121,-0.04l-0.122,-0.038l-0.121,-0.036l-0.122,-0.034l-0.122,-0.032l-0.123,-0.029l-0.123,-0.028l-0.123,-0.026l-0.124,-0.023l-0.124,-0.022l-0.124,-0.019l-0.124,-0.018l-0.125,-0.015l-0.126,-0.014l-0.126,-0.011l-0.126,-0.009l-0.126,-0.007l-0.127,-0.005l-0.127,-0.003l-0.129,-0.002l-0.128,0.001l-0.127,0.003l-0.127,0.004l-0.125,0.007l-0.124,0.008l-0.123,0.009l-0.122,0.012l-0.121,0.013l-0.12,0.015l-0.119,0.017l-0.117,0.018l-0.117,0.02l-0.116,0.022l-0.114,0.024l-0.114,0.025l-0.112,0.028l-0.111,0.028l-0.111,0.031l-0.109,0.032l-0.108,0.034l-0.108,0.036l-0.106,0.037l-0.105,0.04l-0.105,0.04l-0.103,0.043l-0.103,0.044l-0.101,0.046l-0.101,0.048l-0.099,0.05l-0.099,0.051l-0.098,0.053l-0.098,0.056l-0.122,0.07l-0.118,0.071l-0.116,0.073l-0.116,0.076l-0.115,0.079l-0.114,0.082l-0.113,0.084l-0.112,0.087l-0.111,0.089l-0.111,0.093l-0.109,0.094l-0.108,0.098l-0.108,0.1l-0.106,0.103l-0.106,0.106l-0.104,0.109l-0.104,0.111l-0.103,0.114l-0.102,0.116l-0.101,0.12l-0.1,0.122l-0.099,0.125l-0.098,0.128l-0.097,0.131l-0.096,0.133l-0.095,0.136l-0.094,0.139l-0.094,0.142l-0.092,0.145l-0.091,0.147l-0.09,0.151l-0.093,0.159l-0.064,0.106l-0.06,0.1l-0.058,0.102l-0.057,0.104l-0.057,0.105l-0.055,0.107l-0.055,0.108l-0.054,0.11l-0.053,0.111l-0.052,0.113l-0.051,0.115l-0.05,0.116l-0.05,0.117l-0.048,0.119l-0.047,0.121l-0.048,0.125l-0.035,0.073l-0.047,0.067l-0.057,0.059l-0.066,0.048l-0.072,0.037l-0.078,0.025l-0.081,0.011l-0.081,-0.001l-0.081,-0.015l-0.076,-0.027l-0.072,-0.04l-0.063,-0.051l-0.055,-0.061l-0.044,-0.068l-0.033,-0.075l-0.02,-0.079l-0.006,-0.082l0,-5.516l-6.232,0l0,32.92l6.232,0l0,-17.484l0,-0.144l0.001,-0.143l0.002,-0.143l0.003,-0.141l0.003,-0.141l0.005,-0.14l0.005,-0.139l0.005,-0.138l0.007,-0.137l0.007,-0.136l0.008,-0.136l0.009,-0.135l0.01,-0.133l0.01,-0.133l0.011,-0.132l0.012,-0.131l0.013,-0.131l0.013,-0.129l0.014,-0.129l0.015,-0.127l0.016,-0.127l0.017,-0.126l0.017,-0.125l0.018,-0.125l0.019,-0.123l0.02,-0.122l0.02,-0.122l0.022,-0.121l0.022,-0.12l0.023,-0.119l0.023,-0.118l0.025,-0.117l0.025,-0.117l0.026,-0.116l0.027,-0.114l0.027,-0.114l0.029,-0.113l0.029,-0.112l0.03,-0.112l0.031,-0.11l0.031,-0.11l0.033,-0.108l0.033,-0.108l0.034,-0.107l0.035,-0.106l0.035,-0.105l0.037,-0.105l0.037,-0.103l0.038,-0.103l0.039,-0.102l0.04,-0.1l0.04,-0.1l0.042,-0.1l0.042,-0.098l0.043,-0.097l0.044,-0.097l0.044,-0.095l0.046,-0.095l0.046,-0.094l0.047,-0.093l0.048,-0.092l0.049,-0.091l0.049,-0.09l0.054,-0.096l0.063,-0.102l0.06,-0.095l0.061,-0.093l0.061,-0.091l0.062,-0.09l0.063,-0.089l0.063,-0.087l0.064,-0.085l0.064,-0.084l0.065,-0.082l0.066,-0.081l0.067,-0.079l0.067,-0.077l0.068,-0.076l0.069,-0.074l0.069,-0.073l0.07,-0.071l0.071,-0.069l0.071,-0.068l0.072,-0.066l0.073,-0.064l0.073,-0.063l0.074,-0.061l0.075,-0.06l0.076,-0.058l0.076,-0.056l0.077,-0.054l0.078,-0.053l0.079,-0.051l0.079,-0.049l0.079,-0.048l0.073,-0.041l0.061,-0.036l0.069,-0.039l0.069,-0.037l0.069,-0.036l0.07,-0.035l0.071,-0.034l0.072,-0.032l0.071,-0.031l0.073,-0.03l0.073,-0.029l0.073,-0.027l0.074,-0.026l0.075,-0.025l0.075,-0.023l0.076,-0.022l0.076,-0.021l0.076,-0.019l0.078,-0.019l0.077,-0.017l0.078,-0.015l0.079,-0.015l0.078,-0.013l0.08,-0.012l0.08,-0.011l0.08,-0.009l0.081,-0.008l0.081,-0.007l0.081,-0.006l0.082,-0.004l0.083,-0.003l0.083,-0.002l0.084,-0.001l0.11,0.002l0.11,0.003Z" style="fill:#d4d7de;"/><path d="M331.402,142.501l0.084,0.023l0.079,0.036l0.071,0.05l0.062,0.062l0.05,0.071l0.037,0.079l0.022,0.085l0.008,0.086l0,12.62l8.588,0l0.087,0.008l0.084,0.023l0.079,0.036l0.071,0.05l0.062,0.062l0.05,0.071l0.037,0.079l0.022,0.085l0.008,0.086l0,6.528l-0.008,0.087l-0.022,0.084l-0.037,0.079l-0.05,0.072l-0.062,0.061l-0.071,0.05l-0.079,0.037l-0.084,0.023l-0.087,0.007l-8.588,0l0,13.52l-0.003,0.211l0,0.202l0.002,0.199l0.005,0.197l0.007,0.193l0.009,0.191l0.012,0.188l0.014,0.186l0.017,0.182l0.019,0.18l0.021,0.177l0.024,0.174l0.026,0.172l0.028,0.168l0.031,0.166l0.033,0.164l0.017,0.079l0.018,0.08l0.019,0.079l0.019,0.078l0.02,0.078l0.02,0.077l0.021,0.076l0.021,0.076l0.022,0.075l0.023,0.074l0.023,0.073l0.024,0.073l0.024,0.072l0.025,0.072l0.025,0.07l0.026,0.071l0.026,0.069l0.027,0.069l0.028,0.068l0.028,0.067l0.029,0.067l0.029,0.065l0.03,0.066l0.03,0.064l0.031,0.064l0.031,0.064l0.033,0.062l0.032,0.062l0.033,0.061l0.034,0.061l0.034,0.06l0.038,0.064l0.035,0.063l0.034,0.056l0.033,0.055l0.035,0.054l0.034,0.054l0.035,0.052l0.036,0.051l0.036,0.05l0.037,0.049l0.037,0.048l0.037,0.047l0.038,0.047l0.039,0.045l0.039,0.044l0.039,0.043l0.04,0.042l0.04,0.042l0.041,0.04l0.041,0.04l0.042,0.038l0.042,0.038l0.043,0.036l0.043,0.036l0.043,0.035l0.045,0.034l0.044,0.033l0.045,0.032l0.046,0.032l0.046,0.03l0.047,0.03l0.047,0.028l0.052,0.031l0.037,0.021l0.032,0.019l0.033,0.017l0.033,0.017l0.034,0.017l0.034,0.016l0.035,0.015l0.035,0.015l0.036,0.014l0.036,0.014l0.036,0.013l0.038,0.012l0.038,0.012l0.038,0.011l0.039,0.011l0.039,0.01l0.04,0.01l0.041,0.009l0.041,0.008l0.041,0.008l0.043,0.008l0.042,0.006l0.044,0.006l0.044,0.006l0.045,0.005l0.045,0.004l0.046,0.003l0.046,0.003l0.048,0.002l0.047,0.002l0.049,0.001l0.049,0l0.049,0l0.048,-0.001l0.049,-0.002l0.047,-0.002l0.048,-0.003l0.046,-0.003l0.047,-0.005l0.045,-0.004l0.046,-0.006l0.045,-0.006l0.045,-0.007l0.044,-0.007l0.043,-0.008l0.044,-0.009l0.043,-0.009l0.042,-0.01l0.042,-0.01l0.042,-0.011l0.041,-0.012l0.041,-0.012l0.041,-0.013l0.04,-0.014l0.039,-0.014l0.04,-0.014l0.039,-0.016l0.039,-0.016l0.038,-0.016l0.038,-0.018l0.038,-0.017l0.038,-0.019l0.037,-0.019l0.031,-0.017l0.044,-0.025l0.046,-0.029l0.046,-0.029l0.046,-0.031l0.046,-0.032l0.045,-0.033l0.045,-0.034l0.045,-0.036l0.044,-0.036l0.044,-0.038l0.044,-0.039l0.043,-0.04l0.044,-0.041l0.042,-0.043l0.043,-0.044l0.042,-0.045l0.042,-0.046l0.042,-0.048l0.042,-0.048l0.041,-0.051l0.04,-0.051l0.041,-0.053l0.04,-0.054l0.04,-0.055l0.04,-0.057l0.039,-0.057l0.039,-0.06l0.038,-0.06l0.038,-0.062l0.038,-0.063l0.038,-0.065l0.039,-0.069l0.054,-0.095l0.05,-0.091l0.049,-0.092l0.047,-0.093l0.046,-0.095l0.045,-0.097l0.044,-0.097l0.043,-0.099l0.041,-0.101l0.04,-0.102l0.039,-0.103l0.038,-0.105l0.036,-0.106l0.036,-0.108l0.034,-0.109l0.032,-0.111l0.032,-0.112l0.03,-0.114l0.029,-0.115l0.028,-0.116l0.026,-0.118l0.025,-0.119l0.024,-0.121l0.023,-0.122l0.021,-0.124l0.02,-0.125l0.019,-0.127l0.017,-0.128l0.016,-0.13l0.015,-0.131l0.013,-0.132l0.013,-0.137l0.018,-0.095l0.036,-0.09l0.053,-0.081l0.068,-0.07l0.079,-0.055l0.089,-0.039l0.095,-0.021l0.097,-0.002l0.095,0.016l6.976,1.92l0.086,0.033l0.078,0.047l0.068,0.06l0.056,0.072l0.043,0.081l0.026,0.087l0.011,0.091l-0.007,0.091l-0.029,0.182l-0.031,0.183l-0.034,0.182l-0.035,0.181l-0.037,0.179l-0.039,0.178l-0.04,0.177l-0.043,0.175l-0.044,0.174l-0.046,0.173l-0.048,0.171l-0.05,0.17l-0.052,0.169l-0.053,0.167l-0.056,0.166l-0.057,0.165l-0.059,0.163l-0.061,0.162l-0.063,0.16l-0.064,0.159l-0.066,0.158l-0.069,0.157l-0.07,0.155l-0.072,0.153l-0.074,0.153l-0.075,0.151l-0.078,0.149l-0.079,0.148l-0.081,0.147l-0.083,0.146l-0.085,0.144l-0.081,0.133l-0.092,0.16l-0.098,0.167l-0.101,0.165l-0.102,0.162l-0.105,0.159l-0.106,0.157l-0.108,0.155l-0.111,0.152l-0.112,0.15l-0.114,0.147l-0.116,0.145l-0.119,0.143l-0.12,0.139l-0.122,0.138l-0.124,0.135l-0.125,0.131l-0.065,0.067l-0.064,0.064l-0.065,0.064l-0.065,0.064l-0.066,0.062l-0.066,0.063l-0.066,0.061l-0.067,0.061l-0.068,0.06l-0.068,0.06l-0.069,0.059l-0.069,0.058l-0.069,0.058l-0.07,0.057l-0.071,0.056l-0.071,0.056l-0.072,0.055l-0.071,0.055l-0.073,0.054l-0.073,0.053l-0.073,0.052l-0.074,0.052l-0.074,0.052l-0.075,0.05l-0.075,0.05l-0.076,0.05l-0.076,0.048l-0.077,0.048l-0.077,0.048l-0.078,0.047l-0.078,0.046l-0.078,0.045l-0.08,0.045l-0.079,0.044l-0.08,0.044l-0.08,0.042l-0.08,0.042l-0.081,0.042l-0.082,0.04l-0.081,0.04l-0.082,0.039l-0.083,0.039l-0.082,0.038l-0.084,0.037l-0.083,0.036l-0.084,0.036l-0.084,0.035l-0.085,0.034l-0.085,0.033l-0.085,0.033l-0.086,0.032l-0.086,0.032l-0.086,0.03l-0.087,0.03l-0.087,0.029l-0.089,0.029l-0.175,0.055l-0.177,0.052l-0.179,0.049l-0.181,0.047l-0.181,0.043l-0.184,0.041l-0.184,0.038l-0.186,0.035l-0.187,0.032l-0.189,0.03l-0.19,0.026l-0.191,0.024l-0.193,0.021l-0.194,0.018l-0.196,0.016l-0.196,0.012l-0.199,0.01l-0.199,0.007l-0.201,0.004l-0.202,0.001l-0.206,-0.001l-0.205,-0.004l-0.203,-0.007l-0.201,-0.01l-0.2,-0.012l-0.198,-0.016l-0.197,-0.018l-0.195,-0.021l-0.194,-0.024l-0.192,-0.026l-0.191,-0.03l-0.189,-0.032l-0.188,-0.035l-0.186,-0.038l-0.184,-0.041l-0.182,-0.043l-0.092,-0.023l-0.091,-0.024l-0.09,-0.024l-0.089,-0.025l-0.09,-0.026l-0.088,-0.026l-0.089,-0.027l-0.088,-0.028l-0.088,-0.029l-0.087,-0.029l-0.087,-0.03l-0.086,-0.03l-0.086,-0.032l-0.086,-0.032l-0.085,-0.033l-0.085,-0.033l-0.085,-0.035l-0.084,-0.035l-0.083,-0.035l-0.083,-0.037l-0.083,-0.037l-0.083,-0.038l-0.082,-0.038l-0.081,-0.04l-0.081,-0.04l-0.081,-0.04l-0.08,-0.042l-0.08,-0.042l-0.08,-0.042l-0.079,-0.044l-0.078,-0.044l-0.079,-0.046l-0.154,-0.091l-0.152,-0.093l-0.151,-0.097l-0.149,-0.098l-0.148,-0.101l-0.146,-0.104l-0.144,-0.106l-0.142,-0.108l-0.141,-0.111l-0.139,-0.113l-0.137,-0.116l-0.136,-0.118l-0.133,-0.12l-0.132,-0.123l-0.131,-0.125l-0.128,-0.127l-0.127,-0.13l-0.125,-0.133l-0.123,-0.134l-0.122,-0.137l-0.12,-0.139l-0.118,-0.142l-0.116,-0.144l-0.114,-0.146l-0.113,-0.149l-0.111,-0.151l-0.109,-0.153l-0.108,-0.156l-0.105,-0.158l-0.104,-0.16l-0.103,-0.162l-0.102,-0.169l-0.067,-0.117l-0.063,-0.114l-0.062,-0.114l-0.061,-0.115l-0.06,-0.117l-0.058,-0.116l-0.058,-0.118l-0.057,-0.118l-0.056,-0.12l-0.055,-0.12l-0.053,-0.121l-0.053,-0.121l-0.052,-0.123l-0.051,-0.123l-0.049,-0.124l-0.049,-0.125l-0.048,-0.126l-0.046,-0.126l-0.046,-0.128l-0.044,-0.128l-0.044,-0.129l-0.043,-0.129l-0.041,-0.131l-0.041,-0.131l-0.039,-0.132l-0.039,-0.133l-0.037,-0.134l-0.037,-0.134l-0.035,-0.135l-0.034,-0.136l-0.034,-0.137l-0.032,-0.138l-0.032,-0.138l-0.03,-0.139l-0.03,-0.14l-0.028,-0.141l-0.027,-0.142l-0.027,-0.142l-0.025,-0.143l-0.025,-0.144l-0.023,-0.145l-0.022,-0.145l-0.022,-0.146l-0.02,-0.147l-0.019,-0.148l-0.019,-0.149l-0.017,-0.149l-0.016,-0.15l-0.016,-0.151l-0.014,-0.152l-0.014,-0.152l-0.012,-0.153l-0.011,-0.155l-0.011,-0.154l-0.009,-0.156l-0.009,-0.156l-0.007,-0.157l-0.006,-0.158l-0.006,-0.159l-0.004,-0.16l-0.004,-0.16l-0.002,-0.161l-0.002,-0.162l0,-0.162l0,-13.517l-5.516,0l-0.087,-0.007l-0.084,-0.023l-0.079,-0.037l-0.072,-0.05l-0.061,-0.061l-0.05,-0.072l-0.037,-0.079l-0.023,-0.084l-0.007,-0.087l0,-6.528l0.007,-0.086l0.023,-0.085l0.037,-0.079l0.05,-0.071l0.061,-0.062l0.072,-0.05l0.079,-0.036l0.084,-0.023l0.087,-0.008l5.516,0l0,-12.62l0.007,-0.086l0.023,-0.085l0.037,-0.079l0.05,-0.071l0.061,-0.062l0.072,-0.05l0.079,-0.036l0.084,-0.023l0.087,-0.008l7.296,0l0.087,0.008Zm-6.883,0.992l0,12.62l-0.008,0.087l-0.022,0.084l-0.037,0.079l-0.05,0.072l-0.062,0.061l-0.071,0.05l-0.079,0.037l-0.084,0.023l-0.087,0.007l-5.516,0l0,5.528l5.516,0l0.087,0.008l0.084,0.023l0.079,0.036l0.071,0.05l0.062,0.062l0.05,0.071l0.037,0.079l0.022,0.085l0.008,0.086l0,14.016l0,0.157l0.002,0.156l0.002,0.155l0.003,0.154l0.005,0.153l0.005,0.152l0.006,0.152l0.007,0.15l0.008,0.15l0.009,0.149l0.01,0.148l0.011,0.147l0.012,0.147l0.013,0.145l0.013,0.145l0.015,0.144l0.016,0.143l0.016,0.142l0.018,0.142l0.018,0.14l0.019,0.14l0.021,0.139l0.021,0.138l0.022,0.137l0.023,0.136l0.024,0.136l0.025,0.134l0.026,0.134l0.027,0.133l0.028,0.132l0.028,0.131l0.03,0.131l0.03,0.129l0.032,0.129l0.032,0.128l0.034,0.127l0.034,0.126l0.035,0.126l0.036,0.124l0.037,0.124l0.038,0.123l0.039,0.122l0.04,0.121l0.04,0.121l0.042,0.119l0.043,0.119l0.043,0.118l0.045,0.117l0.045,0.116l0.046,0.116l0.047,0.114l0.048,0.114l0.049,0.113l0.05,0.112l0.051,0.112l0.052,0.11l0.052,0.11l0.054,0.109l0.054,0.108l0.056,0.107l0.056,0.107l0.057,0.106l0.058,0.104l0.057,0.1l0.091,0.149l0.094,0.151l0.097,0.148l0.097,0.146l0.099,0.143l0.101,0.142l0.102,0.139l0.104,0.136l0.105,0.135l0.107,0.132l0.108,0.13l0.109,0.127l0.111,0.125l0.113,0.123l0.114,0.121l0.116,0.118l0.117,0.117l0.118,0.113l0.121,0.112l0.121,0.11l0.123,0.107l0.125,0.105l0.126,0.103l0.128,0.1l0.129,0.098l0.131,0.096l0.132,0.094l0.134,0.092l0.135,0.09l0.137,0.087l0.139,0.085l0.141,0.084l0.069,0.04l0.071,0.039l0.071,0.039l0.071,0.039l0.072,0.038l0.072,0.037l0.073,0.036l0.073,0.036l0.073,0.036l0.074,0.034l0.074,0.034l0.075,0.034l0.074,0.033l0.076,0.032l0.076,0.031l0.076,0.031l0.076,0.031l0.077,0.029l0.078,0.029l0.077,0.029l0.079,0.027l0.078,0.028l0.079,0.026l0.08,0.026l0.079,0.025l0.081,0.025l0.08,0.024l0.081,0.023l0.082,0.023l0.082,0.022l0.082,0.021l0.082,0.021l0.168,0.04l0.168,0.037l0.17,0.035l0.172,0.032l0.173,0.029l0.175,0.027l0.177,0.025l0.179,0.022l0.18,0.019l0.182,0.017l0.184,0.014l0.186,0.012l0.187,0.009l0.189,0.006l0.19,0.004l0.193,0.001l0.188,-0.001l0.187,-0.004l0.185,-0.006l0.184,-0.009l0.182,-0.012l0.181,-0.014l0.179,-0.017l0.178,-0.019l0.176,-0.022l0.175,-0.025l0.173,-0.027l0.172,-0.029l0.17,-0.032l0.168,-0.035l0.167,-0.037l0.166,-0.04l0.164,-0.042l0.163,-0.045l0.161,-0.047l0.161,-0.05l0.079,-0.026l0.079,-0.026l0.078,-0.028l0.079,-0.027l0.078,-0.029l0.077,-0.029l0.077,-0.03l0.077,-0.03l0.077,-0.031l0.076,-0.031l0.076,-0.033l0.075,-0.032l0.075,-0.034l0.075,-0.034l0.075,-0.035l0.074,-0.035l0.073,-0.036l0.074,-0.037l0.073,-0.037l0.073,-0.038l0.072,-0.039l0.072,-0.039l0.072,-0.04l0.071,-0.04l0.071,-0.041l0.071,-0.042l0.07,-0.042l0.069,-0.043l0.07,-0.044l0.068,-0.044l0.069,-0.044l0.068,-0.045l0.067,-0.046l0.067,-0.046l0.067,-0.047l0.066,-0.048l0.066,-0.048l0.065,-0.048l0.065,-0.049l0.065,-0.05l0.064,-0.05l0.063,-0.051l0.063,-0.052l0.063,-0.052l0.063,-0.053l0.062,-0.053l0.061,-0.054l0.061,-0.054l0.061,-0.055l0.06,-0.056l0.06,-0.056l0.059,-0.056l0.059,-0.058l0.059,-0.058l0.058,-0.058l0.057,-0.059l0.115,-0.12l0.112,-0.123l0.111,-0.124l0.109,-0.128l0.108,-0.129l0.106,-0.132l0.104,-0.134l0.102,-0.137l0.101,-0.139l0.099,-0.142l0.098,-0.144l0.096,-0.147l0.094,-0.149l0.093,-0.151l0.091,-0.154l0.094,-0.165l0.085,-0.14l0.078,-0.132l0.076,-0.134l0.075,-0.135l0.073,-0.136l0.071,-0.137l0.069,-0.139l0.068,-0.141l0.067,-0.141l0.064,-0.143l0.063,-0.145l0.062,-0.145l0.059,-0.148l0.058,-0.148l0.057,-0.15l0.054,-0.152l0.054,-0.152l0.051,-0.155l0.05,-0.155l0.048,-0.157l0.046,-0.158l0.045,-0.16l0.043,-0.162l0.042,-0.162l0.039,-0.164l0.038,-0.166l0.037,-0.167l0.035,-0.168l0.033,-0.17l0.014,-0.078l-5.974,-1.645l-0.015,0.115l-0.021,0.139l-0.022,0.137l-0.023,0.135l-0.025,0.135l-0.026,0.133l-0.028,0.131l-0.029,0.131l-0.031,0.129l-0.032,0.128l-0.034,0.127l-0.035,0.125l-0.036,0.124l-0.039,0.123l-0.039,0.121l-0.041,0.12l-0.043,0.119l-0.044,0.117l-0.046,0.116l-0.047,0.115l-0.049,0.114l-0.05,0.112l-0.052,0.111l-0.054,0.109l-0.054,0.108l-0.057,0.107l-0.058,0.105l-0.056,0.099l-0.042,0.073l-0.044,0.076l-0.044,0.075l-0.046,0.073l-0.046,0.072l-0.046,0.071l-0.047,0.07l-0.049,0.069l-0.048,0.067l-0.049,0.067l-0.05,0.065l-0.051,0.064l-0.052,0.062l-0.052,0.062l-0.052,0.06l-0.054,0.059l-0.054,0.057l-0.055,0.057l-0.055,0.055l-0.057,0.054l-0.057,0.052l-0.057,0.052l-0.059,0.05l-0.059,0.048l-0.06,0.048l-0.06,0.046l-0.062,0.045l-0.062,0.043l-0.062,0.042l-0.064,0.041l-0.063,0.039l-0.069,0.04l-0.056,0.03l-0.052,0.027l-0.053,0.026l-0.053,0.024l-0.053,0.025l-0.054,0.023l-0.054,0.022l-0.054,0.021l-0.055,0.021l-0.056,0.02l-0.055,0.018l-0.057,0.018l-0.056,0.017l-0.057,0.016l-0.057,0.015l-0.058,0.015l-0.057,0.013l-0.059,0.013l-0.058,0.011l-0.059,0.011l-0.059,0.01l-0.06,0.009l-0.06,0.008l-0.06,0.007l-0.06,0.007l-0.061,0.005l-0.061,0.005l-0.062,0.004l-0.061,0.003l-0.062,0.002l-0.063,0.001l-0.062,0l-0.063,0l-0.062,-0.001l-0.062,-0.002l-0.061,-0.003l-0.061,-0.004l-0.06,-0.005l-0.061,-0.005l-0.06,-0.007l-0.059,-0.007l-0.059,-0.008l-0.059,-0.009l-0.058,-0.01l-0.058,-0.011l-0.057,-0.012l-0.057,-0.013l-0.056,-0.013l-0.057,-0.015l-0.055,-0.015l-0.056,-0.017l-0.054,-0.017l-0.054,-0.018l-0.054,-0.02l-0.054,-0.02l-0.053,-0.021l-0.052,-0.022l-0.052,-0.023l-0.051,-0.024l-0.051,-0.024l-0.05,-0.026l-0.05,-0.027l-0.049,-0.027l-0.044,-0.026l-0.059,-0.035l-0.063,-0.038l-0.062,-0.039l-0.061,-0.041l-0.061,-0.041l-0.06,-0.043l-0.059,-0.044l-0.059,-0.045l-0.058,-0.046l-0.056,-0.047l-0.057,-0.049l-0.055,-0.049l-0.055,-0.051l-0.054,-0.051l-0.053,-0.053l-0.052,-0.054l-0.052,-0.054l-0.051,-0.056l-0.049,-0.057l-0.05,-0.058l-0.048,-0.059l-0.048,-0.059l-0.047,-0.061l-0.046,-0.062l-0.045,-0.063l-0.044,-0.064l-0.044,-0.065l-0.043,-0.066l-0.042,-0.066l-0.042,-0.068l-0.04,-0.069l-0.037,-0.064l-0.038,-0.065l-0.04,-0.07l-0.039,-0.07l-0.038,-0.072l-0.038,-0.072l-0.037,-0.072l-0.037,-0.074l-0.036,-0.073l-0.035,-0.075l-0.034,-0.075l-0.034,-0.076l-0.032,-0.076l-0.033,-0.078l-0.031,-0.077l-0.031,-0.079l-0.03,-0.079l-0.03,-0.079l-0.028,-0.08l-0.029,-0.081l-0.027,-0.082l-0.027,-0.082l-0.026,-0.083l-0.025,-0.083l-0.025,-0.084l-0.024,-0.085l-0.023,-0.085l-0.022,-0.086l-0.022,-0.086l-0.022,-0.087l-0.02,-0.088l-0.02,-0.088l-0.02,-0.09l-0.036,-0.179l-0.034,-0.182l-0.031,-0.184l-0.028,-0.187l-0.026,-0.19l-0.023,-0.192l-0.021,-0.194l-0.017,-0.197l-0.016,-0.199l-0.012,-0.202l-0.011,-0.204l-0.007,-0.207l-0.005,-0.209l-0.002,-0.211l0,-0.214l0.003,-0.211l0,-14.013l0.007,-0.086l0.023,-0.085l0.037,-0.079l0.05,-0.071l0.061,-0.062l0.072,-0.05l0.079,-0.036l0.084,-0.023l0.087,-0.008l8.588,0l0,-5.528l-8.588,0l-0.087,-0.007l-0.084,-0.023l-0.079,-0.037l-0.072,-0.05l-0.061,-0.061l-0.05,-0.072l-0.037,-0.079l-0.023,-0.084l-0.007,-0.087l0,-12.62l-6.296,0Z" style="fill:#d4d7de;"/><path d="M363.211,155.102l0.152,0.001l0.151,0.002l0.15,0.004l0.149,0.004l0.149,0.005l0.147,0.005l0.147,0.007l0.146,0.008l0.145,0.008l0.145,0.01l0.143,0.01l0.143,0.011l0.142,0.012l0.141,0.013l0.141,0.014l0.139,0.015l0.139,0.016l0.138,0.016l0.137,0.018l0.137,0.018l0.135,0.019l0.135,0.021l0.134,0.021l0.133,0.022l0.132,0.023l0.132,0.024l0.13,0.025l0.13,0.025l0.129,0.027l0.128,0.027l0.128,0.029l0.126,0.029l0.126,0.031l0.125,0.031l0.124,0.032l0.124,0.033l0.122,0.034l0.122,0.035l0.121,0.036l0.12,0.036l0.119,0.038l0.119,0.039l0.117,0.039l0.117,0.041l0.116,0.041l0.116,0.042l0.114,0.044l0.113,0.044l0.113,0.045l0.112,0.046l0.111,0.047l0.11,0.048l0.11,0.049l0.108,0.049l0.108,0.051l0.107,0.052l0.106,0.052l0.105,0.054l0.105,0.054l0.103,0.056l0.103,0.056l0.102,0.057l0.098,0.057l0.086,0.05l0.086,0.05l0.086,0.052l0.086,0.052l0.084,0.052l0.085,0.053l0.083,0.054l0.083,0.054l0.082,0.055l0.082,0.055l0.081,0.056l0.081,0.056l0.08,0.057l0.079,0.058l0.079,0.058l0.078,0.059l0.077,0.059l0.077,0.06l0.077,0.061l0.075,0.061l0.076,0.061l0.074,0.062l0.074,0.063l0.073,0.063l0.073,0.064l0.072,0.065l0.071,0.065l0.071,0.065l0.07,0.066l0.07,0.067l0.069,0.067l0.068,0.068l0.068,0.068l0.067,0.069l0.067,0.07l0.066,0.07l0.065,0.07l0.065,0.071l0.064,0.072l0.063,0.072l0.063,0.073l0.062,0.073l0.061,0.074l0.061,0.075l0.061,0.075l0.059,0.075l0.059,0.077l0.059,0.076l0.058,0.077l0.057,0.078l0.056,0.078l0.056,0.079l0.055,0.08l0.055,0.08l0.054,0.08l0.053,0.081l0.053,0.082l0.052,0.082l0.052,0.083l0.051,0.083l0.05,0.083l0.05,0.085l0.049,0.085l0.046,0.081l0.056,0.097l0.057,0.101l0.056,0.102l0.054,0.102l0.054,0.103l0.053,0.103l0.052,0.104l0.051,0.104l0.049,0.105l0.049,0.105l0.047,0.106l0.047,0.106l0.045,0.107l0.045,0.108l0.043,0.108l0.042,0.106l0.023,0.076l0.01,0.079l-0.002,0.08l-0.015,0.078l-0.027,0.075l-0.038,0.07l-0.05,0.062l-0.058,0.054l-0.067,0.045l-0.072,0.033l-6.72,2.432l-0.08,0.021l-0.083,0.008l-0.083,-0.005l-0.08,-0.02l-0.077,-0.032l-0.07,-0.044l-0.061,-0.056l-0.052,-0.065l-0.04,-0.072l-0.055,-0.123l-0.055,-0.114l-0.056,-0.113l-0.058,-0.109l-0.059,-0.107l-0.062,-0.106l-0.031,-0.05l-0.032,-0.051l-0.032,-0.05l-0.032,-0.049l-0.033,-0.049l-0.034,-0.048l-0.033,-0.048l-0.035,-0.047l-0.034,-0.046l-0.035,-0.046l-0.036,-0.045l-0.036,-0.044l-0.036,-0.044l-0.037,-0.044l-0.037,-0.042l-0.037,-0.042l-0.038,-0.042l-0.039,-0.041l-0.039,-0.04l-0.039,-0.04l-0.049,-0.048l-0.05,-0.048l-0.05,-0.047l-0.051,-0.046l-0.052,-0.046l-0.053,-0.044l-0.053,-0.044l-0.053,-0.043l-0.055,-0.043l-0.055,-0.041l-0.056,-0.041l-0.056,-0.04l-0.057,-0.04l-0.058,-0.038l-0.058,-0.038l-0.059,-0.037l-0.06,-0.037l-0.06,-0.035l-0.062,-0.035l-0.062,-0.034l-0.062,-0.034l-0.063,-0.033l-0.064,-0.031l-0.065,-0.032l-0.066,-0.03l-0.066,-0.03l-0.067,-0.029l-0.068,-0.028l-0.068,-0.028l-0.069,-0.026l-0.07,-0.026l-0.071,-0.026l-0.071,-0.024l-0.072,-0.024l-0.073,-0.023l-0.074,-0.022l-0.074,-0.022l-0.075,-0.021l-0.076,-0.02l-0.077,-0.019l-0.078,-0.018l-0.078,-0.018l-0.079,-0.017l-0.08,-0.016l-0.08,-0.016l-0.082,-0.014l-0.082,-0.014l-0.083,-0.013l-0.083,-0.013l-0.085,-0.011l-0.085,-0.011l-0.086,-0.01l-0.087,-0.009l-0.087,-0.008l-0.089,-0.008l-0.089,-0.007l-0.09,-0.006l-0.091,-0.005l-0.091,-0.004l-0.092,-0.004l-0.093,-0.003l-0.094,-0.002l-0.095,-0.001l-0.095,-0.001l-0.106,0.001l-0.105,0.001l-0.104,0.002l-0.103,0.002l-0.102,0.004l-0.101,0.003l-0.099,0.005l-0.099,0.006l-0.097,0.006l-0.097,0.007l-0.095,0.007l-0.094,0.008l-0.094,0.009l-0.092,0.01l-0.091,0.01l-0.09,0.011l-0.089,0.012l-0.088,0.013l-0.086,0.013l-0.086,0.014l-0.085,0.014l-0.083,0.015l-0.082,0.016l-0.082,0.017l-0.08,0.017l-0.079,0.018l-0.078,0.019l-0.077,0.019l-0.076,0.02l-0.075,0.02l-0.073,0.021l-0.073,0.022l-0.072,0.023l-0.07,0.023l-0.07,0.024l-0.068,0.024l-0.067,0.025l-0.066,0.026l-0.065,0.026l-0.064,0.027l-0.063,0.028l-0.062,0.028l-0.061,0.028l-0.06,0.03l-0.058,0.03l-0.058,0.03l-0.057,0.031l-0.055,0.032l-0.055,0.032l-0.053,0.033l-0.053,0.033l-0.051,0.034l-0.051,0.035l-0.049,0.035l-0.049,0.036l-0.047,0.036l-0.047,0.037l-0.045,0.037l-0.045,0.039l-0.044,0.038l-0.042,0.039l-0.042,0.04l-0.041,0.04l-0.044,0.045l-0.043,0.044l-0.038,0.041l-0.037,0.042l-0.036,0.042l-0.035,0.042l-0.033,0.043l-0.032,0.043l-0.031,0.044l-0.029,0.045l-0.029,0.045l-0.027,0.045l-0.027,0.046l-0.025,0.047l-0.024,0.047l-0.023,0.049l-0.021,0.048l-0.021,0.05l-0.02,0.05l-0.018,0.051l-0.018,0.051l-0.016,0.053l-0.015,0.053l-0.015,0.054l-0.013,0.054l-0.012,0.056l-0.01,0.056l-0.01,0.058l-0.009,0.058l-0.007,0.059l-0.007,0.06l-0.005,0.06l-0.002,0.029l0.006,0.059l0.01,0.091l0.012,0.09l0.015,0.091l0.017,0.089l0.019,0.089l0.022,0.089l0.023,0.089l0.026,0.088l0.028,0.087l0.03,0.088l0.033,0.087l0.035,0.086l0.037,0.087l0.039,0.086l0.034,0.069l0.022,0.036l0.033,0.052l0.033,0.051l0.035,0.051l0.035,0.05l0.036,0.049l0.037,0.048l0.037,0.048l0.038,0.047l0.039,0.047l0.04,0.045l0.04,0.046l0.042,0.044l0.042,0.044l0.042,0.043l0.044,0.043l0.044,0.042l0.046,0.041l0.046,0.041l0.047,0.04l0.047,0.039l0.049,0.039l0.049,0.038l0.05,0.038l0.051,0.037l0.052,0.036l0.053,0.036l0.054,0.035l0.054,0.035l0.056,0.034l0.056,0.033l0.06,0.034l0.084,0.048l0.082,0.045l0.088,0.043l0.092,0.044l0.097,0.043l0.101,0.042l0.106,0.042l0.111,0.041l0.116,0.041l0.121,0.039l0.125,0.04l0.129,0.038l0.134,0.038l0.139,0.036l0.143,0.036l0.148,0.035l0.153,0.034l0.157,0.034l0.161,0.032l0.166,0.032l0.17,0.03l0.175,0.03l0.179,0.029l0.184,0.028l0.188,0.027l0.192,0.026l0.197,0.025l0.201,0.024l0.206,0.023l0.21,0.022l0.215,0.021l0.22,0.021l0.265,0.025l0.263,0.027l0.258,0.029l0.255,0.031l0.251,0.033l0.248,0.034l0.243,0.037l0.24,0.038l0.237,0.04l0.232,0.043l0.229,0.044l0.225,0.046l0.221,0.048l0.218,0.049l0.214,0.052l0.21,0.054l0.206,0.055l0.203,0.058l0.199,0.06l0.196,0.061l0.191,0.064l0.187,0.065l0.094,0.034l0.092,0.034l0.091,0.034l0.089,0.035l0.089,0.036l0.088,0.036l0.088,0.037l0.086,0.037l0.085,0.037l0.084,0.038l0.084,0.039l0.082,0.039l0.082,0.04l0.081,0.04l0.08,0.041l0.078,0.041l0.078,0.042l0.077,0.043l0.076,0.043l0.076,0.043l0.145,0.087l0.145,0.089l0.142,0.091l0.14,0.093l0.139,0.096l0.137,0.097l0.135,0.1l0.134,0.101l0.131,0.104l0.13,0.105l0.128,0.108l0.126,0.109l0.124,0.112l0.123,0.114l0.12,0.116l0.119,0.117l0.117,0.12l0.115,0.122l0.113,0.124l0.111,0.126l0.109,0.128l0.108,0.13l0.106,0.131l0.103,0.134l0.102,0.136l0.1,0.138l0.098,0.14l0.097,0.141l0.094,0.144l0.092,0.145l0.091,0.148l0.089,0.15l0.091,0.161l0.088,0.16l0.085,0.162l0.082,0.163l0.079,0.164l0.077,0.165l0.073,0.167l0.071,0.167l0.068,0.168l0.065,0.17l0.062,0.17l0.059,0.171l0.056,0.173l0.053,0.174l0.051,0.174l0.047,0.176l0.045,0.176l0.042,0.178l0.039,0.179l0.036,0.179l0.033,0.181l0.03,0.181l0.028,0.183l0.024,0.183l0.021,0.185l0.019,0.185l0.016,0.187l0.013,0.187l0.01,0.188l0.007,0.189l0.004,0.19l0.002,0.191l-0.001,0.171l-0.004,0.169l-0.006,0.168l-0.008,0.167l-0.011,0.165l-0.013,0.165l-0.015,0.163l-0.018,0.163l-0.02,0.161l-0.022,0.159l-0.025,0.159l-0.027,0.158l-0.03,0.156l-0.032,0.155l-0.034,0.154l-0.037,0.153l-0.039,0.151l-0.042,0.151l-0.044,0.149l-0.046,0.147l-0.049,0.147l-0.052,0.145l-0.053,0.144l-0.056,0.143l-0.059,0.142l-0.061,0.14l-0.063,0.139l-0.066,0.138l-0.068,0.136l-0.071,0.135l-0.072,0.134l-0.075,0.132l-0.081,0.137l-0.084,0.138l-0.086,0.135l-0.088,0.134l-0.09,0.132l-0.093,0.131l-0.095,0.129l-0.097,0.128l-0.099,0.126l-0.102,0.124l-0.104,0.123l-0.106,0.121l-0.108,0.119l-0.11,0.118l-0.113,0.117l-0.115,0.114l-0.117,0.113l-0.119,0.112l-0.121,0.109l-0.124,0.108l-0.126,0.107l-0.128,0.105l-0.13,0.103l-0.132,0.101l-0.134,0.1l-0.136,0.098l-0.139,0.097l-0.141,0.095l-0.142,0.093l-0.145,0.092l-0.147,0.09l-0.152,0.09l-0.114,0.063l-0.111,0.061l-0.112,0.06l-0.113,0.059l-0.114,0.058l-0.115,0.057l-0.115,0.056l-0.116,0.055l-0.117,0.054l-0.118,0.053l-0.119,0.052l-0.119,0.052l-0.12,0.05l-0.121,0.049l-0.121,0.048l-0.123,0.047l-0.123,0.046l-0.124,0.045l-0.124,0.044l-0.126,0.043l-0.126,0.043l-0.127,0.041l-0.128,0.04l-0.128,0.039l-0.13,0.039l-0.13,0.037l-0.13,0.036l-0.132,0.035l-0.132,0.035l-0.133,0.033l-0.134,0.032l-0.135,0.032l-0.135,0.03l-0.136,0.03l-0.137,0.028l-0.137,0.028l-0.139,0.026l-0.139,0.026l-0.14,0.024l-0.14,0.024l-0.142,0.022l-0.142,0.022l-0.143,0.021l-0.143,0.02l-0.145,0.018l-0.145,0.018l-0.146,0.017l-0.146,0.016l-0.148,0.015l-0.148,0.014l-0.149,0.012l-0.149,0.013l-0.151,0.011l-0.151,0.01l-0.152,0.009l-0.152,0.008l-0.154,0.007l-0.154,0.006l-0.155,0.005l-0.155,0.005l-0.157,0.003l-0.157,0.003l-0.158,0.001l-0.158,0l-0.153,0l-0.151,-0.001l-0.151,-0.003l-0.15,-0.003l-0.15,-0.004l-0.148,-0.005l-0.148,-0.005l-0.147,-0.007l-0.146,-0.008l-0.145,-0.008l-0.144,-0.01l-0.144,-0.01l-0.143,-0.011l-0.142,-0.012l-0.141,-0.013l-0.14,-0.014l-0.14,-0.015l-0.139,-0.016l-0.137,-0.016l-0.138,-0.018l-0.136,-0.018l-0.135,-0.02l-0.135,-0.02l-0.134,-0.021l-0.133,-0.022l-0.132,-0.023l-0.132,-0.024l-0.131,-0.025l-0.13,-0.025l-0.128,-0.027l-0.129,-0.028l-0.127,-0.028l-0.127,-0.029l-0.126,-0.031l-0.125,-0.031l-0.124,-0.032l-0.123,-0.033l-0.123,-0.034l-0.121,-0.035l-0.121,-0.036l-0.12,-0.037l-0.12,-0.037l-0.118,-0.039l-0.118,-0.039l-0.117,-0.041l-0.116,-0.041l-0.115,-0.042l-0.114,-0.044l-0.114,-0.044l-0.112,-0.045l-0.112,-0.046l-0.112,-0.047l-0.11,-0.048l-0.109,-0.049l-0.109,-0.05l-0.107,-0.05l-0.107,-0.052l-0.106,-0.052l-0.106,-0.054l-0.104,-0.054l-0.104,-0.056l-0.102,-0.056l-0.102,-0.057l-0.099,-0.057l-0.085,-0.05l-0.087,-0.05l-0.086,-0.052l-0.085,-0.052l-0.085,-0.052l-0.084,-0.053l-0.084,-0.054l-0.082,-0.054l-0.083,-0.055l-0.082,-0.055l-0.081,-0.056l-0.08,-0.057l-0.08,-0.057l-0.08,-0.057l-0.078,-0.058l-0.078,-0.059l-0.078,-0.059l-0.077,-0.06l-0.076,-0.061l-0.076,-0.061l-0.075,-0.061l-0.074,-0.062l-0.074,-0.063l-0.074,-0.063l-0.072,-0.064l-0.072,-0.065l-0.072,-0.065l-0.071,-0.065l-0.07,-0.066l-0.069,-0.067l-0.069,-0.067l-0.069,-0.068l-0.068,-0.068l-0.067,-0.069l-0.066,-0.07l-0.066,-0.07l-0.065,-0.07l-0.065,-0.071l-0.064,-0.072l-0.063,-0.072l-0.063,-0.073l-0.062,-0.074l-0.062,-0.073l-0.061,-0.075l-0.06,-0.075l-0.06,-0.075l-0.059,-0.077l-0.058,-0.076l-0.058,-0.077l-0.057,-0.078l-0.057,-0.079l-0.056,-0.078l-0.055,-0.08l-0.055,-0.08l-0.054,-0.08l-0.053,-0.081l-0.053,-0.082l-0.052,-0.082l-0.051,-0.083l-0.051,-0.083l-0.05,-0.083l-0.05,-0.085l-0.049,-0.085l-0.046,-0.081l-0.056,-0.097l-0.057,-0.101l-0.056,-0.102l-0.055,-0.102l-0.054,-0.103l-0.053,-0.103l-0.051,-0.104l-0.051,-0.104l-0.05,-0.105l-0.048,-0.105l-0.048,-0.106l-0.046,-0.106l-0.046,-0.107l-0.044,-0.108l-0.044,-0.108l-0.041,-0.106l-0.023,-0.076l-0.011,-0.079l0.003,-0.08l0.014,-0.078l0.027,-0.075l0.039,-0.07l0.049,-0.062l0.059,-0.055l0.066,-0.044l0.073,-0.033l6.72,-2.432l0.08,-0.021l0.082,-0.008l0.083,0.005l0.081,0.019l0.076,0.033l0.07,0.044l0.062,0.056l0.052,0.065l0.04,0.072l0.055,0.122l0.054,0.115l0.056,0.112l0.058,0.11l0.06,0.107l0.062,0.106l0.03,0.05l0.032,0.051l0.032,0.05l0.033,0.049l0.033,0.049l0.033,0.048l0.034,0.048l0.034,0.047l0.035,0.046l0.035,0.046l0.035,0.045l0.036,0.044l0.036,0.044l0.037,0.044l0.037,0.042l0.038,0.042l0.038,0.042l0.038,0.041l0.039,0.04l0.039,0.04l0.05,0.048l0.049,0.048l0.051,0.047l0.051,0.046l0.052,0.046l0.052,0.044l0.053,0.044l0.054,0.043l0.054,0.043l0.055,0.041l0.056,0.041l0.056,0.04l0.058,0.04l0.057,0.038l0.059,0.038l0.059,0.037l0.06,0.037l0.06,0.035l0.061,0.035l0.062,0.034l0.063,0.034l0.063,0.032l0.064,0.032l0.065,0.032l0.065,0.03l0.066,0.03l0.068,0.029l0.067,0.028l0.069,0.028l0.069,0.026l0.07,0.026l0.07,0.026l0.072,0.024l0.072,0.024l0.073,0.023l0.073,0.022l0.075,0.022l0.075,0.021l0.076,0.02l0.077,0.019l0.077,0.018l0.078,0.018l0.079,0.017l0.08,0.016l0.081,0.016l0.081,0.014l0.082,0.014l0.083,0.013l0.084,0.012l0.084,0.012l0.086,0.011l0.086,0.01l0.086,0.009l0.088,0.008l0.088,0.008l0.09,0.007l0.089,0.006l0.091,0.005l0.092,0.004l0.092,0.004l0.093,0.003l0.094,0.002l0.094,0.001l0.096,0l0.106,0l0.105,-0.001l0.104,-0.002l0.103,-0.002l0.101,-0.004l0.101,-0.004l0.1,-0.004l0.098,-0.006l0.098,-0.006l0.096,-0.007l0.096,-0.007l0.094,-0.008l0.093,-0.009l0.092,-0.01l0.091,-0.01l0.09,-0.012l0.089,-0.011l0.088,-0.013l0.087,-0.013l0.086,-0.014l0.084,-0.014l0.084,-0.015l0.082,-0.016l0.081,-0.017l0.081,-0.017l0.079,-0.018l0.078,-0.019l0.077,-0.019l0.076,-0.02l0.074,-0.02l0.074,-0.022l0.073,-0.021l0.071,-0.023l0.071,-0.023l0.069,-0.024l0.068,-0.024l0.068,-0.025l0.066,-0.026l0.065,-0.026l0.064,-0.027l0.063,-0.028l0.062,-0.028l0.06,-0.028l0.06,-0.03l0.059,-0.03l0.058,-0.03l0.056,-0.031l0.056,-0.032l0.054,-0.032l0.054,-0.033l0.052,-0.033l0.052,-0.034l0.05,-0.035l0.05,-0.035l0.048,-0.036l0.048,-0.036l0.046,-0.037l0.046,-0.038l0.045,-0.038l0.043,-0.038l0.043,-0.039l0.042,-0.04l0.041,-0.041l0.043,-0.044l0.044,-0.045l0.038,-0.04l0.037,-0.042l0.036,-0.042l0.034,-0.042l0.033,-0.043l0.032,-0.043l0.031,-0.044l0.03,-0.045l0.029,-0.045l0.027,-0.045l0.026,-0.046l0.025,-0.047l0.024,-0.048l0.023,-0.048l0.022,-0.048l0.021,-0.05l0.019,-0.05l0.019,-0.051l0.017,-0.051l0.017,-0.053l0.015,-0.053l0.014,-0.054l0.013,-0.054l0.012,-0.056l0.011,-0.056l0.01,-0.058l0.008,-0.058l0.008,-0.059l0.006,-0.06l0.005,-0.061l0.002,-0.028l-0.005,-0.059l-0.01,-0.091l-0.013,-0.091l-0.015,-0.09l-0.017,-0.089l-0.019,-0.09l-0.021,-0.088l-0.024,-0.089l-0.026,-0.088l-0.028,-0.087l-0.03,-0.088l-0.032,-0.087l-0.035,-0.087l-0.037,-0.086l-0.04,-0.086l-0.033,-0.069l-0.022,-0.036l-0.033,-0.052l-0.034,-0.051l-0.034,-0.051l-0.035,-0.05l-0.036,-0.049l-0.037,-0.048l-0.037,-0.048l-0.039,-0.047l-0.039,-0.047l-0.039,-0.046l-0.041,-0.045l-0.041,-0.044l-0.042,-0.044l-0.043,-0.043l-0.043,-0.043l-0.045,-0.042l-0.045,-0.041l-0.046,-0.041l-0.047,-0.04l-0.048,-0.039l-0.048,-0.039l-0.05,-0.038l-0.05,-0.038l-0.051,-0.037l-0.052,-0.036l-0.053,-0.036l-0.053,-0.035l-0.055,-0.035l-0.055,-0.034l-0.056,-0.033l-0.06,-0.034l-0.084,-0.048l-0.083,-0.045l-0.087,-0.043l-0.092,-0.044l-0.097,-0.043l-0.102,-0.042l-0.106,-0.042l-0.111,-0.041l-0.116,-0.041l-0.12,-0.04l-0.125,-0.039l-0.13,-0.038l-0.134,-0.038l-0.138,-0.036l-0.144,-0.036l-0.148,-0.035l-0.152,-0.035l-0.157,-0.033l-0.161,-0.032l-0.166,-0.032l-0.171,-0.031l-0.174,-0.029l-0.179,-0.029l-0.184,-0.028l-0.188,-0.027l-0.193,-0.026l-0.197,-0.025l-0.201,-0.024l-0.205,-0.023l-0.211,-0.022l-0.214,-0.021l-0.221,-0.021l-0.265,-0.025l-0.262,-0.027l-0.259,-0.029l-0.255,-0.031l-0.251,-0.033l-0.247,-0.034l-0.244,-0.037l-0.24,-0.038l-0.236,-0.041l-0.232,-0.042l-0.229,-0.044l-0.225,-0.046l-0.221,-0.048l-0.218,-0.049l-0.214,-0.052l-0.21,-0.054l-0.207,-0.056l-0.202,-0.057l-0.2,-0.06l-0.195,-0.061l-0.192,-0.064l-0.187,-0.065l-0.093,-0.034l-0.092,-0.034l-0.091,-0.034l-0.09,-0.035l-0.089,-0.036l-0.088,-0.036l-0.087,-0.037l-0.086,-0.037l-0.085,-0.037l-0.085,-0.039l-0.083,-0.038l-0.083,-0.039l-0.081,-0.04l-0.081,-0.04l-0.08,-0.041l-0.079,-0.041l-0.078,-0.042l-0.077,-0.043l-0.076,-0.043l-0.075,-0.043l-0.146,-0.087l-0.144,-0.089l-0.142,-0.091l-0.141,-0.094l-0.139,-0.095l-0.137,-0.097l-0.135,-0.1l-0.133,-0.101l-0.132,-0.104l-0.13,-0.105l-0.127,-0.108l-0.126,-0.109l-0.125,-0.112l-0.122,-0.114l-0.121,-0.116l-0.118,-0.118l-0.117,-0.119l-0.115,-0.122l-0.113,-0.124l-0.112,-0.126l-0.109,-0.128l-0.107,-0.13l-0.106,-0.132l-0.104,-0.133l-0.102,-0.136l-0.1,-0.138l-0.098,-0.14l-0.096,-0.141l-0.094,-0.144l-0.093,-0.146l-0.09,-0.147l-0.09,-0.15l-0.091,-0.161l-0.087,-0.16l-0.085,-0.162l-0.083,-0.163l-0.079,-0.164l-0.076,-0.165l-0.074,-0.167l-0.07,-0.167l-0.068,-0.168l-0.065,-0.17l-0.062,-0.17l-0.059,-0.172l-0.057,-0.172l-0.053,-0.174l-0.05,-0.174l-0.048,-0.176l-0.045,-0.176l-0.041,-0.178l-0.039,-0.179l-0.036,-0.179l-0.033,-0.181l-0.031,-0.181l-0.027,-0.183l-0.024,-0.184l-0.022,-0.184l-0.019,-0.185l-0.015,-0.187l-0.013,-0.187l-0.01,-0.188l-0.007,-0.189l-0.005,-0.191l-0.001,-0.19l0.001,-0.171l0.003,-0.169l0.006,-0.168l0.009,-0.167l0.01,-0.165l0.013,-0.165l0.015,-0.163l0.018,-0.163l0.02,-0.161l0.023,-0.16l0.025,-0.158l0.027,-0.158l0.029,-0.156l0.032,-0.155l0.035,-0.154l0.037,-0.153l0.039,-0.151l0.042,-0.151l0.044,-0.149l0.046,-0.148l0.049,-0.146l0.051,-0.145l0.054,-0.145l0.056,-0.142l0.059,-0.142l0.06,-0.14l0.064,-0.139l0.065,-0.138l0.069,-0.136l0.07,-0.135l0.073,-0.134l0.075,-0.132l0.081,-0.138l0.083,-0.137l0.086,-0.135l0.089,-0.134l0.09,-0.132l0.093,-0.131l0.094,-0.129l0.098,-0.128l0.099,-0.126l0.101,-0.124l0.104,-0.123l0.106,-0.121l0.109,-0.12l0.11,-0.117l0.113,-0.117l0.114,-0.114l0.117,-0.113l0.12,-0.112l0.121,-0.109l0.124,-0.108l0.125,-0.107l0.128,-0.105l0.13,-0.103l0.132,-0.101l0.135,-0.1l0.136,-0.099l0.139,-0.096l0.14,-0.095l0.143,-0.093l0.145,-0.092l0.147,-0.09l0.151,-0.09l0.114,-0.064l0.112,-0.061l0.112,-0.059l0.113,-0.059l0.114,-0.058l0.114,-0.057l0.116,-0.056l0.116,-0.055l0.117,-0.054l0.118,-0.053l0.118,-0.053l0.119,-0.051l0.121,-0.05l0.12,-0.049l0.122,-0.048l0.122,-0.047l0.123,-0.046l0.124,-0.045l0.125,-0.044l0.125,-0.044l0.127,-0.042l0.127,-0.041l0.127,-0.04l0.129,-0.039l0.129,-0.039l0.13,-0.037l0.131,-0.036l0.131,-0.035l0.133,-0.035l0.133,-0.033l0.134,-0.033l0.134,-0.031l0.136,-0.03l0.136,-0.03l0.136,-0.028l0.138,-0.028l0.138,-0.026l0.139,-0.026l0.14,-0.024l0.141,-0.024l0.141,-0.023l0.142,-0.021l0.143,-0.021l0.144,-0.02l0.144,-0.018l0.145,-0.018l0.146,-0.017l0.147,-0.016l0.147,-0.015l0.148,-0.014l0.149,-0.013l0.15,-0.012l0.15,-0.011l0.151,-0.01l0.152,-0.009l0.153,-0.008l0.153,-0.007l0.154,-0.006l0.155,-0.006l0.156,-0.004l0.156,-0.003l0.157,-0.003l0.158,-0.001l0.159,-0.001l0.152,0.001Zm-0.305,1l-0.152,0.001l-0.151,0.003l-0.15,0.003l-0.149,0.004l-0.149,0.005l-0.147,0.006l-0.147,0.007l-0.146,0.008l-0.146,0.008l-0.144,0.01l-0.144,0.01l-0.143,0.012l-0.142,0.012l-0.141,0.014l-0.14,0.014l-0.14,0.015l-0.139,0.016l-0.138,0.017l-0.137,0.018l-0.136,0.018l-0.136,0.02l-0.134,0.02l-0.134,0.022l-0.133,0.022l-0.133,0.023l-0.131,0.025l-0.131,0.025l-0.13,0.026l-0.129,0.026l-0.128,0.028l-0.128,0.029l-0.126,0.029l-0.126,0.031l-0.125,0.031l-0.124,0.032l-0.124,0.034l-0.122,0.034l-0.122,0.034l-0.121,0.036l-0.12,0.037l-0.12,0.038l-0.119,0.038l-0.117,0.039l-0.117,0.041l-0.117,0.041l-0.115,0.042l-0.115,0.043l-0.114,0.044l-0.113,0.044l-0.112,0.046l-0.111,0.047l-0.111,0.047l-0.11,0.048l-0.109,0.049l-0.108,0.05l-0.108,0.051l-0.107,0.052l-0.106,0.053l-0.105,0.053l-0.104,0.055l-0.104,0.055l-0.103,0.056l-0.099,0.056l-0.134,0.079l-0.135,0.083l-0.132,0.084l-0.131,0.085l-0.128,0.087l-0.126,0.087l-0.124,0.09l-0.122,0.09l-0.119,0.092l-0.118,0.094l-0.116,0.094l-0.113,0.096l-0.111,0.098l-0.11,0.099l-0.107,0.1l-0.105,0.101l-0.103,0.103l-0.101,0.104l-0.099,0.106l-0.097,0.107l-0.095,0.108l-0.092,0.11l-0.091,0.111l-0.089,0.113l-0.087,0.114l-0.084,0.115l-0.083,0.117l-0.081,0.118l-0.079,0.12l-0.076,0.121l-0.075,0.122l-0.073,0.125l-0.067,0.117l-0.065,0.118l-0.062,0.12l-0.06,0.12l-0.058,0.121l-0.056,0.123l-0.054,0.124l-0.051,0.125l-0.05,0.127l-0.048,0.127l-0.045,0.129l-0.044,0.13l-0.041,0.132l-0.039,0.133l-0.037,0.133l-0.035,0.136l-0.033,0.136l-0.031,0.138l-0.029,0.139l-0.026,0.141l-0.025,0.141l-0.022,0.143l-0.02,0.145l-0.019,0.146l-0.016,0.147l-0.014,0.148l-0.011,0.15l-0.01,0.151l-0.008,0.152l-0.005,0.154l-0.003,0.155l-0.001,0.156l0.001,0.176l0.004,0.175l0.007,0.174l0.009,0.173l0.012,0.172l0.014,0.17l0.017,0.17l0.02,0.168l0.022,0.168l0.025,0.166l0.028,0.166l0.03,0.164l0.033,0.164l0.035,0.162l0.038,0.161l0.04,0.161l0.044,0.159l0.045,0.159l0.049,0.157l0.051,0.156l0.053,0.156l0.057,0.155l0.059,0.153l0.061,0.153l0.064,0.152l0.067,0.15l0.069,0.15l0.072,0.149l0.075,0.148l0.077,0.147l0.08,0.147l0.082,0.144l0.081,0.136l0.082,0.135l0.085,0.132l0.086,0.131l0.087,0.129l0.089,0.127l0.091,0.125l0.092,0.123l0.094,0.121l0.096,0.12l0.097,0.117l0.099,0.116l0.101,0.114l0.102,0.111l0.104,0.11l0.105,0.108l0.107,0.107l0.109,0.104l0.11,0.103l0.112,0.1l0.114,0.099l0.115,0.097l0.117,0.096l0.119,0.093l0.12,0.092l0.122,0.089l0.124,0.088l0.125,0.086l0.128,0.085l0.129,0.082l0.13,0.081l0.133,0.079l0.065,0.038l0.067,0.038l0.068,0.037l0.069,0.037l0.07,0.037l0.071,0.036l0.071,0.036l0.073,0.035l0.074,0.035l0.075,0.035l0.076,0.034l0.077,0.034l0.078,0.034l0.079,0.033l0.08,0.033l0.081,0.032l0.083,0.032l0.083,0.032l0.084,0.031l0.084,0.031l0.174,0.06l0.178,0.059l0.181,0.057l0.185,0.056l0.19,0.054l0.194,0.052l0.197,0.05l0.202,0.049l0.206,0.047l0.21,0.046l0.214,0.043l0.217,0.042l0.222,0.041l0.226,0.038l0.23,0.037l0.234,0.035l0.238,0.033l0.242,0.032l0.246,0.03l0.25,0.028l0.254,0.026l0.259,0.025l0.223,0.02l0.221,0.022l0.217,0.023l0.212,0.024l0.209,0.025l0.204,0.026l0.201,0.027l0.196,0.028l0.192,0.029l0.188,0.03l0.184,0.031l0.18,0.033l0.176,0.033l0.172,0.035l0.167,0.035l0.164,0.037l0.16,0.038l0.156,0.039l0.152,0.041l0.148,0.041l0.144,0.043l0.14,0.043l0.137,0.046l0.133,0.046l0.128,0.048l0.125,0.049l0.121,0.051l0.118,0.052l0.113,0.053l0.11,0.056l0.107,0.056l0.163,0.094l0.069,0.041l0.068,0.041l0.068,0.043l0.066,0.044l0.066,0.044l0.065,0.046l0.063,0.046l0.063,0.047l0.062,0.048l0.061,0.049l0.061,0.05l0.059,0.051l0.058,0.051l0.058,0.052l0.056,0.054l0.056,0.054l0.054,0.055l0.054,0.056l0.052,0.057l0.052,0.057l0.051,0.059l0.049,0.059l0.049,0.06l0.048,0.061l0.046,0.062l0.046,0.062l0.045,0.064l0.043,0.064l0.043,0.065l0.042,0.066l0.038,0.063l0.024,0.042l0.049,0.101l0.049,0.108l0.046,0.108l0.044,0.109l0.041,0.109l0.038,0.11l0.036,0.111l0.032,0.112l0.03,0.112l0.027,0.112l0.025,0.114l0.021,0.114l0.019,0.114l0.016,0.115l0.013,0.115l0.01,0.11l0.001,0.077l-0.005,0.077l-0.007,0.081l-0.009,0.08l-0.01,0.08l-0.012,0.079l-0.013,0.078l-0.015,0.078l-0.017,0.077l-0.018,0.077l-0.02,0.076l-0.021,0.075l-0.024,0.074l-0.025,0.074l-0.026,0.073l-0.028,0.072l-0.03,0.071l-0.032,0.071l-0.033,0.069l-0.035,0.069l-0.037,0.068l-0.038,0.067l-0.039,0.067l-0.042,0.065l-0.043,0.064l-0.044,0.063l-0.046,0.063l-0.048,0.061l-0.049,0.061l-0.051,0.059l-0.052,0.058l-0.053,0.058l-0.052,0.052l-0.049,0.051l-0.054,0.053l-0.055,0.053l-0.057,0.051l-0.057,0.051l-0.058,0.049l-0.06,0.049l-0.06,0.048l-0.062,0.047l-0.062,0.046l-0.064,0.045l-0.064,0.044l-0.066,0.044l-0.066,0.042l-0.068,0.041l-0.068,0.041l-0.07,0.039l-0.07,0.039l-0.071,0.038l-0.073,0.037l-0.073,0.036l-0.074,0.035l-0.075,0.034l-0.076,0.033l-0.077,0.032l-0.078,0.032l-0.079,0.03l-0.08,0.03l-0.081,0.029l-0.081,0.028l-0.083,0.027l-0.083,0.026l-0.085,0.026l-0.085,0.024l-0.086,0.024l-0.087,0.023l-0.088,0.022l-0.089,0.021l-0.09,0.02l-0.091,0.02l-0.091,0.019l-0.093,0.017l-0.094,0.017l-0.094,0.017l-0.095,0.015l-0.097,0.015l-0.097,0.013l-0.098,0.013l-0.099,0.013l-0.1,0.011l-0.101,0.011l-0.101,0.009l-0.103,0.009l-0.104,0.009l-0.104,0.007l-0.106,0.007l-0.106,0.005l-0.108,0.005l-0.108,0.005l-0.109,0.003l-0.11,0.003l-0.111,0.002l-0.112,0.001l-0.113,0l-0.104,0l-0.103,-0.001l-0.103,-0.002l-0.102,-0.004l-0.101,-0.004l-0.101,-0.004l-0.1,-0.006l-0.099,-0.007l-0.099,-0.007l-0.098,-0.009l-0.097,-0.009l-0.097,-0.01l-0.096,-0.011l-0.095,-0.012l-0.095,-0.013l-0.094,-0.014l-0.093,-0.015l-0.093,-0.016l-0.092,-0.016l-0.091,-0.018l-0.091,-0.018l-0.09,-0.019l-0.089,-0.021l-0.089,-0.021l-0.088,-0.022l-0.088,-0.023l-0.086,-0.024l-0.086,-0.025l-0.086,-0.026l-0.084,-0.026l-0.084,-0.028l-0.084,-0.029l-0.082,-0.029l-0.082,-0.031l-0.081,-0.031l-0.081,-0.033l-0.08,-0.033l-0.079,-0.034l-0.078,-0.035l-0.078,-0.037l-0.077,-0.037l-0.077,-0.038l-0.075,-0.039l-0.075,-0.04l-0.074,-0.041l-0.074,-0.042l-0.072,-0.042l-0.072,-0.044l-0.071,-0.045l-0.071,-0.046l-0.069,-0.046l-0.069,-0.048l-0.068,-0.048l-0.068,-0.05l-0.067,-0.05l-0.065,-0.051l-0.065,-0.053l-0.065,-0.053l-0.063,-0.054l-0.063,-0.055l-0.062,-0.056l-0.061,-0.057l-0.06,-0.057l-0.06,-0.059l-0.048,-0.049l-0.048,-0.049l-0.047,-0.051l-0.046,-0.05l-0.046,-0.052l-0.046,-0.052l-0.044,-0.053l-0.045,-0.053l-0.043,-0.054l-0.043,-0.055l-0.043,-0.056l-0.042,-0.056l-0.041,-0.056l-0.041,-0.058l-0.04,-0.058l-0.039,-0.058l-0.039,-0.059l-0.039,-0.06l-0.037,-0.061l-0.038,-0.062l-0.072,-0.123l-0.071,-0.126l-0.056,-0.106l-5.803,2.1l0.008,0.019l0.044,0.096l0.044,0.096l0.046,0.096l0.046,0.095l0.047,0.095l0.048,0.094l0.049,0.094l0.051,0.093l0.051,0.093l0.052,0.093l0.055,0.095l0.046,0.082l0.045,0.078l0.045,0.077l0.046,0.076l0.047,0.076l0.047,0.076l0.047,0.075l0.048,0.074l0.049,0.074l0.049,0.074l0.05,0.072l0.051,0.073l0.051,0.072l0.051,0.071l0.052,0.071l0.053,0.07l0.053,0.07l0.054,0.069l0.054,0.069l0.055,0.068l0.055,0.068l0.056,0.067l0.057,0.067l0.057,0.066l0.058,0.066l0.058,0.065l0.059,0.065l0.059,0.064l0.06,0.064l0.061,0.063l0.061,0.063l0.061,0.062l0.063,0.062l0.062,0.061l0.064,0.061l0.064,0.06l0.064,0.059l0.065,0.06l0.066,0.058l0.066,0.058l0.067,0.058l0.067,0.057l0.068,0.057l0.069,0.056l0.069,0.056l0.07,0.055l0.07,0.055l0.071,0.054l0.071,0.054l0.072,0.053l0.073,0.053l0.073,0.052l0.074,0.052l0.074,0.051l0.075,0.051l0.076,0.05l0.076,0.05l0.077,0.049l0.077,0.049l0.078,0.048l0.079,0.048l0.079,0.047l0.079,0.047l0.177,0.102l0.092,0.052l0.094,0.051l0.094,0.05l0.095,0.05l0.096,0.049l0.097,0.048l0.098,0.047l0.099,0.047l0.099,0.045l0.1,0.045l0.102,0.044l0.102,0.043l0.102,0.042l0.104,0.042l0.105,0.041l0.105,0.04l0.107,0.039l0.107,0.038l0.108,0.037l0.109,0.037l0.11,0.036l0.11,0.035l0.112,0.034l0.112,0.033l0.114,0.032l0.114,0.032l0.115,0.031l0.116,0.03l0.117,0.029l0.117,0.028l0.119,0.028l0.119,0.027l0.12,0.025l0.122,0.025l0.122,0.025l0.123,0.023l0.123,0.022l0.125,0.022l0.126,0.021l0.126,0.02l0.127,0.019l0.129,0.018l0.129,0.018l0.13,0.016l0.131,0.016l0.131,0.015l0.133,0.014l0.133,0.013l0.135,0.013l0.135,0.011l0.136,0.011l0.137,0.01l0.138,0.009l0.139,0.008l0.139,0.007l0.141,0.006l0.141,0.006l0.142,0.005l0.143,0.004l0.144,0.003l0.145,0.002l0.146,0.001l0.147,0l0.152,0l0.152,-0.001l0.151,-0.003l0.15,-0.003l0.15,-0.004l0.148,-0.005l0.148,-0.006l0.147,-0.007l0.146,-0.008l0.145,-0.008l0.145,-0.01l0.143,-0.011l0.143,-0.011l0.142,-0.012l0.141,-0.014l0.141,-0.014l0.139,-0.015l0.139,-0.016l0.138,-0.017l0.137,-0.018l0.137,-0.018l0.135,-0.02l0.135,-0.021l0.134,-0.021l0.133,-0.022l0.132,-0.024l0.132,-0.024l0.131,-0.025l0.129,-0.026l0.129,-0.027l0.129,-0.027l0.127,-0.029l0.127,-0.029l0.126,-0.031l0.125,-0.031l0.124,-0.032l0.123,-0.034l0.123,-0.034l0.122,-0.035l0.121,-0.035l0.12,-0.037l0.12,-0.038l0.118,-0.038l0.118,-0.04l0.117,-0.04l0.116,-0.041l0.116,-0.042l0.114,-0.043l0.114,-0.044l0.113,-0.045l0.112,-0.045l0.112,-0.047l0.111,-0.047l0.11,-0.048l0.109,-0.049l0.108,-0.05l0.107,-0.051l0.107,-0.052l0.106,-0.053l0.106,-0.054l0.104,-0.054l0.103,-0.055l0.103,-0.057l0.099,-0.055l0.135,-0.08l0.134,-0.082l0.133,-0.084l0.13,-0.085l0.128,-0.087l0.126,-0.088l0.124,-0.089l0.122,-0.09l0.12,-0.092l0.118,-0.094l0.115,-0.094l0.114,-0.096l0.111,-0.098l0.109,-0.099l0.107,-0.1l0.105,-0.101l0.104,-0.103l0.101,-0.105l0.098,-0.105l0.097,-0.107l0.095,-0.108l0.093,-0.11l0.091,-0.111l0.089,-0.113l0.086,-0.114l0.085,-0.115l0.083,-0.117l0.081,-0.118l0.078,-0.12l0.077,-0.121l0.075,-0.122l0.073,-0.125l0.067,-0.117l0.064,-0.118l0.062,-0.12l0.061,-0.12l0.058,-0.122l0.055,-0.122l0.054,-0.124l0.052,-0.125l0.05,-0.127l0.047,-0.128l0.046,-0.128l0.043,-0.131l0.041,-0.131l0.04,-0.133l0.037,-0.134l0.035,-0.135l0.033,-0.136l0.03,-0.138l0.029,-0.139l0.027,-0.141l0.024,-0.141l0.023,-0.144l0.02,-0.144l0.018,-0.146l0.016,-0.147l0.014,-0.148l0.012,-0.15l0.01,-0.151l0.007,-0.152l0.005,-0.154l0.004,-0.155l0.001,-0.156l-0.002,-0.177l-0.003,-0.174l-0.007,-0.174l-0.009,-0.173l-0.012,-0.172l-0.015,-0.17l-0.017,-0.17l-0.019,-0.169l-0.023,-0.167l-0.025,-0.166l-0.027,-0.166l-0.03,-0.164l-0.033,-0.164l-0.035,-0.162l-0.038,-0.161l-0.041,-0.161l-0.043,-0.159l-0.046,-0.159l-0.048,-0.157l-0.051,-0.157l-0.054,-0.155l-0.056,-0.155l-0.059,-0.153l-0.061,-0.153l-0.065,-0.152l-0.066,-0.15l-0.07,-0.15l-0.072,-0.149l-0.074,-0.148l-0.077,-0.147l-0.08,-0.147l-0.083,-0.144l-0.08,-0.136l-0.083,-0.135l-0.084,-0.133l-0.086,-0.13l-0.088,-0.129l-0.089,-0.127l-0.09,-0.125l-0.093,-0.123l-0.094,-0.122l-0.095,-0.119l-0.098,-0.117l-0.098,-0.116l-0.101,-0.114l-0.102,-0.111l-0.104,-0.11l-0.105,-0.109l-0.107,-0.106l-0.109,-0.104l-0.11,-0.103l-0.112,-0.101l-0.114,-0.098l-0.115,-0.097l-0.117,-0.096l-0.119,-0.093l-0.121,-0.092l-0.122,-0.089l-0.123,-0.088l-0.126,-0.087l-0.127,-0.084l-0.129,-0.082l-0.131,-0.081l-0.132,-0.079l-0.066,-0.038l-0.067,-0.038l-0.067,-0.037l-0.069,-0.037l-0.07,-0.037l-0.071,-0.036l-0.072,-0.036l-0.073,-0.035l-0.074,-0.036l-0.075,-0.034l-0.076,-0.035l-0.077,-0.034l-0.078,-0.033l-0.079,-0.033l-0.08,-0.033l-0.081,-0.032l-0.082,-0.032l-0.083,-0.032l-0.084,-0.031l-0.084,-0.031l-0.175,-0.06l-0.177,-0.059l-0.181,-0.057l-0.186,-0.056l-0.189,-0.054l-0.194,-0.052l-0.198,-0.05l-0.202,-0.049l-0.205,-0.047l-0.21,-0.046l-0.214,-0.043l-0.218,-0.042l-0.222,-0.041l-0.226,-0.038l-0.23,-0.037l-0.234,-0.035l-0.238,-0.033l-0.242,-0.032l-0.246,-0.03l-0.25,-0.028l-0.254,-0.026l-0.259,-0.025l-0.223,-0.02l-0.221,-0.022l-0.216,-0.023l-0.213,-0.024l-0.208,-0.025l-0.205,-0.026l-0.2,-0.027l-0.196,-0.028l-0.192,-0.029l-0.188,-0.03l-0.184,-0.032l-0.18,-0.032l-0.176,-0.033l-0.172,-0.035l-0.168,-0.036l-0.164,-0.036l-0.16,-0.038l-0.155,-0.039l-0.152,-0.041l-0.149,-0.041l-0.144,-0.043l-0.14,-0.044l-0.136,-0.045l-0.133,-0.046l-0.129,-0.048l-0.125,-0.049l-0.121,-0.051l-0.117,-0.052l-0.114,-0.053l-0.11,-0.056l-0.106,-0.056l-0.096,-0.055l-0.067,-0.039l-0.07,-0.041l-0.068,-0.042l-0.067,-0.042l-0.067,-0.044l-0.065,-0.044l-0.065,-0.046l-0.064,-0.046l-0.063,-0.047l-0.062,-0.048l-0.061,-0.049l-0.06,-0.05l-0.059,-0.051l-0.059,-0.051l-0.057,-0.053l-0.056,-0.053l-0.056,-0.054l-0.055,-0.055l-0.053,-0.056l-0.053,-0.057l-0.051,-0.057l-0.051,-0.059l-0.05,-0.059l-0.048,-0.06l-0.048,-0.061l-0.047,-0.062l-0.045,-0.062l-0.045,-0.064l-0.044,-0.064l-0.043,-0.065l-0.041,-0.066l-0.039,-0.063l-0.023,-0.042l-0.049,-0.102l-0.049,-0.107l-0.047,-0.108l-0.043,-0.109l-0.041,-0.109l-0.039,-0.11l-0.035,-0.111l-0.033,-0.112l-0.03,-0.112l-0.027,-0.113l-0.024,-0.113l-0.022,-0.114l-0.018,-0.114l-0.016,-0.115l-0.013,-0.115l-0.01,-0.11l-0.001,-0.077l0.005,-0.077l0.007,-0.081l0.008,-0.08l0.01,-0.08l0.012,-0.079l0.014,-0.078l0.015,-0.078l0.016,-0.077l0.019,-0.077l0.019,-0.076l0.022,-0.075l0.023,-0.074l0.025,-0.074l0.027,-0.073l0.028,-0.072l0.03,-0.071l0.032,-0.071l0.033,-0.07l0.035,-0.068l0.036,-0.068l0.038,-0.067l0.04,-0.067l0.041,-0.065l0.043,-0.064l0.045,-0.063l0.046,-0.063l0.048,-0.061l0.049,-0.061l0.05,-0.059l0.052,-0.058l0.054,-0.058l0.051,-0.052l0.05,-0.051l0.054,-0.053l0.055,-0.053l0.056,-0.051l0.058,-0.051l0.058,-0.05l0.059,-0.048l0.061,-0.048l0.061,-0.047l0.063,-0.046l0.063,-0.045l0.065,-0.044l0.065,-0.044l0.067,-0.042l0.067,-0.041l0.069,-0.041l0.069,-0.04l0.071,-0.038l0.071,-0.038l0.072,-0.037l0.073,-0.036l0.075,-0.035l0.075,-0.034l0.076,-0.033l0.077,-0.032l0.078,-0.032l0.079,-0.031l0.079,-0.029l0.081,-0.029l0.082,-0.028l0.082,-0.027l0.084,-0.026l0.084,-0.026l0.085,-0.024l0.087,-0.024l0.087,-0.023l0.088,-0.022l0.089,-0.021l0.09,-0.02l0.09,-0.02l0.092,-0.019l0.093,-0.017l0.093,-0.018l0.095,-0.016l0.095,-0.015l0.096,-0.015l0.097,-0.014l0.098,-0.013l0.1,-0.012l0.099,-0.011l0.101,-0.011l0.102,-0.009l0.103,-0.009l0.103,-0.009l0.105,-0.007l0.105,-0.007l0.107,-0.006l0.107,-0.005l0.108,-0.004l0.11,-0.003l0.11,-0.003l0.111,-0.002l0.112,-0.001l0.113,-0.001l0.104,0.001l0.103,0.001l0.102,0.002l0.102,0.004l0.102,0.003l0.1,0.005l0.1,0.006l0.099,0.007l0.099,0.007l0.098,0.009l0.097,0.009l0.097,0.01l0.096,0.011l0.096,0.012l0.094,0.013l0.094,0.014l0.094,0.015l0.092,0.016l0.092,0.016l0.092,0.018l0.09,0.018l0.091,0.019l0.089,0.021l0.089,0.021l0.088,0.022l0.087,0.023l0.087,0.024l0.086,0.025l0.085,0.026l0.085,0.026l0.084,0.028l0.083,0.029l0.083,0.029l0.082,0.031l0.081,0.031l0.081,0.033l0.079,0.033l0.08,0.034l0.078,0.035l0.078,0.037l0.077,0.037l0.076,0.038l0.076,0.039l0.075,0.04l0.074,0.041l0.073,0.042l0.073,0.042l0.072,0.044l0.071,0.045l0.07,0.046l0.07,0.046l0.069,0.048l0.068,0.048l0.067,0.05l0.067,0.05l0.066,0.051l0.065,0.053l0.064,0.053l0.064,0.054l0.062,0.055l0.062,0.056l0.062,0.057l0.06,0.057l0.059,0.059l0.049,0.049l0.047,0.049l0.047,0.05l0.047,0.051l0.046,0.052l0.045,0.052l0.045,0.053l0.044,0.053l0.044,0.054l0.043,0.055l0.042,0.056l0.042,0.056l0.041,0.056l0.041,0.058l0.04,0.058l0.04,0.058l0.039,0.059l0.038,0.06l0.038,0.061l0.038,0.062l0.072,0.123l0.07,0.126l0.056,0.106l5.803,-2.1l-0.008,-0.019l-0.043,-0.096l-0.045,-0.096l-0.045,-0.096l-0.046,-0.095l-0.048,-0.095l-0.048,-0.094l-0.049,-0.094l-0.05,-0.093l-0.051,-0.093l-0.052,-0.093l-0.055,-0.095l-0.047,-0.082l-0.044,-0.078l-0.046,-0.077l-0.046,-0.076l-0.046,-0.076l-0.047,-0.076l-0.048,-0.075l-0.048,-0.074l-0.049,-0.074l-0.049,-0.074l-0.05,-0.072l-0.05,-0.073l-0.051,-0.072l-0.052,-0.071l-0.052,-0.071l-0.052,-0.07l-0.053,-0.07l-0.054,-0.069l-0.054,-0.069l-0.055,-0.068l-0.056,-0.068l-0.056,-0.067l-0.056,-0.067l-0.057,-0.066l-0.058,-0.066l-0.058,-0.065l-0.059,-0.065l-0.06,-0.064l-0.059,-0.064l-0.061,-0.063l-0.061,-0.063l-0.062,-0.062l-0.062,-0.062l-0.063,-0.061l-0.063,-0.061l-0.064,-0.06l-0.065,-0.059l-0.065,-0.06l-0.065,-0.058l-0.067,-0.058l-0.066,-0.058l-0.068,-0.057l-0.068,-0.057l-0.068,-0.056l-0.069,-0.056l-0.07,-0.055l-0.07,-0.055l-0.071,-0.054l-0.072,-0.054l-0.072,-0.053l-0.072,-0.053l-0.074,-0.052l-0.074,-0.052l-0.074,-0.051l-0.075,-0.051l-0.075,-0.05l-0.077,-0.05l-0.076,-0.049l-0.078,-0.049l-0.078,-0.048l-0.078,-0.048l-0.079,-0.047l-0.08,-0.047l-0.082,-0.047l-0.094,-0.055l-0.093,-0.052l-0.093,-0.051l-0.094,-0.05l-0.096,-0.05l-0.096,-0.049l-0.097,-0.048l-0.097,-0.047l-0.099,-0.047l-0.099,-0.045l-0.101,-0.045l-0.101,-0.044l-0.102,-0.043l-0.103,-0.043l-0.104,-0.041l-0.104,-0.041l-0.106,-0.04l-0.106,-0.039l-0.107,-0.038l-0.108,-0.037l-0.109,-0.037l-0.11,-0.036l-0.111,-0.035l-0.111,-0.034l-0.113,-0.033l-0.113,-0.033l-0.114,-0.031l-0.115,-0.031l-0.116,-0.03l-0.117,-0.029l-0.118,-0.029l-0.118,-0.027l-0.12,-0.027l-0.12,-0.026l-0.121,-0.025l-0.122,-0.024l-0.123,-0.023l-0.124,-0.023l-0.125,-0.021l-0.125,-0.021l-0.127,-0.02l-0.127,-0.019l-0.128,-0.018l-0.129,-0.018l-0.13,-0.016l-0.131,-0.016l-0.132,-0.015l-0.132,-0.014l-0.134,-0.013l-0.134,-0.013l-0.135,-0.011l-0.136,-0.011l-0.137,-0.01l-0.138,-0.009l-0.139,-0.008l-0.14,-0.007l-0.14,-0.007l-0.141,-0.005l-0.143,-0.005l-0.143,-0.004l-0.144,-0.003l-0.145,-0.002l-0.146,-0.001l-0.146,-0.001l-0.153,0.001Z" style="fill:#d4d7de;"/><g transform="matrix(64,0,0,64,250.867,190.033)"><path d="M0.05,0l0,-0.074c0,-0.133 0.048,-0.353 0.143,-0.661l0.114,0c0.095,0.308 0.143,0.528 0.143,0.661l0,0.074l-0.113,0l0,-0.074c0,-0.026 -0.002,-0.056 -0.005,-0.089l-0.164,0c-0.003,0.033 -0.005,0.063 -0.005,0.089l0,0.074l-0.113,0Zm0.269,-0.265c-0.015,-0.091 -0.038,-0.201 -0.069,-0.328c-0.031,0.127 -0.054,0.237 -0.069,0.328l0.138,0Z" style="fill:#fff;fill-rule:nonzero;"/></g><g transform="matrix(64,0,0,64,282.867,190.033)"><path d="M0.102,0l0,-0.53l0.113,0l0,0.094c0.004,-0.011 0.009,-0.02 0.014,-0.029c0.015,-0.027 0.034,-0.046 0.055,-0.058c0.017,-0.01 0.037,-0.015 0.06,-0.015c0.023,0 0.044,0.006 0.065,0.018c0.021,0.011 0.037,0.028 0.05,0.05c0.006,0.011 0.011,0.023 0.014,0.035l-0.106,0.05c-0.003,-0.013 -0.01,-0.024 -0.019,-0.033c-0.012,-0.012 -0.026,-0.018 -0.043,-0.018c-0.013,0 -0.024,0.003 -0.034,0.009c-0.012,0.007 -0.023,0.018 -0.032,0.033c-0.016,0.028 -0.024,0.066 -0.024,0.113l0,0.281l-0.113,0Z" style="fill:#fff;fill-rule:nonzero;"/></g><g transform="matrix(64,0,0,64,314.867,190.033)"><path d="M0.322,0.008c-0.033,0 -0.062,-0.007 -0.087,-0.021c-0.025,-0.015 -0.045,-0.035 -0.061,-0.062c-0.021,-0.036 -0.031,-0.081 -0.031,-0.134l0,-0.219l-0.094,0l0,-0.102l0.094,0l0,-0.205l0.114,0l0,0.205l0.142,0l0,0.102l-0.142,0l0,0.219c-0.001,0.035 0.005,0.064 0.018,0.085c0.006,0.011 0.014,0.019 0.023,0.024c0.007,0.004 0.015,0.006 0.024,0.006c0.009,0 0.018,-0.002 0.025,-0.006c0.009,-0.005 0.017,-0.014 0.024,-0.026c0.009,-0.016 0.015,-0.036 0.017,-0.059l0.109,0.03c-0.005,0.03 -0.014,0.056 -0.028,0.079c-0.015,0.027 -0.036,0.048 -0.061,0.063c-0.025,0.014 -0.053,0.021 -0.086,0.021Z" style="fill:#fff;fill-rule:nonzero;"/></g><g transform="matrix(64,0,0,64,346.867,190.033)"><path d="M0.247,0.008c-0.05,0 -0.091,-0.009 -0.123,-0.028c-0.028,-0.016 -0.05,-0.038 -0.065,-0.065c-0.005,-0.008 -0.009,-0.016 -0.012,-0.025l0.105,-0.038c0.005,0.011 0.011,0.02 0.018,0.027c0.018,0.018 0.044,0.027 0.077,0.027c0.037,0 0.063,-0.008 0.078,-0.024c0.008,-0.008 0.012,-0.018 0.013,-0.03c-0.001,-0.009 -0.003,-0.017 -0.007,-0.025c-0.006,-0.01 -0.014,-0.018 -0.025,-0.024c-0.015,-0.009 -0.041,-0.015 -0.078,-0.018c-0.044,-0.004 -0.078,-0.013 -0.101,-0.026c-0.023,-0.014 -0.042,-0.033 -0.056,-0.057c-0.015,-0.025 -0.022,-0.053 -0.022,-0.084c0,-0.027 0.006,-0.051 0.018,-0.072c0.013,-0.022 0.031,-0.04 0.055,-0.054c0.035,-0.02 0.079,-0.03 0.131,-0.03c0.05,0 0.091,0.009 0.123,0.028c0.028,0.016 0.05,0.038 0.065,0.065c0.005,0.008 0.009,0.016 0.012,0.025l-0.105,0.038c-0.005,-0.011 -0.011,-0.02 -0.018,-0.027c-0.018,-0.018 -0.044,-0.027 -0.077,-0.027c-0.037,0 -0.063,0.008 -0.078,0.024c-0.008,0.008 -0.012,0.018 -0.013,0.03c0.001,0.009 0.003,0.017 0.007,0.025c0.006,0.01 0.014,0.018 0.025,0.024c0.015,0.009 0.041,0.015 0.078,0.018c0.044,0.004 0.078,0.013 0.101,0.027c0.023,0.013 0.042,0.032 0.056,0.056c0.015,0.025 0.022,0.053 0.022,0.084c0,0.027 -0.006,0.051 -0.018,0.072c-0.013,0.022 -0.031,0.04 -0.055,0.054c-0.035,0.02 -0.079,0.03 -0.131,0.03Z" style="fill:#fff;fill-rule:nonzero;"/></g></g></g></svg>