<?xml version="1.0" encoding="UTF-8" standalone="no"?><!DOCTYPE svg PUBLIC "-//W3C//DTD SVG 1.1//EN" "http://www.w3.org/Graphics/SVG/1.1/DTD/svg11.dtd"><svg width="100%" height="100%" viewBox="0 0 400 400" version="1.1" xmlns="http://www.w3.org/2000/svg" xmlns:xlink="http://www.w3.org/1999/xlink" xml:space="preserve" xmlns:serif="http://www.serif.com/" style="fill-rule:evenodd;clip-rule:evenodd;stroke-linecap:round;stroke-linejoin:round;stroke-miterlimit:1.5;"><g id="Arts-Circle" serif:id="Arts Circle"><circle cx="200" cy="200" r="200" style="fill:#282c34;"/><clipPath id="_clip1"><circle cx="200" cy="200" r="200"/></clipPath><g clip-path="url(#_clip1)"><circle cx="361.785" cy="146.279" r="74.279" style="fill:#3fc56b;"/><circle cx="258.013" cy="243.497" r="40.416" style="fill:#0098dd;"/><circle cx="162.225" cy="296.394" r="21.991" style="fill:#3fc56b;stroke:#5caa51;stroke-width:0.06px;"/><circle cx="110.105" cy="325.177" r="11.966" style="fill:#0098dd;stroke:#5caa51;stroke-width:0.04px;"/><circle cx="81.746" cy="340.838" r="6.511" style="fill:#3fc56b;stroke:#5caa51;stroke-width:0.02px;"/><circle cx="66.315" cy="349.36" r="3.543" style="fill:#0098dd;stroke:#5caa51;stroke-width:0.01px;"/><circle cx="152" cy="72" r="120" style="fill:#ce33c0;"/><circle cx="348" cy="472" r="154" style="fill:#a05a48;stroke:#5caa51;stroke-width:0.45px;"/><circle cx="50.748" cy="222.617" r="61.307" style="fill:#d52753;stroke:#5caa51;stroke-width:0.18px;"/><circle cx="-0.981" cy="299.566" r="31.321" style="fill:#ce33c0;stroke:#5caa51;stroke-width:0.09px;"/></g><circle cx="200" cy="200" r="200" style="fill:#282c34;fill-opacity:0.2;"/><g transform="matrix(2,0,0,2,-429.878,-145.171)"><path d="M281.682,154.26l0.077,0.019l0.073,0.03l0.068,0.042l0.06,0.052l0.051,0.061l0.04,0.068l0.03,0.074l0.213,0.69l0.209,0.685l0.207,0.679l0.203,0.672l0.199,0.666l0.197,0.66l0.193,0.654l0.19,0.648l0.186,0.642l0.183,0.635l0.179,0.63l0.177,0.623l0.173,0.617l0.169,0.611l0.167,0.605l0.162,0.599l0.16,0.592l0.156,0.587l0.153,0.58l0.15,0.574l0.146,0.568l0.142,0.562l0.14,0.556l0.136,0.55l0.133,0.543l0.129,0.538l0.126,0.531l0.123,0.525l0.119,0.519l0.116,0.513l0.113,0.507l0.109,0.501l0.106,0.494l0.103,0.489l0.099,0.482l0.096,0.476l0.093,0.471l0.089,0.464l0.086,0.458l0.083,0.452l0.079,0.445l0.076,0.44l0.072,0.434l0.069,0.427l0.066,0.422l0.063,0.415l0.059,0.409l0.055,0.404l0.053,0.397l0.049,0.391l0.045,0.385l0.043,0.379l0.039,0.373l0.035,0.367l0.032,0.361l0.029,0.355l0.026,0.349l0.022,0.342l0.009,0.17l0.009,0.168l0.008,0.166l0.008,0.164l0.006,0.164l0.005,0.161l0.005,0.161l0.004,0.158l0.003,0.158l0.002,0.155l0.001,0.155l0.001,0.152l0,3.552l-0.006,0.079l-0.019,0.076l-0.03,0.072l-0.041,0.067l-0.051,0.06l-0.059,0.051l-0.067,0.041l-0.073,0.03l-0.076,0.018l-0.078,0.006l-5.424,0l-0.078,-0.006l-0.077,-0.018l-0.072,-0.03l-0.067,-0.041l-0.06,-0.051l-0.051,-0.06l-0.041,-0.067l-0.03,-0.072l-0.018,-0.076l-0.006,-0.079l0,-3.551l-0.001,-0.233l-0.003,-0.236l-0.005,-0.241l-0.006,-0.245l-0.008,-0.249l-0.01,-0.253l-0.013,-0.258l-0.013,-0.261l-0.016,-0.267l-0.018,-0.27l-0.019,-0.274l-0.022,-0.279l-0.023,-0.283l-0.025,-0.287l-0.013,-0.137l-6.963,0l-0.012,0.137l-0.026,0.287l-0.023,0.283l-0.021,0.279l-0.02,0.274l-0.017,0.27l-0.016,0.267l-0.014,0.261l-0.012,0.258l-0.01,0.253l-0.008,0.249l-0.007,0.245l-0.005,0.241l-0.002,0.236l-0.001,0.233l0,3.551l-0.006,0.079l-0.019,0.076l-0.03,0.072l-0.041,0.067l-0.051,0.06l-0.059,0.051l-0.067,0.041l-0.073,0.03l-0.076,0.018l-0.078,0.006l-5.424,0l-0.078,-0.006l-0.077,-0.018l-0.072,-0.03l-0.067,-0.041l-0.06,-0.051l-0.051,-0.06l-0.041,-0.067l-0.03,-0.072l-0.018,-0.076l-0.006,-0.079l0,-3.552l0,-0.152l0.001,-0.155l0.003,-0.155l0.003,-0.158l0.003,-0.158l0.005,-0.161l0.006,-0.161l0.006,-0.164l0.007,-0.164l0.008,-0.166l0.009,-0.168l0.01,-0.17l0.022,-0.342l0.026,-0.349l0.028,-0.355l0.033,-0.361l0.035,-0.367l0.039,-0.373l0.042,-0.379l0.046,-0.385l0.049,-0.391l0.052,-0.397l0.056,-0.404l0.059,-0.409l0.063,-0.415l0.065,-0.422l0.069,-0.427l0.073,-0.434l0.076,-0.44l0.079,-0.445l0.083,-0.452l0.085,-0.458l0.09,-0.464l0.092,-0.471l0.096,-0.476l0.099,-0.482l0.103,-0.489l0.106,-0.494l0.109,-0.501l0.113,-0.507l0.116,-0.513l0.12,-0.519l0.122,-0.525l0.126,-0.531l0.13,-0.538l0.133,-0.543l0.136,-0.55l0.139,-0.556l0.143,-0.562l0.146,-0.568l0.15,-0.574l0.152,-0.58l0.157,-0.587l0.159,-0.592l0.163,-0.599l0.166,-0.605l0.17,-0.611l0.173,-0.617l0.176,-0.623l0.18,-0.63l0.183,-0.635l0.186,-0.642l0.19,-0.648l0.193,-0.654l0.196,-0.66l0.2,-0.666l0.203,-0.672l0.206,-0.679l0.21,-0.685l0.213,-0.69l0.029,-0.074l0.041,-0.068l0.051,-0.061l0.06,-0.052l0.067,-0.042l0.074,-0.03l0.077,-0.019l0.079,-0.007l5.472,0l0.079,0.007Zm-5.182,0.993l-0.104,0.337l-0.209,0.683l-0.206,0.677l-0.203,0.67l-0.199,0.664l-0.195,0.659l-0.193,0.651l-0.189,0.646l-0.186,0.64l-0.182,0.633l-0.179,0.627l-0.176,0.621l-0.172,0.615l-0.169,0.608l-0.165,0.603l-0.163,0.596l-0.158,0.59l-0.156,0.584l-0.152,0.578l-0.149,0.571l-0.145,0.565l-0.142,0.559l-0.139,0.553l-0.135,0.547l-0.132,0.54l-0.129,0.534l-0.125,0.528l-0.122,0.522l-0.119,0.516l-0.115,0.509l-0.112,0.503l-0.109,0.497l-0.105,0.491l-0.101,0.484l-0.099,0.479l-0.095,0.472l-0.092,0.466l-0.088,0.459l-0.085,0.454l-0.082,0.447l-0.078,0.441l-0.075,0.434l-0.072,0.429l-0.068,0.422l-0.065,0.416l-0.062,0.41l-0.058,0.403l-0.055,0.397l-0.051,0.391l-0.048,0.385l-0.045,0.378l-0.042,0.372l-0.038,0.366l-0.035,0.36l-0.031,0.353l-0.028,0.347l-0.025,0.34l-0.022,0.335l-0.009,0.164l-0.009,0.163l-0.008,0.162l-0.007,0.16l-0.006,0.158l-0.005,0.157l-0.005,0.155l-0.004,0.154l-0.003,0.152l-0.002,0.15l-0.001,0.149l0,0.148l0,3.051l4.424,0l0,-3.053l0.001,-0.239l0.003,-0.244l0.004,-0.248l0.007,-0.251l0.009,-0.257l0.01,-0.26l0.012,-0.264l0.015,-0.268l0.016,-0.272l0.018,-0.276l0.02,-0.28l0.021,-0.284l0.024,-0.288l0.026,-0.293l0.027,-0.296l0.029,-0.299l0.015,-0.081l0.027,-0.077l0.04,-0.071l0.051,-0.064l0.06,-0.055l0.069,-0.044l0.075,-0.033l0.079,-0.02l0.082,-0.007l7.872,0l0.081,0.007l0.08,0.02l0.075,0.033l0.068,0.044l0.061,0.055l0.051,0.064l0.039,0.071l0.028,0.077l0.014,0.081l0.03,0.299l0.027,0.296l0.026,0.293l0.023,0.288l0.022,0.284l0.02,0.28l0.018,0.276l0.016,0.272l0.014,0.268l0.013,0.264l0.01,0.261l0.009,0.256l0.006,0.251l0.005,0.248l0.003,0.244l0.001,0.239l0,3.053l4.424,0l0,-3.051l-0.001,-0.148l-0.001,-0.149l-0.002,-0.15l-0.003,-0.152l-0.004,-0.154l-0.004,-0.155l-0.005,-0.157l-0.007,-0.158l-0.007,-0.16l-0.007,-0.162l-0.009,-0.163l-0.01,-0.164l-0.021,-0.335l-0.025,-0.34l-0.028,-0.347l-0.032,-0.353l-0.034,-0.36l-0.039,-0.366l-0.041,-0.372l-0.045,-0.378l-0.048,-0.385l-0.052,-0.391l-0.055,-0.397l-0.058,-0.403l-0.061,-0.41l-0.065,-0.416l-0.069,-0.422l-0.071,-0.429l-0.075,-0.434l-0.079,-0.441l-0.081,-0.447l-0.085,-0.454l-0.089,-0.459l-0.091,-0.466l-0.095,-0.472l-0.099,-0.479l-0.102,-0.484l-0.105,-0.491l-0.108,-0.497l-0.112,-0.503l-0.116,-0.509l-0.118,-0.516l-0.122,-0.522l-0.125,-0.528l-0.129,-0.534l-0.132,-0.54l-0.135,-0.547l-0.139,-0.553l-0.142,-0.559l-0.146,-0.565l-0.148,-0.571l-0.152,-0.578l-0.156,-0.584l-0.159,-0.59l-0.162,-0.596l-0.166,-0.603l-0.169,-0.608l-0.172,-0.615l-0.175,-0.621l-0.179,-0.627l-0.183,-0.633l-0.185,-0.64l-0.19,-0.646l-0.192,-0.651l-0.196,-0.659l-0.199,-0.664l-0.202,-0.67l-0.206,-0.677l-0.209,-0.683l-0.104,-0.337l-4.734,0Zm2.45,5.823l0.08,0.021l0.076,0.033l0.069,0.046l0.061,0.057l0.051,0.065l0.039,0.074l0.026,0.078l0.14,0.571l0.138,0.567l0.135,0.561l0.133,0.556l0.131,0.551l0.128,0.546l0.126,0.542l0.124,0.536l0.121,0.531l0.119,0.526l0.117,0.52l0.114,0.516l0.112,0.511l0.11,0.506l0.107,0.501l0.105,0.496l0.103,0.49l0.1,0.486l0.098,0.481l0.095,0.475l0.094,0.471l0.09,0.465l0.089,0.461l0.086,0.455l0.084,0.451l0.082,0.445l0.079,0.44l0.077,0.436l0.074,0.43l0.072,0.426l0.07,0.42l0.067,0.414l0.007,0.079l-0.006,0.078l-0.018,0.077l-0.03,0.072l-0.041,0.067l-0.051,0.06l-0.06,0.052l-0.067,0.041l-0.072,0.03l-0.077,0.018l-0.078,0.006l-6.624,0l-0.079,-0.006l-0.076,-0.018l-0.073,-0.03l-0.067,-0.041l-0.059,-0.052l-0.051,-0.06l-0.041,-0.067l-0.03,-0.072l-0.018,-0.077l-0.006,-0.078l0.006,-0.079l0.068,-0.414l0.069,-0.42l0.073,-0.426l0.074,-0.43l0.077,-0.436l0.079,-0.44l0.082,-0.445l0.083,-0.451l0.087,-0.455l0.088,-0.461l0.091,-0.465l0.093,-0.471l0.096,-0.475l0.098,-0.481l0.1,-0.486l0.102,-0.49l0.105,-0.496l0.108,-0.501l0.109,-0.506l0.112,-0.511l0.115,-0.516l0.116,-0.52l0.119,-0.526l0.121,-0.531l0.124,-0.536l0.126,-0.542l0.128,-0.546l0.131,-0.551l0.133,-0.556l0.136,-0.561l0.137,-0.567l0.14,-0.571l0.027,-0.078l0.039,-0.074l0.05,-0.065l0.061,-0.057l0.07,-0.046l0.076,-0.033l0.08,-0.021l0.083,-0.007l0.083,0.007Zm-0.142,2.861l-0.13,0.549l-0.128,0.544l-0.126,0.539l-0.123,0.534l-0.121,0.529l-0.118,0.524l-0.116,0.519l-0.114,0.514l-0.112,0.508l-0.109,0.504l-0.107,0.498l-0.104,0.493l-0.102,0.489l-0.1,0.483l-0.097,0.478l-0.095,0.473l-0.093,0.468l-0.09,0.462l-0.088,0.458l-0.086,0.453l-0.083,0.447l-0.081,0.443l-0.079,0.437l-0.076,0.432l-0.074,0.427l-0.071,0.422l-0.042,0.249l5.447,0l-0.041,-0.249l-0.072,-0.422l-0.073,-0.427l-0.077,-0.432l-0.078,-0.437l-0.081,-0.443l-0.084,-0.447l-0.085,-0.453l-0.088,-0.458l-0.091,-0.462l-0.092,-0.468l-0.095,-0.473l-0.098,-0.478l-0.099,-0.483l-0.103,-0.489l-0.104,-0.493l-0.107,-0.498l-0.109,-0.504l-0.111,-0.508l-0.114,-0.514l-0.116,-0.519l-0.119,-0.524l-0.121,-0.529l-0.123,-0.534l-0.125,-0.539l-0.128,-0.544l-0.13,-0.549l-0.059,-0.246l-0.059,0.246Z" style="fill:#d4d7de;"/><path d="M301.328,164.114l0.066,0.025l0.063,0.034l0.057,0.043l0.051,0.05l0.042,0.057l0.035,0.063l0.025,0.067l0.015,0.069l0.005,0.071l0,2.44l0.035,-0.055l0.077,-0.116l0.077,-0.115l0.079,-0.112l0.079,-0.111l0.081,-0.108l0.082,-0.107l0.082,-0.104l0.084,-0.103l0.085,-0.1l0.085,-0.098l0.087,-0.096l0.088,-0.095l0.089,-0.092l0.09,-0.09l0.091,-0.088l0.092,-0.086l0.093,-0.083l0.094,-0.082l0.095,-0.08l0.096,-0.077l0.097,-0.075l0.098,-0.073l0.099,-0.071l0.101,-0.069l0.101,-0.067l0.102,-0.064l0.103,-0.062l0.102,-0.059l0.084,-0.047l0.087,-0.047l0.088,-0.046l0.088,-0.044l0.09,-0.042l0.09,-0.041l0.091,-0.04l0.091,-0.038l0.093,-0.036l0.093,-0.034l0.094,-0.034l0.095,-0.031l0.096,-0.03l0.096,-0.028l0.097,-0.027l0.098,-0.026l0.098,-0.023l0.099,-0.023l0.1,-0.02l0.101,-0.019l0.101,-0.018l0.102,-0.016l0.102,-0.014l0.104,-0.013l0.104,-0.012l0.104,-0.009l0.105,-0.009l0.106,-0.007l0.107,-0.005l0.107,-0.004l0.108,-0.002l0.109,-0.001l0.11,0.001l0.109,0.003l0.11,0.004l0.109,0.007l0.109,0.008l0.109,0.009l0.108,0.012l0.108,0.013l0.108,0.015l0.107,0.017l0.108,0.019l0.106,0.02l0.107,0.022l0.106,0.024l0.106,0.026l0.106,0.028l0.105,0.029l0.105,0.031l0.104,0.033l0.105,0.034l0.104,0.037l0.103,0.038l0.103,0.039l0.103,0.042l0.102,0.043l0.102,0.045l0.102,0.047l0.101,0.048l0.101,0.05l0.1,0.052l0.1,0.054l0.1,0.055l0.099,0.057l0.099,0.06l0.098,0.06l0.096,0.063l0.095,0.063l0.094,0.066l0.093,0.067l0.091,0.069l0.091,0.07l0.089,0.071l0.087,0.074l0.087,0.075l0.085,0.076l0.085,0.078l0.082,0.08l0.082,0.081l0.08,0.082l0.08,0.084l0.077,0.086l0.077,0.087l0.075,0.089l0.074,0.09l0.073,0.091l0.072,0.094l0.07,0.094l0.069,0.096l0.068,0.098l0.066,0.099l0.065,0.1l0.064,0.102l0.063,0.103l0.065,0.112l0.061,0.116l0.055,0.109l0.053,0.109l0.051,0.109l0.05,0.11l0.049,0.11l0.047,0.111l0.045,0.111l0.044,0.111l0.042,0.112l0.04,0.113l0.039,0.112l0.038,0.114l0.036,0.113l0.034,0.114l0.032,0.111l0.014,0.069l0.005,0.07l-0.005,0.07l-0.015,0.069l-0.025,0.066l-0.033,0.062l-0.042,0.056l-0.05,0.051l-0.056,0.042l-0.061,0.035l-5.088,2.4l-0.063,0.024l-0.066,0.016l-0.067,0.007l-0.067,-0.002l-0.067,-0.011l-0.064,-0.021l-0.062,-0.028l-0.056,-0.037l-0.052,-0.044l-0.045,-0.05l-0.037,-0.057l-0.03,-0.06l-0.021,-0.064l-0.015,-0.056l-0.014,-0.051l-0.015,-0.051l-0.015,-0.05l-0.016,-0.049l-0.017,-0.048l-0.018,-0.048l-0.018,-0.047l-0.019,-0.046l-0.019,-0.046l-0.021,-0.045l-0.02,-0.044l-0.022,-0.044l-0.022,-0.043l-0.023,-0.042l-0.024,-0.042l-0.024,-0.041l-0.025,-0.041l-0.025,-0.04l-0.026,-0.039l-0.027,-0.039l-0.028,-0.038l-0.028,-0.038l-0.029,-0.037l-0.03,-0.037l-0.03,-0.036l-0.032,-0.035l-0.031,-0.035l-0.033,-0.035l-0.033,-0.034l-0.035,-0.033l-0.041,-0.039l-0.053,-0.052l-0.047,-0.044l-0.047,-0.042l-0.048,-0.041l-0.048,-0.039l-0.048,-0.037l-0.048,-0.036l-0.049,-0.035l-0.05,-0.033l-0.049,-0.031l-0.05,-0.03l-0.051,-0.028l-0.051,-0.027l-0.051,-0.025l-0.052,-0.025l-0.052,-0.022l-0.053,-0.022l-0.053,-0.02l-0.054,-0.018l-0.055,-0.017l-0.055,-0.016l-0.056,-0.015l-0.056,-0.013l-0.057,-0.012l-0.058,-0.01l-0.059,-0.009l-0.059,-0.008l-0.06,-0.006l-0.061,-0.005l-0.062,-0.004l-0.062,-0.002l-0.064,-0.001l-0.049,0.001l-0.048,0.001l-0.049,0.002l-0.048,0.002l-0.047,0.004l-0.047,0.004l-0.047,0.004l-0.046,0.006l-0.046,0.006l-0.045,0.006l-0.045,0.008l-0.045,0.008l-0.043,0.009l-0.044,0.01l-0.043,0.01l-0.043,0.011l-0.043,0.011l-0.042,0.013l-0.041,0.013l-0.042,0.014l-0.041,0.014l-0.041,0.015l-0.04,0.016l-0.04,0.016l-0.04,0.017l-0.039,0.018l-0.039,0.019l-0.039,0.019l-0.038,0.02l-0.038,0.021l-0.038,0.021l-0.045,0.026l-0.053,0.03l-0.044,0.027l-0.045,0.028l-0.044,0.029l-0.045,0.03l-0.044,0.031l-0.044,0.032l-0.044,0.034l-0.043,0.034l-0.044,0.036l-0.043,0.037l-0.043,0.039l-0.043,0.039l-0.043,0.041l-0.043,0.042l-0.042,0.043l-0.043,0.044l-0.042,0.045l-0.042,0.047l-0.041,0.048l-0.042,0.049l-0.041,0.051l-0.041,0.052l-0.041,0.053l-0.041,0.054l-0.04,0.056l-0.04,0.057l-0.04,0.058l-0.04,0.059l-0.04,0.061l-0.039,0.062l-0.035,0.058l-0.03,0.052l-0.032,0.059l-0.032,0.06l-0.032,0.06l-0.031,0.061l-0.03,0.062l-0.03,0.063l-0.03,0.063l-0.029,0.064l-0.029,0.065l-0.028,0.065l-0.027,0.067l-0.027,0.066l-0.027,0.068l-0.026,0.068l-0.026,0.069l-0.025,0.07l-0.024,0.069l-0.048,0.144l-0.046,0.146l-0.043,0.149l-0.042,0.151l-0.039,0.155l-0.038,0.157l-0.035,0.16l-0.033,0.164l-0.032,0.166l-0.029,0.168l-0.027,0.172l-0.025,0.175l-0.022,0.178l-0.021,0.18l-0.018,0.183l-0.017,0.187l-0.014,0.189l-0.012,0.192l-0.01,0.194l-0.007,0.198l-0.006,0.201l-0.003,0.203l-0.001,0.208l0,13.486l-0.005,0.072l-0.015,0.069l-0.025,0.067l-0.035,0.063l-0.042,0.057l-0.051,0.05l-0.057,0.043l-0.063,0.034l-0.066,0.025l-0.07,0.015l-0.071,0.005l-5.424,0l-0.071,-0.005l-0.07,-0.015l-0.067,-0.025l-0.063,-0.034l-0.057,-0.043l-0.05,-0.05l-0.043,-0.057l-0.034,-0.063l-0.025,-0.067l-0.015,-0.069l-0.005,-0.072l0,-25.44l0.005,-0.071l0.015,-0.069l0.025,-0.067l0.034,-0.063l0.043,-0.057l0.05,-0.05l0.057,-0.043l0.063,-0.034l0.067,-0.025l0.07,-0.015l0.071,-0.006l5.424,0l0.071,0.006l0.07,0.015Zm4.35,4.495l0.085,0.005l0.085,0.007l0.084,0.009l0.084,0.011l0.083,0.013l0.082,0.015l0.082,0.016l0.081,0.019l0.08,0.021l0.08,0.023l0.079,0.025l0.078,0.027l0.078,0.029l0.077,0.031l0.076,0.033l0.075,0.035l0.074,0.037l0.074,0.039l0.073,0.041l0.071,0.042l0.071,0.045l0.07,0.047l0.069,0.048l0.068,0.05l0.067,0.052l0.066,0.054l0.065,0.056l0.064,0.057l0.063,0.059l0.055,0.054l0.042,0.04l0.048,0.046l0.046,0.047l0.046,0.049l0.044,0.049l0.044,0.049l0.042,0.051l0.042,0.051l0.041,0.052l0.039,0.053l0.039,0.053l0.038,0.055l0.036,0.055l0.036,0.055l0.034,0.057l0.034,0.057l0.033,0.058l0.031,0.058l0.031,0.06l0.029,0.06l0.029,0.06l0.027,0.061l0.027,0.062l0.005,0.013l4.186,-1.974l-0.001,-0.001l-0.034,-0.1l-0.036,-0.1l-0.038,-0.099l-0.038,-0.099l-0.041,-0.098l-0.041,-0.099l-0.043,-0.098l-0.045,-0.097l-0.046,-0.097l-0.047,-0.097l-0.049,-0.097l-0.046,-0.089l-0.049,-0.084l-0.055,-0.09l-0.056,-0.089l-0.057,-0.087l-0.057,-0.086l-0.059,-0.085l-0.06,-0.083l-0.06,-0.082l-0.062,-0.08l-0.062,-0.079l-0.064,-0.077l-0.064,-0.076l-0.066,-0.074l-0.067,-0.074l-0.067,-0.071l-0.069,-0.071l-0.069,-0.069l-0.07,-0.067l-0.072,-0.067l-0.073,-0.065l-0.073,-0.063l-0.074,-0.062l-0.076,-0.061l-0.077,-0.06l-0.077,-0.058l-0.079,-0.057l-0.08,-0.055l-0.08,-0.054l-0.082,-0.053l-0.083,-0.052l-0.084,-0.05l-0.085,-0.049l-0.087,-0.048l-0.087,-0.047l-0.087,-0.045l-0.087,-0.043l-0.087,-0.042l-0.088,-0.04l-0.087,-0.039l-0.088,-0.037l-0.088,-0.036l-0.089,-0.034l-0.088,-0.032l-0.089,-0.031l-0.088,-0.03l-0.089,-0.027l-0.09,-0.027l-0.089,-0.025l-0.09,-0.023l-0.09,-0.022l-0.09,-0.02l-0.09,-0.019l-0.091,-0.017l-0.091,-0.016l-0.091,-0.015l-0.091,-0.012l-0.092,-0.012l-0.092,-0.009l-0.092,-0.009l-0.093,-0.006l-0.093,-0.006l-0.093,-0.003l-0.093,-0.003l-0.094,-0.001l-0.095,0.001l-0.094,0.002l-0.093,0.003l-0.092,0.005l-0.091,0.006l-0.091,0.007l-0.089,0.008l-0.089,0.01l-0.088,0.011l-0.087,0.012l-0.086,0.014l-0.086,0.015l-0.085,0.016l-0.084,0.017l-0.083,0.019l-0.082,0.02l-0.081,0.021l-0.081,0.022l-0.08,0.024l-0.079,0.024l-0.079,0.027l-0.078,0.027l-0.077,0.029l-0.076,0.029l-0.075,0.032l-0.075,0.032l-0.074,0.034l-0.074,0.034l-0.072,0.037l-0.072,0.037l-0.072,0.039l-0.072,0.041l-0.09,0.051l-0.086,0.052l-0.086,0.054l-0.085,0.056l-0.084,0.058l-0.083,0.059l-0.083,0.062l-0.082,0.064l-0.082,0.065l-0.081,0.068l-0.08,0.07l-0.08,0.072l-0.078,0.073l-0.079,0.076l-0.077,0.078l-0.077,0.08l-0.077,0.081l-0.075,0.084l-0.075,0.086l-0.075,0.088l-0.074,0.091l-0.073,0.092l-0.072,0.094l-0.072,0.097l-0.071,0.098l-0.07,0.101l-0.07,0.103l-0.069,0.105l-0.068,0.107l-0.068,0.109l-0.067,0.111l-0.069,0.12l-0.049,0.079l-0.043,0.074l-0.043,0.076l-0.042,0.076l-0.042,0.077l-0.041,0.079l-0.04,0.08l-0.04,0.081l-0.039,0.082l-0.038,0.083l-0.038,0.085l-0.037,0.086l-0.037,0.086l-0.035,0.088l-0.036,0.09l-0.035,0.093l-0.029,0.062l-0.038,0.059l-0.045,0.052l-0.052,0.046l-0.058,0.038l-0.063,0.03l-0.066,0.021l-0.068,0.011l-0.07,0.002l-0.069,-0.008l-0.067,-0.017l-0.064,-0.026l-0.06,-0.035l-0.054,-0.043l-0.048,-0.051l-0.041,-0.056l-0.032,-0.061l-0.024,-0.065l-0.014,-0.068l-0.005,-0.07l0,-4.012l-4.424,0l0,24.44l4.424,0l0,-12.989l0.001,-0.216l0.003,-0.214l0.006,-0.212l0.008,-0.209l0.011,-0.207l0.012,-0.204l0.016,-0.201l0.017,-0.199l0.02,-0.197l0.022,-0.194l0.024,-0.191l0.027,-0.189l0.03,-0.186l0.031,-0.184l0.034,-0.181l0.037,-0.178l0.039,-0.176l0.041,-0.174l0.044,-0.171l0.046,-0.168l0.048,-0.166l0.052,-0.163l0.053,-0.16l0.028,-0.08l0.028,-0.079l0.029,-0.078l0.03,-0.078l0.03,-0.077l0.031,-0.076l0.031,-0.075l0.032,-0.075l0.033,-0.074l0.034,-0.074l0.034,-0.073l0.034,-0.072l0.036,-0.072l0.036,-0.071l0.036,-0.07l0.037,-0.069l0.038,-0.069l0.042,-0.075l0.049,-0.079l0.046,-0.072l0.046,-0.071l0.047,-0.071l0.047,-0.068l0.048,-0.068l0.049,-0.067l0.049,-0.065l0.049,-0.064l0.05,-0.063l0.051,-0.062l0.051,-0.061l0.051,-0.059l0.053,-0.059l0.052,-0.057l0.054,-0.056l0.054,-0.054l0.054,-0.054l0.055,-0.052l0.056,-0.051l0.056,-0.05l0.057,-0.049l0.057,-0.047l0.058,-0.046l0.059,-0.045l0.059,-0.043l0.06,-0.042l0.06,-0.041l0.061,-0.04l0.061,-0.038l0.062,-0.037l0.055,-0.031l0.046,-0.027l0.054,-0.03l0.053,-0.03l0.054,-0.028l0.055,-0.027l0.055,-0.026l0.056,-0.025l0.055,-0.024l0.057,-0.023l0.057,-0.023l0.057,-0.021l0.058,-0.02l0.057,-0.019l0.059,-0.018l0.059,-0.018l0.059,-0.016l0.059,-0.015l0.06,-0.014l0.06,-0.014l0.061,-0.012l0.061,-0.011l0.061,-0.01l0.062,-0.009l0.062,-0.009l0.062,-0.007l0.062,-0.006l0.063,-0.006l0.063,-0.004l0.064,-0.003l0.063,-0.003l0.065,-0.001l0.065,-0.001l0.085,0.001l0.085,0.003Z" style="fill:#d4d7de;"/><path d="M327.281,154.26l0.076,0.018l0.073,0.03l0.067,0.041l0.059,0.051l0.051,0.06l0.041,0.066l0.03,0.073l0.019,0.076l0.006,0.078l0,9.34l6.316,0l0.078,0.007l0.076,0.018l0.073,0.03l0.067,0.041l0.059,0.051l0.051,0.06l0.041,0.066l0.03,0.073l0.019,0.076l0.006,0.078l0,4.896l-0.006,0.079l-0.019,0.076l-0.03,0.072l-0.041,0.067l-0.051,0.06l-0.059,0.051l-0.067,0.041l-0.073,0.03l-0.076,0.018l-0.078,0.006l-6.316,0l0,10.016l-0.002,0.158l0,0.15l0.001,0.148l0.004,0.146l0.005,0.144l0.007,0.141l0.009,0.139l0.01,0.138l0.012,0.135l0.014,0.133l0.016,0.131l0.018,0.128l0.019,0.127l0.021,0.124l0.023,0.123l0.024,0.12l0.026,0.118l0.028,0.116l0.029,0.114l0.031,0.111l0.033,0.11l0.034,0.107l0.036,0.105l0.038,0.104l0.039,0.101l0.041,0.099l0.042,0.097l0.044,0.095l0.046,0.093l0.047,0.09l0.048,0.089l0.054,0.093l0.026,0.046l0.024,0.04l0.025,0.04l0.024,0.039l0.025,0.039l0.026,0.037l0.025,0.037l0.026,0.036l0.026,0.035l0.027,0.035l0.027,0.034l0.027,0.033l0.028,0.032l0.027,0.031l0.028,0.031l0.029,0.031l0.028,0.029l0.029,0.029l0.03,0.028l0.03,0.027l0.029,0.027l0.031,0.026l0.03,0.025l0.031,0.025l0.032,0.024l0.031,0.024l0.032,0.022l0.033,0.023l0.032,0.021l0.034,0.021l0.033,0.02l0.036,0.022l0.051,0.029l0.045,0.024l0.047,0.022l0.048,0.021l0.05,0.019l0.051,0.018l0.053,0.016l0.054,0.014l0.056,0.013l0.058,0.012l0.06,0.01l0.062,0.008l0.064,0.006l0.066,0.005l0.067,0.002l0.07,0.001l0.07,-0.001l0.068,-0.002l0.067,-0.005l0.066,-0.006l0.064,-0.009l0.062,-0.01l0.062,-0.011l0.06,-0.014l0.059,-0.015l0.058,-0.017l0.056,-0.018l0.056,-0.021l0.054,-0.021l0.054,-0.024l0.053,-0.025l0.048,-0.026l0.028,-0.016l0.032,-0.02l0.033,-0.021l0.032,-0.022l0.032,-0.022l0.032,-0.023l0.032,-0.025l0.032,-0.025l0.031,-0.025l0.031,-0.027l0.031,-0.028l0.031,-0.028l0.031,-0.03l0.031,-0.03l0.03,-0.032l0.03,-0.032l0.03,-0.033l0.03,-0.034l0.03,-0.035l0.03,-0.036l0.029,-0.037l0.029,-0.038l0.029,-0.039l0.029,-0.04l0.029,-0.041l0.028,-0.042l0.028,-0.043l0.028,-0.044l0.028,-0.045l0.027,-0.046l0.028,-0.046l0.029,-0.052l0.04,-0.071l0.037,-0.066l0.035,-0.067l0.035,-0.069l0.034,-0.069l0.033,-0.07l0.032,-0.072l0.031,-0.072l0.03,-0.074l0.03,-0.075l0.028,-0.076l0.028,-0.076l0.027,-0.078l0.025,-0.079l0.025,-0.081l0.024,-0.081l0.023,-0.082l0.023,-0.084l0.021,-0.085l0.02,-0.085l0.02,-0.087l0.018,-0.088l0.018,-0.089l0.017,-0.09l0.015,-0.092l0.015,-0.092l0.014,-0.094l0.013,-0.094l0.012,-0.096l0.011,-0.097l0.01,-0.098l0.009,-0.102l0.013,-0.078l0.026,-0.075l0.037,-0.07l0.048,-0.064l0.057,-0.055l0.066,-0.045l0.071,-0.034l0.076,-0.023l0.079,-0.01l0.08,0.002l0.077,0.015l5.232,1.44l0.077,0.028l0.07,0.04l0.064,0.051l0.054,0.06l0.044,0.068l0.032,0.075l0.02,0.078l0.007,0.081l-0.007,0.081l-0.022,0.137l-0.024,0.139l-0.025,0.138l-0.026,0.137l-0.028,0.135l-0.03,0.135l-0.031,0.134l-0.032,0.133l-0.034,0.132l-0.035,0.131l-0.036,0.13l-0.038,0.129l-0.039,0.128l-0.041,0.127l-0.042,0.126l-0.043,0.125l-0.045,0.123l-0.046,0.123l-0.048,0.122l-0.049,0.121l-0.05,0.12l-0.052,0.119l-0.053,0.118l-0.055,0.116l-0.056,0.116l-0.057,0.115l-0.059,0.114l-0.061,0.112l-0.061,0.112l-0.063,0.11l-0.065,0.11l-0.06,0.099l-0.068,0.12l-0.075,0.126l-0.077,0.125l-0.078,0.123l-0.079,0.122l-0.081,0.119l-0.082,0.118l-0.084,0.116l-0.086,0.114l-0.087,0.112l-0.088,0.11l-0.09,0.108l-0.091,0.107l-0.093,0.105l-0.095,0.102l-0.096,0.101l-0.097,0.099l-0.099,0.097l-0.101,0.095l-0.102,0.094l-0.103,0.091l-0.105,0.09l-0.107,0.087l-0.108,0.085l-0.109,0.084l-0.111,0.082l-0.112,0.079l-0.114,0.078l-0.115,0.076l-0.116,0.074l-0.118,0.071l-0.119,0.07l-0.121,0.068l-0.122,0.066l-0.123,0.063l-0.124,0.062l-0.126,0.059l-0.126,0.057l-0.128,0.055l-0.128,0.052l-0.13,0.051l-0.131,0.048l-0.132,0.046l-0.133,0.044l-0.134,0.042l-0.135,0.04l-0.136,0.037l-0.138,0.036l-0.138,0.033l-0.139,0.031l-0.141,0.029l-0.141,0.026l-0.142,0.025l-0.144,0.022l-0.144,0.021l-0.146,0.018l-0.146,0.016l-0.148,0.013l-0.148,0.012l-0.15,0.01l-0.15,0.007l-0.151,0.005l-0.153,0.003l-0.153,0.001l-0.156,-0.001l-0.155,-0.003l-0.154,-0.005l-0.153,-0.007l-0.152,-0.01l-0.151,-0.012l-0.149,-0.013l-0.148,-0.016l-0.148,-0.018l-0.146,-0.021l-0.145,-0.022l-0.143,-0.024l-0.143,-0.027l-0.142,-0.029l-0.14,-0.031l-0.139,-0.033l-0.138,-0.035l-0.137,-0.038l-0.136,-0.04l-0.134,-0.042l-0.134,-0.044l-0.132,-0.046l-0.131,-0.048l-0.129,-0.051l-0.129,-0.053l-0.127,-0.055l-0.126,-0.057l-0.124,-0.059l-0.124,-0.062l-0.122,-0.063l-0.121,-0.066l-0.119,-0.068l-0.118,-0.07l-0.116,-0.071l-0.115,-0.073l-0.114,-0.076l-0.112,-0.077l-0.111,-0.078l-0.11,-0.081l-0.108,-0.083l-0.107,-0.084l-0.106,-0.086l-0.105,-0.088l-0.103,-0.09l-0.102,-0.092l-0.1,-0.093l-0.099,-0.095l-0.098,-0.097l-0.097,-0.099l-0.095,-0.101l-0.094,-0.102l-0.092,-0.104l-0.091,-0.106l-0.09,-0.108l-0.088,-0.11l-0.087,-0.111l-0.086,-0.113l-0.084,-0.115l-0.083,-0.116l-0.082,-0.118l-0.08,-0.12l-0.079,-0.122l-0.078,-0.123l-0.078,-0.129l-0.051,-0.09l-0.048,-0.087l-0.047,-0.086l-0.047,-0.088l-0.045,-0.088l-0.045,-0.089l-0.044,-0.089l-0.043,-0.09l-0.042,-0.091l-0.042,-0.091l-0.041,-0.091l-0.04,-0.093l-0.039,-0.093l-0.038,-0.093l-0.038,-0.094l-0.037,-0.095l-0.036,-0.096l-0.035,-0.095l-0.035,-0.097l-0.034,-0.097l-0.033,-0.098l-0.032,-0.098l-0.032,-0.099l-0.03,-0.1l-0.03,-0.1l-0.029,-0.1l-0.029,-0.102l-0.028,-0.102l-0.026,-0.102l-0.026,-0.103l-0.026,-0.104l-0.024,-0.104l-0.024,-0.105l-0.023,-0.105l-0.022,-0.106l-0.022,-0.106l-0.021,-0.108l-0.02,-0.107l-0.019,-0.109l-0.018,-0.108l-0.018,-0.11l-0.017,-0.11l-0.016,-0.11l-0.015,-0.112l-0.015,-0.111l-0.014,-0.113l-0.013,-0.113l-0.012,-0.113l-0.012,-0.114l-0.011,-0.115l-0.01,-0.115l-0.009,-0.116l-0.009,-0.116l-0.008,-0.117l-0.007,-0.118l-0.006,-0.118l-0.006,-0.119l-0.005,-0.12l-0.007,-0.239l-0.005,-0.243l-0.001,-0.243l0,-10.014l-4.012,0l-0.078,-0.006l-0.077,-0.018l-0.072,-0.03l-0.067,-0.041l-0.06,-0.051l-0.051,-0.06l-0.041,-0.067l-0.03,-0.072l-0.018,-0.076l-0.006,-0.079l0,-4.896l0.006,-0.078l0.018,-0.076l0.03,-0.073l0.041,-0.066l0.051,-0.06l0.06,-0.051l0.067,-0.041l0.072,-0.03l0.077,-0.018l0.078,-0.007l4.012,0l0,-9.34l0.006,-0.078l0.018,-0.076l0.03,-0.073l0.041,-0.066l0.051,-0.06l0.06,-0.051l0.067,-0.041l0.072,-0.03l0.077,-0.018l0.078,-0.007l5.472,0l0.078,0.007Zm-5.05,0.993l0,9.34l-0.006,0.079l-0.019,0.076l-0.03,0.072l-0.041,0.067l-0.051,0.06l-0.059,0.051l-0.067,0.041l-0.073,0.03l-0.076,0.018l-0.078,0.006l-4.012,0l0,3.896l4.012,0l0.078,0.007l0.076,0.018l0.073,0.03l0.067,0.041l0.059,0.051l0.051,0.06l0.041,0.066l0.03,0.073l0.019,0.076l0.006,0.078l0,10.511l0.001,0.234l0.004,0.23l0.008,0.229l0.004,0.112l0.005,0.112l0.006,0.111l0.007,0.111l0.008,0.11l0.008,0.11l0.008,0.109l0.01,0.108l0.01,0.108l0.011,0.107l0.012,0.106l0.012,0.106l0.013,0.105l0.014,0.105l0.014,0.104l0.015,0.103l0.016,0.102l0.016,0.102l0.017,0.102l0.018,0.1l0.019,0.1l0.019,0.1l0.02,0.098l0.021,0.098l0.021,0.098l0.022,0.097l0.023,0.096l0.023,0.096l0.024,0.094l0.025,0.095l0.025,0.093l0.026,0.093l0.027,0.093l0.027,0.092l0.029,0.091l0.028,0.09l0.03,0.09l0.03,0.089l0.031,0.089l0.031,0.088l0.033,0.087l0.033,0.087l0.033,0.086l0.034,0.086l0.035,0.085l0.036,0.084l0.036,0.084l0.037,0.083l0.038,0.082l0.038,0.082l0.039,0.081l0.04,0.081l0.04,0.08l0.041,0.079l0.041,0.079l0.043,0.078l0.043,0.078l0.041,0.072l0.067,0.109l0.07,0.112l0.071,0.109l0.072,0.108l0.073,0.107l0.075,0.104l0.075,0.103l0.077,0.101l0.078,0.099l0.078,0.098l0.08,0.096l0.081,0.094l0.082,0.092l0.083,0.091l0.084,0.089l0.086,0.087l0.086,0.086l0.088,0.084l0.088,0.082l0.09,0.081l0.091,0.079l0.092,0.078l0.093,0.075l0.094,0.075l0.095,0.072l0.097,0.071l0.097,0.069l0.099,0.068l0.1,0.066l0.101,0.064l0.102,0.063l0.103,0.061l0.104,0.059l0.104,0.057l0.106,0.055l0.107,0.054l0.109,0.051l0.109,0.05l0.111,0.048l0.112,0.046l0.113,0.044l0.114,0.042l0.116,0.041l0.116,0.038l0.118,0.037l0.12,0.035l0.12,0.033l0.122,0.031l0.123,0.029l0.124,0.028l0.126,0.025l0.126,0.024l0.129,0.022l0.129,0.02l0.131,0.018l0.132,0.016l0.133,0.015l0.135,0.012l0.136,0.01l0.137,0.009l0.139,0.007l0.14,0.005l0.141,0.002l0.143,0.001l0.139,-0.001l0.139,-0.002l0.137,-0.005l0.136,-0.007l0.135,-0.008l0.133,-0.011l0.133,-0.012l0.131,-0.015l0.131,-0.016l0.129,-0.018l0.128,-0.02l0.126,-0.022l0.126,-0.023l0.124,-0.026l0.124,-0.027l0.122,-0.03l0.121,-0.031l0.12,-0.033l0.119,-0.035l0.118,-0.037l0.117,-0.038l0.116,-0.041l0.114,-0.042l0.114,-0.044l0.112,-0.046l0.112,-0.048l0.11,-0.05l0.11,-0.052l0.108,-0.053l0.107,-0.056l0.107,-0.057l0.105,-0.059l0.104,-0.061l0.103,-0.063l0.102,-0.064l0.1,-0.066l0.099,-0.068l0.098,-0.07l0.097,-0.071l0.095,-0.073l0.094,-0.074l0.093,-0.076l0.091,-0.078l0.091,-0.08l0.089,-0.082l0.088,-0.083l0.086,-0.085l0.086,-0.086l0.084,-0.089l0.083,-0.09l0.081,-0.092l0.081,-0.094l0.079,-0.095l0.078,-0.098l0.077,-0.099l0.076,-0.101l0.074,-0.102l0.074,-0.105l0.072,-0.107l0.07,-0.108l0.07,-0.11l0.069,-0.112l0.067,-0.114l0.071,-0.124l0.064,-0.106l0.058,-0.097l0.056,-0.099l0.055,-0.1l0.054,-0.1l0.053,-0.102l0.051,-0.103l0.05,-0.103l0.049,-0.105l0.048,-0.106l0.047,-0.107l0.045,-0.108l0.044,-0.109l0.043,-0.11l0.042,-0.111l0.041,-0.112l0.039,-0.113l0.038,-0.114l0.037,-0.115l0.035,-0.116l0.035,-0.118l0.033,-0.118l0.032,-0.12l0.031,-0.12l0.029,-0.122l0.028,-0.123l0.027,-0.123l0.026,-0.125l0.014,-0.072l-4.232,-1.165l-0.008,0.051l-0.016,0.104l-0.018,0.103l-0.019,0.103l-0.02,0.101l-0.021,0.1l-0.022,0.1l-0.024,0.098l-0.024,0.098l-0.026,0.096l-0.027,0.096l-0.028,0.095l-0.029,0.093l-0.03,0.093l-0.032,0.092l-0.032,0.091l-0.034,0.089l-0.035,0.089l-0.036,0.088l-0.038,0.087l-0.038,0.086l-0.04,0.085l-0.041,0.084l-0.042,0.083l-0.043,0.082l-0.045,0.081l-0.042,0.074l-0.031,0.055l-0.034,0.059l-0.035,0.057l-0.035,0.057l-0.035,0.055l-0.036,0.055l-0.036,0.054l-0.037,0.053l-0.038,0.052l-0.038,0.051l-0.039,0.051l-0.039,0.049l-0.04,0.048l-0.04,0.048l-0.041,0.047l-0.042,0.046l-0.042,0.044l-0.043,0.044l-0.043,0.043l-0.044,0.042l-0.044,0.041l-0.045,0.04l-0.046,0.039l-0.046,0.039l-0.047,0.037l-0.047,0.035l-0.048,0.035l-0.049,0.034l-0.049,0.033l-0.049,0.032l-0.05,0.031l-0.057,0.033l-0.084,0.044l-0.083,0.04l-0.084,0.037l-0.085,0.034l-0.087,0.032l-0.088,0.029l-0.089,0.026l-0.089,0.023l-0.091,0.02l-0.092,0.018l-0.093,0.014l-0.094,0.012l-0.095,0.01l-0.095,0.006l-0.096,0.004l-0.097,0.002l-0.097,-0.002l-0.096,-0.004l-0.095,-0.006l-0.094,-0.01l-0.092,-0.012l-0.092,-0.015l-0.09,-0.018l-0.09,-0.02l-0.088,-0.024l-0.086,-0.027l-0.086,-0.029l-0.084,-0.033l-0.082,-0.035l-0.081,-0.039l-0.079,-0.041l-0.071,-0.041l-0.047,-0.027l-0.049,-0.03l-0.049,-0.031l-0.048,-0.032l-0.047,-0.032l-0.047,-0.034l-0.046,-0.034l-0.046,-0.035l-0.045,-0.036l-0.044,-0.037l-0.044,-0.038l-0.043,-0.038l-0.043,-0.04l-0.042,-0.04l-0.041,-0.041l-0.041,-0.042l-0.04,-0.042l-0.04,-0.044l-0.039,-0.044l-0.038,-0.045l-0.038,-0.045l-0.037,-0.047l-0.036,-0.047l-0.036,-0.048l-0.035,-0.049l-0.034,-0.049l-0.034,-0.051l-0.033,-0.05l-0.033,-0.052l-0.032,-0.053l-0.031,-0.053l-0.029,-0.049l-0.058,-0.101l-0.06,-0.109l-0.057,-0.111l-0.056,-0.113l-0.053,-0.115l-0.051,-0.117l-0.049,-0.118l-0.046,-0.121l-0.045,-0.122l-0.042,-0.124l-0.04,-0.126l-0.039,-0.128l-0.036,-0.129l-0.034,-0.132l-0.032,-0.133l-0.029,-0.135l-0.028,-0.137l-0.026,-0.138l-0.023,-0.141l-0.022,-0.142l-0.02,-0.144l-0.017,-0.146l-0.016,-0.147l-0.013,-0.15l-0.012,-0.151l-0.01,-0.153l-0.007,-0.155l-0.006,-0.156l-0.004,-0.159l-0.001,-0.16l0,-0.162l0.002,-0.158l0,-10.509l0.006,-0.078l0.018,-0.076l0.03,-0.073l0.041,-0.066l0.051,-0.06l0.06,-0.051l0.067,-0.041l0.072,-0.03l0.077,-0.018l0.078,-0.007l6.316,0l0,-3.896l-6.316,0l-0.078,-0.006l-0.077,-0.018l-0.072,-0.03l-0.067,-0.041l-0.06,-0.051l-0.051,-0.06l-0.041,-0.067l-0.03,-0.072l-0.018,-0.076l-0.006,-0.079l0,-9.34l-4.472,0Z" style="fill:#d4d7de;"/><path d="M351.24,163.711l0.228,0.004l0.224,0.007l0.223,0.009l0.22,0.012l0.218,0.015l0.215,0.018l0.213,0.02l0.21,0.023l0.208,0.026l0.206,0.029l0.203,0.031l0.101,0.017l0.1,0.017l0.1,0.018l0.099,0.019l0.098,0.019l0.098,0.02l0.097,0.021l0.097,0.022l0.096,0.022l0.095,0.023l0.095,0.024l0.094,0.024l0.094,0.025l0.093,0.026l0.092,0.026l0.092,0.028l0.091,0.028l0.09,0.028l0.09,0.029l0.09,0.03l0.088,0.031l0.088,0.032l0.088,0.032l0.087,0.033l0.086,0.033l0.086,0.034l0.085,0.035l0.084,0.036l0.084,0.037l0.083,0.037l0.083,0.038l0.082,0.038l0.081,0.039l0.081,0.04l0.08,0.041l0.079,0.042l0.079,0.042l0.078,0.043l0.078,0.043l0.075,0.044l0.13,0.075l0.13,0.079l0.128,0.08l0.127,0.082l0.125,0.083l0.122,0.086l0.122,0.087l0.119,0.089l0.117,0.091l0.116,0.092l0.114,0.094l0.112,0.096l0.11,0.098l0.108,0.099l0.107,0.101l0.104,0.103l0.103,0.104l0.101,0.107l0.099,0.107l0.097,0.11l0.095,0.111l0.093,0.113l0.091,0.115l0.09,0.116l0.087,0.118l0.086,0.12l0.084,0.121l0.081,0.123l0.08,0.124l0.078,0.127l0.076,0.127l0.071,0.125l0.043,0.074l0.043,0.077l0.043,0.077l0.041,0.078l0.041,0.078l0.041,0.079l0.039,0.079l0.039,0.079l0.037,0.08l0.037,0.08l0.037,0.08l0.035,0.081l0.034,0.082l0.034,0.081l0.033,0.082l0.032,0.081l0.02,0.063l0.011,0.065l0.003,0.067l-0.007,0.066l-0.014,0.065l-0.024,0.062l-0.031,0.059l-0.039,0.053l-0.046,0.049l-0.051,0.041l-0.057,0.035l-0.061,0.027l-5.04,1.824l-0.065,0.018l-0.068,0.01l-0.068,0.001l-0.067,-0.009l-0.065,-0.018l-0.063,-0.026l-0.058,-0.035l-0.054,-0.042l-0.046,-0.05l-0.04,-0.055l-0.032,-0.059l-0.041,-0.091l-0.04,-0.084l-0.041,-0.081l-0.042,-0.08l-0.043,-0.078l-0.045,-0.076l-0.045,-0.074l-0.047,-0.072l-0.048,-0.07l-0.05,-0.069l-0.05,-0.067l-0.052,-0.064l-0.052,-0.063l-0.054,-0.062l-0.055,-0.059l-0.058,-0.059l-0.034,-0.034l-0.036,-0.035l-0.037,-0.034l-0.037,-0.033l-0.037,-0.033l-0.038,-0.032l-0.039,-0.032l-0.039,-0.031l-0.039,-0.031l-0.04,-0.03l-0.04,-0.029l-0.041,-0.029l-0.041,-0.029l-0.042,-0.028l-0.042,-0.027l-0.043,-0.027l-0.043,-0.027l-0.044,-0.025l-0.045,-0.026l-0.045,-0.025l-0.045,-0.024l-0.046,-0.024l-0.046,-0.023l-0.048,-0.022l-0.047,-0.023l-0.048,-0.021l-0.049,-0.021l-0.049,-0.021l-0.05,-0.02l-0.05,-0.019l-0.051,-0.019l-0.052,-0.019l-0.052,-0.018l-0.052,-0.017l-0.054,-0.017l-0.053,-0.016l-0.055,-0.016l-0.053,-0.015l-0.113,-0.029l-0.114,-0.026l-0.117,-0.024l-0.119,-0.022l-0.121,-0.02l-0.123,-0.018l-0.126,-0.015l-0.128,-0.013l-0.131,-0.011l-0.133,-0.008l-0.136,-0.006l-0.138,-0.003l-0.141,-0.002l-0.156,0.002l-0.153,0.003l-0.15,0.005l-0.147,0.008l-0.143,0.009l-0.14,0.012l-0.137,0.014l-0.134,0.015l-0.13,0.018l-0.127,0.02l-0.123,0.022l-0.121,0.024l-0.117,0.026l-0.113,0.027l-0.112,0.03l-0.052,0.015l-0.053,0.016l-0.052,0.017l-0.051,0.017l-0.051,0.017l-0.05,0.018l-0.049,0.018l-0.048,0.019l-0.047,0.019l-0.046,0.019l-0.046,0.02l-0.045,0.02l-0.043,0.021l-0.044,0.021l-0.042,0.022l-0.041,0.022l-0.041,0.022l-0.04,0.023l-0.039,0.023l-0.039,0.024l-0.037,0.024l-0.037,0.024l-0.036,0.025l-0.036,0.025l-0.034,0.025l-0.034,0.026l-0.033,0.026l-0.033,0.027l-0.032,0.027l-0.031,0.028l-0.03,0.027l-0.03,0.029l-0.029,0.028l-0.032,0.033l-0.031,0.032l-0.027,0.029l-0.026,0.029l-0.025,0.029l-0.024,0.03l-0.023,0.029l-0.022,0.031l-0.022,0.03l-0.02,0.031l-0.02,0.031l-0.019,0.032l-0.018,0.032l-0.018,0.032l-0.016,0.033l-0.016,0.034l-0.015,0.033l-0.015,0.035l-0.013,0.034l-0.013,0.036l-0.012,0.036l-0.012,0.036l-0.011,0.037l-0.009,0.038l-0.01,0.038l-0.008,0.039l-0.008,0.04l-0.007,0.04l-0.006,0.041l-0.005,0.042l-0.004,0.042l-0.004,0.043l-0.001,0.011l0.003,0.033l0.008,0.065l0.009,0.065l0.01,0.065l0.012,0.064l0.014,0.064l0.015,0.063l0.017,0.064l0.019,0.063l0.02,0.063l0.022,0.062l0.023,0.063l0.025,0.062l0.027,0.062l0.028,0.062l0.022,0.045l0.013,0.021l0.023,0.037l0.024,0.037l0.025,0.036l0.025,0.036l0.026,0.035l0.026,0.035l0.027,0.034l0.027,0.034l0.028,0.033l0.029,0.033l0.028,0.032l0.03,0.032l0.03,0.031l0.031,0.031l0.031,0.031l0.032,0.03l0.032,0.029l0.033,0.03l0.034,0.028l0.034,0.029l0.035,0.027l0.035,0.028l0.037,0.027l0.036,0.027l0.037,0.026l0.038,0.025l0.039,0.026l0.039,0.025l0.04,0.024l0.041,0.024l0.044,0.025l0.061,0.035l0.059,0.032l0.063,0.031l0.066,0.032l0.07,0.031l0.074,0.031l0.078,0.03l0.08,0.03l0.085,0.03l0.088,0.029l0.092,0.029l0.096,0.028l0.098,0.028l0.103,0.027l0.106,0.026l0.109,0.026l0.113,0.026l0.116,0.024l0.12,0.024l0.123,0.024l0.127,0.023l0.13,0.022l0.133,0.021l0.137,0.021l0.14,0.02l0.143,0.019l0.147,0.019l0.15,0.018l0.153,0.017l0.157,0.017l0.16,0.015l0.165,0.016l0.2,0.019l0.198,0.02l0.195,0.022l0.192,0.023l0.189,0.025l0.187,0.026l0.184,0.028l0.181,0.029l0.179,0.03l0.175,0.032l0.173,0.033l0.171,0.035l0.167,0.036l0.165,0.038l0.162,0.039l0.159,0.041l0.156,0.042l0.154,0.044l0.151,0.045l0.148,0.047l0.146,0.048l0.143,0.05l0.14,0.051l0.137,0.053l0.135,0.054l0.132,0.057l0.13,0.057l0.126,0.06l0.124,0.061l0.121,0.062l0.119,0.065l0.115,0.066l0.112,0.066l0.109,0.068l0.109,0.07l0.107,0.071l0.106,0.072l0.104,0.074l0.103,0.076l0.102,0.077l0.1,0.079l0.099,0.081l0.097,0.082l0.097,0.084l0.094,0.085l0.094,0.086l0.091,0.089l0.091,0.089l0.089,0.092l0.088,0.093l0.086,0.094l0.085,0.096l0.083,0.097l0.082,0.099l0.08,0.101l0.079,0.102l0.078,0.103l0.076,0.105l0.075,0.107l0.073,0.107l0.072,0.11l0.07,0.11l0.069,0.113l0.068,0.114l0.07,0.122l0.066,0.123l0.065,0.123l0.063,0.124l0.06,0.125l0.058,0.126l0.056,0.126l0.054,0.128l0.052,0.128l0.049,0.129l0.047,0.13l0.045,0.13l0.043,0.132l0.041,0.132l0.038,0.133l0.036,0.134l0.035,0.134l0.031,0.136l0.03,0.135l0.027,0.137l0.026,0.138l0.023,0.138l0.02,0.139l0.019,0.139l0.016,0.141l0.015,0.141l0.012,0.142l0.009,0.142l0.008,0.143l0.005,0.144l0.004,0.144l0.001,0.145l-0.001,0.13l-0.003,0.129l-0.004,0.127l-0.006,0.127l-0.009,0.126l-0.009,0.126l-0.012,0.124l-0.014,0.124l-0.015,0.122l-0.017,0.122l-0.019,0.121l-0.021,0.12l-0.022,0.119l-0.025,0.119l-0.026,0.117l-0.028,0.117l-0.03,0.115l-0.032,0.115l-0.034,0.114l-0.035,0.113l-0.037,0.112l-0.04,0.111l-0.041,0.11l-0.042,0.109l-0.045,0.109l-0.047,0.107l-0.048,0.106l-0.05,0.105l-0.053,0.105l-0.053,0.103l-0.056,0.102l-0.057,0.101l-0.062,0.105l-0.064,0.104l-0.065,0.104l-0.068,0.102l-0.069,0.101l-0.07,0.1l-0.073,0.098l-0.074,0.098l-0.076,0.096l-0.077,0.095l-0.08,0.094l-0.081,0.092l-0.082,0.091l-0.084,0.09l-0.086,0.089l-0.088,0.087l-0.089,0.086l-0.091,0.085l-0.093,0.084l-0.094,0.082l-0.096,0.082l-0.097,0.079l-0.099,0.079l-0.101,0.077l-0.102,0.076l-0.104,0.075l-0.105,0.074l-0.107,0.072l-0.109,0.071l-0.11,0.07l-0.112,0.068l-0.116,0.069l-0.087,0.049l-0.085,0.046l-0.085,0.045l-0.086,0.045l-0.086,0.044l-0.087,0.044l-0.088,0.042l-0.088,0.042l-0.089,0.041l-0.089,0.04l-0.09,0.04l-0.091,0.038l-0.091,0.038l-0.092,0.038l-0.092,0.036l-0.093,0.036l-0.093,0.035l-0.094,0.034l-0.095,0.034l-0.095,0.032l-0.096,0.032l-0.096,0.032l-0.097,0.03l-0.097,0.03l-0.098,0.029l-0.099,0.028l-0.099,0.028l-0.099,0.026l-0.101,0.026l-0.1,0.026l-0.102,0.024l-0.102,0.024l-0.102,0.023l-0.103,0.022l-0.104,0.022l-0.104,0.021l-0.105,0.02l-0.105,0.019l-0.106,0.019l-0.106,0.017l-0.107,0.018l-0.107,0.016l-0.109,0.016l-0.108,0.014l-0.109,0.015l-0.11,0.013l-0.11,0.013l-0.111,0.012l-0.112,0.011l-0.112,0.011l-0.225,0.018l-0.228,0.016l-0.23,0.013l-0.232,0.01l-0.235,0.008l-0.236,0.004l-0.239,0.001l-0.23,-0.001l-0.227,-0.004l-0.225,-0.007l-0.222,-0.009l-0.22,-0.012l-0.218,-0.015l-0.215,-0.018l-0.213,-0.02l-0.211,-0.023l-0.208,-0.026l-0.206,-0.029l-0.202,-0.031l-0.102,-0.017l-0.1,-0.017l-0.099,-0.018l-0.099,-0.019l-0.099,-0.019l-0.098,-0.021l-0.097,-0.02l-0.096,-0.022l-0.096,-0.022l-0.096,-0.023l-0.094,-0.024l-0.094,-0.024l-0.094,-0.025l-0.093,-0.026l-0.092,-0.027l-0.092,-0.027l-0.091,-0.028l-0.091,-0.028l-0.09,-0.03l-0.089,-0.03l-0.089,-0.03l-0.088,-0.032l-0.087,-0.032l-0.087,-0.033l-0.086,-0.033l-0.086,-0.035l-0.085,-0.035l-0.085,-0.035l-0.084,-0.037l-0.083,-0.037l-0.082,-0.038l-0.082,-0.038l-0.082,-0.04l-0.08,-0.04l-0.08,-0.04l-0.08,-0.042l-0.079,-0.042l-0.078,-0.043l-0.077,-0.043l-0.076,-0.044l-0.129,-0.075l-0.13,-0.079l-0.129,-0.08l-0.126,-0.082l-0.125,-0.084l-0.123,-0.085l-0.121,-0.087l-0.119,-0.089l-0.118,-0.091l-0.116,-0.092l-0.113,-0.094l-0.112,-0.096l-0.111,-0.098l-0.108,-0.099l-0.106,-0.101l-0.105,-0.103l-0.102,-0.104l-0.101,-0.107l-0.099,-0.108l-0.097,-0.109l-0.095,-0.111l-0.094,-0.113l-0.091,-0.115l-0.089,-0.116l-0.088,-0.118l-0.085,-0.12l-0.084,-0.121l-0.082,-0.123l-0.079,-0.125l-0.078,-0.126l-0.076,-0.127l-0.072,-0.126l-0.042,-0.073l-0.044,-0.077l-0.042,-0.077l-0.042,-0.078l-0.041,-0.078l-0.04,-0.079l-0.039,-0.079l-0.039,-0.079l-0.038,-0.08l-0.037,-0.08l-0.036,-0.081l-0.035,-0.08l-0.035,-0.082l-0.034,-0.082l-0.033,-0.082l-0.031,-0.08l-0.02,-0.063l-0.011,-0.065l-0.003,-0.067l0.006,-0.066l0.015,-0.065l0.023,-0.062l0.032,-0.059l0.039,-0.053l0.045,-0.049l0.052,-0.041l0.057,-0.035l0.061,-0.027l5.04,-1.824l0.065,-0.018l0.067,-0.01l0.068,-0.001l0.067,0.009l0.066,0.018l0.063,0.026l0.058,0.035l0.053,0.042l0.047,0.049l0.04,0.055l0.032,0.06l0.04,0.091l0.04,0.083l0.041,0.082l0.042,0.08l0.044,0.078l0.044,0.076l0.046,0.074l0.047,0.072l0.048,0.07l0.049,0.069l0.051,0.066l0.051,0.065l0.053,0.063l0.054,0.061l0.055,0.06l0.057,0.059l0.035,0.034l0.036,0.035l0.037,0.033l0.037,0.034l0.037,0.033l0.038,0.032l0.038,0.032l0.039,0.031l0.04,0.031l0.039,0.03l0.041,0.029l0.04,0.029l0.042,0.029l0.042,0.028l0.042,0.027l0.043,0.027l0.043,0.027l0.044,0.025l0.044,0.026l0.045,0.024l0.046,0.025l0.046,0.023l0.046,0.024l0.047,0.022l0.048,0.022l0.048,0.022l0.048,0.021l0.05,0.021l0.05,0.02l0.05,0.019l0.051,0.019l0.051,0.019l0.052,0.017l0.053,0.018l0.053,0.017l0.054,0.016l0.054,0.016l0.054,0.014l0.113,0.03l0.114,0.026l0.116,0.024l0.119,0.022l0.121,0.02l0.124,0.018l0.126,0.015l0.128,0.013l0.131,0.01l0.133,0.009l0.135,0.006l0.138,0.003l0.141,0.001l0.156,-0.001l0.154,-0.003l0.15,-0.005l0.146,-0.008l0.144,-0.009l0.14,-0.012l0.137,-0.014l0.133,-0.016l0.131,-0.017l0.127,-0.02l0.123,-0.022l0.12,-0.024l0.117,-0.026l0.114,-0.027l0.111,-0.03l0.053,-0.015l0.053,-0.016l0.052,-0.017l0.051,-0.017l0.051,-0.017l0.049,-0.018l0.049,-0.018l0.048,-0.019l0.047,-0.019l0.047,-0.019l0.045,-0.02l0.045,-0.02l0.044,-0.021l0.043,-0.021l0.043,-0.022l0.041,-0.022l0.041,-0.022l0.04,-0.023l0.039,-0.023l0.038,-0.024l0.038,-0.024l0.037,-0.024l0.036,-0.025l0.035,-0.025l0.035,-0.025l0.034,-0.026l0.033,-0.026l0.032,-0.027l0.032,-0.027l0.031,-0.028l0.031,-0.027l0.029,-0.029l0.029,-0.028l0.032,-0.033l0.032,-0.032l0.027,-0.029l0.025,-0.029l0.025,-0.029l0.024,-0.03l0.024,-0.03l0.022,-0.03l0.021,-0.03l0.021,-0.031l0.02,-0.031l0.019,-0.032l0.018,-0.032l0.017,-0.032l0.017,-0.033l0.016,-0.034l0.015,-0.033l0.014,-0.035l0.014,-0.035l0.013,-0.035l0.012,-0.036l0.011,-0.036l0.011,-0.037l0.01,-0.038l0.009,-0.038l0.009,-0.039l0.007,-0.04l0.007,-0.04l0.006,-0.041l0.005,-0.042l0.005,-0.042l0.004,-0.043l0,-0.011l-0.003,-0.033l-0.007,-0.065l-0.009,-0.065l-0.011,-0.065l-0.012,-0.064l-0.014,-0.064l-0.015,-0.063l-0.017,-0.064l-0.018,-0.063l-0.02,-0.063l-0.022,-0.062l-0.023,-0.063l-0.025,-0.062l-0.027,-0.062l-0.028,-0.062l-0.022,-0.045l-0.013,-0.021l-0.024,-0.037l-0.024,-0.037l-0.024,-0.036l-0.026,-0.036l-0.025,-0.035l-0.027,-0.035l-0.026,-0.034l-0.028,-0.034l-0.028,-0.033l-0.028,-0.033l-0.029,-0.032l-0.03,-0.032l-0.03,-0.031l-0.03,-0.031l-0.031,-0.031l-0.032,-0.03l-0.033,-0.029l-0.033,-0.03l-0.033,-0.028l-0.035,-0.029l-0.034,-0.027l-0.036,-0.028l-0.036,-0.027l-0.037,-0.027l-0.037,-0.026l-0.038,-0.025l-0.038,-0.026l-0.04,-0.025l-0.039,-0.024l-0.041,-0.024l-0.044,-0.026l-0.062,-0.035l-0.059,-0.031l-0.062,-0.031l-0.067,-0.032l-0.07,-0.031l-0.073,-0.031l-0.078,-0.03l-0.081,-0.03l-0.085,-0.03l-0.088,-0.029l-0.092,-0.029l-0.095,-0.028l-0.099,-0.028l-0.102,-0.027l-0.106,-0.026l-0.11,-0.026l-0.113,-0.026l-0.116,-0.024l-0.12,-0.024l-0.123,-0.024l-0.126,-0.023l-0.13,-0.022l-0.133,-0.021l-0.137,-0.021l-0.14,-0.02l-0.144,-0.019l-0.146,-0.019l-0.15,-0.018l-0.154,-0.017l-0.156,-0.017l-0.16,-0.015l-0.166,-0.016l-0.199,-0.019l-0.198,-0.02l-0.195,-0.022l-0.192,-0.023l-0.19,-0.025l-0.187,-0.026l-0.184,-0.028l-0.181,-0.029l-0.178,-0.03l-0.176,-0.032l-0.173,-0.033l-0.17,-0.035l-0.167,-0.036l-0.165,-0.038l-0.162,-0.039l-0.159,-0.041l-0.157,-0.042l-0.153,-0.044l-0.151,-0.045l-0.149,-0.047l-0.145,-0.048l-0.143,-0.05l-0.14,-0.051l-0.138,-0.053l-0.135,-0.054l-0.132,-0.057l-0.129,-0.057l-0.127,-0.06l-0.124,-0.061l-0.121,-0.063l-0.118,-0.064l-0.115,-0.066l-0.112,-0.066l-0.11,-0.068l-0.108,-0.07l-0.107,-0.071l-0.106,-0.072l-0.105,-0.075l-0.103,-0.075l-0.101,-0.078l-0.1,-0.078l-0.099,-0.081l-0.098,-0.082l-0.096,-0.084l-0.095,-0.085l-0.093,-0.086l-0.092,-0.089l-0.09,-0.09l-0.089,-0.091l-0.088,-0.093l-0.086,-0.094l-0.085,-0.096l-0.083,-0.098l-0.082,-0.098l-0.081,-0.101l-0.079,-0.102l-0.077,-0.103l-0.077,-0.105l-0.074,-0.107l-0.074,-0.107l-0.071,-0.11l-0.071,-0.111l-0.069,-0.112l-0.068,-0.114l-0.069,-0.123l-0.067,-0.122l-0.065,-0.123l-0.062,-0.124l-0.06,-0.125l-0.059,-0.126l-0.056,-0.127l-0.053,-0.127l-0.052,-0.128l-0.05,-0.129l-0.047,-0.13l-0.045,-0.131l-0.043,-0.131l-0.04,-0.132l-0.039,-0.133l-0.036,-0.134l-0.034,-0.134l-0.032,-0.136l-0.029,-0.136l-0.028,-0.136l-0.025,-0.138l-0.023,-0.138l-0.021,-0.139l-0.018,-0.14l-0.017,-0.14l-0.014,-0.141l-0.012,-0.142l-0.01,-0.142l-0.007,-0.143l-0.006,-0.144l-0.003,-0.144l-0.001,-0.145l0.001,-0.13l0.002,-0.129l0.005,-0.127l0.006,-0.127l0.008,-0.126l0.01,-0.126l0.012,-0.124l0.013,-0.124l0.015,-0.122l0.018,-0.122l0.019,-0.121l0.02,-0.12l0.023,-0.119l0.024,-0.119l0.027,-0.117l0.028,-0.117l0.03,-0.115l0.031,-0.115l0.034,-0.114l0.036,-0.113l0.037,-0.112l0.039,-0.111l0.041,-0.11l0.043,-0.109l0.045,-0.109l0.046,-0.107l0.049,-0.106l0.05,-0.105l0.052,-0.105l0.054,-0.103l0.056,-0.102l0.057,-0.101l0.062,-0.105l0.063,-0.104l0.066,-0.104l0.067,-0.102l0.069,-0.101l0.071,-0.1l0.072,-0.098l0.075,-0.098l0.075,-0.096l0.078,-0.095l0.079,-0.094l0.081,-0.092l0.083,-0.091l0.084,-0.09l0.086,-0.089l0.087,-0.087l0.09,-0.087l0.091,-0.084l0.092,-0.084l0.094,-0.083l0.096,-0.081l0.098,-0.079l0.099,-0.079l0.1,-0.077l0.103,-0.076l0.103,-0.075l0.106,-0.074l0.107,-0.072l0.108,-0.071l0.111,-0.07l0.111,-0.068l0.116,-0.069l0.088,-0.049l0.084,-0.046l0.085,-0.046l0.086,-0.044l0.087,-0.044l0.087,-0.044l0.088,-0.042l0.088,-0.042l0.088,-0.041l0.09,-0.04l0.09,-0.04l0.09,-0.039l0.092,-0.037l0.091,-0.038l0.092,-0.036l0.093,-0.036l0.094,-0.035l0.094,-0.034l0.094,-0.034l0.095,-0.032l0.096,-0.032l0.096,-0.032l0.097,-0.03l0.098,-0.03l0.098,-0.029l0.098,-0.028l0.099,-0.028l0.1,-0.026l0.1,-0.026l0.101,-0.026l0.101,-0.024l0.102,-0.024l0.103,-0.023l0.103,-0.022l0.103,-0.022l0.104,-0.021l0.105,-0.02l0.105,-0.019l0.106,-0.019l0.107,-0.017l0.107,-0.018l0.107,-0.016l0.108,-0.016l0.109,-0.015l0.109,-0.014l0.11,-0.013l0.11,-0.013l0.111,-0.012l0.111,-0.011l0.113,-0.011l0.225,-0.018l0.227,-0.016l0.231,-0.013l0.232,-0.011l0.234,-0.007l0.237,-0.004l0.239,-0.002l0.229,0.002Zm-0.456,1l-0.224,0.004l-0.222,0.007l-0.219,0.009l-0.217,0.013l-0.215,0.015l-0.213,0.017l-0.104,0.01l-0.104,0.011l-0.104,0.011l-0.103,0.012l-0.103,0.012l-0.102,0.014l-0.101,0.014l-0.101,0.014l-0.1,0.015l-0.1,0.016l-0.099,0.017l-0.098,0.017l-0.097,0.018l-0.097,0.019l-0.097,0.019l-0.096,0.02l-0.095,0.021l-0.095,0.021l-0.094,0.022l-0.093,0.022l-0.093,0.024l-0.092,0.024l-0.091,0.024l-0.091,0.025l-0.091,0.026l-0.09,0.027l-0.089,0.027l-0.088,0.028l-0.088,0.028l-0.087,0.03l-0.087,0.029l-0.086,0.031l-0.086,0.031l-0.085,0.032l-0.084,0.032l-0.084,0.033l-0.083,0.034l-0.082,0.035l-0.082,0.035l-0.082,0.035l-0.08,0.037l-0.081,0.037l-0.079,0.038l-0.079,0.038l-0.079,0.039l-0.077,0.04l-0.078,0.04l-0.076,0.041l-0.076,0.041l-0.073,0.041l-0.098,0.058l-0.1,0.061l-0.098,0.062l-0.096,0.063l-0.094,0.064l-0.093,0.065l-0.092,0.066l-0.09,0.066l-0.088,0.068l-0.087,0.069l-0.085,0.07l-0.083,0.07l-0.082,0.072l-0.081,0.073l-0.079,0.074l-0.077,0.074l-0.076,0.076l-0.074,0.077l-0.073,0.077l-0.071,0.079l-0.07,0.08l-0.068,0.08l-0.067,0.082l-0.065,0.083l-0.064,0.084l-0.062,0.084l-0.061,0.086l-0.059,0.087l-0.058,0.088l-0.056,0.089l-0.055,0.09l-0.054,0.092l-0.05,0.086l-0.047,0.087l-0.045,0.087l-0.044,0.088l-0.043,0.09l-0.041,0.09l-0.039,0.091l-0.038,0.091l-0.037,0.093l-0.035,0.094l-0.033,0.094l-0.032,0.096l-0.03,0.096l-0.029,0.098l-0.027,0.098l-0.026,0.1l-0.024,0.1l-0.023,0.101l-0.021,0.103l-0.02,0.103l-0.018,0.104l-0.016,0.106l-0.015,0.106l-0.014,0.108l-0.011,0.108l-0.011,0.109l-0.008,0.111l-0.007,0.111l-0.006,0.113l-0.004,0.113l-0.002,0.115l-0.001,0.115l0.001,0.131l0.003,0.129l0.005,0.128l0.006,0.128l0.009,0.127l0.011,0.126l0.012,0.125l0.015,0.124l0.016,0.124l0.019,0.123l0.02,0.122l0.022,0.121l0.025,0.121l0.026,0.12l0.028,0.119l0.029,0.118l0.032,0.117l0.034,0.117l0.036,0.116l0.037,0.115l0.04,0.115l0.041,0.114l0.044,0.113l0.045,0.113l0.047,0.112l0.049,0.111l0.052,0.11l0.053,0.11l0.055,0.109l0.057,0.109l0.059,0.108l0.06,0.106l0.06,0.1l0.061,0.1l0.062,0.098l0.063,0.096l0.065,0.095l0.065,0.094l0.067,0.092l0.068,0.091l0.07,0.089l0.07,0.088l0.072,0.087l0.073,0.085l0.074,0.083l0.075,0.083l0.076,0.081l0.078,0.079l0.079,0.079l0.08,0.077l0.081,0.075l0.083,0.074l0.083,0.073l0.085,0.072l0.086,0.07l0.088,0.068l0.088,0.068l0.09,0.066l0.092,0.065l0.092,0.063l0.094,0.063l0.095,0.06l0.096,0.06l0.097,0.058l0.098,0.056l0.1,0.054l0.103,0.054l0.107,0.052l0.109,0.051l0.113,0.051l0.116,0.049l0.118,0.048l0.122,0.047l0.125,0.046l0.129,0.044l0.131,0.044l0.134,0.042l0.138,0.041l0.14,0.04l0.144,0.039l0.146,0.037l0.15,0.037l0.153,0.035l0.156,0.033l0.159,0.033l0.162,0.031l0.165,0.03l0.168,0.029l0.172,0.027l0.174,0.026l0.177,0.025l0.18,0.023l0.184,0.023l0.186,0.021l0.19,0.019l0.193,0.019l0.168,0.015l0.166,0.017l0.164,0.017l0.16,0.018l0.157,0.019l0.154,0.019l0.152,0.021l0.148,0.021l0.145,0.022l0.142,0.023l0.139,0.023l0.136,0.025l0.133,0.025l0.131,0.026l0.127,0.027l0.124,0.028l0.122,0.029l0.118,0.03l0.116,0.03l0.113,0.032l0.11,0.032l0.107,0.034l0.104,0.035l0.102,0.035l0.098,0.037l0.096,0.038l0.094,0.039l0.09,0.04l0.088,0.041l0.086,0.043l0.082,0.044l0.125,0.072l0.053,0.031l0.053,0.033l0.052,0.033l0.052,0.033l0.051,0.035l0.05,0.035l0.049,0.036l0.049,0.036l0.048,0.038l0.048,0.038l0.047,0.038l0.045,0.04l0.046,0.04l0.044,0.04l0.044,0.042l0.043,0.042l0.043,0.043l0.041,0.043l0.041,0.044l0.04,0.045l0.04,0.045l0.038,0.046l0.038,0.047l0.037,0.047l0.036,0.048l0.036,0.049l0.035,0.049l0.033,0.05l0.034,0.05l0.032,0.051l0.029,0.049l0.024,0.042l0.037,0.077l0.038,0.084l0.036,0.083l0.034,0.085l0.032,0.085l0.029,0.085l0.028,0.086l0.025,0.087l0.024,0.087l0.021,0.087l0.018,0.088l0.017,0.089l0.015,0.088l0.012,0.09l0.01,0.089l0.008,0.084l0.002,0.039l-0.001,0.038l-0.004,0.059l-0.006,0.063l-0.006,0.063l-0.008,0.062l-0.009,0.062l-0.011,0.062l-0.012,0.061l-0.013,0.06l-0.014,0.06l-0.016,0.06l-0.017,0.059l-0.018,0.059l-0.02,0.058l-0.021,0.057l-0.022,0.057l-0.023,0.056l-0.025,0.056l-0.026,0.055l-0.028,0.054l-0.029,0.054l-0.03,0.053l-0.031,0.052l-0.033,0.051l-0.034,0.051l-0.035,0.05l-0.036,0.049l-0.038,0.048l-0.038,0.048l-0.04,0.047l-0.041,0.046l-0.042,0.045l-0.04,0.04l-0.038,0.039l-0.042,0.041l-0.043,0.041l-0.044,0.041l-0.044,0.039l-0.046,0.039l-0.046,0.038l-0.047,0.037l-0.048,0.037l-0.049,0.035l-0.049,0.036l-0.05,0.034l-0.051,0.033l-0.052,0.033l-0.052,0.032l-0.053,0.032l-0.054,0.031l-0.054,0.029l-0.056,0.03l-0.056,0.028l-0.056,0.028l-0.058,0.027l-0.058,0.026l-0.058,0.026l-0.06,0.025l-0.06,0.024l-0.06,0.024l-0.062,0.023l-0.062,0.022l-0.063,0.021l-0.063,0.021l-0.064,0.02l-0.065,0.02l-0.067,0.019l-0.131,0.035l-0.136,0.033l-0.138,0.031l-0.14,0.028l-0.144,0.025l-0.146,0.023l-0.149,0.02l-0.151,0.018l-0.154,0.016l-0.157,0.013l-0.16,0.011l-0.162,0.008l-0.165,0.006l-0.168,0.003l-0.171,0.001l-0.157,-0.001l-0.155,-0.004l-0.154,-0.007l-0.152,-0.009l-0.15,-0.012l-0.148,-0.015l-0.146,-0.018l-0.144,-0.02l-0.142,-0.023l-0.14,-0.027l-0.138,-0.028l-0.137,-0.032l-0.133,-0.034l-0.068,-0.019l-0.066,-0.019l-0.065,-0.02l-0.065,-0.02l-0.065,-0.022l-0.064,-0.022l-0.063,-0.022l-0.063,-0.024l-0.063,-0.024l-0.062,-0.025l-0.061,-0.026l-0.061,-0.026l-0.06,-0.027l-0.06,-0.028l-0.059,-0.029l-0.059,-0.029l-0.058,-0.03l-0.058,-0.031l-0.057,-0.031l-0.057,-0.033l-0.056,-0.033l-0.055,-0.033l-0.055,-0.035l-0.054,-0.035l-0.054,-0.036l-0.053,-0.037l-0.053,-0.037l-0.052,-0.038l-0.051,-0.039l-0.051,-0.04l-0.05,-0.04l-0.05,-0.041l-0.049,-0.042l-0.048,-0.042l-0.048,-0.043l-0.047,-0.044l-0.047,-0.045l-0.047,-0.046l-0.073,-0.075l-0.072,-0.078l-0.071,-0.08l-0.069,-0.082l-0.067,-0.084l-0.065,-0.086l-0.063,-0.088l-0.061,-0.09l-0.06,-0.092l-0.058,-0.093l-0.056,-0.096l-0.045,-0.082l-4.124,1.492l0.016,0.035l0.034,0.07l0.034,0.07l0.035,0.07l0.035,0.07l0.036,0.069l0.037,0.069l0.038,0.069l0.039,0.068l0.04,0.07l0.069,0.12l0.067,0.113l0.069,0.112l0.071,0.11l0.072,0.109l0.074,0.107l0.076,0.106l0.077,0.104l0.079,0.103l0.08,0.101l0.082,0.099l0.084,0.099l0.086,0.096l0.087,0.095l0.089,0.094l0.09,0.092l0.093,0.091l0.093,0.089l0.096,0.087l0.097,0.087l0.099,0.084l0.101,0.084l0.103,0.082l0.104,0.08l0.106,0.079l0.108,0.078l0.109,0.076l0.111,0.074l0.113,0.073l0.115,0.072l0.117,0.07l0.12,0.071l0.069,0.04l0.069,0.038l0.069,0.038l0.069,0.037l0.071,0.037l0.071,0.036l0.071,0.035l0.072,0.035l0.073,0.034l0.074,0.034l0.074,0.033l0.074,0.033l0.076,0.032l0.076,0.031l0.076,0.031l0.078,0.03l0.078,0.029l0.079,0.029l0.079,0.028l0.08,0.028l0.08,0.027l0.082,0.027l0.082,0.025l0.082,0.026l0.083,0.024l0.084,0.024l0.085,0.024l0.085,0.023l0.086,0.022l0.087,0.022l0.087,0.021l0.088,0.02l0.088,0.02l0.09,0.019l0.09,0.018l0.09,0.018l0.091,0.018l0.092,0.016l0.093,0.016l0.092,0.016l0.189,0.029l0.192,0.026l0.193,0.024l0.197,0.022l0.199,0.019l0.202,0.017l0.204,0.014l0.207,0.011l0.21,0.009l0.213,0.006l0.215,0.004l0.218,0.001l0.227,-0.001l0.224,-0.004l0.222,-0.007l0.219,-0.009l0.217,-0.013l0.214,-0.015l0.213,-0.017l0.104,-0.01l0.105,-0.011l0.104,-0.011l0.103,-0.012l0.102,-0.013l0.102,-0.013l0.102,-0.014l0.1,-0.014l0.101,-0.016l0.099,-0.015l0.099,-0.017l0.098,-0.017l0.098,-0.018l0.097,-0.019l0.096,-0.019l0.096,-0.02l0.096,-0.021l0.094,-0.021l0.094,-0.022l0.094,-0.022l0.092,-0.024l0.093,-0.024l0.091,-0.024l0.091,-0.025l0.09,-0.026l0.09,-0.027l0.089,-0.027l0.089,-0.028l0.088,-0.029l0.087,-0.029l0.087,-0.029l0.086,-0.031l0.085,-0.031l0.085,-0.032l0.085,-0.032l0.083,-0.034l0.083,-0.033l0.083,-0.035l0.082,-0.035l0.081,-0.036l0.081,-0.036l0.08,-0.037l0.08,-0.038l0.079,-0.038l0.078,-0.039l0.078,-0.04l0.077,-0.04l0.077,-0.041l0.076,-0.041l0.072,-0.041l0.099,-0.058l0.099,-0.061l0.098,-0.062l0.096,-0.063l0.095,-0.064l0.093,-0.065l0.091,-0.066l0.09,-0.066l0.089,-0.068l0.086,-0.069l0.085,-0.07l0.084,-0.07l0.082,-0.072l0.08,-0.073l0.079,-0.074l0.077,-0.074l0.076,-0.076l0.075,-0.077l0.072,-0.077l0.072,-0.079l0.069,-0.08l0.069,-0.08l0.066,-0.082l0.066,-0.083l0.063,-0.084l0.063,-0.084l0.06,-0.086l0.06,-0.087l0.058,-0.088l0.056,-0.089l0.055,-0.09l0.054,-0.092l0.049,-0.086l0.047,-0.087l0.046,-0.087l0.044,-0.088l0.043,-0.09l0.041,-0.09l0.039,-0.091l0.038,-0.091l0.036,-0.093l0.035,-0.094l0.034,-0.095l0.032,-0.095l0.03,-0.097l0.029,-0.097l0.027,-0.098l0.026,-0.1l0.024,-0.1l0.023,-0.102l0.021,-0.102l0.019,-0.103l0.018,-0.105l0.017,-0.105l0.015,-0.106l0.013,-0.108l0.012,-0.108l0.01,-0.109l0.009,-0.111l0.007,-0.111l0.006,-0.113l0.004,-0.113l0.002,-0.115l0.001,-0.115l-0.001,-0.131l-0.003,-0.129l-0.005,-0.128l-0.007,-0.128l-0.009,-0.127l-0.01,-0.126l-0.013,-0.125l-0.014,-0.125l-0.017,-0.123l-0.018,-0.123l-0.021,-0.122l-0.022,-0.121l-0.024,-0.121l-0.026,-0.12l-0.028,-0.119l-0.03,-0.118l-0.032,-0.117l-0.034,-0.117l-0.035,-0.116l-0.038,-0.116l-0.039,-0.114l-0.042,-0.114l-0.043,-0.113l-0.045,-0.113l-0.048,-0.112l-0.049,-0.111l-0.051,-0.11l-0.053,-0.11l-0.055,-0.109l-0.057,-0.109l-0.059,-0.108l-0.061,-0.106l-0.059,-0.1l-0.061,-0.1l-0.062,-0.098l-0.063,-0.096l-0.065,-0.095l-0.066,-0.094l-0.067,-0.092l-0.068,-0.091l-0.069,-0.089l-0.071,-0.088l-0.071,-0.087l-0.073,-0.085l-0.074,-0.084l-0.075,-0.082l-0.077,-0.081l-0.077,-0.08l-0.079,-0.078l-0.08,-0.077l-0.081,-0.075l-0.083,-0.074l-0.084,-0.073l-0.085,-0.072l-0.086,-0.07l-0.087,-0.069l-0.089,-0.067l-0.09,-0.066l-0.091,-0.065l-0.092,-0.063l-0.094,-0.063l-0.095,-0.06l-0.096,-0.06l-0.097,-0.058l-0.098,-0.056l-0.1,-0.054l-0.104,-0.054l-0.106,-0.052l-0.11,-0.051l-0.112,-0.051l-0.116,-0.049l-0.119,-0.048l-0.122,-0.047l-0.125,-0.046l-0.128,-0.044l-0.131,-0.044l-0.135,-0.042l-0.137,-0.041l-0.14,-0.04l-0.144,-0.039l-0.147,-0.037l-0.15,-0.037l-0.153,-0.035l-0.155,-0.033l-0.159,-0.033l-0.162,-0.031l-0.166,-0.03l-0.168,-0.029l-0.171,-0.027l-0.174,-0.026l-0.178,-0.025l-0.18,-0.024l-0.183,-0.022l-0.187,-0.021l-0.189,-0.019l-0.194,-0.019l-0.167,-0.015l-0.167,-0.017l-0.163,-0.017l-0.16,-0.018l-0.158,-0.019l-0.154,-0.019l-0.151,-0.021l-0.148,-0.021l-0.145,-0.022l-0.142,-0.023l-0.14,-0.023l-0.136,-0.025l-0.133,-0.025l-0.13,-0.026l-0.127,-0.027l-0.125,-0.028l-0.121,-0.029l-0.119,-0.03l-0.115,-0.03l-0.113,-0.032l-0.11,-0.033l-0.107,-0.033l-0.104,-0.035l-0.102,-0.035l-0.099,-0.037l-0.096,-0.038l-0.093,-0.039l-0.091,-0.04l-0.088,-0.041l-0.085,-0.043l-0.083,-0.044l-0.074,-0.043l-0.05,-0.029l-0.054,-0.031l-0.053,-0.033l-0.052,-0.033l-0.051,-0.034l-0.051,-0.034l-0.05,-0.035l-0.05,-0.036l-0.049,-0.037l-0.048,-0.037l-0.047,-0.038l-0.047,-0.038l-0.046,-0.04l-0.045,-0.04l-0.045,-0.04l-0.043,-0.042l-0.044,-0.042l-0.042,-0.043l-0.041,-0.043l-0.041,-0.044l-0.041,-0.045l-0.039,-0.045l-0.039,-0.046l-0.037,-0.047l-0.037,-0.047l-0.037,-0.048l-0.035,-0.049l-0.035,-0.049l-0.034,-0.05l-0.033,-0.051l-0.032,-0.051l-0.03,-0.048l-0.023,-0.042l-0.038,-0.078l-0.038,-0.083l-0.036,-0.083l-0.033,-0.085l-0.032,-0.085l-0.03,-0.085l-0.027,-0.086l-0.026,-0.087l-0.023,-0.087l-0.021,-0.087l-0.019,-0.088l-0.017,-0.089l-0.014,-0.088l-0.013,-0.09l-0.01,-0.089l-0.007,-0.084l-0.002,-0.039l0.001,-0.038l0.004,-0.059l0.005,-0.063l0.007,-0.063l0.008,-0.062l0.009,-0.062l0.01,-0.062l0.012,-0.061l0.013,-0.06l0.015,-0.061l0.015,-0.059l0.017,-0.059l0.019,-0.059l0.019,-0.058l0.021,-0.057l0.022,-0.057l0.024,-0.056l0.025,-0.056l0.026,-0.055l0.028,-0.054l0.028,-0.054l0.03,-0.053l0.032,-0.052l0.032,-0.051l0.034,-0.051l0.035,-0.05l0.037,-0.049l0.037,-0.049l0.039,-0.047l0.04,-0.047l0.041,-0.046l0.042,-0.045l0.039,-0.04l0.038,-0.039l0.042,-0.041l0.043,-0.041l0.044,-0.041l0.045,-0.039l0.046,-0.039l0.046,-0.038l0.047,-0.037l0.048,-0.037l0.048,-0.036l0.049,-0.035l0.051,-0.034l0.051,-0.034l0.051,-0.032l0.053,-0.033l0.053,-0.031l0.054,-0.031l0.054,-0.03l0.055,-0.029l0.056,-0.028l0.057,-0.028l0.057,-0.027l0.058,-0.027l0.059,-0.025l0.059,-0.025l0.06,-0.024l0.061,-0.024l0.061,-0.023l0.063,-0.022l0.062,-0.021l0.064,-0.021l0.064,-0.02l0.064,-0.02l0.067,-0.019l0.132,-0.035l0.135,-0.033l0.138,-0.031l0.141,-0.028l0.144,-0.025l0.146,-0.023l0.148,-0.021l0.152,-0.017l0.154,-0.016l0.157,-0.013l0.159,-0.011l0.163,-0.008l0.165,-0.006l0.167,-0.003l0.171,-0.002l0.157,0.002l0.156,0.004l0.154,0.007l0.151,0.009l0.15,0.012l0.148,0.015l0.146,0.018l0.144,0.02l0.142,0.023l0.141,0.026l0.138,0.029l0.136,0.032l0.133,0.034l0.068,0.019l0.066,0.019l0.066,0.02l0.065,0.02l0.064,0.022l0.064,0.022l0.064,0.022l0.063,0.024l0.062,0.024l0.062,0.025l0.061,0.025l0.061,0.027l0.061,0.027l0.06,0.028l0.059,0.028l0.059,0.03l0.058,0.03l0.058,0.031l0.057,0.031l0.056,0.032l0.056,0.033l0.056,0.034l0.055,0.035l0.054,0.035l0.054,0.036l0.053,0.036l0.052,0.038l0.052,0.038l0.052,0.039l0.051,0.04l0.05,0.04l0.05,0.041l0.048,0.042l0.049,0.042l0.048,0.043l0.047,0.044l0.046,0.045l0.047,0.046l0.073,0.075l0.073,0.078l0.07,0.08l0.069,0.082l0.067,0.084l0.065,0.086l0.063,0.088l0.062,0.09l0.059,0.092l0.058,0.093l0.056,0.096l0.046,0.082l4.123,-1.492l-0.016,-0.035l-0.033,-0.07l-0.034,-0.07l-0.035,-0.07l-0.036,-0.07l-0.036,-0.069l-0.037,-0.069l-0.038,-0.069l-0.038,-0.068l-0.041,-0.071l-0.068,-0.119l-0.067,-0.113l-0.069,-0.112l-0.071,-0.11l-0.072,-0.109l-0.074,-0.107l-0.076,-0.106l-0.077,-0.104l-0.079,-0.103l-0.081,-0.101l-0.082,-0.1l-0.084,-0.098l-0.085,-0.096l-0.087,-0.095l-0.089,-0.094l-0.091,-0.092l-0.092,-0.091l-0.094,-0.089l-0.096,-0.088l-0.097,-0.086l-0.099,-0.085l-0.101,-0.083l-0.102,-0.082l-0.104,-0.08l-0.106,-0.079l-0.108,-0.078l-0.11,-0.076l-0.111,-0.074l-0.113,-0.074l-0.114,-0.071l-0.117,-0.071l-0.121,-0.07l-0.069,-0.04l-0.068,-0.038l-0.069,-0.038l-0.07,-0.037l-0.07,-0.037l-0.071,-0.036l-0.072,-0.035l-0.072,-0.035l-0.073,-0.035l-0.073,-0.033l-0.074,-0.033l-0.075,-0.033l-0.075,-0.032l-0.076,-0.031l-0.077,-0.031l-0.077,-0.03l-0.078,-0.029l-0.079,-0.029l-0.079,-0.028l-0.08,-0.028l-0.081,-0.027l-0.081,-0.027l-0.082,-0.026l-0.083,-0.025l-0.083,-0.024l-0.084,-0.024l-0.084,-0.024l-0.086,-0.023l-0.086,-0.022l-0.086,-0.022l-0.087,-0.021l-0.088,-0.02l-0.089,-0.02l-0.089,-0.019l-0.09,-0.019l-0.09,-0.017l-0.092,-0.018l-0.092,-0.016l-0.092,-0.016l-0.092,-0.016l-0.19,-0.029l-0.191,-0.027l-0.194,-0.024l-0.196,-0.021l-0.199,-0.019l-0.202,-0.017l-0.205,-0.014l-0.207,-0.011l-0.21,-0.009l-0.212,-0.006l-0.215,-0.004l-0.218,-0.002l-0.227,0.002Z" style="fill:#d4d7de;"/><g transform="matrix(48,0,0,48,266.867,190.033)"><path d="M0.05,0l0,-0.074c0,-0.133 0.048,-0.353 0.143,-0.661l0.114,0c0.095,0.308 0.143,0.528 0.143,0.661l0,0.074l-0.113,0l0,-0.074c0,-0.026 -0.002,-0.056 -0.005,-0.089l-0.164,0c-0.003,0.033 -0.005,0.063 -0.005,0.089l0,0.074l-0.113,0Zm0.269,-0.265c-0.015,-0.091 -0.038,-0.201 -0.069,-0.328c-0.031,0.127 -0.054,0.237 -0.069,0.328l0.138,0Z" style="fill:#fff;fill-rule:nonzero;"/></g><g transform="matrix(48,0,0,48,290.867,190.033)"><path d="M0.102,0l0,-0.53l0.113,0l0,0.094c0.004,-0.011 0.009,-0.02 0.014,-0.029c0.015,-0.027 0.034,-0.046 0.055,-0.058c0.017,-0.01 0.037,-0.015 0.06,-0.015c0.023,0 0.044,0.006 0.065,0.018c0.021,0.011 0.037,0.028 0.05,0.05c0.006,0.011 0.011,0.023 0.014,0.035l-0.106,0.05c-0.003,-0.013 -0.01,-0.024 -0.019,-0.033c-0.012,-0.012 -0.026,-0.018 -0.043,-0.018c-0.013,0 -0.024,0.003 -0.034,0.009c-0.012,0.007 -0.023,0.018 -0.032,0.033c-0.016,0.028 -0.024,0.066 -0.024,0.113l0,0.281l-0.113,0Z" style="fill:#fff;fill-rule:nonzero;"/></g><g transform="matrix(48,0,0,48,314.867,190.033)"><path d="M0.322,0.008c-0.033,0 -0.062,-0.007 -0.087,-0.021c-0.025,-0.015 -0.045,-0.035 -0.061,-0.062c-0.021,-0.036 -0.031,-0.081 -0.031,-0.134l0,-0.219l-0.094,0l0,-0.102l0.094,0l0,-0.205l0.114,0l0,0.205l0.142,0l0,0.102l-0.142,0l0,0.219c-0.001,0.035 0.005,0.064 0.018,0.085c0.006,0.011 0.014,0.019 0.023,0.024c0.007,0.004 0.015,0.006 0.024,0.006c0.009,0 0.018,-0.002 0.025,-0.006c0.009,-0.005 0.017,-0.014 0.024,-0.026c0.009,-0.016 0.015,-0.036 0.017,-0.059l0.109,0.03c-0.005,0.03 -0.014,0.056 -0.028,0.079c-0.015,0.027 -0.036,0.048 -0.061,0.063c-0.025,0.014 -0.053,0.021 -0.086,0.021Z" style="fill:#fff;fill-rule:nonzero;"/></g><g transform="matrix(48,0,0,48,338.867,190.033)"><path d="M0.247,0.008c-0.05,0 -0.091,-0.009 -0.123,-0.028c-0.028,-0.016 -0.05,-0.038 -0.065,-0.065c-0.005,-0.008 -0.009,-0.016 -0.012,-0.025l0.105,-0.038c0.005,0.011 0.011,0.02 0.018,0.027c0.018,0.018 0.044,0.027 0.077,0.027c0.037,0 0.063,-0.008 0.078,-0.024c0.008,-0.008 0.012,-0.018 0.013,-0.03c-0.001,-0.009 -0.003,-0.017 -0.007,-0.025c-0.006,-0.01 -0.014,-0.018 -0.025,-0.024c-0.015,-0.009 -0.041,-0.015 -0.078,-0.018c-0.044,-0.004 -0.078,-0.013 -0.101,-0.026c-0.023,-0.014 -0.042,-0.033 -0.056,-0.057c-0.015,-0.025 -0.022,-0.053 -0.022,-0.084c0,-0.027 0.006,-0.051 0.018,-0.072c0.013,-0.022 0.031,-0.04 0.055,-0.054c0.035,-0.02 0.079,-0.03 0.131,-0.03c0.05,0 0.091,0.009 0.123,0.028c0.028,0.016 0.05,0.038 0.065,0.065c0.005,0.008 0.009,0.016 0.012,0.025l-0.105,0.038c-0.005,-0.011 -0.011,-0.02 -0.018,-0.027c-0.018,-0.018 -0.044,-0.027 -0.077,-0.027c-0.037,0 -0.063,0.008 -0.078,0.024c-0.008,0.008 -0.012,0.018 -0.013,0.03c0.001,0.009 0.003,0.017 0.007,0.025c0.006,0.01 0.014,0.018 0.025,0.024c0.015,0.009 0.041,0.015 0.078,0.018c0.044,0.004 0.078,0.013 0.101,0.027c0.023,0.013 0.042,0.032 0.056,0.056c0.015,0.025 0.022,0.053 0.022,0.084c0,0.027 -0.006,0.051 -0.018,0.072c-0.013,0.022 -0.031,0.04 -0.055,0.054c-0.035,0.02 -0.079,0.03 -0.131,0.03Z" style="fill:#fff;fill-rule:nonzero;"/></g></g></g></svg>