<?xml version="1.0" encoding="UTF-8" standalone="no"?><!DOCTYPE svg PUBLIC "-//W3C//DTD SVG 1.1//EN" "http://www.w3.org/Graphics/SVG/1.1/DTD/svg11.dtd"><svg width="100%" height="100%" viewBox="0 0 400 400" version="1.1" xmlns="http://www.w3.org/2000/svg" xmlns:xlink="http://www.w3.org/1999/xlink" xml:space="preserve" xmlns:serif="http://www.serif.com/" style="fill-rule:evenodd;clip-rule:evenodd;stroke-linecap:round;stroke-linejoin:round;stroke-miterlimit:1.5;"><g id="Bits-Circle" serif:id="Bits Circle"><circle id="bg" cx="200" cy="200" r="200" style="fill:#282c34;"/><clipPath id="_clip1"><circle cx="200" cy="200" r="200"/></clipPath><g clip-path="url(#_clip1)"><path id="bits" d="M215.469,407.26c-4.043,0.297 -8.118,0.479 -12.222,0.542l0,-57.477l-9.434,7.076l-7.183,-8.791l16.617,-12.436l12.222,0l0,71.086Zm-53.605,-2.935c-4.117,-0.766 -8.192,-1.653 -12.221,-2.657l0,-51.343l-9.435,7.076l-7.183,-8.791l16.618,-12.436l12.221,0l0,68.151Zm78.096,-0.339c-1.676,-3.551 -2.514,-7.751 -2.514,-12.6l0,-31.626c0,-5.575 1.108,-10.292 3.324,-14.152c1.858,-3.216 4.324,-5.718 7.397,-7.504c3.288,-1.859 7.147,-2.788 11.579,-2.788c4.431,0 8.29,0.929 11.578,2.788c3.074,1.786 5.539,4.288 7.398,7.504c2.215,3.86 3.323,8.577 3.323,14.152l0,31.23c-4.136,1.78 -8.34,3.429 -12.609,4.943c0.296,-1.368 0.461,-2.884 0.494,-4.547l0,-21.441l-19.833,26.373c0.357,1.429 0.858,2.68 1.501,3.752c0.223,0.395 0.461,0.766 0.714,1.112c-4.07,1.056 -8.189,1.992 -12.352,2.804Zm-163.326,-36.779l0,-7.447c0,-5.575 1.108,-10.292 3.323,-14.152c1.859,-3.216 4.324,-5.718 7.398,-7.504c3.287,-1.859 7.147,-2.788 11.578,-2.788c4.431,0 8.291,0.929 11.579,2.788c3.073,1.786 5.539,4.288 7.397,7.504c2.216,3.86 3.324,8.577 3.324,14.152l0,31.626c0,0.323 -0.004,0.642 -0.012,0.958c-4.101,-1.683 -8.137,-3.495 -12.103,-5.429l0,-16.97l-9.18,12.207c-2.801,-1.544 -5.562,-3.15 -8.282,-4.816l16.926,-22.508c-0.357,-1.429 -0.858,-2.68 -1.501,-3.752c-0.929,-1.644 -2.108,-2.859 -3.538,-3.645c-1.286,-0.786 -2.823,-1.179 -4.61,-1.179c-1.787,0 -3.323,0.393 -4.61,1.179c-1.429,0.786 -2.609,2.001 -3.538,3.645c-1.286,2.216 -1.965,5.11 -2.037,8.684l0,15.761c-4.139,-2.631 -8.18,-5.405 -12.114,-8.314Zm172.927,13.994l19.833,-26.373c-0.357,-1.429 -0.857,-2.68 -1.5,-3.752c-0.93,-1.644 -2.109,-2.859 -3.538,-3.645c-1.287,-0.786 -2.823,-1.179 -4.61,-1.179c-1.787,0 -3.324,0.393 -4.61,1.179c-1.43,0.786 -2.609,2.001 -3.538,3.645c-1.287,2.216 -1.966,5.11 -2.037,8.684l0,21.441Zm73.116,-13.454c-3.969,2.908 -8.046,5.679 -12.222,8.306l0,-25.728l-9.434,7.076l-7.183,-8.791l16.617,-12.436l12.222,0l0,31.573Zm-280.233,-32.291c0.933,-0.093 1.895,-0.14 2.885,-0.14c4.431,0 8.291,0.929 11.579,2.788c3.073,1.786 5.539,4.288 7.397,7.504c2.216,3.86 3.323,8.577 3.323,14.152l0,0.4c-9.074,-7.512 -17.501,-15.779 -25.184,-24.704Zm312.733,2.765c-2.449,2.746 -4.969,5.426 -7.558,8.038c0.116,-0.219 0.236,-0.436 0.359,-0.651c1.818,-3.146 4.218,-5.609 7.199,-7.387Zm11.777,-36.783c-4.431,0 -8.291,-0.929 -11.578,-2.787c-3.074,-1.787 -5.54,-4.288 -7.398,-7.505c-2.215,-3.859 -3.323,-8.576 -3.323,-14.151l0,-31.627c0,-5.574 1.108,-10.292 3.323,-14.151c1.858,-3.216 4.324,-5.718 7.398,-7.505c3.287,-1.858 7.147,-2.787 11.578,-2.787c4.431,0 8.291,0.929 11.579,2.787c3.073,1.787 5.539,4.289 7.397,7.505c2.216,3.859 3.323,8.577 3.323,14.151l0,31.627c0,5.575 -1.107,10.292 -3.323,14.151c-1.858,3.217 -4.324,5.718 -7.397,7.505c-3.288,1.858 -7.148,2.787 -11.579,2.787Zm-160.812,0c-4.432,0 -8.291,-0.929 -11.579,-2.787c-3.073,-1.787 -5.539,-4.288 -7.397,-7.505c-2.216,-3.859 -3.324,-8.576 -3.324,-14.151l0,-31.627c0,-5.574 1.108,-10.292 3.324,-14.151c1.858,-3.216 4.324,-5.718 7.397,-7.505c3.288,-1.858 7.147,-2.787 11.579,-2.787c4.431,0 8.29,0.929 11.578,2.787c3.073,1.787 5.539,4.289 7.397,7.505c2.216,3.859 3.324,8.577 3.324,14.151l0,31.627c0,5.575 -1.108,10.292 -3.324,14.151c-1.858,3.217 -4.324,5.718 -7.397,7.505c-3.288,1.858 -7.147,2.787 -11.578,2.787Zm-107.209,0c-4.431,0 -8.291,-0.929 -11.578,-2.787c-3.074,-1.787 -5.539,-4.288 -7.398,-7.505c-2.215,-3.859 -3.323,-8.576 -3.323,-14.151l0,-31.627c0,-5.574 1.108,-10.292 3.323,-14.151c1.859,-3.216 4.324,-5.718 7.398,-7.505c3.287,-1.858 7.147,-2.787 11.578,-2.787c4.431,0 8.291,0.929 11.579,2.787c3.073,1.787 5.539,4.289 7.397,7.505c2.216,3.859 3.324,8.577 3.324,14.151l0,31.627c0,5.575 -1.108,10.292 -3.324,14.151c-1.858,3.217 -4.324,5.718 -7.397,7.505c-3.288,1.858 -7.148,2.787 -11.579,2.787Zm-44.277,-0.857l-12.222,0l0,-64.647l-9.434,7.076l-7.183,-8.791l16.617,-12.436l12.222,0l0,78.798Zm107.208,0l-12.221,0l0,-64.647l-9.435,7.076l-7.183,-8.791l16.618,-12.436l12.221,0l0,78.798Zm107.209,0l-12.222,0l0,-64.647l-9.434,7.076l-7.183,-8.791l16.617,-12.436l12.222,0l0,78.798Zm53.604,0l-12.222,0l0,-64.647l-9.434,7.076l-7.183,-8.791l16.617,-12.436l12.222,0l0,78.798Zm-223.744,-10.078c1.787,0 3.324,-0.393 4.61,-1.179c1.43,-0.786 2.609,-2.001 3.538,-3.645c1.287,-2.216 1.965,-5.11 2.037,-8.684l0,-21.442l-19.834,26.374c0.358,1.429 0.858,2.68 1.501,3.752c0.929,1.644 2.109,2.859 3.538,3.645c1.287,0.786 2.823,1.179 4.61,1.179Zm268.021,0c1.787,0 3.324,-0.393 4.61,-1.179c1.429,-0.786 2.609,-2.001 3.538,-3.645c1.286,-2.216 1.965,-5.11 2.037,-8.684l0,-21.442l-19.834,26.374c0.358,1.429 0.858,2.68 1.501,3.752c0.929,1.644 2.109,2.859 3.538,3.645c1.287,0.786 2.823,1.179 4.61,1.179Zm-160.812,0c1.786,0 3.323,-0.393 4.609,-1.179c1.43,-0.786 2.609,-2.001 3.538,-3.645c1.287,-2.216 1.966,-5.11 2.037,-8.684l0,-21.442l-19.833,26.374c0.357,1.429 0.857,2.68 1.501,3.752c0.929,1.644 2.108,2.859 3.538,3.645c1.286,0.786 2.823,1.179 4.61,1.179Zm-117.394,-23.693l19.834,-26.373c-0.357,-1.43 -0.858,-2.68 -1.501,-3.752c-0.929,-1.644 -2.108,-2.859 -3.538,-3.645c-1.286,-0.787 -2.823,-1.18 -4.61,-1.18c-1.787,0 -3.323,0.393 -4.61,1.18c-1.429,0.786 -2.609,2.001 -3.538,3.645c-1.286,2.215 -1.965,5.11 -2.037,8.683l0,21.442Zm268.021,0l19.834,-26.373c-0.358,-1.43 -0.858,-2.68 -1.501,-3.752c-0.929,-1.644 -2.109,-2.859 -3.538,-3.645c-1.286,-0.787 -2.823,-1.18 -4.61,-1.18c-1.787,0 -3.323,0.393 -4.61,1.18c-1.429,0.786 -2.609,2.001 -3.538,3.645c-1.286,2.215 -1.965,5.11 -2.037,8.683l0,21.442Zm-160.812,0l19.833,-26.373c-0.357,-1.43 -0.857,-2.68 -1.501,-3.752c-0.929,-1.644 -2.108,-2.859 -3.538,-3.645c-1.286,-0.787 -2.823,-1.18 -4.609,-1.18c-1.787,0 -3.324,0.393 -4.61,1.18c-1.43,0.786 -2.609,2.001 -3.538,3.645c-1.287,2.215 -1.966,5.11 -2.037,8.683l0,21.442Zm210.344,-41.233c-1.565,12.722 -4.282,25.089 -8.042,36.995l0,-17.204c0,-5.574 1.108,-10.292 3.323,-14.151c1.283,-2.221 2.856,-4.101 4.719,-5.64Zm-405.249,34.625c-3.741,-12.361 -6.361,-25.207 -7.74,-38.419l7.74,0l0,38.419Zm151.485,-73.155c-4.431,0 -8.29,-0.929 -11.578,-2.787c-3.073,-1.787 -5.539,-4.289 -7.398,-7.505c-2.215,-3.859 -3.323,-8.577 -3.323,-14.151l0,-31.627c0,-5.575 1.108,-10.292 3.323,-14.151c1.859,-3.217 4.325,-5.718 7.398,-7.505c3.288,-1.858 7.147,-2.787 11.578,-2.787c4.432,0 8.291,0.929 11.579,2.787c3.073,1.787 5.539,4.288 7.397,7.505c2.216,3.859 3.324,8.576 3.324,14.151l0,31.627c0,5.574 -1.108,10.292 -3.324,14.151c-1.858,3.216 -4.324,5.718 -7.397,7.505c-3.288,1.858 -7.147,2.787 -11.579,2.787Zm160.813,0c-4.431,0 -8.291,-0.929 -11.579,-2.787c-3.073,-1.787 -5.539,-4.289 -7.397,-7.505c-2.216,-3.859 -3.323,-8.577 -3.323,-14.151l0,-31.627c0,-5.575 1.107,-10.292 3.323,-14.151c1.858,-3.217 4.324,-5.718 7.397,-7.505c3.288,-1.858 7.148,-2.787 11.579,-2.787c4.431,0 8.291,0.929 11.578,2.787c3.074,1.787 5.539,4.288 7.398,7.505c2.215,3.859 3.323,8.576 3.323,14.151l0,31.627c0,5.574 -1.108,10.292 -3.323,14.151c-1.859,3.216 -4.324,5.718 -7.398,7.505c-3.287,1.858 -7.147,2.787 -11.578,2.787Zm53.604,0c-4.431,0 -8.291,-0.929 -11.578,-2.787c-3.074,-1.787 -5.54,-4.289 -7.398,-7.505c-2.215,-3.859 -3.323,-8.577 -3.323,-14.151l0,-31.627c0,-5.575 1.108,-10.292 3.323,-14.151c1.858,-3.217 4.324,-5.718 7.398,-7.505c3.287,-1.858 7.147,-2.787 11.578,-2.787c4.431,0 8.291,0.929 11.579,2.787c3.073,1.787 5.539,4.288 7.397,7.505c2.216,3.859 3.323,8.576 3.323,14.151l0,31.627c0,5.574 -1.107,10.292 -3.323,14.151c-1.858,3.216 -4.324,5.718 -7.397,7.505c-3.288,1.858 -7.148,2.787 -11.579,2.787Zm-356.948,-71.347c0.24,0.365 0.472,0.74 0.695,1.126c2.215,3.859 3.323,8.576 3.323,14.151l0,31.627c0,5.574 -1.108,10.292 -3.323,14.151c-1.859,3.216 -4.324,5.718 -7.398,7.505c-3.075,1.738 -6.65,2.663 -10.725,2.775c0.229,-3.719 0.556,-7.412 0.978,-11.076c1.029,-0.181 1.955,-0.523 2.779,-1.026c1.429,-0.787 2.609,-2.002 3.538,-3.646c1.286,-2.215 1.965,-5.11 2.037,-8.683l0,-21.442l-2.063,2.743c2.717,-9.706 6.122,-19.127 10.159,-28.205Zm259.067,70.489l-12.222,0l0,-64.646l-9.434,7.076l-7.183,-8.792l16.617,-12.436l12.222,0l0,78.798Zm-53.604,0l-12.222,0l0,-64.646l-9.434,7.076l-7.183,-8.792l16.617,-12.436l12.222,0l0,78.798Zm-107.209,0l-12.221,0l0,-64.646l-9.435,7.076l-7.183,-8.792l16.618,-12.436l12.221,0l0,78.798Zm-53.604,0l-12.222,0l0,-64.646l-9.434,7.076l-7.183,-8.792l16.617,-12.436l12.222,0l0,78.798Zm97.881,-10.077c1.787,0 3.324,-0.393 4.61,-1.179c1.43,-0.787 2.609,-2.002 3.538,-3.646c1.287,-2.215 1.966,-5.11 2.037,-8.683l0,-21.442l-19.833,26.373c0.357,1.43 0.857,2.68 1.501,3.752c0.929,1.644 2.108,2.859 3.537,3.646c1.287,0.786 2.824,1.179 4.61,1.179Zm160.813,0c1.787,0 3.323,-0.393 4.61,-1.179c1.429,-0.787 2.609,-2.002 3.538,-3.646c1.286,-2.215 1.965,-5.11 2.037,-8.683l0,-21.442l-19.834,26.373c0.357,1.43 0.858,2.68 1.501,3.752c0.929,1.644 2.108,2.859 3.538,3.646c1.286,0.786 2.823,1.179 4.61,1.179Zm53.604,0c1.787,0 3.324,-0.393 4.61,-1.179c1.429,-0.787 2.609,-2.002 3.538,-3.646c1.286,-2.215 1.965,-5.11 2.037,-8.683l0,-21.442l-19.834,26.373c0.358,1.43 0.858,2.68 1.501,3.752c0.929,1.644 2.109,2.859 3.538,3.646c1.287,0.786 2.823,1.179 4.61,1.179Zm-10.185,-23.693l19.834,-26.373c-0.358,-1.43 -0.858,-2.681 -1.501,-3.753c-0.929,-1.644 -2.109,-2.859 -3.538,-3.645c-1.286,-0.786 -2.823,-1.179 -4.61,-1.179c-1.787,0 -3.323,0.393 -4.61,1.179c-1.429,0.786 -2.609,2.001 -3.538,3.645c-1.286,2.216 -1.965,5.111 -2.037,8.684l0,21.442Zm-53.604,0l19.834,-26.373c-0.358,-1.43 -0.858,-2.681 -1.501,-3.753c-0.929,-1.644 -2.109,-2.859 -3.538,-3.645c-1.287,-0.786 -2.823,-1.179 -4.61,-1.179c-1.787,0 -3.324,0.393 -4.61,1.179c-1.43,0.786 -2.609,2.001 -3.538,3.645c-1.286,2.216 -1.965,5.111 -2.037,8.684l0,21.442Zm-160.812,0l19.833,-26.373c-0.357,-1.43 -0.858,-2.681 -1.501,-3.753c-0.929,-1.644 -2.108,-2.859 -3.538,-3.645c-1.286,-0.786 -2.823,-1.179 -4.61,-1.179c-1.786,0 -3.323,0.393 -4.61,1.179c-1.429,0.786 -2.608,2.001 -3.537,3.645c-1.287,2.216 -1.966,5.111 -2.037,8.684l0,21.442Zm22.163,-157.25c2.888,1.768 5.22,4.19 6.997,7.265c2.216,3.86 3.324,8.577 3.324,14.152l0,31.626c0,5.575 -1.108,10.292 -3.324,14.152c-1.858,3.216 -4.324,5.718 -7.397,7.504c-3.288,1.859 -7.147,2.788 -11.579,2.788c-4.431,0 -8.29,-0.929 -11.578,-2.788c-3.073,-1.786 -5.539,-4.288 -7.398,-7.504c-2.215,-3.86 -3.323,-8.577 -3.323,-14.152l0,-31.626c0,-5.237 0.978,-9.718 2.933,-13.441c10.122,-3.441 20.593,-6.122 31.345,-7.976Zm180.227,55.693c6.96,6.757 13.45,13.996 19.414,21.663c-3.278,-0.315 -6.205,-1.201 -8.781,-2.657c-3.074,-1.786 -5.54,-4.288 -7.398,-7.504c-1.855,-3.232 -2.934,-7.066 -3.235,-11.502Zm-34.288,-26.946c4.176,2.626 8.253,5.397 12.222,8.306l0,39.576l-12.222,0l0,-47.882Zm-202.195,-10.442l0,58.324l-12.221,0l0,-51.777c3.991,-2.314 8.067,-4.498 12.221,-6.547Zm107.209,58.324l-12.222,0l0,-64.646l-9.434,7.075l-7.183,-8.791l16.617,-12.436l12.222,0l0,78.798Zm34.457,-73.615c6.508,1.606 12.896,3.52 19.147,5.724l0,67.891l-12.222,0l0,-64.646l-9.434,7.075l-7.183,-8.791l9.692,-7.253Zm-195.27,53.308l0,20.307l-12.222,0l0,-7.273c3.888,-4.518 7.966,-8.866 12.222,-13.034Zm97.881,10.23c1.787,0 3.324,-0.394 4.61,-1.18c1.43,-0.786 2.609,-2.001 3.538,-3.645c1.287,-2.215 1.966,-5.11 2.037,-8.684l0,-21.441l-19.833,26.373c0.357,1.429 0.857,2.68 1.501,3.752c0.929,1.644 2.108,2.859 3.537,3.645c1.287,0.786 2.824,1.18 4.61,1.18Zm-10.184,-23.693l19.833,-26.374c-0.357,-1.429 -0.858,-2.68 -1.501,-3.752c-0.929,-1.644 -2.108,-2.859 -3.538,-3.645c-1.286,-0.786 -2.823,-1.179 -4.61,-1.179c-1.786,0 -3.323,0.393 -4.61,1.179c-1.429,0.786 -2.608,2.001 -3.537,3.645c-1.287,2.216 -1.966,5.11 -2.037,8.684l0,21.442Z" style="fill:#3fc56b;stroke:#fff;stroke-width:4px;"/></g><circle id="overlay" cx="200" cy="200" r="200" style="fill:#282c34;fill-opacity:0.4;"/><g transform="matrix(2,0,0,2,-429.878,-143.923)"><path d="M278.711,154.255l0.179,0.003l0.177,0.006l0.176,0.009l0.175,0.011l0.174,0.013l0.172,0.016l0.171,0.019l0.17,0.021l0.168,0.023l0.167,0.026l0.166,0.028l0.164,0.031l0.163,0.033l0.162,0.036l0.16,0.038l0.159,0.041l0.157,0.043l0.157,0.046l0.155,0.048l0.153,0.051l0.152,0.053l0.151,0.056l0.149,0.058l0.148,0.061l0.146,0.064l0.145,0.065l0.144,0.069l0.142,0.071l0.14,0.073l0.139,0.076l0.137,0.078l0.121,0.071l0.119,0.072l0.117,0.075l0.116,0.076l0.115,0.079l0.114,0.08l0.112,0.081l0.11,0.084l0.11,0.085l0.108,0.087l0.106,0.089l0.105,0.091l0.104,0.093l0.102,0.094l0.101,0.096l0.099,0.098l0.098,0.099l0.097,0.102l0.095,0.103l0.094,0.105l0.092,0.106l0.091,0.109l0.089,0.11l0.088,0.111l0.087,0.114l0.085,0.115l0.083,0.117l0.082,0.118l0.081,0.12l0.079,0.122l0.078,0.124l0.08,0.132l0.088,0.158l0.081,0.154l0.079,0.156l0.076,0.158l0.073,0.159l0.071,0.161l0.068,0.163l0.065,0.164l0.063,0.165l0.059,0.168l0.058,0.169l0.054,0.17l0.052,0.172l0.049,0.174l0.046,0.175l0.044,0.176l0.041,0.178l0.039,0.18l0.035,0.181l0.033,0.183l0.031,0.184l0.027,0.186l0.025,0.187l0.023,0.189l0.019,0.191l0.018,0.191l0.014,0.194l0.012,0.194l0.009,0.197l0.007,0.197l0.003,0.2l0.002,0.2l-0.001,0.171l-0.003,0.169l-0.006,0.168l-0.007,0.166l-0.01,0.165l-0.012,0.164l-0.014,0.162l-0.016,0.161l-0.018,0.16l-0.021,0.158l-0.023,0.156l-0.025,0.155l-0.027,0.154l-0.029,0.153l-0.032,0.151l-0.033,0.149l-0.036,0.149l-0.038,0.146l-0.041,0.146l-0.043,0.144l-0.044,0.142l-0.047,0.141l-0.05,0.14l-0.051,0.138l-0.054,0.136l-0.056,0.135l-0.059,0.134l-0.06,0.132l-0.063,0.131l-0.065,0.129l-0.067,0.127l-0.073,0.131l-0.071,0.117l-0.068,0.109l-0.07,0.108l-0.072,0.106l-0.072,0.105l-0.074,0.104l-0.075,0.102l-0.077,0.101l-0.078,0.1l-0.079,0.099l-0.081,0.096l-0.082,0.096l-0.083,0.094l-0.084,0.093l-0.086,0.092l-0.087,0.09l-0.089,0.089l-0.09,0.087l-0.091,0.086l-0.092,0.084l-0.094,0.084l-0.095,0.081l-0.096,0.081l-0.098,0.079l-0.098,0.077l-0.015,0.011l0.077,0.045l0.13,0.078l0.128,0.08l0.126,0.082l0.124,0.083l0.122,0.085l0.121,0.087l0.119,0.088l0.116,0.09l0.115,0.091l0.113,0.093l0.111,0.095l0.109,0.097l0.107,0.098l0.105,0.099l0.103,0.102l0.102,0.103l0.099,0.105l0.097,0.106l0.095,0.108l0.094,0.109l0.091,0.111l0.089,0.113l0.088,0.114l0.085,0.116l0.083,0.118l0.082,0.119l0.079,0.121l0.077,0.122l0.076,0.123l0.073,0.126l0.068,0.121l0.072,0.126l0.073,0.134l0.071,0.135l0.068,0.137l0.066,0.139l0.064,0.14l0.061,0.142l0.058,0.144l0.057,0.145l0.053,0.146l0.052,0.149l0.048,0.149l0.047,0.152l0.044,0.152l0.042,0.155l0.039,0.156l0.036,0.157l0.035,0.159l0.032,0.16l0.029,0.162l0.028,0.164l0.024,0.165l0.023,0.166l0.02,0.168l0.017,0.169l0.016,0.171l0.013,0.173l0.01,0.173l0.008,0.176l0.006,0.176l0.004,0.179l0.001,0.179l-0.002,0.213l-0.004,0.211l-0.007,0.209l-0.01,0.208l-0.012,0.205l-0.016,0.204l-0.018,0.202l-0.021,0.201l-0.024,0.198l-0.027,0.197l-0.03,0.195l-0.032,0.193l-0.018,0.096l-0.018,0.096l-0.019,0.095l-0.019,0.095l-0.021,0.094l-0.021,0.094l-0.021,0.093l-0.023,0.093l-0.023,0.092l-0.024,0.092l-0.024,0.092l-0.025,0.091l-0.026,0.09l-0.027,0.09l-0.028,0.09l-0.028,0.089l-0.029,0.089l-0.029,0.088l-0.031,0.088l-0.031,0.087l-0.032,0.087l-0.032,0.087l-0.033,0.086l-0.034,0.085l-0.035,0.085l-0.036,0.085l-0.036,0.084l-0.037,0.084l-0.037,0.083l-0.039,0.082l-0.039,0.083l-0.039,0.081l-0.041,0.082l-0.041,0.081l-0.042,0.08l-0.043,0.08l-0.043,0.079l-0.044,0.079l-0.045,0.078l-0.045,0.077l-0.079,0.133l-0.081,0.133l-0.084,0.131l-0.085,0.13l-0.087,0.128l-0.088,0.127l-0.091,0.125l-0.092,0.123l-0.095,0.122l-0.096,0.12l-0.097,0.118l-0.1,0.117l-0.101,0.115l-0.103,0.114l-0.105,0.111l-0.107,0.11l-0.109,0.109l-0.11,0.106l-0.112,0.105l-0.114,0.104l-0.115,0.101l-0.117,0.1l-0.12,0.098l-0.12,0.097l-0.123,0.094l-0.124,0.093l-0.126,0.092l-0.128,0.089l-0.129,0.088l-0.131,0.086l-0.133,0.085l-0.139,0.085l-0.084,0.048l-0.078,0.043l-0.079,0.042l-0.079,0.042l-0.08,0.042l-0.081,0.04l-0.08,0.04l-0.081,0.039l-0.082,0.038l-0.082,0.038l-0.083,0.037l-0.083,0.036l-0.084,0.036l-0.084,0.035l-0.084,0.034l-0.085,0.033l-0.085,0.033l-0.086,0.032l-0.087,0.032l-0.086,0.03l-0.088,0.03l-0.087,0.03l-0.089,0.028l-0.088,0.028l-0.089,0.027l-0.09,0.027l-0.09,0.026l-0.09,0.025l-0.091,0.024l-0.093,0.024l-0.183,0.045l-0.186,0.042l-0.187,0.04l-0.19,0.037l-0.191,0.034l-0.193,0.032l-0.195,0.028l-0.196,0.026l-0.199,0.023l-0.2,0.021l-0.202,0.018l-0.203,0.015l-0.206,0.012l-0.207,0.009l-0.209,0.007l-0.211,0.004l-0.211,0.001l-9.265,0l-0.078,-0.006l-0.077,-0.018l-0.072,-0.03l-0.067,-0.041l-0.06,-0.051l-0.051,-0.06l-0.041,-0.067l-0.03,-0.072l-0.018,-0.076l-0.006,-0.079l0,-35.28l0.006,-0.078l0.018,-0.076l0.03,-0.073l0.041,-0.066l0.051,-0.06l0.06,-0.051l0.067,-0.041l0.072,-0.03l0.077,-0.018l0.078,-0.007l9.265,0l0.179,0.002Zm-8.944,0.998l0,34.28l8.762,0l0.201,-0.001l0.198,-0.004l0.196,-0.006l0.194,-0.009l0.191,-0.011l0.19,-0.014l0.188,-0.017l0.185,-0.019l0.184,-0.021l0.182,-0.024l0.18,-0.026l0.178,-0.029l0.176,-0.032l0.173,-0.034l0.172,-0.036l0.17,-0.039l0.169,-0.042l0.083,-0.021l0.082,-0.022l0.083,-0.023l0.082,-0.023l0.081,-0.024l0.081,-0.025l0.08,-0.025l0.08,-0.026l0.08,-0.027l0.079,-0.027l0.078,-0.028l0.078,-0.028l0.077,-0.029l0.078,-0.03l0.076,-0.03l0.076,-0.031l0.076,-0.031l0.075,-0.032l0.075,-0.033l0.074,-0.033l0.074,-0.034l0.073,-0.034l0.073,-0.035l0.072,-0.036l0.072,-0.036l0.071,-0.037l0.072,-0.037l0.07,-0.039l0.07,-0.038l0.064,-0.036l0.117,-0.072l0.12,-0.077l0.118,-0.077l0.117,-0.08l0.115,-0.081l0.114,-0.082l0.112,-0.084l0.11,-0.085l0.108,-0.086l0.107,-0.089l0.106,-0.089l0.103,-0.091l0.102,-0.093l0.101,-0.094l0.098,-0.095l0.098,-0.098l0.095,-0.098l0.094,-0.1l0.093,-0.102l0.09,-0.103l0.09,-0.104l0.087,-0.107l0.086,-0.107l0.085,-0.109l0.083,-0.111l0.081,-0.112l0.08,-0.114l0.078,-0.116l0.077,-0.117l0.075,-0.118l0.074,-0.12l0.073,-0.124l0.041,-0.071l0.04,-0.07l0.04,-0.07l0.039,-0.071l0.038,-0.072l0.037,-0.071l0.037,-0.073l0.037,-0.073l0.035,-0.073l0.035,-0.073l0.035,-0.075l0.033,-0.074l0.033,-0.075l0.033,-0.076l0.032,-0.076l0.031,-0.076l0.031,-0.077l0.03,-0.078l0.029,-0.078l0.029,-0.078l0.028,-0.079l0.027,-0.079l0.027,-0.08l0.026,-0.08l0.025,-0.081l0.025,-0.081l0.025,-0.082l0.023,-0.082l0.023,-0.083l0.022,-0.083l0.022,-0.084l0.021,-0.084l0.021,-0.085l0.019,-0.085l0.02,-0.085l0.018,-0.086l0.018,-0.087l0.017,-0.087l0.017,-0.088l0.016,-0.087l0.03,-0.178l0.027,-0.18l0.025,-0.181l0.022,-0.184l0.02,-0.185l0.017,-0.188l0.014,-0.189l0.012,-0.192l0.009,-0.193l0.007,-0.196l0.003,-0.197l0.002,-0.2l-0.001,-0.166l-0.004,-0.165l-0.005,-0.163l-0.007,-0.162l-0.01,-0.16l-0.012,-0.158l-0.014,-0.156l-0.016,-0.155l-0.018,-0.153l-0.021,-0.151l-0.022,-0.15l-0.025,-0.148l-0.026,-0.146l-0.029,-0.145l-0.031,-0.143l-0.033,-0.141l-0.035,-0.139l-0.037,-0.138l-0.04,-0.136l-0.041,-0.135l-0.043,-0.133l-0.046,-0.131l-0.047,-0.13l-0.05,-0.128l-0.051,-0.126l-0.054,-0.125l-0.056,-0.123l-0.058,-0.122l-0.06,-0.12l-0.062,-0.119l-0.064,-0.116l-0.069,-0.122l-0.066,-0.117l-0.064,-0.11l-0.067,-0.109l-0.067,-0.108l-0.07,-0.105l-0.071,-0.105l-0.073,-0.103l-0.075,-0.102l-0.077,-0.1l-0.078,-0.098l-0.08,-0.098l-0.082,-0.096l-0.083,-0.094l-0.086,-0.094l-0.087,-0.092l-0.089,-0.09l-0.09,-0.089l-0.093,-0.088l-0.094,-0.086l-0.096,-0.085l-0.098,-0.084l-0.1,-0.082l-0.102,-0.081l-0.103,-0.08l-0.105,-0.078l-0.107,-0.077l-0.109,-0.076l-0.111,-0.074l-0.113,-0.073l-0.114,-0.071l-0.117,-0.071l-0.118,-0.069l-0.078,-0.043l-0.078,-0.043l-0.078,-0.041l-0.078,-0.039l-0.077,-0.038l-0.078,-0.037l-0.077,-0.035l-0.081,-0.035l-0.073,-0.04l-0.066,-0.051l-0.056,-0.062l-0.045,-0.07l-0.033,-0.076l-0.02,-0.081l-0.006,-0.083l0.008,-0.083l0.021,-0.081l0.034,-0.076l0.047,-0.069l0.057,-0.06l0.067,-0.05l0.098,-0.062l0.094,-0.061l0.093,-0.062l0.092,-0.063l0.09,-0.065l0.089,-0.065l0.088,-0.067l0.087,-0.069l0.086,-0.069l0.085,-0.071l0.083,-0.071l0.082,-0.073l0.081,-0.075l0.08,-0.075l0.079,-0.077l0.078,-0.078l0.077,-0.079l0.075,-0.081l0.075,-0.081l0.073,-0.083l0.072,-0.084l0.071,-0.086l0.07,-0.087l0.069,-0.088l0.067,-0.089l0.067,-0.09l0.065,-0.092l0.065,-0.093l0.063,-0.095l0.062,-0.095l0.061,-0.097l0.056,-0.093l0.058,-0.104l0.058,-0.111l0.057,-0.112l0.055,-0.114l0.053,-0.115l0.051,-0.117l0.049,-0.119l0.047,-0.12l0.045,-0.121l0.044,-0.123l0.041,-0.125l0.04,-0.126l0.038,-0.127l0.036,-0.129l0.034,-0.131l0.032,-0.132l0.03,-0.134l0.028,-0.136l0.027,-0.137l0.024,-0.139l0.023,-0.14l0.02,-0.142l0.019,-0.143l0.017,-0.145l0.014,-0.147l0.013,-0.148l0.011,-0.15l0.009,-0.151l0.007,-0.154l0.005,-0.154l0.003,-0.157l0.001,-0.157l-0.001,-0.188l-0.004,-0.186l-0.006,-0.184l-0.009,-0.183l-0.011,-0.181l-0.013,-0.179l-0.016,-0.178l-0.018,-0.175l-0.021,-0.174l-0.023,-0.173l-0.025,-0.171l-0.028,-0.169l-0.03,-0.167l-0.033,-0.166l-0.035,-0.164l-0.038,-0.162l-0.039,-0.161l-0.043,-0.159l-0.044,-0.158l-0.047,-0.156l-0.049,-0.154l-0.052,-0.152l-0.054,-0.151l-0.056,-0.15l-0.059,-0.148l-0.061,-0.146l-0.064,-0.145l-0.066,-0.143l-0.068,-0.141l-0.071,-0.14l-0.073,-0.139l-0.072,-0.131l-0.065,-0.106l-0.07,-0.112l-0.071,-0.109l-0.073,-0.108l-0.073,-0.107l-0.075,-0.104l-0.076,-0.103l-0.077,-0.101l-0.079,-0.1l-0.079,-0.098l-0.081,-0.096l-0.082,-0.095l-0.083,-0.093l-0.085,-0.091l-0.085,-0.09l-0.087,-0.088l-0.088,-0.086l-0.089,-0.085l-0.09,-0.084l-0.092,-0.081l-0.092,-0.08l-0.094,-0.079l-0.095,-0.077l-0.097,-0.075l-0.097,-0.074l-0.099,-0.072l-0.1,-0.07l-0.102,-0.069l-0.102,-0.068l-0.104,-0.066l-0.105,-0.064l-0.107,-0.063l-0.122,-0.07l-0.123,-0.067l-0.125,-0.065l-0.126,-0.062l-0.127,-0.061l-0.128,-0.058l-0.13,-0.056l-0.131,-0.054l-0.133,-0.052l-0.134,-0.05l-0.136,-0.047l-0.136,-0.046l-0.139,-0.043l-0.14,-0.041l-0.141,-0.039l-0.142,-0.036l-0.144,-0.035l-0.146,-0.032l-0.147,-0.03l-0.149,-0.028l-0.15,-0.025l-0.151,-0.024l-0.153,-0.021l-0.154,-0.019l-0.156,-0.017l-0.158,-0.014l-0.159,-0.012l-0.16,-0.011l-0.162,-0.007l-0.164,-0.006l-0.165,-0.003l-0.168,-0.002l-8.762,0Zm8.86,18.393l0.096,0.002l0.095,0.003l0.095,0.005l0.094,0.006l0.093,0.007l0.093,0.009l0.091,0.01l0.092,0.011l0.09,0.013l0.09,0.014l0.09,0.015l0.088,0.017l0.088,0.018l0.087,0.02l0.087,0.02l0.086,0.023l0.085,0.023l0.085,0.025l0.083,0.027l0.083,0.027l0.083,0.03l0.081,0.03l0.081,0.032l0.08,0.034l0.079,0.034l0.079,0.036l0.077,0.038l0.077,0.039l0.076,0.04l0.076,0.042l0.067,0.039l0.061,0.034l0.068,0.04l0.066,0.04l0.066,0.042l0.065,0.043l0.064,0.044l0.064,0.046l0.063,0.047l0.062,0.048l0.061,0.049l0.061,0.05l0.06,0.052l0.06,0.053l0.058,0.054l0.058,0.055l0.057,0.056l0.057,0.057l0.056,0.059l0.055,0.06l0.054,0.06l0.054,0.062l0.052,0.064l0.053,0.064l0.051,0.065l0.051,0.067l0.05,0.067l0.049,0.069l0.049,0.07l0.047,0.07l0.048,0.072l0.046,0.073l0.05,0.081l0.055,0.098l0.05,0.094l0.049,0.096l0.047,0.096l0.045,0.098l0.043,0.098l0.042,0.1l0.04,0.101l0.039,0.102l0.036,0.103l0.035,0.104l0.034,0.105l0.031,0.107l0.03,0.107l0.029,0.108l0.027,0.11l0.025,0.11l0.023,0.112l0.022,0.113l0.02,0.113l0.018,0.115l0.017,0.115l0.015,0.117l0.014,0.118l0.012,0.118l0.01,0.12l0.009,0.121l0.007,0.121l0.006,0.123l0.004,0.124l0.002,0.125l0.001,0.125l-0.001,0.126l-0.002,0.125l-0.004,0.123l-0.006,0.123l-0.007,0.121l-0.009,0.12l-0.01,0.119l-0.012,0.119l-0.014,0.117l-0.015,0.115l-0.017,0.115l-0.018,0.114l-0.02,0.113l-0.022,0.111l-0.024,0.11l-0.025,0.11l-0.027,0.108l-0.028,0.107l-0.03,0.106l-0.032,0.104l-0.034,0.104l-0.035,0.102l-0.037,0.102l-0.038,0.1l-0.041,0.099l-0.042,0.098l-0.044,0.096l-0.045,0.095l-0.047,0.095l-0.049,0.092l-0.051,0.092l-0.052,0.089l-0.043,0.073l-0.044,0.07l-0.045,0.07l-0.045,0.069l-0.047,0.069l-0.047,0.067l-0.049,0.066l-0.049,0.066l-0.05,0.064l-0.051,0.064l-0.052,0.062l-0.053,0.062l-0.053,0.061l-0.055,0.06l-0.055,0.059l-0.056,0.057l-0.057,0.057l-0.058,0.056l-0.059,0.055l-0.059,0.054l-0.061,0.053l-0.061,0.053l-0.062,0.051l-0.063,0.05l-0.064,0.049l-0.064,0.048l-0.066,0.047l-0.066,0.046l-0.067,0.045l-0.068,0.044l-0.068,0.043l-0.07,0.042l-0.071,0.042l-0.073,0.04l-0.074,0.04l-0.074,0.037l-0.076,0.037l-0.076,0.035l-0.077,0.033l-0.078,0.033l-0.079,0.031l-0.08,0.029l-0.08,0.028l-0.081,0.027l-0.082,0.026l-0.083,0.024l-0.084,0.023l-0.084,0.021l-0.085,0.02l-0.086,0.019l-0.087,0.017l-0.087,0.017l-0.088,0.014l-0.089,0.014l-0.09,0.012l-0.09,0.011l-0.091,0.009l-0.092,0.009l-0.093,0.007l-0.093,0.005l-0.094,0.005l-0.095,0.003l-0.095,0.002l-0.095,0l-3.889,0l-0.078,-0.006l-0.077,-0.018l-0.072,-0.03l-0.067,-0.041l-0.06,-0.051l-0.051,-0.06l-0.041,-0.067l-0.03,-0.072l-0.018,-0.076l-0.006,-0.079l0,-10.992l0.006,-0.078l0.018,-0.076l0.03,-0.073l0.041,-0.066l0.051,-0.06l0.06,-0.051l0.067,-0.041l0.072,-0.03l0.077,-0.018l0.078,-0.007l3.841,0l0.095,0.001Zm-3.436,0.999l0,9.992l3.386,0l0.085,0l0.082,-0.002l0.081,-0.002l0.08,-0.004l0.079,-0.005l0.078,-0.006l0.078,-0.007l0.076,-0.008l0.075,-0.009l0.075,-0.01l0.073,-0.011l0.072,-0.012l0.072,-0.014l0.07,-0.014l0.07,-0.015l0.069,-0.016l0.068,-0.017l0.066,-0.019l0.066,-0.019l0.065,-0.02l0.065,-0.021l0.063,-0.022l0.062,-0.024l0.062,-0.024l0.06,-0.025l0.06,-0.026l0.059,-0.027l0.058,-0.028l0.058,-0.029l0.056,-0.03l0.056,-0.031l0.055,-0.032l0.056,-0.034l0.055,-0.035l0.055,-0.035l0.053,-0.036l0.053,-0.037l0.053,-0.038l0.052,-0.038l0.051,-0.04l0.05,-0.04l0.05,-0.041l0.049,-0.041l0.048,-0.043l0.048,-0.043l0.047,-0.044l0.046,-0.045l0.046,-0.046l0.045,-0.046l0.044,-0.047l0.044,-0.048l0.043,-0.049l0.043,-0.05l0.042,-0.051l0.041,-0.051l0.041,-0.053l0.04,-0.053l0.039,-0.054l0.039,-0.055l0.038,-0.056l0.037,-0.056l0.037,-0.058l0.037,-0.059l0.035,-0.059l0.043,-0.073l0.041,-0.074l0.039,-0.076l0.039,-0.076l0.037,-0.078l0.035,-0.079l0.035,-0.08l0.033,-0.081l0.032,-0.083l0.03,-0.083l0.03,-0.086l0.028,-0.086l0.026,-0.088l0.026,-0.089l0.024,-0.09l0.022,-0.092l0.022,-0.093l0.02,-0.094l0.019,-0.096l0.017,-0.097l0.016,-0.098l0.015,-0.099l0.013,-0.101l0.012,-0.103l0.01,-0.103l0.009,-0.105l0.008,-0.107l0.006,-0.107l0.005,-0.109l0.004,-0.111l0.002,-0.111l0.001,-0.114l-0.001,-0.113l-0.002,-0.112l-0.004,-0.11l-0.005,-0.11l-0.006,-0.108l-0.008,-0.107l-0.009,-0.105l-0.01,-0.105l-0.012,-0.103l-0.014,-0.102l-0.014,-0.101l-0.016,-0.099l-0.018,-0.098l-0.018,-0.098l-0.02,-0.095l-0.022,-0.095l-0.023,-0.093l-0.024,-0.093l-0.025,-0.091l-0.027,-0.09l-0.028,-0.088l-0.03,-0.088l-0.03,-0.086l-0.033,-0.085l-0.033,-0.084l-0.035,-0.083l-0.036,-0.082l-0.037,-0.08l-0.039,-0.08l-0.04,-0.078l-0.041,-0.077l-0.039,-0.071l-0.035,-0.056l-0.039,-0.062l-0.04,-0.06l-0.04,-0.06l-0.04,-0.058l-0.041,-0.057l-0.042,-0.056l-0.041,-0.054l-0.043,-0.054l-0.042,-0.052l-0.043,-0.051l-0.043,-0.051l-0.044,-0.049l-0.044,-0.047l-0.045,-0.047l-0.045,-0.046l-0.045,-0.045l-0.046,-0.043l-0.046,-0.043l-0.047,-0.041l-0.047,-0.04l-0.047,-0.039l-0.048,-0.039l-0.048,-0.037l-0.049,-0.036l-0.049,-0.035l-0.049,-0.034l-0.05,-0.033l-0.05,-0.032l-0.051,-0.031l-0.051,-0.03l-0.059,-0.033l-0.065,-0.038l-0.059,-0.032l-0.06,-0.032l-0.06,-0.031l-0.061,-0.029l-0.062,-0.029l-0.062,-0.027l-0.063,-0.026l-0.064,-0.026l-0.065,-0.024l-0.066,-0.023l-0.066,-0.022l-0.067,-0.021l-0.068,-0.02l-0.068,-0.019l-0.069,-0.018l-0.071,-0.017l-0.071,-0.016l-0.071,-0.015l-0.073,-0.014l-0.073,-0.012l-0.075,-0.012l-0.075,-0.01l-0.076,-0.01l-0.077,-0.008l-0.077,-0.007l-0.079,-0.007l-0.079,-0.005l-0.08,-0.003l-0.081,-0.003l-0.082,-0.002l-0.085,-0.001l-3.338,0Zm3.407,-15.495l0.066,0.001l0.067,0.003l0.066,0.003l0.065,0.004l0.066,0.006l0.065,0.006l0.065,0.007l0.064,0.008l0.064,0.009l0.064,0.01l0.064,0.011l0.063,0.012l0.063,0.013l0.062,0.014l0.062,0.015l0.062,0.016l0.061,0.017l0.061,0.018l0.061,0.019l0.06,0.02l0.06,0.021l0.059,0.022l0.059,0.023l0.059,0.024l0.058,0.024l0.058,0.026l0.057,0.027l0.057,0.028l0.056,0.028l0.056,0.03l0.056,0.031l0.056,0.032l0.055,0.033l0.054,0.034l0.054,0.035l0.053,0.036l0.052,0.037l0.052,0.037l0.051,0.039l0.051,0.04l0.049,0.041l0.049,0.042l0.049,0.043l0.047,0.043l0.047,0.045l0.047,0.045l0.045,0.047l0.045,0.047l0.044,0.048l0.043,0.049l0.043,0.05l0.041,0.051l0.042,0.052l0.04,0.052l0.04,0.054l0.039,0.054l0.038,0.055l0.037,0.056l0.037,0.057l0.036,0.057l0.035,0.058l0.035,0.06l0.034,0.059l0.045,0.083l0.045,0.085l0.043,0.087l0.041,0.087l0.041,0.089l0.039,0.09l0.037,0.091l0.036,0.093l0.035,0.093l0.033,0.095l0.032,0.095l0.03,0.097l0.029,0.098l0.028,0.099l0.026,0.1l0.025,0.102l0.024,0.102l0.022,0.104l0.021,0.104l0.019,0.106l0.019,0.107l0.016,0.108l0.016,0.109l0.014,0.11l0.013,0.111l0.012,0.112l0.01,0.114l0.009,0.114l0.007,0.116l0.007,0.117l0.005,0.117l0.004,0.126l-0.001,0.129l-0.002,0.121l-0.004,0.121l-0.005,0.119l-0.007,0.118l-0.008,0.117l-0.01,0.116l-0.011,0.115l-0.013,0.113l-0.014,0.113l-0.016,0.112l-0.017,0.11l-0.019,0.109l-0.02,0.109l-0.022,0.107l-0.024,0.106l-0.025,0.105l-0.027,0.104l-0.028,0.102l-0.03,0.102l-0.031,0.1l-0.034,0.1l-0.034,0.098l-0.037,0.097l-0.037,0.096l-0.04,0.095l-0.041,0.093l-0.043,0.092l-0.044,0.091l-0.046,0.09l-0.048,0.089l-0.047,0.083l-0.032,0.057l-0.035,0.059l-0.035,0.059l-0.036,0.057l-0.037,0.057l-0.037,0.056l-0.038,0.055l-0.039,0.054l-0.04,0.054l-0.04,0.052l-0.042,0.052l-0.041,0.051l-0.043,0.05l-0.043,0.049l-0.044,0.048l-0.045,0.047l-0.045,0.047l-0.047,0.045l-0.047,0.045l-0.047,0.043l-0.049,0.043l-0.049,0.042l-0.049,0.041l-0.051,0.04l-0.051,0.038l-0.052,0.038l-0.052,0.037l-0.053,0.036l-0.054,0.035l-0.054,0.034l-0.055,0.033l-0.056,0.032l-0.056,0.031l-0.055,0.03l-0.057,0.028l-0.057,0.028l-0.057,0.027l-0.058,0.026l-0.058,0.024l-0.059,0.024l-0.059,0.023l-0.059,0.022l-0.06,0.021l-0.06,0.02l-0.061,0.019l-0.061,0.018l-0.061,0.017l-0.062,0.016l-0.062,0.015l-0.063,0.014l-0.062,0.013l-0.063,0.012l-0.064,0.011l-0.064,0.01l-0.064,0.009l-0.064,0.008l-0.065,0.007l-0.065,0.006l-0.066,0.006l-0.065,0.004l-0.066,0.003l-0.067,0.003l-0.066,0.001l-0.065,0l-3.842,0l-0.078,-0.006l-0.077,-0.018l-0.072,-0.03l-0.067,-0.041l-0.06,-0.051l-0.051,-0.06l-0.041,-0.067l-0.03,-0.072l-0.018,-0.076l-0.006,-0.079l0,-9.6l0.006,-0.078l0.018,-0.076l0.03,-0.073l0.041,-0.066l0.051,-0.06l0.06,-0.051l0.067,-0.041l0.072,-0.03l0.077,-0.018l0.078,-0.007l3.842,0l0.065,0.001Zm-3.407,0.999l0,8.6l3.338,0l0.054,0l0.053,-0.001l0.052,-0.002l0.051,-0.002l0.051,-0.004l0.05,-0.004l0.05,-0.005l0.05,-0.005l0.049,-0.006l0.049,-0.007l0.048,-0.008l0.048,-0.008l0.048,-0.009l0.047,-0.01l0.046,-0.01l0.047,-0.012l0.045,-0.011l0.046,-0.013l0.045,-0.013l0.045,-0.014l0.044,-0.015l0.044,-0.015l0.044,-0.016l0.043,-0.017l0.043,-0.018l0.043,-0.018l0.042,-0.019l0.042,-0.02l0.042,-0.02l0.042,-0.021l0.041,-0.022l0.041,-0.022l0.039,-0.023l0.04,-0.024l0.038,-0.024l0.039,-0.025l0.038,-0.025l0.037,-0.027l0.037,-0.027l0.036,-0.028l0.036,-0.028l0.036,-0.029l0.035,-0.03l0.035,-0.031l0.034,-0.031l0.034,-0.033l0.034,-0.033l0.033,-0.033l0.032,-0.035l0.033,-0.035l0.031,-0.036l0.032,-0.037l0.031,-0.038l0.031,-0.039l0.03,-0.039l0.03,-0.04l0.029,-0.041l0.03,-0.042l0.028,-0.043l0.029,-0.044l0.027,-0.044l0.028,-0.046l0.027,-0.046l0.028,-0.05l0.042,-0.074l0.038,-0.071l0.037,-0.072l0.036,-0.074l0.034,-0.075l0.034,-0.075l0.032,-0.078l0.031,-0.078l0.03,-0.08l0.029,-0.081l0.027,-0.082l0.026,-0.084l0.025,-0.084l0.024,-0.087l0.022,-0.087l0.022,-0.089l0.02,-0.09l0.018,-0.092l0.018,-0.092l0.016,-0.095l0.015,-0.095l0.014,-0.097l0.012,-0.098l0.012,-0.1l0.009,-0.101l0.009,-0.102l0.007,-0.103l0.006,-0.105l0.005,-0.107l0.003,-0.107l0.002,-0.109l0.001,-0.104l-0.003,-0.101l-0.005,-0.107l-0.006,-0.105l-0.007,-0.104l-0.008,-0.102l-0.009,-0.101l-0.01,-0.1l-0.012,-0.099l-0.012,-0.097l-0.014,-0.096l-0.014,-0.094l-0.016,-0.093l-0.017,-0.092l-0.018,-0.091l-0.019,-0.089l-0.021,-0.088l-0.021,-0.086l-0.022,-0.085l-0.024,-0.084l-0.024,-0.083l-0.026,-0.081l-0.026,-0.08l-0.028,-0.078l-0.029,-0.078l-0.029,-0.076l-0.031,-0.074l-0.032,-0.074l-0.032,-0.072l-0.034,-0.071l-0.035,-0.07l-0.036,-0.068l-0.037,-0.068l-0.027,-0.048l-0.027,-0.046l-0.028,-0.046l-0.027,-0.044l-0.029,-0.044l-0.028,-0.043l-0.03,-0.042l-0.029,-0.041l-0.03,-0.04l-0.03,-0.039l-0.031,-0.039l-0.031,-0.038l-0.031,-0.037l-0.032,-0.036l-0.033,-0.035l-0.032,-0.035l-0.034,-0.034l-0.033,-0.032l-0.034,-0.033l-0.034,-0.031l-0.035,-0.031l-0.035,-0.03l-0.036,-0.029l-0.036,-0.028l-0.036,-0.028l-0.037,-0.027l-0.037,-0.027l-0.038,-0.025l-0.039,-0.025l-0.038,-0.024l-0.04,-0.024l-0.04,-0.023l-0.04,-0.022l-0.041,-0.022l-0.042,-0.021l-0.042,-0.021l-0.042,-0.019l-0.042,-0.019l-0.043,-0.018l-0.043,-0.018l-0.043,-0.017l-0.044,-0.016l-0.044,-0.015l-0.044,-0.015l-0.045,-0.014l-0.045,-0.013l-0.046,-0.013l-0.045,-0.011l-0.047,-0.012l-0.046,-0.01l-0.047,-0.01l-0.048,-0.009l-0.048,-0.008l-0.048,-0.008l-0.049,-0.007l-0.049,-0.006l-0.05,-0.005l-0.05,-0.005l-0.05,-0.004l-0.051,-0.004l-0.051,-0.002l-0.052,-0.002l-0.052,-0.001l-0.055,-0.001l-3.338,0Z" style="fill:#d4d7de;"/><path d="M306.017,164.1l0.076,0.018l0.073,0.03l0.067,0.041l0.059,0.051l0.051,0.06l0.041,0.066l0.03,0.073l0.019,0.076l0.006,0.078l0,20.044l4.828,0l0.078,0.007l0.076,0.018l0.073,0.03l0.067,0.041l0.059,0.051l0.051,0.06l0.041,0.066l0.03,0.073l0.019,0.076l0.006,0.078l0,4.896l-0.006,0.079l-0.019,0.076l-0.03,0.072l-0.041,0.067l-0.051,0.06l-0.059,0.051l-0.067,0.041l-0.073,0.03l-0.076,0.018l-0.078,0.006l-16.8,0l-0.078,-0.006l-0.077,-0.018l-0.072,-0.03l-0.067,-0.041l-0.06,-0.051l-0.051,-0.06l-0.041,-0.067l-0.03,-0.072l-0.018,-0.076l-0.006,-0.079l0,-4.896l0.006,-0.078l0.018,-0.076l0.03,-0.073l0.041,-0.066l0.051,-0.06l0.06,-0.051l0.067,-0.041l0.072,-0.03l0.077,-0.018l0.078,-0.007l5.5,0l0,-14.648l-4.828,0l-0.078,-0.006l-0.077,-0.018l-0.072,-0.03l-0.067,-0.041l-0.06,-0.051l-0.051,-0.06l-0.041,-0.067l-0.03,-0.072l-0.018,-0.076l-0.006,-0.079l0,-4.896l0.006,-0.078l0.018,-0.076l0.03,-0.073l0.041,-0.066l0.051,-0.06l0.06,-0.051l0.067,-0.041l0.072,-0.03l0.077,-0.018l0.078,-0.007l10.8,0l0.078,0.007Zm-10.378,0.993l0,3.896l4.828,0l0.078,0.007l0.076,0.018l0.073,0.03l0.067,0.041l0.059,0.051l0.051,0.06l0.041,0.066l0.03,0.073l0.019,0.076l0.006,0.078l0,15.648l-0.006,0.079l-0.019,0.076l-0.03,0.072l-0.041,0.067l-0.051,0.06l-0.059,0.051l-0.067,0.041l-0.073,0.03l-0.076,0.018l-0.078,0.006l-5.5,0l0,3.896l15.8,0l0,-3.896l-4.828,0l-0.078,-0.006l-0.077,-0.018l-0.072,-0.03l-0.067,-0.041l-0.06,-0.051l-0.051,-0.06l-0.041,-0.067l-0.03,-0.072l-0.018,-0.076l-0.006,-0.079l0,-20.044l-9.8,0Zm7.306,-12.087l0.078,0.001l0.077,0.003l0.077,0.004l0.077,0.004l0.076,0.006l0.075,0.007l0.075,0.007l0.075,0.009l0.074,0.01l0.073,0.011l0.073,0.012l0.073,0.013l0.072,0.014l0.072,0.016l0.071,0.016l0.07,0.017l0.07,0.019l0.07,0.02l0.069,0.02l0.068,0.022l0.068,0.023l0.067,0.024l0.067,0.025l0.067,0.026l0.065,0.027l0.065,0.028l0.065,0.03l0.064,0.03l0.063,0.032l0.063,0.033l0.069,0.037l0.058,0.036l0.051,0.032l0.049,0.032l0.05,0.033l0.048,0.034l0.048,0.035l0.048,0.035l0.047,0.036l0.046,0.036l0.046,0.037l0.045,0.038l0.044,0.039l0.044,0.039l0.043,0.04l0.043,0.041l0.041,0.041l0.042,0.042l0.04,0.042l0.04,0.043l0.039,0.044l0.039,0.045l0.038,0.045l0.037,0.045l0.036,0.046l0.036,0.047l0.036,0.048l0.034,0.048l0.034,0.049l0.033,0.049l0.033,0.05l0.031,0.05l0.036,0.059l0.038,0.069l0.032,0.062l0.032,0.064l0.03,0.063l0.03,0.065l0.028,0.065l0.027,0.066l0.026,0.066l0.026,0.067l0.023,0.067l0.023,0.068l0.022,0.068l0.021,0.07l0.019,0.069l0.019,0.07l0.017,0.071l0.017,0.071l0.015,0.071l0.014,0.072l0.013,0.073l0.012,0.073l0.011,0.074l0.01,0.074l0.009,0.074l0.008,0.075l0.006,0.076l0.006,0.076l0.005,0.076l0.003,0.077l0.003,0.077l0.001,0.078l0.001,0.078l-0.001,0.079l-0.001,0.078l-0.003,0.077l-0.003,0.077l-0.005,0.076l-0.006,0.076l-0.006,0.076l-0.008,0.075l-0.009,0.074l-0.01,0.074l-0.011,0.074l-0.012,0.073l-0.013,0.072l-0.014,0.073l-0.015,0.071l-0.017,0.071l-0.017,0.071l-0.019,0.07l-0.019,0.069l-0.021,0.069l-0.022,0.069l-0.023,0.068l-0.023,0.067l-0.026,0.067l-0.026,0.066l-0.027,0.066l-0.028,0.065l-0.03,0.064l-0.03,0.064l-0.032,0.064l-0.032,0.062l-0.038,0.069l-0.036,0.059l-0.031,0.05l-0.033,0.05l-0.033,0.049l-0.034,0.049l-0.034,0.048l-0.036,0.048l-0.036,0.047l-0.036,0.046l-0.037,0.045l-0.038,0.045l-0.039,0.045l-0.039,0.044l-0.04,0.043l-0.04,0.042l-0.042,0.042l-0.041,0.041l-0.043,0.041l-0.043,0.04l-0.044,0.039l-0.044,0.038l-0.045,0.038l-0.046,0.038l-0.046,0.036l-0.047,0.036l-0.048,0.035l-0.048,0.035l-0.048,0.034l-0.05,0.033l-0.049,0.032l-0.051,0.032l-0.058,0.036l-0.069,0.037l-0.063,0.033l-0.063,0.032l-0.064,0.03l-0.065,0.029l-0.065,0.029l-0.065,0.027l-0.067,0.026l-0.067,0.025l-0.067,0.024l-0.068,0.023l-0.068,0.022l-0.069,0.02l-0.07,0.02l-0.07,0.018l-0.07,0.018l-0.071,0.016l-0.072,0.015l-0.072,0.015l-0.073,0.013l-0.073,0.012l-0.073,0.011l-0.074,0.01l-0.075,0.008l-0.075,0.008l-0.075,0.007l-0.076,0.006l-0.077,0.004l-0.077,0.004l-0.077,0.002l-0.078,0.002l-0.078,0l-0.078,0l-0.078,-0.002l-0.078,-0.002l-0.077,-0.004l-0.076,-0.004l-0.076,-0.006l-0.075,-0.007l-0.075,-0.008l-0.075,-0.008l-0.074,-0.01l-0.074,-0.011l-0.073,-0.012l-0.072,-0.013l-0.072,-0.015l-0.072,-0.015l-0.071,-0.016l-0.071,-0.018l-0.07,-0.018l-0.069,-0.02l-0.069,-0.02l-0.069,-0.022l-0.068,-0.023l-0.067,-0.024l-0.067,-0.025l-0.066,-0.026l-0.066,-0.027l-0.065,-0.029l-0.064,-0.029l-0.064,-0.03l-0.063,-0.032l-0.063,-0.033l-0.069,-0.037l-0.058,-0.036l-0.051,-0.032l-0.05,-0.032l-0.049,-0.033l-0.049,-0.034l-0.048,-0.035l-0.047,-0.035l-0.047,-0.036l-0.046,-0.036l-0.046,-0.038l-0.045,-0.038l-0.045,-0.038l-0.043,-0.039l-0.043,-0.04l-0.043,-0.041l-0.042,-0.041l-0.041,-0.042l-0.041,-0.042l-0.039,-0.043l-0.04,-0.044l-0.038,-0.045l-0.038,-0.045l-0.037,-0.045l-0.037,-0.047l-0.036,-0.046l-0.035,-0.048l-0.034,-0.048l-0.034,-0.049l-0.034,-0.049l-0.032,-0.05l-0.032,-0.05l-0.035,-0.059l-0.038,-0.069l-0.033,-0.062l-0.031,-0.064l-0.031,-0.064l-0.029,-0.064l-0.029,-0.065l-0.027,-0.066l-0.026,-0.066l-0.025,-0.067l-0.024,-0.067l-0.023,-0.068l-0.021,-0.069l-0.021,-0.069l-0.02,-0.069l-0.018,-0.07l-0.018,-0.071l-0.016,-0.071l-0.015,-0.071l-0.014,-0.072l-0.013,-0.073l-0.012,-0.073l-0.011,-0.074l-0.01,-0.074l-0.009,-0.074l-0.008,-0.075l-0.007,-0.076l-0.005,-0.076l-0.005,-0.076l-0.004,-0.077l-0.002,-0.077l-0.002,-0.078l0,-0.079l0,-0.078l0.002,-0.078l0.002,-0.077l0.004,-0.077l0.005,-0.076l0.005,-0.076l0.007,-0.076l0.008,-0.075l0.009,-0.074l0.01,-0.074l0.011,-0.074l0.012,-0.073l0.013,-0.073l0.014,-0.072l0.015,-0.071l0.016,-0.071l0.018,-0.071l0.018,-0.07l0.02,-0.069l0.021,-0.07l0.021,-0.068l0.023,-0.068l0.024,-0.067l0.025,-0.067l0.026,-0.066l0.027,-0.066l0.029,-0.065l0.029,-0.065l0.031,-0.063l0.031,-0.064l0.033,-0.062l0.038,-0.069l0.035,-0.059l0.032,-0.05l0.032,-0.05l0.034,-0.049l0.034,-0.049l0.034,-0.048l0.035,-0.048l0.036,-0.047l0.037,-0.046l0.037,-0.045l0.038,-0.045l0.038,-0.045l0.04,-0.044l0.039,-0.043l0.041,-0.042l0.041,-0.042l0.042,-0.041l0.043,-0.041l0.043,-0.04l0.043,-0.039l0.045,-0.039l0.045,-0.037l0.046,-0.038l0.046,-0.036l0.047,-0.036l0.047,-0.035l0.048,-0.035l0.049,-0.034l0.049,-0.033l0.05,-0.032l0.051,-0.032l0.058,-0.036l0.069,-0.037l0.063,-0.033l0.063,-0.032l0.064,-0.03l0.064,-0.03l0.065,-0.028l0.066,-0.027l0.066,-0.026l0.067,-0.025l0.067,-0.024l0.068,-0.023l0.069,-0.022l0.069,-0.02l0.069,-0.02l0.07,-0.019l0.071,-0.017l0.071,-0.016l0.072,-0.016l0.072,-0.014l0.072,-0.013l0.073,-0.012l0.074,-0.011l0.074,-0.01l0.075,-0.009l0.075,-0.007l0.075,-0.007l0.076,-0.006l0.076,-0.004l0.077,-0.004l0.078,-0.003l0.078,-0.001l0.078,-0.001l0.078,0.001Zm-0.143,1l-0.065,0.001l-0.064,0.002l-0.063,0.003l-0.062,0.004l-0.062,0.005l-0.061,0.005l-0.061,0.006l-0.06,0.008l-0.059,0.007l-0.059,0.009l-0.058,0.01l-0.057,0.01l-0.057,0.011l-0.056,0.012l-0.055,0.013l-0.055,0.013l-0.055,0.015l-0.053,0.015l-0.053,0.016l-0.053,0.016l-0.052,0.018l-0.051,0.018l-0.051,0.019l-0.05,0.02l-0.05,0.021l-0.049,0.021l-0.048,0.022l-0.048,0.023l-0.048,0.024l-0.047,0.024l-0.039,0.022l-0.031,0.019l-0.038,0.024l-0.038,0.024l-0.036,0.025l-0.037,0.025l-0.035,0.026l-0.036,0.026l-0.034,0.026l-0.034,0.027l-0.034,0.028l-0.033,0.027l-0.033,0.029l-0.032,0.029l-0.032,0.029l-0.031,0.03l-0.031,0.03l-0.03,0.031l-0.03,0.031l-0.029,0.032l-0.029,0.032l-0.028,0.032l-0.028,0.034l-0.028,0.033l-0.027,0.034l-0.026,0.035l-0.026,0.035l-0.026,0.036l-0.025,0.036l-0.025,0.037l-0.024,0.037l-0.024,0.038l-0.019,0.031l-0.021,0.04l-0.025,0.047l-0.024,0.047l-0.023,0.048l-0.022,0.049l-0.021,0.049l-0.021,0.05l-0.02,0.05l-0.019,0.051l-0.018,0.051l-0.017,0.052l-0.017,0.052l-0.016,0.053l-0.015,0.054l-0.014,0.054l-0.014,0.055l-0.013,0.056l-0.011,0.056l-0.012,0.057l-0.01,0.057l-0.009,0.058l-0.009,0.059l-0.008,0.059l-0.007,0.06l-0.007,0.06l-0.005,0.061l-0.005,0.062l-0.003,0.063l-0.003,0.063l-0.002,0.064l-0.002,0.064l0,0.065l0,0.066l0.002,0.064l0.002,0.064l0.003,0.063l0.003,0.063l0.005,0.061l0.005,0.062l0.007,0.06l0.007,0.06l0.008,0.059l0.009,0.059l0.009,0.058l0.01,0.057l0.012,0.057l0.011,0.056l0.013,0.056l0.014,0.055l0.014,0.054l0.015,0.053l0.016,0.053l0.017,0.053l0.017,0.052l0.018,0.051l0.019,0.051l0.02,0.05l0.021,0.05l0.021,0.049l0.022,0.048l0.023,0.049l0.024,0.047l0.025,0.047l0.021,0.04l0.019,0.031l0.024,0.038l0.024,0.037l0.025,0.037l0.025,0.036l0.026,0.036l0.026,0.035l0.026,0.034l0.027,0.035l0.028,0.033l0.028,0.033l0.028,0.033l0.029,0.032l0.029,0.032l0.03,0.031l0.03,0.031l0.031,0.03l0.031,0.03l0.032,0.029l0.032,0.029l0.033,0.028l0.033,0.028l0.034,0.028l0.034,0.027l0.034,0.026l0.036,0.026l0.035,0.026l0.037,0.025l0.036,0.025l0.038,0.024l0.038,0.024l0.031,0.019l0.039,0.022l0.047,0.024l0.048,0.024l0.048,0.023l0.048,0.022l0.049,0.021l0.05,0.021l0.05,0.02l0.051,0.019l0.051,0.018l0.052,0.017l0.053,0.017l0.053,0.016l0.053,0.015l0.055,0.015l0.055,0.013l0.055,0.013l0.056,0.012l0.057,0.011l0.057,0.01l0.058,0.01l0.059,0.008l0.059,0.008l0.06,0.007l0.061,0.007l0.061,0.005l0.062,0.005l0.062,0.004l0.063,0.003l0.064,0.002l0.065,0.001l0.065,0l0.065,0l0.064,-0.001l0.064,-0.002l0.063,-0.003l0.063,-0.004l0.062,-0.005l0.061,-0.005l0.061,-0.007l0.06,-0.007l0.059,-0.008l0.058,-0.008l0.058,-0.01l0.058,-0.01l0.056,-0.011l0.056,-0.012l0.056,-0.013l0.055,-0.013l0.054,-0.015l0.054,-0.015l0.053,-0.016l0.052,-0.017l0.052,-0.017l0.052,-0.018l0.05,-0.019l0.05,-0.02l0.05,-0.021l0.049,-0.021l0.049,-0.022l0.048,-0.023l0.047,-0.024l0.047,-0.024l0.04,-0.022l0.031,-0.019l0.038,-0.024l0.037,-0.024l0.037,-0.025l0.036,-0.025l0.036,-0.026l0.035,-0.026l0.035,-0.026l0.034,-0.027l0.034,-0.028l0.033,-0.028l0.032,-0.028l0.033,-0.029l0.031,-0.029l0.031,-0.03l0.031,-0.03l0.03,-0.031l0.03,-0.031l0.03,-0.032l0.028,-0.032l0.029,-0.033l0.028,-0.033l0.027,-0.033l0.027,-0.035l0.027,-0.034l0.026,-0.035l0.025,-0.036l0.026,-0.036l0.024,-0.037l0.025,-0.037l0.024,-0.038l0.019,-0.031l0.021,-0.04l0.025,-0.047l0.023,-0.048l0.023,-0.048l0.022,-0.048l0.022,-0.049l0.02,-0.05l0.02,-0.05l0.019,-0.051l0.018,-0.051l0.018,-0.052l0.017,-0.053l0.015,-0.053l0.015,-0.053l0.015,-0.054l0.013,-0.055l0.013,-0.056l0.012,-0.056l0.011,-0.057l0.011,-0.057l0.009,-0.058l0.009,-0.059l0.008,-0.059l0.007,-0.06l0.006,-0.06l0.006,-0.062l0.004,-0.061l0.004,-0.063l0.003,-0.063l0.002,-0.064l0.001,-0.064l0.001,-0.066l-0.001,-0.065l-0.001,-0.064l-0.002,-0.064l-0.003,-0.063l-0.004,-0.063l-0.004,-0.062l-0.006,-0.061l-0.006,-0.06l-0.007,-0.06l-0.008,-0.059l-0.009,-0.059l-0.009,-0.058l-0.011,-0.057l-0.011,-0.057l-0.012,-0.056l-0.013,-0.056l-0.013,-0.055l-0.015,-0.054l-0.015,-0.054l-0.015,-0.053l-0.017,-0.052l-0.018,-0.052l-0.018,-0.051l-0.019,-0.051l-0.02,-0.05l-0.02,-0.05l-0.022,-0.049l-0.022,-0.049l-0.023,-0.048l-0.023,-0.047l-0.025,-0.047l-0.021,-0.04l-0.019,-0.031l-0.024,-0.038l-0.025,-0.037l-0.024,-0.037l-0.026,-0.036l-0.025,-0.036l-0.026,-0.035l-0.027,-0.035l-0.027,-0.034l-0.027,-0.033l-0.028,-0.034l-0.029,-0.032l-0.028,-0.032l-0.03,-0.032l-0.03,-0.031l-0.03,-0.031l-0.031,-0.03l-0.031,-0.03l-0.031,-0.029l-0.033,-0.029l-0.032,-0.029l-0.033,-0.027l-0.034,-0.028l-0.034,-0.027l-0.035,-0.026l-0.035,-0.027l-0.036,-0.025l-0.036,-0.025l-0.037,-0.025l-0.037,-0.025l-0.038,-0.023l-0.031,-0.019l-0.04,-0.022l-0.047,-0.024l-0.047,-0.024l-0.048,-0.023l-0.049,-0.022l-0.049,-0.021l-0.05,-0.021l-0.05,-0.02l-0.05,-0.019l-0.052,-0.018l-0.052,-0.018l-0.052,-0.016l-0.053,-0.016l-0.054,-0.015l-0.054,-0.015l-0.055,-0.013l-0.056,-0.013l-0.056,-0.012l-0.056,-0.011l-0.058,-0.01l-0.058,-0.01l-0.058,-0.009l-0.06,-0.007l-0.059,-0.008l-0.061,-0.006l-0.061,-0.005l-0.062,-0.005l-0.063,-0.004l-0.063,-0.003l-0.064,-0.002l-0.064,-0.001l-0.065,-0.001l-0.065,0.001Z" style="fill:#d4d7de;"/><path d="M327.281,154.26l0.076,0.018l0.073,0.03l0.067,0.041l0.059,0.051l0.051,0.06l0.041,0.066l0.03,0.073l0.019,0.076l0.006,0.078l0,9.34l6.316,0l0.078,0.007l0.076,0.018l0.073,0.03l0.067,0.041l0.059,0.051l0.051,0.06l0.041,0.066l0.03,0.073l0.019,0.076l0.006,0.078l0,4.896l-0.006,0.079l-0.019,0.076l-0.03,0.072l-0.041,0.067l-0.051,0.06l-0.059,0.051l-0.067,0.041l-0.073,0.03l-0.076,0.018l-0.078,0.006l-6.316,0l0,10.016l-0.002,0.158l0,0.15l0.001,0.148l0.004,0.146l0.005,0.144l0.007,0.141l0.009,0.139l0.01,0.138l0.012,0.135l0.014,0.133l0.016,0.131l0.018,0.128l0.019,0.127l0.021,0.124l0.023,0.123l0.024,0.12l0.026,0.118l0.028,0.116l0.029,0.114l0.031,0.111l0.033,0.11l0.034,0.107l0.036,0.105l0.038,0.104l0.039,0.101l0.041,0.099l0.042,0.097l0.044,0.095l0.046,0.093l0.047,0.09l0.048,0.089l0.054,0.093l0.026,0.046l0.024,0.04l0.025,0.04l0.024,0.039l0.025,0.039l0.026,0.037l0.025,0.037l0.026,0.036l0.026,0.035l0.027,0.035l0.027,0.034l0.027,0.033l0.027,0.032l0.028,0.032l0.028,0.03l0.029,0.031l0.029,0.029l0.029,0.029l0.029,0.028l0.03,0.027l0.029,0.027l0.031,0.026l0.03,0.025l0.031,0.025l0.032,0.024l0.031,0.024l0.032,0.022l0.033,0.023l0.032,0.021l0.033,0.021l0.034,0.021l0.036,0.021l0.051,0.029l0.045,0.024l0.047,0.022l0.048,0.021l0.05,0.019l0.051,0.018l0.053,0.016l0.054,0.014l0.056,0.013l0.058,0.012l0.06,0.01l0.062,0.008l0.064,0.006l0.066,0.005l0.067,0.002l0.07,0.001l0.07,-0.001l0.068,-0.002l0.067,-0.005l0.066,-0.006l0.064,-0.009l0.062,-0.01l0.062,-0.011l0.06,-0.014l0.059,-0.015l0.058,-0.017l0.056,-0.018l0.056,-0.021l0.054,-0.021l0.054,-0.024l0.053,-0.025l0.048,-0.026l0.028,-0.016l0.032,-0.02l0.033,-0.021l0.032,-0.022l0.032,-0.022l0.032,-0.023l0.032,-0.025l0.032,-0.025l0.031,-0.025l0.031,-0.027l0.031,-0.028l0.031,-0.028l0.031,-0.03l0.031,-0.03l0.03,-0.031l0.03,-0.033l0.03,-0.033l0.03,-0.034l0.03,-0.035l0.03,-0.036l0.029,-0.037l0.029,-0.038l0.029,-0.039l0.029,-0.04l0.029,-0.041l0.028,-0.042l0.028,-0.043l0.028,-0.044l0.028,-0.045l0.027,-0.046l0.028,-0.046l0.029,-0.052l0.04,-0.071l0.037,-0.066l0.035,-0.067l0.035,-0.068l0.034,-0.07l0.033,-0.07l0.032,-0.072l0.031,-0.072l0.03,-0.074l0.03,-0.075l0.028,-0.076l0.028,-0.076l0.027,-0.078l0.025,-0.079l0.025,-0.081l0.024,-0.081l0.023,-0.082l0.023,-0.084l0.021,-0.085l0.02,-0.085l0.02,-0.087l0.018,-0.088l0.018,-0.089l0.017,-0.09l0.015,-0.092l0.015,-0.092l0.014,-0.094l0.013,-0.094l0.012,-0.096l0.011,-0.097l0.01,-0.098l0.009,-0.102l0.013,-0.078l0.026,-0.075l0.037,-0.07l0.048,-0.064l0.057,-0.055l0.066,-0.045l0.071,-0.034l0.076,-0.023l0.079,-0.01l0.08,0.002l0.077,0.015l5.232,1.44l0.077,0.028l0.07,0.04l0.064,0.051l0.054,0.06l0.044,0.068l0.032,0.075l0.02,0.078l0.007,0.081l-0.007,0.081l-0.022,0.137l-0.024,0.139l-0.025,0.138l-0.026,0.137l-0.028,0.135l-0.03,0.135l-0.031,0.134l-0.032,0.133l-0.034,0.132l-0.035,0.131l-0.036,0.13l-0.038,0.129l-0.039,0.128l-0.041,0.127l-0.042,0.126l-0.043,0.125l-0.045,0.123l-0.046,0.123l-0.048,0.122l-0.049,0.121l-0.05,0.12l-0.052,0.119l-0.053,0.118l-0.055,0.116l-0.056,0.116l-0.057,0.115l-0.059,0.114l-0.061,0.112l-0.061,0.112l-0.063,0.11l-0.065,0.11l-0.06,0.099l-0.068,0.12l-0.075,0.126l-0.077,0.125l-0.078,0.123l-0.079,0.122l-0.081,0.119l-0.082,0.118l-0.084,0.116l-0.086,0.114l-0.087,0.112l-0.088,0.11l-0.09,0.108l-0.091,0.107l-0.093,0.105l-0.095,0.102l-0.096,0.101l-0.097,0.099l-0.099,0.097l-0.101,0.095l-0.102,0.094l-0.103,0.091l-0.105,0.09l-0.107,0.087l-0.108,0.085l-0.109,0.084l-0.111,0.082l-0.112,0.079l-0.114,0.078l-0.115,0.076l-0.116,0.074l-0.118,0.071l-0.12,0.07l-0.12,0.068l-0.122,0.066l-0.123,0.063l-0.124,0.062l-0.126,0.059l-0.126,0.057l-0.128,0.055l-0.128,0.052l-0.13,0.051l-0.131,0.048l-0.132,0.046l-0.133,0.044l-0.134,0.042l-0.135,0.04l-0.136,0.037l-0.138,0.036l-0.138,0.033l-0.139,0.031l-0.141,0.029l-0.141,0.026l-0.142,0.025l-0.144,0.022l-0.144,0.021l-0.146,0.018l-0.146,0.016l-0.148,0.013l-0.148,0.012l-0.15,0.01l-0.15,0.007l-0.151,0.005l-0.153,0.003l-0.153,0.001l-0.156,-0.001l-0.155,-0.003l-0.154,-0.005l-0.153,-0.007l-0.152,-0.01l-0.151,-0.012l-0.149,-0.013l-0.148,-0.016l-0.148,-0.018l-0.146,-0.021l-0.145,-0.022l-0.143,-0.024l-0.143,-0.027l-0.142,-0.029l-0.14,-0.031l-0.139,-0.033l-0.138,-0.035l-0.137,-0.038l-0.136,-0.04l-0.134,-0.042l-0.134,-0.044l-0.132,-0.046l-0.13,-0.048l-0.13,-0.051l-0.129,-0.053l-0.127,-0.055l-0.126,-0.057l-0.124,-0.059l-0.124,-0.062l-0.122,-0.063l-0.121,-0.066l-0.119,-0.068l-0.118,-0.07l-0.116,-0.071l-0.115,-0.073l-0.114,-0.076l-0.112,-0.077l-0.111,-0.078l-0.11,-0.081l-0.108,-0.083l-0.107,-0.084l-0.106,-0.086l-0.105,-0.088l-0.103,-0.09l-0.102,-0.092l-0.1,-0.093l-0.099,-0.095l-0.098,-0.097l-0.097,-0.099l-0.095,-0.101l-0.094,-0.102l-0.092,-0.105l-0.091,-0.105l-0.09,-0.108l-0.088,-0.11l-0.087,-0.111l-0.086,-0.113l-0.084,-0.115l-0.083,-0.116l-0.082,-0.118l-0.08,-0.12l-0.079,-0.122l-0.078,-0.123l-0.078,-0.129l-0.051,-0.09l-0.048,-0.087l-0.047,-0.086l-0.047,-0.088l-0.045,-0.088l-0.045,-0.089l-0.044,-0.089l-0.043,-0.09l-0.042,-0.091l-0.042,-0.091l-0.041,-0.091l-0.04,-0.093l-0.039,-0.093l-0.038,-0.093l-0.038,-0.094l-0.037,-0.095l-0.036,-0.096l-0.035,-0.095l-0.035,-0.097l-0.034,-0.097l-0.033,-0.098l-0.032,-0.098l-0.032,-0.099l-0.03,-0.1l-0.03,-0.1l-0.029,-0.1l-0.029,-0.102l-0.028,-0.102l-0.026,-0.102l-0.026,-0.103l-0.026,-0.104l-0.024,-0.104l-0.024,-0.105l-0.023,-0.105l-0.022,-0.106l-0.022,-0.106l-0.021,-0.108l-0.02,-0.107l-0.019,-0.109l-0.018,-0.108l-0.018,-0.11l-0.017,-0.11l-0.016,-0.11l-0.015,-0.112l-0.015,-0.111l-0.014,-0.113l-0.013,-0.113l-0.012,-0.113l-0.012,-0.114l-0.011,-0.115l-0.01,-0.115l-0.009,-0.116l-0.009,-0.116l-0.008,-0.117l-0.007,-0.118l-0.006,-0.118l-0.006,-0.119l-0.005,-0.12l-0.007,-0.239l-0.005,-0.243l-0.001,-0.243l0,-10.014l-4.012,0l-0.078,-0.006l-0.077,-0.018l-0.072,-0.03l-0.067,-0.041l-0.06,-0.051l-0.051,-0.06l-0.041,-0.067l-0.03,-0.072l-0.018,-0.076l-0.006,-0.079l0,-4.896l0.006,-0.078l0.018,-0.076l0.03,-0.073l0.041,-0.066l0.051,-0.06l0.06,-0.051l0.067,-0.041l0.072,-0.03l0.077,-0.018l0.078,-0.007l4.012,0l0,-9.34l0.006,-0.078l0.018,-0.076l0.03,-0.073l0.041,-0.066l0.051,-0.06l0.06,-0.051l0.067,-0.041l0.072,-0.03l0.077,-0.018l0.078,-0.007l5.472,0l0.078,0.007Zm-5.05,0.993l0,9.34l-0.006,0.079l-0.019,0.076l-0.03,0.072l-0.041,0.067l-0.051,0.06l-0.059,0.051l-0.067,0.041l-0.073,0.03l-0.076,0.018l-0.078,0.006l-4.012,0l0,3.896l4.012,0l0.078,0.007l0.076,0.018l0.073,0.03l0.067,0.041l0.059,0.051l0.051,0.06l0.041,0.066l0.03,0.073l0.019,0.076l0.006,0.078l0,10.511l0.001,0.234l0.004,0.23l0.008,0.229l0.004,0.112l0.005,0.112l0.006,0.111l0.007,0.111l0.008,0.11l0.008,0.11l0.008,0.109l0.01,0.108l0.01,0.108l0.011,0.107l0.012,0.106l0.012,0.106l0.013,0.105l0.014,0.105l0.014,0.104l0.015,0.103l0.016,0.102l0.016,0.102l0.017,0.102l0.018,0.1l0.019,0.1l0.019,0.1l0.02,0.098l0.021,0.098l0.021,0.098l0.022,0.097l0.023,0.096l0.023,0.096l0.024,0.094l0.025,0.095l0.025,0.093l0.026,0.093l0.027,0.093l0.027,0.092l0.029,0.091l0.028,0.09l0.03,0.09l0.03,0.089l0.031,0.089l0.031,0.088l0.033,0.087l0.033,0.087l0.033,0.086l0.034,0.086l0.035,0.085l0.036,0.084l0.036,0.084l0.037,0.083l0.038,0.082l0.038,0.082l0.039,0.081l0.04,0.081l0.04,0.08l0.041,0.079l0.041,0.079l0.043,0.078l0.043,0.078l0.041,0.072l0.067,0.109l0.07,0.112l0.071,0.11l0.072,0.107l0.073,0.107l0.075,0.104l0.075,0.103l0.077,0.101l0.078,0.099l0.078,0.098l0.08,0.095l0.081,0.095l0.082,0.092l0.083,0.091l0.084,0.089l0.086,0.087l0.086,0.086l0.088,0.084l0.088,0.082l0.09,0.081l0.091,0.079l0.092,0.078l0.093,0.075l0.094,0.075l0.095,0.072l0.097,0.071l0.097,0.069l0.099,0.068l0.1,0.066l0.101,0.064l0.102,0.063l0.103,0.061l0.104,0.059l0.104,0.057l0.106,0.055l0.108,0.054l0.108,0.051l0.109,0.05l0.111,0.048l0.112,0.046l0.113,0.044l0.114,0.042l0.116,0.041l0.116,0.038l0.118,0.037l0.12,0.035l0.12,0.033l0.122,0.031l0.123,0.029l0.124,0.028l0.126,0.025l0.127,0.024l0.128,0.022l0.129,0.02l0.131,0.018l0.132,0.016l0.133,0.015l0.135,0.012l0.136,0.01l0.137,0.009l0.139,0.007l0.14,0.005l0.141,0.002l0.143,0.001l0.139,-0.001l0.139,-0.002l0.137,-0.005l0.136,-0.007l0.135,-0.008l0.133,-0.011l0.133,-0.012l0.131,-0.015l0.131,-0.016l0.129,-0.018l0.128,-0.02l0.126,-0.022l0.126,-0.023l0.125,-0.026l0.123,-0.027l0.122,-0.03l0.121,-0.031l0.12,-0.033l0.119,-0.035l0.118,-0.037l0.117,-0.038l0.116,-0.041l0.114,-0.042l0.114,-0.044l0.112,-0.046l0.112,-0.048l0.11,-0.05l0.11,-0.052l0.108,-0.053l0.107,-0.056l0.107,-0.057l0.105,-0.059l0.104,-0.061l0.103,-0.063l0.102,-0.064l0.1,-0.066l0.099,-0.068l0.098,-0.07l0.097,-0.071l0.095,-0.073l0.094,-0.074l0.093,-0.076l0.091,-0.078l0.091,-0.08l0.089,-0.082l0.088,-0.083l0.086,-0.085l0.086,-0.086l0.084,-0.089l0.083,-0.09l0.081,-0.092l0.081,-0.094l0.079,-0.095l0.078,-0.098l0.077,-0.099l0.076,-0.101l0.074,-0.102l0.074,-0.105l0.072,-0.106l0.07,-0.109l0.07,-0.11l0.069,-0.112l0.067,-0.114l0.071,-0.124l0.064,-0.106l0.058,-0.098l0.056,-0.098l0.055,-0.1l0.054,-0.1l0.053,-0.102l0.051,-0.103l0.05,-0.103l0.049,-0.105l0.048,-0.106l0.047,-0.107l0.045,-0.108l0.044,-0.109l0.043,-0.11l0.042,-0.111l0.041,-0.112l0.039,-0.113l0.038,-0.114l0.037,-0.115l0.035,-0.116l0.035,-0.118l0.033,-0.118l0.032,-0.12l0.031,-0.12l0.029,-0.122l0.028,-0.123l0.027,-0.123l0.026,-0.125l0.014,-0.072l-4.232,-1.165l-0.008,0.051l-0.016,0.104l-0.018,0.103l-0.019,0.102l-0.02,0.102l-0.021,0.1l-0.022,0.1l-0.024,0.098l-0.024,0.098l-0.026,0.096l-0.027,0.096l-0.028,0.095l-0.029,0.093l-0.03,0.093l-0.032,0.092l-0.032,0.091l-0.034,0.09l-0.035,0.088l-0.036,0.088l-0.038,0.087l-0.038,0.086l-0.04,0.085l-0.041,0.084l-0.042,0.083l-0.043,0.082l-0.045,0.081l-0.042,0.074l-0.031,0.055l-0.034,0.059l-0.035,0.057l-0.035,0.057l-0.035,0.055l-0.036,0.055l-0.036,0.054l-0.037,0.053l-0.038,0.052l-0.038,0.051l-0.039,0.051l-0.039,0.049l-0.04,0.048l-0.04,0.048l-0.041,0.047l-0.042,0.046l-0.042,0.044l-0.043,0.044l-0.043,0.043l-0.044,0.042l-0.044,0.041l-0.045,0.04l-0.046,0.039l-0.046,0.038l-0.047,0.038l-0.047,0.035l-0.048,0.035l-0.049,0.034l-0.049,0.033l-0.049,0.032l-0.05,0.031l-0.057,0.033l-0.084,0.044l-0.083,0.04l-0.084,0.037l-0.085,0.034l-0.087,0.032l-0.088,0.029l-0.089,0.026l-0.089,0.023l-0.091,0.02l-0.092,0.018l-0.093,0.014l-0.094,0.012l-0.095,0.01l-0.095,0.006l-0.096,0.004l-0.097,0.002l-0.097,-0.002l-0.096,-0.004l-0.095,-0.006l-0.094,-0.01l-0.092,-0.012l-0.092,-0.015l-0.09,-0.018l-0.09,-0.02l-0.088,-0.024l-0.086,-0.027l-0.086,-0.029l-0.084,-0.033l-0.082,-0.035l-0.081,-0.039l-0.079,-0.041l-0.071,-0.041l-0.047,-0.027l-0.049,-0.03l-0.049,-0.031l-0.048,-0.032l-0.047,-0.032l-0.047,-0.034l-0.046,-0.034l-0.046,-0.035l-0.045,-0.036l-0.044,-0.037l-0.044,-0.038l-0.043,-0.038l-0.043,-0.04l-0.042,-0.04l-0.041,-0.041l-0.041,-0.042l-0.04,-0.042l-0.04,-0.044l-0.039,-0.044l-0.038,-0.045l-0.038,-0.045l-0.037,-0.047l-0.036,-0.047l-0.036,-0.048l-0.035,-0.049l-0.034,-0.049l-0.034,-0.051l-0.033,-0.05l-0.033,-0.052l-0.032,-0.053l-0.031,-0.053l-0.029,-0.049l-0.058,-0.101l-0.06,-0.109l-0.057,-0.111l-0.056,-0.113l-0.053,-0.115l-0.051,-0.117l-0.049,-0.118l-0.046,-0.121l-0.045,-0.122l-0.042,-0.124l-0.04,-0.126l-0.039,-0.128l-0.036,-0.129l-0.034,-0.132l-0.032,-0.133l-0.029,-0.135l-0.028,-0.137l-0.026,-0.138l-0.023,-0.141l-0.022,-0.142l-0.02,-0.144l-0.017,-0.146l-0.016,-0.147l-0.013,-0.15l-0.012,-0.151l-0.01,-0.153l-0.007,-0.155l-0.006,-0.156l-0.004,-0.159l-0.001,-0.16l0,-0.162l0.002,-0.158l0,-10.509l0.006,-0.078l0.018,-0.076l0.03,-0.073l0.041,-0.066l0.051,-0.06l0.06,-0.051l0.067,-0.041l0.072,-0.03l0.077,-0.018l0.078,-0.007l6.316,0l0,-3.896l-6.316,0l-0.078,-0.006l-0.077,-0.018l-0.072,-0.03l-0.067,-0.041l-0.06,-0.051l-0.051,-0.06l-0.041,-0.067l-0.03,-0.072l-0.018,-0.076l-0.006,-0.079l0,-9.34l-4.472,0Z" style="fill:#d4d7de;"/><path d="M351.24,163.711l0.228,0.004l0.225,0.007l0.222,0.009l0.22,0.012l0.218,0.015l0.215,0.018l0.213,0.02l0.21,0.023l0.208,0.026l0.206,0.029l0.203,0.031l0.101,0.017l0.1,0.017l0.1,0.018l0.099,0.019l0.098,0.019l0.098,0.02l0.097,0.021l0.097,0.022l0.096,0.022l0.095,0.023l0.095,0.024l0.094,0.024l0.094,0.025l0.093,0.026l0.092,0.027l0.092,0.027l0.091,0.028l0.09,0.028l0.09,0.029l0.09,0.03l0.088,0.031l0.088,0.032l0.088,0.032l0.087,0.033l0.086,0.033l0.086,0.034l0.085,0.035l0.084,0.036l0.084,0.037l0.083,0.037l0.083,0.038l0.082,0.038l0.081,0.039l0.081,0.04l0.08,0.041l0.079,0.042l0.079,0.042l0.078,0.043l0.078,0.043l0.075,0.044l0.13,0.075l0.13,0.079l0.128,0.08l0.127,0.082l0.125,0.083l0.122,0.086l0.122,0.087l0.119,0.089l0.117,0.091l0.116,0.092l0.114,0.094l0.112,0.096l0.11,0.098l0.108,0.099l0.107,0.101l0.104,0.103l0.103,0.104l0.101,0.107l0.099,0.107l0.097,0.11l0.095,0.111l0.093,0.113l0.091,0.115l0.09,0.116l0.087,0.118l0.086,0.12l0.084,0.121l0.081,0.123l0.08,0.124l0.078,0.127l0.076,0.127l0.071,0.125l0.043,0.074l0.043,0.077l0.043,0.077l0.041,0.078l0.041,0.078l0.041,0.079l0.039,0.079l0.039,0.079l0.037,0.08l0.037,0.08l0.037,0.08l0.035,0.081l0.034,0.082l0.034,0.081l0.033,0.082l0.032,0.081l0.02,0.063l0.011,0.065l0.003,0.067l-0.007,0.066l-0.014,0.065l-0.024,0.062l-0.031,0.058l-0.039,0.054l-0.046,0.049l-0.051,0.041l-0.057,0.035l-0.061,0.027l-5.04,1.824l-0.065,0.018l-0.068,0.01l-0.067,0.001l-0.068,-0.009l-0.065,-0.018l-0.063,-0.026l-0.058,-0.035l-0.053,-0.042l-0.047,-0.05l-0.04,-0.055l-0.032,-0.059l-0.041,-0.091l-0.04,-0.084l-0.041,-0.081l-0.042,-0.08l-0.043,-0.078l-0.045,-0.076l-0.045,-0.074l-0.047,-0.072l-0.048,-0.07l-0.05,-0.069l-0.05,-0.067l-0.052,-0.064l-0.052,-0.063l-0.054,-0.062l-0.055,-0.059l-0.058,-0.059l-0.034,-0.034l-0.036,-0.035l-0.037,-0.034l-0.037,-0.033l-0.037,-0.033l-0.038,-0.032l-0.039,-0.032l-0.039,-0.031l-0.039,-0.031l-0.04,-0.03l-0.04,-0.029l-0.041,-0.029l-0.041,-0.029l-0.042,-0.028l-0.042,-0.027l-0.043,-0.027l-0.043,-0.027l-0.044,-0.025l-0.045,-0.026l-0.045,-0.025l-0.045,-0.024l-0.046,-0.024l-0.046,-0.023l-0.048,-0.022l-0.047,-0.023l-0.048,-0.021l-0.049,-0.021l-0.049,-0.021l-0.05,-0.02l-0.05,-0.019l-0.051,-0.019l-0.052,-0.019l-0.052,-0.018l-0.052,-0.017l-0.054,-0.017l-0.053,-0.016l-0.055,-0.016l-0.053,-0.015l-0.113,-0.029l-0.114,-0.026l-0.117,-0.024l-0.119,-0.022l-0.121,-0.02l-0.123,-0.018l-0.126,-0.015l-0.128,-0.013l-0.131,-0.011l-0.133,-0.008l-0.136,-0.006l-0.138,-0.003l-0.141,-0.002l-0.156,0.002l-0.153,0.003l-0.15,0.005l-0.147,0.008l-0.143,0.009l-0.14,0.012l-0.137,0.014l-0.134,0.015l-0.13,0.018l-0.127,0.02l-0.123,0.022l-0.121,0.024l-0.117,0.026l-0.113,0.027l-0.112,0.03l-0.052,0.015l-0.053,0.016l-0.052,0.017l-0.052,0.017l-0.05,0.017l-0.05,0.018l-0.049,0.018l-0.048,0.019l-0.047,0.019l-0.046,0.019l-0.046,0.02l-0.045,0.02l-0.043,0.021l-0.044,0.021l-0.042,0.022l-0.041,0.022l-0.041,0.022l-0.04,0.023l-0.039,0.023l-0.039,0.024l-0.037,0.024l-0.037,0.024l-0.036,0.025l-0.036,0.025l-0.034,0.025l-0.034,0.026l-0.033,0.026l-0.033,0.027l-0.032,0.027l-0.031,0.028l-0.03,0.027l-0.03,0.029l-0.029,0.028l-0.032,0.033l-0.031,0.032l-0.027,0.029l-0.026,0.029l-0.025,0.029l-0.024,0.03l-0.023,0.029l-0.022,0.031l-0.022,0.03l-0.02,0.031l-0.02,0.031l-0.019,0.032l-0.018,0.032l-0.018,0.032l-0.016,0.033l-0.016,0.034l-0.015,0.033l-0.015,0.035l-0.013,0.034l-0.013,0.036l-0.012,0.036l-0.012,0.036l-0.011,0.037l-0.009,0.038l-0.01,0.038l-0.008,0.039l-0.008,0.04l-0.007,0.04l-0.006,0.041l-0.005,0.042l-0.004,0.042l-0.004,0.043l-0.001,0.011l0.003,0.033l0.008,0.065l0.009,0.065l0.01,0.065l0.012,0.064l0.014,0.064l0.015,0.063l0.017,0.064l0.019,0.063l0.02,0.063l0.022,0.062l0.023,0.063l0.025,0.062l0.027,0.062l0.028,0.062l0.022,0.045l0.013,0.021l0.023,0.037l0.024,0.037l0.025,0.036l0.025,0.036l0.026,0.035l0.026,0.035l0.027,0.034l0.027,0.034l0.028,0.033l0.029,0.033l0.028,0.032l0.03,0.032l0.03,0.031l0.031,0.031l0.031,0.031l0.032,0.03l0.032,0.029l0.033,0.03l0.034,0.028l0.034,0.029l0.035,0.027l0.035,0.028l0.036,0.027l0.037,0.027l0.037,0.026l0.038,0.025l0.039,0.026l0.039,0.025l0.04,0.024l0.041,0.024l0.044,0.025l0.061,0.035l0.059,0.032l0.063,0.031l0.066,0.032l0.07,0.031l0.074,0.031l0.077,0.03l0.081,0.03l0.085,0.03l0.088,0.029l0.092,0.029l0.096,0.028l0.099,0.028l0.102,0.027l0.106,0.026l0.109,0.026l0.113,0.026l0.116,0.024l0.12,0.024l0.123,0.024l0.127,0.023l0.13,0.022l0.133,0.021l0.137,0.021l0.14,0.02l0.143,0.019l0.147,0.019l0.15,0.018l0.153,0.017l0.157,0.017l0.16,0.015l0.165,0.016l0.2,0.019l0.198,0.02l0.195,0.022l0.192,0.023l0.189,0.025l0.187,0.026l0.184,0.028l0.181,0.029l0.179,0.03l0.175,0.032l0.173,0.033l0.17,0.035l0.168,0.036l0.165,0.038l0.162,0.039l0.159,0.041l0.156,0.042l0.154,0.044l0.151,0.045l0.148,0.047l0.146,0.048l0.143,0.05l0.14,0.051l0.137,0.053l0.135,0.054l0.132,0.057l0.13,0.057l0.126,0.06l0.124,0.061l0.121,0.062l0.119,0.065l0.115,0.066l0.112,0.066l0.109,0.068l0.109,0.07l0.107,0.071l0.106,0.072l0.104,0.074l0.103,0.076l0.102,0.077l0.1,0.079l0.099,0.081l0.097,0.082l0.097,0.084l0.094,0.085l0.094,0.086l0.091,0.089l0.091,0.089l0.089,0.092l0.088,0.093l0.086,0.094l0.085,0.096l0.083,0.097l0.082,0.099l0.08,0.101l0.079,0.102l0.078,0.103l0.076,0.105l0.075,0.106l0.073,0.108l0.072,0.11l0.07,0.111l0.069,0.112l0.068,0.114l0.07,0.122l0.066,0.123l0.065,0.123l0.063,0.124l0.06,0.125l0.058,0.126l0.056,0.126l0.054,0.128l0.052,0.128l0.049,0.129l0.047,0.13l0.045,0.13l0.043,0.132l0.041,0.132l0.038,0.133l0.036,0.134l0.035,0.134l0.031,0.136l0.03,0.135l0.027,0.137l0.026,0.138l0.023,0.138l0.02,0.139l0.019,0.139l0.016,0.141l0.015,0.141l0.012,0.142l0.009,0.142l0.008,0.143l0.005,0.144l0.004,0.144l0.001,0.145l-0.001,0.13l-0.003,0.129l-0.004,0.127l-0.006,0.127l-0.009,0.126l-0.009,0.126l-0.012,0.124l-0.014,0.124l-0.015,0.122l-0.017,0.122l-0.019,0.121l-0.021,0.12l-0.022,0.119l-0.025,0.119l-0.026,0.117l-0.028,0.117l-0.03,0.115l-0.032,0.115l-0.034,0.114l-0.035,0.113l-0.037,0.112l-0.04,0.111l-0.041,0.11l-0.042,0.109l-0.045,0.109l-0.047,0.107l-0.048,0.106l-0.05,0.105l-0.053,0.105l-0.053,0.103l-0.056,0.102l-0.057,0.101l-0.062,0.105l-0.064,0.104l-0.065,0.104l-0.068,0.102l-0.069,0.101l-0.07,0.1l-0.073,0.098l-0.074,0.098l-0.076,0.096l-0.077,0.095l-0.08,0.094l-0.081,0.092l-0.082,0.091l-0.084,0.09l-0.086,0.089l-0.088,0.087l-0.089,0.086l-0.091,0.085l-0.093,0.084l-0.094,0.082l-0.096,0.082l-0.097,0.079l-0.099,0.079l-0.101,0.077l-0.102,0.076l-0.104,0.075l-0.105,0.074l-0.107,0.072l-0.109,0.071l-0.11,0.07l-0.112,0.068l-0.116,0.069l-0.087,0.049l-0.085,0.046l-0.085,0.045l-0.086,0.045l-0.086,0.044l-0.087,0.044l-0.088,0.042l-0.088,0.042l-0.089,0.041l-0.089,0.04l-0.09,0.04l-0.091,0.038l-0.091,0.038l-0.092,0.038l-0.092,0.036l-0.093,0.036l-0.093,0.035l-0.094,0.034l-0.095,0.034l-0.095,0.032l-0.096,0.032l-0.096,0.032l-0.097,0.03l-0.097,0.03l-0.098,0.029l-0.099,0.028l-0.099,0.028l-0.099,0.026l-0.101,0.026l-0.1,0.026l-0.102,0.024l-0.102,0.024l-0.102,0.023l-0.103,0.022l-0.104,0.022l-0.104,0.021l-0.105,0.02l-0.105,0.019l-0.106,0.019l-0.106,0.017l-0.107,0.018l-0.108,0.016l-0.108,0.016l-0.108,0.014l-0.109,0.015l-0.11,0.013l-0.11,0.013l-0.111,0.012l-0.112,0.011l-0.112,0.011l-0.225,0.018l-0.228,0.016l-0.23,0.013l-0.232,0.01l-0.235,0.008l-0.236,0.004l-0.239,0.001l-0.23,-0.001l-0.227,-0.004l-0.225,-0.007l-0.222,-0.009l-0.22,-0.012l-0.218,-0.015l-0.215,-0.018l-0.213,-0.02l-0.211,-0.023l-0.208,-0.026l-0.206,-0.029l-0.202,-0.031l-0.102,-0.017l-0.1,-0.017l-0.099,-0.018l-0.099,-0.019l-0.099,-0.019l-0.097,-0.021l-0.098,-0.02l-0.096,-0.022l-0.096,-0.022l-0.096,-0.023l-0.094,-0.024l-0.094,-0.024l-0.094,-0.025l-0.093,-0.026l-0.092,-0.027l-0.092,-0.027l-0.091,-0.028l-0.091,-0.028l-0.09,-0.03l-0.089,-0.03l-0.089,-0.03l-0.088,-0.032l-0.087,-0.032l-0.087,-0.033l-0.087,-0.033l-0.085,-0.035l-0.085,-0.035l-0.085,-0.035l-0.083,-0.037l-0.084,-0.037l-0.082,-0.038l-0.082,-0.038l-0.082,-0.04l-0.08,-0.04l-0.08,-0.04l-0.08,-0.042l-0.079,-0.042l-0.078,-0.043l-0.077,-0.043l-0.076,-0.044l-0.129,-0.075l-0.13,-0.079l-0.129,-0.08l-0.126,-0.082l-0.125,-0.084l-0.123,-0.085l-0.121,-0.087l-0.119,-0.089l-0.118,-0.091l-0.116,-0.092l-0.113,-0.094l-0.112,-0.096l-0.111,-0.098l-0.108,-0.099l-0.106,-0.101l-0.105,-0.103l-0.102,-0.104l-0.101,-0.107l-0.099,-0.108l-0.097,-0.109l-0.095,-0.111l-0.094,-0.113l-0.091,-0.115l-0.089,-0.116l-0.088,-0.118l-0.085,-0.12l-0.084,-0.121l-0.082,-0.123l-0.079,-0.125l-0.078,-0.126l-0.076,-0.127l-0.072,-0.126l-0.042,-0.073l-0.044,-0.077l-0.042,-0.077l-0.042,-0.078l-0.041,-0.078l-0.04,-0.079l-0.039,-0.079l-0.039,-0.079l-0.038,-0.08l-0.037,-0.08l-0.036,-0.081l-0.035,-0.08l-0.035,-0.082l-0.034,-0.082l-0.033,-0.082l-0.031,-0.08l-0.02,-0.063l-0.011,-0.065l-0.003,-0.067l0.006,-0.066l0.015,-0.065l0.023,-0.062l0.032,-0.059l0.039,-0.053l0.045,-0.049l0.052,-0.041l0.057,-0.035l0.061,-0.027l5.04,-1.824l0.065,-0.018l0.067,-0.01l0.068,-0.001l0.067,0.009l0.066,0.018l0.063,0.026l0.058,0.035l0.053,0.042l0.047,0.049l0.04,0.055l0.032,0.06l0.04,0.091l0.04,0.083l0.041,0.082l0.042,0.08l0.044,0.078l0.044,0.076l0.046,0.074l0.047,0.072l0.048,0.07l0.049,0.069l0.051,0.066l0.051,0.065l0.053,0.063l0.054,0.062l0.055,0.059l0.057,0.059l0.035,0.034l0.036,0.035l0.037,0.034l0.037,0.033l0.037,0.033l0.038,0.032l0.038,0.032l0.039,0.031l0.04,0.031l0.039,0.03l0.041,0.029l0.04,0.029l0.042,0.029l0.042,0.028l0.042,0.027l0.043,0.027l0.043,0.027l0.044,0.025l0.044,0.026l0.045,0.024l0.046,0.025l0.046,0.023l0.046,0.024l0.047,0.022l0.048,0.022l0.048,0.022l0.048,0.021l0.05,0.021l0.05,0.02l0.05,0.019l0.051,0.019l0.051,0.019l0.052,0.017l0.053,0.018l0.053,0.017l0.054,0.016l0.054,0.016l0.054,0.014l0.113,0.03l0.114,0.026l0.116,0.024l0.119,0.022l0.121,0.02l0.124,0.018l0.126,0.015l0.128,0.013l0.131,0.01l0.133,0.009l0.135,0.006l0.138,0.003l0.141,0.001l0.156,-0.001l0.154,-0.003l0.15,-0.005l0.146,-0.008l0.144,-0.009l0.14,-0.012l0.137,-0.014l0.133,-0.016l0.131,-0.017l0.127,-0.02l0.123,-0.022l0.12,-0.024l0.117,-0.026l0.114,-0.027l0.111,-0.03l0.053,-0.016l0.053,-0.015l0.052,-0.017l0.051,-0.017l0.051,-0.017l0.049,-0.018l0.049,-0.018l0.048,-0.019l0.047,-0.019l0.047,-0.019l0.045,-0.02l0.045,-0.02l0.044,-0.021l0.043,-0.021l0.043,-0.022l0.041,-0.022l0.041,-0.022l0.04,-0.023l0.039,-0.023l0.038,-0.024l0.038,-0.024l0.037,-0.024l0.036,-0.025l0.035,-0.025l0.035,-0.025l0.034,-0.026l0.033,-0.026l0.032,-0.027l0.032,-0.027l0.031,-0.028l0.031,-0.028l0.029,-0.028l0.029,-0.028l0.032,-0.033l0.032,-0.032l0.027,-0.029l0.025,-0.029l0.025,-0.029l0.024,-0.03l0.024,-0.03l0.022,-0.03l0.021,-0.03l0.021,-0.031l0.02,-0.031l0.019,-0.032l0.018,-0.032l0.017,-0.032l0.017,-0.033l0.016,-0.034l0.015,-0.033l0.014,-0.035l0.014,-0.034l0.013,-0.036l0.012,-0.036l0.011,-0.036l0.011,-0.037l0.01,-0.038l0.009,-0.038l0.009,-0.039l0.007,-0.04l0.007,-0.04l0.006,-0.041l0.005,-0.042l0.005,-0.042l0.004,-0.043l0,-0.011l-0.003,-0.033l-0.007,-0.065l-0.009,-0.065l-0.011,-0.065l-0.012,-0.064l-0.014,-0.064l-0.015,-0.063l-0.017,-0.064l-0.018,-0.063l-0.02,-0.063l-0.022,-0.062l-0.023,-0.063l-0.025,-0.062l-0.027,-0.062l-0.028,-0.062l-0.022,-0.045l-0.013,-0.021l-0.024,-0.037l-0.024,-0.037l-0.024,-0.036l-0.026,-0.036l-0.025,-0.035l-0.027,-0.035l-0.026,-0.034l-0.028,-0.034l-0.028,-0.033l-0.028,-0.033l-0.029,-0.032l-0.03,-0.032l-0.03,-0.031l-0.03,-0.031l-0.031,-0.031l-0.032,-0.03l-0.033,-0.029l-0.033,-0.03l-0.033,-0.028l-0.035,-0.029l-0.034,-0.028l-0.036,-0.027l-0.036,-0.027l-0.037,-0.027l-0.037,-0.026l-0.038,-0.025l-0.038,-0.026l-0.04,-0.025l-0.04,-0.024l-0.04,-0.024l-0.044,-0.025l-0.062,-0.036l-0.059,-0.031l-0.062,-0.032l-0.067,-0.031l-0.07,-0.031l-0.073,-0.031l-0.078,-0.03l-0.081,-0.03l-0.085,-0.03l-0.088,-0.029l-0.092,-0.029l-0.095,-0.028l-0.099,-0.028l-0.102,-0.027l-0.106,-0.026l-0.11,-0.026l-0.113,-0.026l-0.116,-0.024l-0.12,-0.024l-0.123,-0.024l-0.126,-0.023l-0.13,-0.022l-0.133,-0.021l-0.137,-0.021l-0.14,-0.02l-0.144,-0.019l-0.146,-0.019l-0.15,-0.018l-0.154,-0.017l-0.156,-0.017l-0.16,-0.015l-0.166,-0.016l-0.199,-0.019l-0.198,-0.02l-0.195,-0.022l-0.192,-0.023l-0.19,-0.025l-0.187,-0.026l-0.184,-0.028l-0.181,-0.029l-0.178,-0.03l-0.176,-0.032l-0.173,-0.033l-0.17,-0.035l-0.167,-0.036l-0.165,-0.038l-0.162,-0.039l-0.159,-0.041l-0.157,-0.042l-0.153,-0.044l-0.151,-0.045l-0.149,-0.047l-0.145,-0.048l-0.143,-0.05l-0.14,-0.051l-0.138,-0.053l-0.135,-0.054l-0.132,-0.057l-0.129,-0.057l-0.127,-0.06l-0.124,-0.061l-0.121,-0.063l-0.118,-0.064l-0.115,-0.066l-0.112,-0.066l-0.11,-0.068l-0.108,-0.07l-0.107,-0.071l-0.106,-0.072l-0.105,-0.074l-0.103,-0.076l-0.101,-0.078l-0.101,-0.079l-0.098,-0.08l-0.098,-0.082l-0.096,-0.084l-0.095,-0.085l-0.093,-0.086l-0.092,-0.089l-0.09,-0.09l-0.089,-0.091l-0.088,-0.093l-0.086,-0.094l-0.085,-0.096l-0.083,-0.098l-0.082,-0.098l-0.081,-0.101l-0.079,-0.102l-0.077,-0.103l-0.077,-0.105l-0.074,-0.107l-0.074,-0.107l-0.071,-0.11l-0.071,-0.111l-0.069,-0.112l-0.068,-0.114l-0.069,-0.123l-0.067,-0.122l-0.065,-0.123l-0.062,-0.124l-0.06,-0.125l-0.059,-0.126l-0.056,-0.126l-0.053,-0.128l-0.052,-0.128l-0.05,-0.129l-0.047,-0.13l-0.045,-0.131l-0.043,-0.131l-0.04,-0.132l-0.039,-0.133l-0.036,-0.134l-0.034,-0.134l-0.032,-0.136l-0.029,-0.136l-0.028,-0.136l-0.025,-0.138l-0.023,-0.138l-0.021,-0.139l-0.018,-0.14l-0.017,-0.14l-0.014,-0.141l-0.012,-0.142l-0.01,-0.142l-0.007,-0.143l-0.006,-0.144l-0.003,-0.144l-0.001,-0.145l0.001,-0.13l0.002,-0.129l0.005,-0.127l0.006,-0.127l0.008,-0.126l0.01,-0.126l0.012,-0.124l0.013,-0.124l0.015,-0.122l0.018,-0.122l0.019,-0.121l0.02,-0.12l0.023,-0.119l0.024,-0.119l0.027,-0.117l0.028,-0.117l0.03,-0.115l0.031,-0.115l0.034,-0.114l0.036,-0.113l0.037,-0.112l0.039,-0.111l0.041,-0.11l0.043,-0.109l0.045,-0.109l0.046,-0.107l0.049,-0.106l0.05,-0.105l0.052,-0.105l0.054,-0.103l0.056,-0.102l0.057,-0.101l0.062,-0.105l0.063,-0.104l0.066,-0.104l0.067,-0.102l0.069,-0.101l0.071,-0.1l0.072,-0.098l0.075,-0.098l0.075,-0.096l0.078,-0.095l0.079,-0.094l0.081,-0.092l0.083,-0.091l0.084,-0.09l0.086,-0.089l0.087,-0.087l0.09,-0.087l0.091,-0.084l0.092,-0.084l0.094,-0.082l0.096,-0.082l0.098,-0.079l0.099,-0.079l0.1,-0.077l0.103,-0.076l0.103,-0.075l0.106,-0.074l0.107,-0.072l0.108,-0.071l0.111,-0.07l0.111,-0.068l0.116,-0.069l0.088,-0.049l0.084,-0.046l0.086,-0.046l0.085,-0.044l0.087,-0.044l0.087,-0.044l0.087,-0.042l0.089,-0.042l0.088,-0.041l0.09,-0.04l0.09,-0.04l0.09,-0.039l0.092,-0.038l0.091,-0.037l0.092,-0.036l0.093,-0.036l0.094,-0.035l0.094,-0.034l0.094,-0.034l0.095,-0.032l0.096,-0.032l0.096,-0.032l0.097,-0.03l0.098,-0.03l0.098,-0.029l0.098,-0.028l0.099,-0.028l0.1,-0.026l0.1,-0.026l0.101,-0.026l0.101,-0.024l0.102,-0.024l0.103,-0.023l0.103,-0.022l0.103,-0.022l0.104,-0.021l0.105,-0.02l0.105,-0.019l0.106,-0.019l0.107,-0.017l0.107,-0.018l0.107,-0.016l0.108,-0.016l0.109,-0.015l0.109,-0.014l0.11,-0.013l0.11,-0.013l0.111,-0.012l0.111,-0.011l0.113,-0.011l0.225,-0.018l0.228,-0.016l0.23,-0.013l0.232,-0.011l0.234,-0.007l0.237,-0.004l0.239,-0.002l0.229,0.002Zm-0.456,1l-0.224,0.004l-0.222,0.007l-0.219,0.009l-0.217,0.013l-0.215,0.015l-0.213,0.017l-0.104,0.01l-0.104,0.011l-0.104,0.011l-0.103,0.012l-0.103,0.012l-0.102,0.014l-0.101,0.014l-0.101,0.014l-0.1,0.015l-0.1,0.016l-0.098,0.017l-0.099,0.017l-0.097,0.018l-0.097,0.019l-0.097,0.019l-0.096,0.02l-0.095,0.021l-0.095,0.021l-0.094,0.022l-0.093,0.022l-0.093,0.024l-0.092,0.024l-0.091,0.024l-0.091,0.025l-0.091,0.026l-0.09,0.027l-0.089,0.027l-0.088,0.028l-0.088,0.028l-0.087,0.03l-0.087,0.029l-0.086,0.031l-0.086,0.031l-0.085,0.032l-0.084,0.032l-0.084,0.033l-0.083,0.034l-0.082,0.035l-0.082,0.035l-0.082,0.035l-0.08,0.037l-0.081,0.037l-0.079,0.038l-0.079,0.038l-0.079,0.039l-0.077,0.04l-0.078,0.04l-0.076,0.041l-0.076,0.041l-0.073,0.041l-0.098,0.058l-0.1,0.061l-0.098,0.062l-0.096,0.063l-0.094,0.064l-0.093,0.065l-0.092,0.066l-0.09,0.066l-0.088,0.068l-0.087,0.069l-0.085,0.07l-0.083,0.07l-0.082,0.072l-0.081,0.073l-0.079,0.074l-0.077,0.074l-0.076,0.076l-0.074,0.077l-0.073,0.077l-0.071,0.079l-0.07,0.08l-0.068,0.08l-0.067,0.082l-0.065,0.083l-0.064,0.083l-0.062,0.085l-0.061,0.086l-0.059,0.087l-0.058,0.088l-0.056,0.089l-0.055,0.09l-0.054,0.092l-0.05,0.086l-0.047,0.087l-0.045,0.087l-0.044,0.088l-0.043,0.09l-0.041,0.09l-0.039,0.091l-0.038,0.091l-0.037,0.093l-0.035,0.094l-0.033,0.094l-0.032,0.096l-0.03,0.096l-0.029,0.098l-0.027,0.098l-0.026,0.1l-0.024,0.1l-0.023,0.101l-0.021,0.103l-0.02,0.103l-0.018,0.104l-0.016,0.106l-0.015,0.106l-0.014,0.108l-0.011,0.108l-0.011,0.109l-0.008,0.111l-0.007,0.111l-0.006,0.113l-0.004,0.113l-0.002,0.115l-0.001,0.115l0.001,0.131l0.003,0.129l0.005,0.128l0.006,0.128l0.009,0.127l0.011,0.126l0.012,0.125l0.015,0.124l0.016,0.124l0.019,0.123l0.02,0.122l0.022,0.121l0.025,0.121l0.026,0.12l0.028,0.119l0.029,0.118l0.032,0.117l0.034,0.117l0.036,0.116l0.037,0.115l0.04,0.115l0.041,0.114l0.044,0.113l0.045,0.113l0.047,0.112l0.049,0.111l0.052,0.11l0.053,0.11l0.055,0.109l0.057,0.109l0.059,0.108l0.06,0.106l0.06,0.1l0.061,0.1l0.062,0.098l0.063,0.096l0.065,0.095l0.065,0.094l0.067,0.092l0.068,0.091l0.07,0.089l0.07,0.088l0.072,0.087l0.073,0.085l0.074,0.083l0.075,0.083l0.076,0.081l0.078,0.079l0.079,0.079l0.08,0.077l0.081,0.075l0.083,0.074l0.083,0.073l0.085,0.072l0.086,0.07l0.088,0.069l0.088,0.067l0.09,0.066l0.092,0.065l0.092,0.063l0.094,0.063l0.095,0.06l0.096,0.06l0.097,0.058l0.098,0.056l0.1,0.054l0.103,0.054l0.107,0.052l0.109,0.051l0.113,0.051l0.116,0.049l0.118,0.048l0.122,0.047l0.125,0.046l0.129,0.044l0.131,0.044l0.134,0.042l0.138,0.041l0.14,0.04l0.144,0.039l0.146,0.037l0.15,0.037l0.153,0.035l0.156,0.033l0.159,0.033l0.162,0.031l0.165,0.03l0.168,0.029l0.172,0.027l0.174,0.026l0.177,0.025l0.18,0.023l0.184,0.023l0.186,0.021l0.19,0.019l0.193,0.019l0.168,0.015l0.166,0.017l0.164,0.017l0.16,0.018l0.157,0.019l0.154,0.019l0.152,0.021l0.148,0.021l0.145,0.022l0.142,0.023l0.139,0.023l0.136,0.025l0.133,0.025l0.131,0.026l0.127,0.027l0.124,0.028l0.122,0.029l0.118,0.03l0.116,0.03l0.113,0.032l0.11,0.032l0.107,0.034l0.104,0.035l0.102,0.035l0.098,0.037l0.096,0.038l0.094,0.039l0.09,0.04l0.088,0.041l0.086,0.043l0.082,0.044l0.074,0.042l0.051,0.03l0.053,0.031l0.053,0.033l0.052,0.033l0.052,0.033l0.051,0.035l0.05,0.035l0.049,0.036l0.049,0.036l0.048,0.038l0.048,0.038l0.046,0.038l0.046,0.04l0.046,0.04l0.044,0.04l0.044,0.042l0.043,0.042l0.043,0.043l0.041,0.043l0.041,0.044l0.04,0.045l0.04,0.045l0.038,0.046l0.038,0.047l0.037,0.047l0.036,0.048l0.036,0.049l0.035,0.049l0.033,0.05l0.034,0.05l0.032,0.051l0.029,0.049l0.024,0.042l0.037,0.077l0.038,0.084l0.036,0.083l0.034,0.085l0.032,0.085l0.029,0.085l0.028,0.086l0.025,0.087l0.024,0.087l0.021,0.087l0.018,0.088l0.017,0.089l0.015,0.088l0.012,0.09l0.01,0.089l0.008,0.084l0.002,0.039l-0.001,0.038l-0.004,0.059l-0.006,0.063l-0.006,0.063l-0.008,0.062l-0.009,0.062l-0.011,0.062l-0.012,0.061l-0.013,0.06l-0.014,0.06l-0.016,0.06l-0.017,0.059l-0.018,0.059l-0.02,0.058l-0.021,0.057l-0.022,0.057l-0.023,0.056l-0.025,0.056l-0.026,0.055l-0.028,0.054l-0.029,0.054l-0.03,0.053l-0.031,0.052l-0.033,0.051l-0.034,0.051l-0.035,0.05l-0.036,0.049l-0.038,0.049l-0.038,0.047l-0.04,0.047l-0.041,0.046l-0.042,0.045l-0.04,0.04l-0.038,0.039l-0.042,0.041l-0.043,0.041l-0.044,0.041l-0.044,0.039l-0.046,0.039l-0.046,0.038l-0.047,0.037l-0.048,0.037l-0.049,0.035l-0.049,0.036l-0.05,0.034l-0.051,0.034l-0.052,0.032l-0.052,0.032l-0.053,0.032l-0.054,0.03l-0.054,0.03l-0.056,0.03l-0.056,0.028l-0.056,0.028l-0.058,0.027l-0.058,0.026l-0.058,0.026l-0.06,0.025l-0.06,0.024l-0.06,0.024l-0.062,0.023l-0.062,0.022l-0.063,0.021l-0.063,0.021l-0.064,0.02l-0.065,0.02l-0.067,0.019l-0.131,0.035l-0.136,0.033l-0.138,0.031l-0.141,0.028l-0.143,0.025l-0.146,0.023l-0.149,0.02l-0.151,0.018l-0.154,0.016l-0.157,0.013l-0.16,0.011l-0.162,0.008l-0.165,0.006l-0.168,0.003l-0.171,0.001l-0.157,-0.001l-0.155,-0.004l-0.154,-0.007l-0.152,-0.009l-0.15,-0.012l-0.148,-0.015l-0.146,-0.018l-0.144,-0.02l-0.142,-0.023l-0.14,-0.027l-0.138,-0.028l-0.137,-0.032l-0.133,-0.034l-0.068,-0.019l-0.066,-0.019l-0.065,-0.02l-0.065,-0.02l-0.065,-0.022l-0.064,-0.022l-0.063,-0.022l-0.063,-0.024l-0.063,-0.024l-0.062,-0.025l-0.061,-0.026l-0.061,-0.026l-0.06,-0.027l-0.06,-0.028l-0.059,-0.029l-0.059,-0.029l-0.058,-0.03l-0.058,-0.031l-0.057,-0.031l-0.057,-0.033l-0.056,-0.033l-0.055,-0.033l-0.055,-0.035l-0.054,-0.035l-0.054,-0.036l-0.053,-0.037l-0.053,-0.037l-0.052,-0.038l-0.051,-0.039l-0.051,-0.04l-0.05,-0.04l-0.05,-0.041l-0.049,-0.042l-0.048,-0.042l-0.048,-0.043l-0.047,-0.044l-0.047,-0.045l-0.047,-0.046l-0.073,-0.075l-0.072,-0.078l-0.071,-0.08l-0.069,-0.082l-0.066,-0.084l-0.066,-0.086l-0.063,-0.088l-0.061,-0.09l-0.06,-0.092l-0.058,-0.093l-0.056,-0.096l-0.045,-0.082l-4.124,1.492l0.016,0.034l0.034,0.071l0.034,0.07l0.035,0.07l0.035,0.07l0.036,0.069l0.037,0.069l0.038,0.068l0.039,0.069l0.04,0.07l0.069,0.12l0.067,0.113l0.069,0.112l0.071,0.11l0.072,0.109l0.074,0.107l0.076,0.106l0.077,0.104l0.079,0.103l0.08,0.101l0.082,0.099l0.084,0.099l0.086,0.096l0.087,0.095l0.089,0.094l0.09,0.092l0.093,0.091l0.093,0.089l0.096,0.087l0.097,0.087l0.099,0.084l0.101,0.084l0.103,0.082l0.104,0.08l0.106,0.079l0.108,0.078l0.109,0.076l0.111,0.074l0.113,0.073l0.115,0.072l0.117,0.07l0.12,0.071l0.069,0.04l0.069,0.038l0.069,0.038l0.069,0.037l0.071,0.037l0.071,0.036l0.071,0.035l0.072,0.035l0.073,0.034l0.074,0.034l0.074,0.033l0.074,0.033l0.076,0.032l0.076,0.031l0.076,0.031l0.078,0.03l0.078,0.029l0.079,0.029l0.079,0.028l0.08,0.028l0.08,0.027l0.082,0.027l0.082,0.025l0.082,0.026l0.083,0.024l0.084,0.024l0.085,0.024l0.085,0.023l0.086,0.022l0.087,0.022l0.087,0.021l0.088,0.02l0.088,0.02l0.09,0.019l0.089,0.018l0.091,0.018l0.091,0.018l0.092,0.016l0.093,0.016l0.092,0.016l0.189,0.029l0.192,0.026l0.193,0.025l0.197,0.021l0.199,0.019l0.202,0.017l0.204,0.014l0.207,0.011l0.21,0.009l0.213,0.006l0.215,0.004l0.218,0.001l0.227,-0.001l0.224,-0.004l0.222,-0.007l0.219,-0.009l0.217,-0.013l0.214,-0.015l0.213,-0.018l0.104,-0.009l0.105,-0.011l0.104,-0.011l0.103,-0.012l0.102,-0.013l0.102,-0.013l0.102,-0.014l0.101,-0.014l0.1,-0.016l0.099,-0.015l0.099,-0.017l0.098,-0.017l0.098,-0.018l0.097,-0.019l0.096,-0.019l0.096,-0.02l0.096,-0.021l0.094,-0.021l0.094,-0.022l0.094,-0.022l0.092,-0.024l0.093,-0.024l0.091,-0.024l0.091,-0.025l0.09,-0.026l0.09,-0.027l0.089,-0.027l0.089,-0.028l0.088,-0.028l0.087,-0.03l0.087,-0.03l0.086,-0.03l0.085,-0.031l0.085,-0.032l0.085,-0.032l0.083,-0.034l0.083,-0.033l0.083,-0.035l0.082,-0.035l0.081,-0.036l0.081,-0.036l0.08,-0.037l0.08,-0.038l0.079,-0.038l0.078,-0.039l0.078,-0.04l0.077,-0.04l0.077,-0.041l0.076,-0.041l0.072,-0.041l0.099,-0.058l0.099,-0.061l0.098,-0.062l0.096,-0.063l0.095,-0.064l0.093,-0.065l0.091,-0.066l0.09,-0.066l0.089,-0.068l0.086,-0.069l0.085,-0.07l0.084,-0.071l0.082,-0.071l0.08,-0.073l0.079,-0.074l0.077,-0.074l0.076,-0.076l0.075,-0.077l0.072,-0.077l0.072,-0.079l0.069,-0.08l0.069,-0.08l0.066,-0.082l0.066,-0.083l0.063,-0.084l0.063,-0.084l0.06,-0.086l0.06,-0.087l0.058,-0.088l0.056,-0.089l0.055,-0.09l0.054,-0.092l0.049,-0.086l0.047,-0.087l0.046,-0.087l0.044,-0.088l0.043,-0.09l0.041,-0.09l0.039,-0.091l0.038,-0.091l0.036,-0.093l0.035,-0.094l0.034,-0.095l0.032,-0.095l0.03,-0.097l0.029,-0.097l0.027,-0.098l0.026,-0.1l0.024,-0.1l0.023,-0.102l0.021,-0.102l0.019,-0.103l0.018,-0.105l0.017,-0.105l0.015,-0.106l0.013,-0.108l0.012,-0.108l0.01,-0.109l0.009,-0.111l0.007,-0.111l0.006,-0.113l0.004,-0.113l0.002,-0.115l0.001,-0.115l-0.001,-0.131l-0.003,-0.129l-0.005,-0.128l-0.007,-0.128l-0.009,-0.127l-0.01,-0.126l-0.013,-0.125l-0.014,-0.125l-0.017,-0.123l-0.018,-0.123l-0.021,-0.122l-0.022,-0.121l-0.024,-0.121l-0.026,-0.12l-0.028,-0.119l-0.03,-0.118l-0.032,-0.117l-0.033,-0.117l-0.036,-0.116l-0.038,-0.116l-0.039,-0.114l-0.042,-0.114l-0.043,-0.113l-0.045,-0.113l-0.048,-0.112l-0.049,-0.111l-0.051,-0.11l-0.053,-0.11l-0.055,-0.109l-0.057,-0.109l-0.059,-0.108l-0.061,-0.106l-0.059,-0.1l-0.061,-0.1l-0.062,-0.098l-0.063,-0.096l-0.065,-0.095l-0.066,-0.094l-0.067,-0.092l-0.068,-0.091l-0.069,-0.089l-0.071,-0.088l-0.071,-0.087l-0.073,-0.085l-0.074,-0.084l-0.075,-0.082l-0.077,-0.081l-0.077,-0.08l-0.079,-0.078l-0.08,-0.077l-0.081,-0.075l-0.083,-0.074l-0.084,-0.073l-0.085,-0.072l-0.086,-0.07l-0.087,-0.069l-0.089,-0.067l-0.09,-0.066l-0.091,-0.065l-0.092,-0.063l-0.094,-0.063l-0.095,-0.06l-0.096,-0.06l-0.097,-0.058l-0.098,-0.056l-0.1,-0.054l-0.104,-0.054l-0.106,-0.052l-0.11,-0.051l-0.112,-0.051l-0.116,-0.049l-0.119,-0.048l-0.122,-0.047l-0.125,-0.046l-0.128,-0.044l-0.131,-0.044l-0.135,-0.042l-0.137,-0.041l-0.14,-0.04l-0.144,-0.039l-0.147,-0.037l-0.15,-0.037l-0.152,-0.035l-0.156,-0.033l-0.159,-0.033l-0.162,-0.031l-0.166,-0.03l-0.168,-0.029l-0.171,-0.027l-0.174,-0.026l-0.178,-0.025l-0.18,-0.024l-0.183,-0.022l-0.187,-0.021l-0.189,-0.019l-0.194,-0.019l-0.167,-0.015l-0.167,-0.017l-0.163,-0.017l-0.16,-0.018l-0.158,-0.019l-0.154,-0.019l-0.151,-0.021l-0.148,-0.021l-0.145,-0.022l-0.142,-0.023l-0.14,-0.023l-0.136,-0.025l-0.133,-0.025l-0.13,-0.026l-0.127,-0.027l-0.125,-0.028l-0.121,-0.029l-0.119,-0.03l-0.115,-0.03l-0.113,-0.032l-0.11,-0.033l-0.107,-0.033l-0.104,-0.035l-0.102,-0.035l-0.099,-0.037l-0.096,-0.038l-0.093,-0.039l-0.091,-0.04l-0.088,-0.041l-0.085,-0.043l-0.083,-0.044l-0.073,-0.043l-0.052,-0.029l-0.053,-0.031l-0.053,-0.033l-0.052,-0.033l-0.051,-0.034l-0.051,-0.034l-0.05,-0.035l-0.05,-0.036l-0.049,-0.037l-0.048,-0.037l-0.047,-0.038l-0.047,-0.038l-0.046,-0.04l-0.045,-0.04l-0.045,-0.04l-0.044,-0.042l-0.043,-0.042l-0.042,-0.043l-0.042,-0.043l-0.04,-0.044l-0.041,-0.045l-0.039,-0.045l-0.038,-0.046l-0.038,-0.047l-0.037,-0.047l-0.037,-0.048l-0.035,-0.049l-0.035,-0.049l-0.034,-0.05l-0.033,-0.051l-0.032,-0.051l-0.03,-0.048l-0.023,-0.042l-0.038,-0.078l-0.038,-0.083l-0.036,-0.083l-0.033,-0.085l-0.032,-0.085l-0.03,-0.085l-0.027,-0.086l-0.026,-0.087l-0.023,-0.087l-0.021,-0.087l-0.019,-0.088l-0.017,-0.089l-0.014,-0.088l-0.013,-0.09l-0.01,-0.089l-0.007,-0.084l-0.002,-0.039l0.001,-0.038l0.004,-0.059l0.005,-0.063l0.007,-0.063l0.008,-0.062l0.009,-0.062l0.01,-0.062l0.012,-0.061l0.013,-0.06l0.015,-0.061l0.015,-0.059l0.017,-0.059l0.019,-0.059l0.019,-0.058l0.021,-0.057l0.022,-0.057l0.024,-0.056l0.025,-0.056l0.026,-0.055l0.028,-0.054l0.028,-0.054l0.03,-0.053l0.032,-0.052l0.032,-0.051l0.034,-0.051l0.035,-0.05l0.037,-0.049l0.037,-0.049l0.039,-0.047l0.04,-0.047l0.041,-0.046l0.042,-0.045l0.039,-0.04l0.038,-0.039l0.042,-0.041l0.043,-0.041l0.044,-0.041l0.045,-0.039l0.045,-0.039l0.047,-0.038l0.047,-0.037l0.048,-0.037l0.048,-0.036l0.05,-0.035l0.05,-0.034l0.051,-0.034l0.051,-0.032l0.053,-0.033l0.053,-0.031l0.054,-0.031l0.054,-0.03l0.055,-0.029l0.056,-0.028l0.057,-0.028l0.057,-0.027l0.058,-0.027l0.059,-0.025l0.059,-0.025l0.06,-0.024l0.061,-0.024l0.061,-0.023l0.062,-0.022l0.063,-0.021l0.064,-0.021l0.064,-0.02l0.064,-0.02l0.067,-0.019l0.132,-0.035l0.135,-0.033l0.138,-0.031l0.141,-0.028l0.144,-0.025l0.146,-0.023l0.148,-0.021l0.152,-0.017l0.154,-0.016l0.157,-0.013l0.159,-0.011l0.163,-0.008l0.165,-0.006l0.167,-0.003l0.171,-0.002l0.157,0.002l0.156,0.004l0.154,0.007l0.151,0.009l0.15,0.012l0.148,0.015l0.146,0.018l0.144,0.02l0.142,0.023l0.141,0.026l0.138,0.029l0.136,0.032l0.133,0.034l0.068,0.019l0.066,0.019l0.066,0.02l0.065,0.02l0.064,0.022l0.064,0.022l0.064,0.022l0.063,0.024l0.062,0.024l0.062,0.025l0.061,0.025l0.061,0.027l0.061,0.027l0.06,0.028l0.059,0.028l0.059,0.03l0.058,0.03l0.058,0.031l0.057,0.031l0.056,0.032l0.056,0.033l0.056,0.034l0.055,0.035l0.054,0.035l0.054,0.036l0.053,0.036l0.052,0.038l0.052,0.038l0.052,0.039l0.051,0.039l0.05,0.041l0.05,0.041l0.048,0.042l0.049,0.042l0.048,0.043l0.047,0.044l0.046,0.045l0.047,0.046l0.073,0.075l0.073,0.078l0.07,0.08l0.069,0.082l0.067,0.084l0.065,0.086l0.063,0.088l0.062,0.09l0.059,0.092l0.058,0.093l0.056,0.096l0.046,0.082l4.123,-1.492l-0.016,-0.035l-0.033,-0.07l-0.034,-0.07l-0.035,-0.07l-0.036,-0.07l-0.036,-0.069l-0.037,-0.069l-0.038,-0.069l-0.038,-0.068l-0.041,-0.071l-0.068,-0.119l-0.067,-0.113l-0.069,-0.112l-0.071,-0.11l-0.072,-0.109l-0.074,-0.107l-0.076,-0.106l-0.077,-0.104l-0.079,-0.103l-0.081,-0.101l-0.082,-0.1l-0.084,-0.098l-0.085,-0.096l-0.087,-0.095l-0.089,-0.094l-0.091,-0.092l-0.092,-0.091l-0.094,-0.089l-0.096,-0.088l-0.097,-0.086l-0.099,-0.085l-0.101,-0.083l-0.102,-0.082l-0.104,-0.08l-0.106,-0.079l-0.108,-0.078l-0.11,-0.076l-0.111,-0.074l-0.113,-0.074l-0.114,-0.071l-0.117,-0.071l-0.121,-0.07l-0.069,-0.04l-0.068,-0.038l-0.069,-0.038l-0.07,-0.037l-0.07,-0.037l-0.071,-0.036l-0.072,-0.035l-0.072,-0.035l-0.073,-0.035l-0.073,-0.033l-0.074,-0.033l-0.075,-0.033l-0.075,-0.032l-0.076,-0.031l-0.077,-0.031l-0.077,-0.03l-0.078,-0.029l-0.079,-0.029l-0.079,-0.028l-0.08,-0.028l-0.081,-0.027l-0.081,-0.027l-0.082,-0.025l-0.083,-0.026l-0.083,-0.024l-0.084,-0.024l-0.084,-0.024l-0.086,-0.023l-0.086,-0.022l-0.086,-0.022l-0.087,-0.021l-0.088,-0.02l-0.089,-0.02l-0.089,-0.019l-0.09,-0.019l-0.09,-0.017l-0.092,-0.018l-0.092,-0.016l-0.092,-0.017l-0.092,-0.015l-0.19,-0.029l-0.191,-0.027l-0.194,-0.024l-0.196,-0.021l-0.199,-0.019l-0.202,-0.017l-0.205,-0.014l-0.207,-0.011l-0.21,-0.009l-0.212,-0.006l-0.215,-0.004l-0.218,-0.002l-0.227,0.002Z" style="fill:#d4d7de;"/><g transform="matrix(48,0,0,48,266.867,190.033)"><path d="M0.05,0l0,-0.735l0.193,0c0.039,0 0.072,0.008 0.101,0.025c0.025,0.015 0.046,0.035 0.062,0.062c0.018,0.032 0.027,0.07 0.027,0.113c0,0.037 -0.007,0.068 -0.022,0.094c-0.014,0.023 -0.032,0.042 -0.055,0.056c0.005,0.002 0.009,0.004 0.014,0.007c0.028,0.016 0.049,0.037 0.064,0.064c0.016,0.027 0.024,0.06 0.024,0.099c0,0.046 -0.01,0.085 -0.029,0.118c-0.017,0.029 -0.039,0.052 -0.068,0.069c-0.033,0.019 -0.072,0.028 -0.118,0.028l-0.193,0Zm0.113,-0.433l0.08,0c0.013,0 0.025,-0.003 0.036,-0.009c0.011,-0.006 0.019,-0.015 0.026,-0.027c0.01,-0.017 0.015,-0.039 0.015,-0.065c-0.001,-0.025 -0.006,-0.046 -0.015,-0.063c-0.007,-0.012 -0.015,-0.021 -0.026,-0.027c-0.011,-0.006 -0.023,-0.009 -0.036,-0.009l-0.08,0l0,0.2Zm0,0.331l0.081,0c0.02,0 0.037,-0.004 0.051,-0.013c0.014,-0.008 0.025,-0.019 0.034,-0.034c0.011,-0.018 0.016,-0.04 0.016,-0.067c0,-0.027 -0.005,-0.049 -0.016,-0.068c-0.009,-0.015 -0.021,-0.027 -0.034,-0.034c-0.015,-0.009 -0.032,-0.013 -0.052,-0.013l-0.08,0l0,0.229Z" style="fill:#fff;fill-rule:nonzero;"/></g><g transform="matrix(48,0,0,48,290.867,190.033)"><path d="M0.25,-0.609c-0.016,0 -0.03,-0.003 -0.042,-0.01c-0.01,-0.006 -0.018,-0.014 -0.024,-0.024c-0.007,-0.012 -0.01,-0.026 -0.01,-0.042c0,-0.016 0.003,-0.03 0.01,-0.042c0.006,-0.01 0.014,-0.018 0.024,-0.024c0.012,-0.007 0.026,-0.01 0.042,-0.01c0.016,0 0.03,0.003 0.042,0.01c0.01,0.006 0.018,0.014 0.024,0.024c0.007,0.012 0.01,0.026 0.01,0.042c0,0.016 -0.003,0.03 -0.01,0.042c-0.006,0.01 -0.014,0.018 -0.024,0.024c-0.012,0.007 -0.026,0.01 -0.042,0.01Zm-0.175,0.609l0,-0.102l0.125,0l0,-0.326l-0.111,0l0,-0.102l0.225,0l0,0.428l0.111,0l0,0.102l-0.35,0Z" style="fill:#fff;fill-rule:nonzero;"/></g><g transform="matrix(48,0,0,48,314.867,190.033)"><path d="M0.322,0.008c-0.033,0 -0.062,-0.007 -0.087,-0.021c-0.025,-0.015 -0.045,-0.035 -0.061,-0.062c-0.021,-0.036 -0.031,-0.081 -0.031,-0.134l0,-0.219l-0.094,0l0,-0.102l0.094,0l0,-0.205l0.114,0l0,0.205l0.142,0l0,0.102l-0.142,0l0,0.219c-0.001,0.035 0.005,0.064 0.018,0.085c0.006,0.011 0.014,0.019 0.023,0.024c0.007,0.004 0.015,0.006 0.024,0.006c0.009,0 0.018,-0.002 0.025,-0.006c0.009,-0.005 0.017,-0.014 0.024,-0.026c0.009,-0.016 0.015,-0.036 0.017,-0.059l0.109,0.03c-0.005,0.03 -0.014,0.056 -0.028,0.079c-0.015,0.027 -0.036,0.048 -0.061,0.063c-0.025,0.014 -0.053,0.021 -0.086,0.021Z" style="fill:#fff;fill-rule:nonzero;"/></g><g transform="matrix(48,0,0,48,338.867,190.033)"><path d="M0.247,0.008c-0.05,0 -0.091,-0.009 -0.123,-0.028c-0.028,-0.016 -0.05,-0.038 -0.065,-0.065c-0.005,-0.008 -0.009,-0.016 -0.012,-0.025l0.105,-0.038c0.005,0.011 0.011,0.02 0.018,0.027c0.018,0.018 0.044,0.027 0.077,0.027c0.037,0 0.063,-0.008 0.078,-0.024c0.008,-0.008 0.012,-0.018 0.013,-0.03c-0.001,-0.009 -0.003,-0.017 -0.007,-0.025c-0.006,-0.01 -0.014,-0.018 -0.025,-0.024c-0.015,-0.009 -0.041,-0.015 -0.078,-0.018c-0.044,-0.004 -0.078,-0.013 -0.101,-0.026c-0.023,-0.014 -0.042,-0.033 -0.056,-0.057c-0.015,-0.025 -0.022,-0.053 -0.022,-0.084c0,-0.027 0.006,-0.051 0.018,-0.072c0.013,-0.022 0.031,-0.04 0.055,-0.054c0.035,-0.02 0.079,-0.03 0.131,-0.03c0.05,0 0.091,0.009 0.123,0.028c0.028,0.016 0.05,0.038 0.065,0.065c0.005,0.008 0.009,0.016 0.012,0.025l-0.105,0.038c-0.005,-0.011 -0.011,-0.02 -0.018,-0.027c-0.018,-0.018 -0.044,-0.027 -0.077,-0.027c-0.037,0 -0.063,0.008 -0.078,0.024c-0.008,0.008 -0.012,0.018 -0.013,0.03c0.001,0.009 0.003,0.017 0.007,0.025c0.006,0.01 0.014,0.018 0.025,0.024c0.015,0.009 0.041,0.015 0.078,0.018c0.044,0.004 0.078,0.013 0.101,0.027c0.023,0.013 0.042,0.032 0.056,0.056c0.015,0.025 0.022,0.053 0.022,0.084c0,0.027 -0.006,0.051 -0.018,0.072c-0.013,0.022 -0.031,0.04 -0.055,0.054c-0.035,0.02 -0.079,0.03 -0.131,0.03Z" style="fill:#fff;fill-rule:nonzero;"/></g></g></g></svg>