<?xml version="1.0" encoding="UTF-8" standalone="no"?><!DOCTYPE svg PUBLIC "-//W3C//DTD SVG 1.1//EN" "http://www.w3.org/Graphics/SVG/1.1/DTD/svg11.dtd"><svg width="100%" height="100%" viewBox="0 0 400 400" version="1.1" xmlns="http://www.w3.org/2000/svg" xmlns:xlink="http://www.w3.org/1999/xlink" xml:space="preserve" xmlns:serif="http://www.serif.com/" style="fill-rule:evenodd;clip-rule:evenodd;stroke-linecap:round;stroke-linejoin:round;stroke-miterlimit:1.5;"><g id="Bits-Circle" serif:id="Bits Circle"><circle id="bg" cx="200" cy="200" r="200" style="fill:#282c34;"/><clipPath id="_clip1"><circle cx="200" cy="200" r="200"/></clipPath><g clip-path="url(#_clip1)"><path id="bits" d="M215.469,407.26c-4.043,0.297 -8.118,0.479 -12.222,0.542l0,-57.477l-9.434,7.076l-7.183,-8.791l16.617,-12.436l12.222,0l0,71.086Zm-53.605,-2.935c-4.117,-0.766 -8.192,-1.653 -12.221,-2.657l0,-51.343l-9.435,7.076l-7.183,-8.791l16.618,-12.436l12.221,0l0,68.151Zm78.096,-0.339c-1.676,-3.551 -2.514,-7.751 -2.514,-12.6l0,-31.626c0,-5.575 1.108,-10.292 3.324,-14.152c1.858,-3.216 4.324,-5.718 7.397,-7.504c3.288,-1.859 7.147,-2.788 11.579,-2.788c4.431,0 8.29,0.929 11.578,2.788c3.074,1.786 5.539,4.288 7.398,7.504c2.215,3.86 3.323,8.577 3.323,14.152l0,31.23c-4.136,1.78 -8.34,3.429 -12.609,4.943c0.296,-1.368 0.461,-2.884 0.494,-4.547l0,-21.441l-19.833,26.373c0.357,1.429 0.858,2.68 1.501,3.752c0.223,0.395 0.461,0.766 0.714,1.112c-4.07,1.056 -8.189,1.992 -12.352,2.804Zm-163.326,-36.779l0,-7.447c0,-5.575 1.108,-10.292 3.323,-14.152c1.859,-3.216 4.324,-5.718 7.398,-7.504c3.287,-1.859 7.147,-2.788 11.578,-2.788c4.431,0 8.291,0.929 11.579,2.788c3.073,1.786 5.539,4.288 7.397,7.504c2.216,3.86 3.324,8.577 3.324,14.152l0,31.626c0,0.323 -0.004,0.642 -0.012,0.958c-4.101,-1.683 -8.137,-3.495 -12.103,-5.429l0,-16.97l-9.18,12.207c-2.801,-1.544 -5.562,-3.15 -8.282,-4.816l16.926,-22.508c-0.357,-1.429 -0.858,-2.68 -1.501,-3.752c-0.929,-1.644 -2.108,-2.859 -3.538,-3.645c-1.286,-0.786 -2.823,-1.179 -4.61,-1.179c-1.787,0 -3.323,0.393 -4.61,1.179c-1.429,0.786 -2.609,2.001 -3.538,3.645c-1.286,2.216 -1.965,5.11 -2.037,8.684l0,15.761c-4.139,-2.631 -8.18,-5.405 -12.114,-8.314Zm172.927,13.994l19.833,-26.373c-0.357,-1.429 -0.857,-2.68 -1.5,-3.752c-0.93,-1.644 -2.109,-2.859 -3.538,-3.645c-1.287,-0.786 -2.823,-1.179 -4.61,-1.179c-1.787,0 -3.324,0.393 -4.61,1.179c-1.43,0.786 -2.609,2.001 -3.538,3.645c-1.287,2.216 -1.966,5.11 -2.037,8.684l0,21.441Zm73.116,-13.454c-3.969,2.908 -8.046,5.679 -12.222,8.306l0,-25.728l-9.434,7.076l-7.183,-8.791l16.617,-12.436l12.222,0l0,31.573Zm-280.233,-32.291c0.933,-0.093 1.895,-0.14 2.885,-0.14c4.431,0 8.291,0.929 11.579,2.788c3.073,1.786 5.539,4.288 7.397,7.504c2.216,3.86 3.323,8.577 3.323,14.152l0,0.4c-9.074,-7.512 -17.501,-15.779 -25.184,-24.704Zm312.733,2.765c-2.449,2.746 -4.969,5.426 -7.558,8.038c0.116,-0.219 0.236,-0.436 0.359,-0.651c1.818,-3.146 4.218,-5.609 7.199,-7.387Zm11.777,-36.783c-4.431,0 -8.291,-0.929 -11.578,-2.787c-3.074,-1.787 -5.54,-4.288 -7.398,-7.505c-2.215,-3.859 -3.323,-8.576 -3.323,-14.151l0,-31.627c0,-5.574 1.108,-10.292 3.323,-14.151c1.858,-3.216 4.324,-5.718 7.398,-7.505c3.287,-1.858 7.147,-2.787 11.578,-2.787c4.431,0 8.291,0.929 11.579,2.787c3.073,1.787 5.539,4.289 7.397,7.505c2.216,3.859 3.323,8.577 3.323,14.151l0,31.627c0,5.575 -1.107,10.292 -3.323,14.151c-1.858,3.217 -4.324,5.718 -7.397,7.505c-3.288,1.858 -7.148,2.787 -11.579,2.787Zm-160.812,0c-4.432,0 -8.291,-0.929 -11.579,-2.787c-3.073,-1.787 -5.539,-4.288 -7.397,-7.505c-2.216,-3.859 -3.324,-8.576 -3.324,-14.151l0,-31.627c0,-5.574 1.108,-10.292 3.324,-14.151c1.858,-3.216 4.324,-5.718 7.397,-7.505c3.288,-1.858 7.147,-2.787 11.579,-2.787c4.431,0 8.29,0.929 11.578,2.787c3.073,1.787 5.539,4.289 7.397,7.505c2.216,3.859 3.324,8.577 3.324,14.151l0,31.627c0,5.575 -1.108,10.292 -3.324,14.151c-1.858,3.217 -4.324,5.718 -7.397,7.505c-3.288,1.858 -7.147,2.787 -11.578,2.787Zm-107.209,0c-4.431,0 -8.291,-0.929 -11.578,-2.787c-3.074,-1.787 -5.539,-4.288 -7.398,-7.505c-2.215,-3.859 -3.323,-8.576 -3.323,-14.151l0,-31.627c0,-5.574 1.108,-10.292 3.323,-14.151c1.859,-3.216 4.324,-5.718 7.398,-7.505c3.287,-1.858 7.147,-2.787 11.578,-2.787c4.431,0 8.291,0.929 11.579,2.787c3.073,1.787 5.539,4.289 7.397,7.505c2.216,3.859 3.324,8.577 3.324,14.151l0,31.627c0,5.575 -1.108,10.292 -3.324,14.151c-1.858,3.217 -4.324,5.718 -7.397,7.505c-3.288,1.858 -7.148,2.787 -11.579,2.787Zm-44.277,-0.857l-12.222,0l0,-64.647l-9.434,7.076l-7.183,-8.791l16.617,-12.436l12.222,0l0,78.798Zm107.208,0l-12.221,0l0,-64.647l-9.435,7.076l-7.183,-8.791l16.618,-12.436l12.221,0l0,78.798Zm107.209,0l-12.222,0l0,-64.647l-9.434,7.076l-7.183,-8.791l16.617,-12.436l12.222,0l0,78.798Zm53.604,0l-12.222,0l0,-64.647l-9.434,7.076l-7.183,-8.791l16.617,-12.436l12.222,0l0,78.798Zm-223.744,-10.078c1.787,0 3.324,-0.393 4.61,-1.179c1.43,-0.786 2.609,-2.001 3.538,-3.645c1.287,-2.216 1.965,-5.11 2.037,-8.684l0,-21.442l-19.834,26.374c0.358,1.429 0.858,2.68 1.501,3.752c0.929,1.644 2.109,2.859 3.538,3.645c1.287,0.786 2.823,1.179 4.61,1.179Zm268.021,0c1.787,0 3.324,-0.393 4.61,-1.179c1.429,-0.786 2.609,-2.001 3.538,-3.645c1.286,-2.216 1.965,-5.11 2.037,-8.684l0,-21.442l-19.834,26.374c0.358,1.429 0.858,2.68 1.501,3.752c0.929,1.644 2.109,2.859 3.538,3.645c1.287,0.786 2.823,1.179 4.61,1.179Zm-160.812,0c1.786,0 3.323,-0.393 4.609,-1.179c1.43,-0.786 2.609,-2.001 3.538,-3.645c1.287,-2.216 1.966,-5.11 2.037,-8.684l0,-21.442l-19.833,26.374c0.357,1.429 0.857,2.68 1.501,3.752c0.929,1.644 2.108,2.859 3.538,3.645c1.286,0.786 2.823,1.179 4.61,1.179Zm-117.394,-23.693l19.834,-26.373c-0.357,-1.43 -0.858,-2.68 -1.501,-3.752c-0.929,-1.644 -2.108,-2.859 -3.538,-3.645c-1.286,-0.787 -2.823,-1.18 -4.61,-1.18c-1.787,0 -3.323,0.393 -4.61,1.18c-1.429,0.786 -2.609,2.001 -3.538,3.645c-1.286,2.215 -1.965,5.11 -2.037,8.683l0,21.442Zm268.021,0l19.834,-26.373c-0.358,-1.43 -0.858,-2.68 -1.501,-3.752c-0.929,-1.644 -2.109,-2.859 -3.538,-3.645c-1.286,-0.787 -2.823,-1.18 -4.61,-1.18c-1.787,0 -3.323,0.393 -4.61,1.18c-1.429,0.786 -2.609,2.001 -3.538,3.645c-1.286,2.215 -1.965,5.11 -2.037,8.683l0,21.442Zm-160.812,0l19.833,-26.373c-0.357,-1.43 -0.857,-2.68 -1.501,-3.752c-0.929,-1.644 -2.108,-2.859 -3.538,-3.645c-1.286,-0.787 -2.823,-1.18 -4.609,-1.18c-1.787,0 -3.324,0.393 -4.61,1.18c-1.43,0.786 -2.609,2.001 -3.538,3.645c-1.287,2.215 -1.966,5.11 -2.037,8.683l0,21.442Zm210.344,-41.233c-1.565,12.722 -4.282,25.089 -8.042,36.995l0,-17.204c0,-5.574 1.108,-10.292 3.323,-14.151c1.283,-2.221 2.856,-4.101 4.719,-5.64Zm-405.249,34.625c-3.741,-12.361 -6.361,-25.207 -7.74,-38.419l7.74,0l0,38.419Zm151.485,-73.155c-4.431,0 -8.29,-0.929 -11.578,-2.787c-3.073,-1.787 -5.539,-4.289 -7.398,-7.505c-2.215,-3.859 -3.323,-8.577 -3.323,-14.151l0,-31.627c0,-5.575 1.108,-10.292 3.323,-14.151c1.859,-3.217 4.325,-5.718 7.398,-7.505c3.288,-1.858 7.147,-2.787 11.578,-2.787c4.432,0 8.291,0.929 11.579,2.787c3.073,1.787 5.539,4.288 7.397,7.505c2.216,3.859 3.324,8.576 3.324,14.151l0,31.627c0,5.574 -1.108,10.292 -3.324,14.151c-1.858,3.216 -4.324,5.718 -7.397,7.505c-3.288,1.858 -7.147,2.787 -11.579,2.787Zm160.813,0c-4.431,0 -8.291,-0.929 -11.579,-2.787c-3.073,-1.787 -5.539,-4.289 -7.397,-7.505c-2.216,-3.859 -3.323,-8.577 -3.323,-14.151l0,-31.627c0,-5.575 1.107,-10.292 3.323,-14.151c1.858,-3.217 4.324,-5.718 7.397,-7.505c3.288,-1.858 7.148,-2.787 11.579,-2.787c4.431,0 8.291,0.929 11.578,2.787c3.074,1.787 5.539,4.288 7.398,7.505c2.215,3.859 3.323,8.576 3.323,14.151l0,31.627c0,5.574 -1.108,10.292 -3.323,14.151c-1.859,3.216 -4.324,5.718 -7.398,7.505c-3.287,1.858 -7.147,2.787 -11.578,2.787Zm53.604,0c-4.431,0 -8.291,-0.929 -11.578,-2.787c-3.074,-1.787 -5.54,-4.289 -7.398,-7.505c-2.215,-3.859 -3.323,-8.577 -3.323,-14.151l0,-31.627c0,-5.575 1.108,-10.292 3.323,-14.151c1.858,-3.217 4.324,-5.718 7.398,-7.505c3.287,-1.858 7.147,-2.787 11.578,-2.787c4.431,0 8.291,0.929 11.579,2.787c3.073,1.787 5.539,4.288 7.397,7.505c2.216,3.859 3.323,8.576 3.323,14.151l0,31.627c0,5.574 -1.107,10.292 -3.323,14.151c-1.858,3.216 -4.324,5.718 -7.397,7.505c-3.288,1.858 -7.148,2.787 -11.579,2.787Zm-356.948,-71.347c0.24,0.365 0.472,0.74 0.695,1.126c2.215,3.859 3.323,8.576 3.323,14.151l0,31.627c0,5.574 -1.108,10.292 -3.323,14.151c-1.859,3.216 -4.324,5.718 -7.398,7.505c-3.075,1.738 -6.65,2.663 -10.725,2.775c0.229,-3.719 0.556,-7.412 0.978,-11.076c1.029,-0.181 1.955,-0.523 2.779,-1.026c1.429,-0.787 2.609,-2.002 3.538,-3.646c1.286,-2.215 1.965,-5.11 2.037,-8.683l0,-21.442l-2.063,2.743c2.717,-9.706 6.122,-19.127 10.159,-28.205Zm259.067,70.489l-12.222,0l0,-64.646l-9.434,7.076l-7.183,-8.792l16.617,-12.436l12.222,0l0,78.798Zm-53.604,0l-12.222,0l0,-64.646l-9.434,7.076l-7.183,-8.792l16.617,-12.436l12.222,0l0,78.798Zm-107.209,0l-12.221,0l0,-64.646l-9.435,7.076l-7.183,-8.792l16.618,-12.436l12.221,0l0,78.798Zm-53.604,0l-12.222,0l0,-64.646l-9.434,7.076l-7.183,-8.792l16.617,-12.436l12.222,0l0,78.798Zm97.881,-10.077c1.787,0 3.324,-0.393 4.61,-1.179c1.43,-0.787 2.609,-2.002 3.538,-3.646c1.287,-2.215 1.966,-5.11 2.037,-8.683l0,-21.442l-19.833,26.373c0.357,1.43 0.857,2.68 1.501,3.752c0.929,1.644 2.108,2.859 3.537,3.646c1.287,0.786 2.824,1.179 4.61,1.179Zm160.813,0c1.787,0 3.323,-0.393 4.61,-1.179c1.429,-0.787 2.609,-2.002 3.538,-3.646c1.286,-2.215 1.965,-5.11 2.037,-8.683l0,-21.442l-19.834,26.373c0.357,1.43 0.858,2.68 1.501,3.752c0.929,1.644 2.108,2.859 3.538,3.646c1.286,0.786 2.823,1.179 4.61,1.179Zm53.604,0c1.787,0 3.324,-0.393 4.61,-1.179c1.429,-0.787 2.609,-2.002 3.538,-3.646c1.286,-2.215 1.965,-5.11 2.037,-8.683l0,-21.442l-19.834,26.373c0.358,1.43 0.858,2.68 1.501,3.752c0.929,1.644 2.109,2.859 3.538,3.646c1.287,0.786 2.823,1.179 4.61,1.179Zm-10.185,-23.693l19.834,-26.373c-0.358,-1.43 -0.858,-2.681 -1.501,-3.753c-0.929,-1.644 -2.109,-2.859 -3.538,-3.645c-1.286,-0.786 -2.823,-1.179 -4.61,-1.179c-1.787,0 -3.323,0.393 -4.61,1.179c-1.429,0.786 -2.609,2.001 -3.538,3.645c-1.286,2.216 -1.965,5.111 -2.037,8.684l0,21.442Zm-53.604,0l19.834,-26.373c-0.358,-1.43 -0.858,-2.681 -1.501,-3.753c-0.929,-1.644 -2.109,-2.859 -3.538,-3.645c-1.287,-0.786 -2.823,-1.179 -4.61,-1.179c-1.787,0 -3.324,0.393 -4.61,1.179c-1.43,0.786 -2.609,2.001 -3.538,3.645c-1.286,2.216 -1.965,5.111 -2.037,8.684l0,21.442Zm-160.812,0l19.833,-26.373c-0.357,-1.43 -0.858,-2.681 -1.501,-3.753c-0.929,-1.644 -2.108,-2.859 -3.538,-3.645c-1.286,-0.786 -2.823,-1.179 -4.61,-1.179c-1.786,0 -3.323,0.393 -4.61,1.179c-1.429,0.786 -2.608,2.001 -3.537,3.645c-1.287,2.216 -1.966,5.111 -2.037,8.684l0,21.442Zm22.163,-157.25c2.888,1.768 5.22,4.19 6.997,7.265c2.216,3.86 3.324,8.577 3.324,14.152l0,31.626c0,5.575 -1.108,10.292 -3.324,14.152c-1.858,3.216 -4.324,5.718 -7.397,7.504c-3.288,1.859 -7.147,2.788 -11.579,2.788c-4.431,0 -8.29,-0.929 -11.578,-2.788c-3.073,-1.786 -5.539,-4.288 -7.398,-7.504c-2.215,-3.86 -3.323,-8.577 -3.323,-14.152l0,-31.626c0,-5.237 0.978,-9.718 2.933,-13.441c10.122,-3.441 20.593,-6.122 31.345,-7.976Zm180.227,55.693c6.96,6.757 13.45,13.996 19.414,21.663c-3.278,-0.315 -6.205,-1.201 -8.781,-2.657c-3.074,-1.786 -5.54,-4.288 -7.398,-7.504c-1.855,-3.232 -2.934,-7.066 -3.235,-11.502Zm-34.288,-26.946c4.176,2.626 8.253,5.397 12.222,8.306l0,39.576l-12.222,0l0,-47.882Zm-202.195,-10.442l0,58.324l-12.221,0l0,-51.777c3.991,-2.314 8.067,-4.498 12.221,-6.547Zm107.209,58.324l-12.222,0l0,-64.646l-9.434,7.075l-7.183,-8.791l16.617,-12.436l12.222,0l0,78.798Zm34.457,-73.615c6.508,1.606 12.896,3.52 19.147,5.724l0,67.891l-12.222,0l0,-64.646l-9.434,7.075l-7.183,-8.791l9.692,-7.253Zm-195.27,53.308l0,20.307l-12.222,0l0,-7.273c3.888,-4.518 7.966,-8.866 12.222,-13.034Zm97.881,10.23c1.787,0 3.324,-0.394 4.61,-1.18c1.43,-0.786 2.609,-2.001 3.538,-3.645c1.287,-2.215 1.966,-5.11 2.037,-8.684l0,-21.441l-19.833,26.373c0.357,1.429 0.857,2.68 1.501,3.752c0.929,1.644 2.108,2.859 3.537,3.645c1.287,0.786 2.824,1.18 4.61,1.18Zm-10.184,-23.693l19.833,-26.374c-0.357,-1.429 -0.858,-2.68 -1.501,-3.752c-0.929,-1.644 -2.108,-2.859 -3.538,-3.645c-1.286,-0.786 -2.823,-1.179 -4.61,-1.179c-1.786,0 -3.323,0.393 -4.61,1.179c-1.429,0.786 -2.608,2.001 -3.537,3.645c-1.287,2.216 -1.966,5.11 -2.037,8.684l0,21.442Z" style="fill:#3fc56b;stroke:#fff;stroke-width:4px;"/></g><circle id="overlay" cx="200" cy="200" r="200" style="fill:#282c34;fill-opacity:0.4;"/><g transform="matrix(2,0,0,2,-429.926,-131.875)"><path d="M266.538,142.494l0.119,0.001l0.118,0.002l0.118,0.003l0.117,0.004l0.117,0.004l0.117,0.005l0.116,0.006l0.115,0.007l0.115,0.008l0.115,0.008l0.114,0.009l0.114,0.011l0.114,0.01l0.113,0.012l0.112,0.013l0.112,0.013l0.112,0.014l0.111,0.015l0.111,0.016l0.11,0.017l0.11,0.017l0.109,0.018l0.109,0.019l0.108,0.02l0.108,0.021l0.108,0.021l0.107,0.023l0.107,0.023l0.106,0.024l0.106,0.025l0.105,0.025l0.105,0.027l0.104,0.027l0.104,0.028l0.104,0.029l0.103,0.029l0.102,0.031l0.102,0.031l0.102,0.032l0.101,0.033l0.101,0.034l0.1,0.035l0.1,0.035l0.099,0.037l0.099,0.037l0.098,0.038l0.098,0.038l0.097,0.04l0.097,0.04l0.097,0.042l0.096,0.042l0.095,0.042l0.095,0.044l0.095,0.045l0.094,0.045l0.093,0.046l0.094,0.047l0.092,0.048l0.092,0.049l0.092,0.049l0.091,0.05l0.091,0.051l0.09,0.052l0.157,0.093l0.157,0.096l0.154,0.098l0.153,0.1l0.151,0.103l0.149,0.105l0.147,0.107l0.145,0.11l0.144,0.112l0.142,0.115l0.14,0.116l0.138,0.12l0.136,0.121l0.134,0.124l0.133,0.126l0.13,0.129l0.129,0.131l0.127,0.133l0.125,0.135l0.123,0.138l0.121,0.14l0.12,0.143l0.117,0.144l0.116,0.147l0.114,0.149l0.112,0.152l0.11,0.154l0.108,0.156l0.106,0.158l0.104,0.16l0.103,0.163l0.104,0.171l0.059,0.107l0.055,0.1l0.054,0.102l0.053,0.101l0.053,0.103l0.051,0.103l0.05,0.103l0.05,0.104l0.049,0.105l0.048,0.105l0.047,0.106l0.046,0.106l0.045,0.106l0.044,0.108l0.043,0.107l0.043,0.109l0.042,0.109l0.04,0.109l0.04,0.11l0.039,0.11l0.038,0.111l0.038,0.112l0.036,0.112l0.035,0.112l0.035,0.113l0.034,0.114l0.032,0.114l0.032,0.115l0.031,0.115l0.03,0.115l0.03,0.117l0.028,0.116l0.028,0.117l0.026,0.118l0.026,0.118l0.025,0.119l0.024,0.119l0.023,0.12l0.022,0.121l0.021,0.12l0.021,0.122l0.02,0.122l0.018,0.122l0.018,0.123l0.017,0.123l0.016,0.124l0.015,0.124l0.015,0.125l0.013,0.126l0.013,0.126l0.012,0.126l0.01,0.127l0.01,0.127l0.009,0.128l0.009,0.129l0.007,0.129l0.007,0.129l0.005,0.13l0.005,0.131l0.004,0.131l0.003,0.131l0.002,0.132l0.001,0.132l0.001,0.134l-0.002,0.225l-0.004,0.223l-0.007,0.222l-0.01,0.219l-0.013,0.218l-0.015,0.216l-0.019,0.214l-0.021,0.212l-0.024,0.21l-0.027,0.208l-0.015,0.104l-0.015,0.103l-0.016,0.102l-0.017,0.102l-0.018,0.102l-0.018,0.101l-0.019,0.101l-0.019,0.1l-0.021,0.099l-0.021,0.1l-0.022,0.098l-0.022,0.098l-0.024,0.098l-0.024,0.097l-0.024,0.097l-0.026,0.096l-0.026,0.096l-0.027,0.095l-0.028,0.095l-0.028,0.095l-0.029,0.093l-0.03,0.094l-0.031,0.093l-0.031,0.092l-0.032,0.092l-0.033,0.091l-0.033,0.091l-0.034,0.091l-0.035,0.09l-0.036,0.089l-0.036,0.089l-0.038,0.088l-0.038,0.088l-0.038,0.088l-0.04,0.087l-0.04,0.086l-0.04,0.086l-0.042,0.085l-0.042,0.085l-0.043,0.085l-0.044,0.084l-0.045,0.083l-0.045,0.083l-0.049,0.088l-0.092,0.151l-0.09,0.143l-0.092,0.142l-0.094,0.14l-0.095,0.138l-0.097,0.136l-0.099,0.135l-0.101,0.132l-0.102,0.131l-0.104,0.13l-0.106,0.127l-0.108,0.126l-0.109,0.123l-0.111,0.122l-0.113,0.12l-0.114,0.119l-0.117,0.116l-0.118,0.115l-0.119,0.113l-0.121,0.111l-0.123,0.109l-0.125,0.107l-0.127,0.106l-0.128,0.104l-0.129,0.101l-0.132,0.1l-0.09,0.067l0.03,0.016l0.118,0.066l0.172,0.101l0.087,0.051l0.085,0.052l0.085,0.053l0.084,0.052l0.083,0.054l0.083,0.054l0.082,0.054l0.081,0.055l0.081,0.056l0.08,0.056l0.08,0.057l0.079,0.057l0.078,0.058l0.078,0.058l0.077,0.059l0.076,0.059l0.076,0.06l0.075,0.06l0.074,0.061l0.074,0.062l0.073,0.062l0.073,0.062l0.072,0.063l0.071,0.064l0.071,0.064l0.07,0.065l0.069,0.065l0.069,0.066l0.068,0.066l0.067,0.067l0.067,0.067l0.066,0.068l0.066,0.069l0.065,0.069l0.064,0.069l0.063,0.07l0.063,0.071l0.062,0.071l0.062,0.071l0.061,0.073l0.06,0.072l0.06,0.073l0.059,0.074l0.058,0.074l0.058,0.075l0.057,0.075l0.056,0.076l0.056,0.077l0.055,0.076l0.054,0.078l0.054,0.078l0.053,0.078l0.052,0.079l0.052,0.08l0.051,0.079l0.05,0.081l0.05,0.081l0.049,0.081l0.049,0.082l0.047,0.083l0.047,0.083l0.044,0.078l0.046,0.08l0.05,0.087l0.048,0.088l0.048,0.088l0.047,0.088l0.046,0.09l0.045,0.089l0.044,0.091l0.044,0.09l0.043,0.092l0.042,0.091l0.041,0.093l0.041,0.093l0.039,0.093l0.039,0.094l0.038,0.095l0.038,0.095l0.036,0.095l0.036,0.096l0.035,0.097l0.034,0.097l0.033,0.098l0.033,0.098l0.031,0.098l0.031,0.1l0.031,0.099l0.029,0.101l0.028,0.101l0.028,0.101l0.027,0.102l0.026,0.102l0.026,0.103l0.024,0.103l0.024,0.104l0.023,0.104l0.022,0.105l0.022,0.105l0.02,0.106l0.02,0.107l0.019,0.107l0.019,0.107l0.017,0.108l0.017,0.108l0.016,0.109l0.015,0.11l0.014,0.11l0.014,0.11l0.013,0.111l0.012,0.111l0.011,0.112l0.01,0.113l0.01,0.113l0.009,0.113l0.008,0.114l0.007,0.115l0.007,0.115l0.006,0.115l0.005,0.116l0.004,0.117l0.004,0.117l0.002,0.117l0.002,0.118l0.001,0.119l0.001,0.118l-0.001,0.141l-0.001,0.141l-0.002,0.14l-0.004,0.139l-0.004,0.138l-0.005,0.138l-0.006,0.138l-0.007,0.137l-0.008,0.136l-0.009,0.136l-0.009,0.135l-0.011,0.134l-0.012,0.134l-0.012,0.133l-0.014,0.133l-0.014,0.132l-0.016,0.131l-0.016,0.131l-0.017,0.13l-0.019,0.13l-0.019,0.129l-0.02,0.128l-0.021,0.128l-0.022,0.128l-0.023,0.126l-0.024,0.126l-0.024,0.126l-0.026,0.125l-0.027,0.124l-0.028,0.123l-0.028,0.123l-0.03,0.123l-0.03,0.122l-0.032,0.121l-0.032,0.12l-0.033,0.12l-0.035,0.12l-0.035,0.118l-0.036,0.119l-0.037,0.117l-0.038,0.117l-0.039,0.116l-0.04,0.116l-0.041,0.115l-0.042,0.115l-0.043,0.113l-0.044,0.114l-0.044,0.112l-0.046,0.112l-0.047,0.112l-0.047,0.11l-0.049,0.11l-0.049,0.11l-0.051,0.109l-0.051,0.108l-0.053,0.107l-0.053,0.107l-0.054,0.107l-0.056,0.105l-0.056,0.105l-0.057,0.105l-0.058,0.104l-0.059,0.103l-0.059,0.1l-0.051,0.088l-0.053,0.088l-0.053,0.088l-0.054,0.088l-0.055,0.086l-0.055,0.087l-0.056,0.086l-0.056,0.085l-0.057,0.085l-0.058,0.084l-0.058,0.083l-0.059,0.083l-0.059,0.083l-0.06,0.082l-0.06,0.081l-0.061,0.081l-0.062,0.081l-0.062,0.08l-0.063,0.079l-0.064,0.079l-0.064,0.078l-0.064,0.077l-0.066,0.077l-0.065,0.077l-0.067,0.076l-0.067,0.075l-0.067,0.075l-0.069,0.075l-0.068,0.073l-0.07,0.074l-0.07,0.072l-0.07,0.072l-0.071,0.072l-0.072,0.071l-0.072,0.07l-0.073,0.07l-0.073,0.07l-0.074,0.068l-0.075,0.069l-0.075,0.067l-0.076,0.067l-0.076,0.067l-0.077,0.066l-0.078,0.065l-0.078,0.065l-0.078,0.065l-0.08,0.063l-0.079,0.064l-0.081,0.062l-0.081,0.062l-0.081,0.062l-0.082,0.061l-0.083,0.06l-0.083,0.06l-0.084,0.059l-0.084,0.059l-0.085,0.058l-0.086,0.058l-0.086,0.057l-0.086,0.056l-0.088,0.056l-0.088,0.056l-0.181,0.111l-0.109,0.061l-0.103,0.057l-0.103,0.056l-0.105,0.056l-0.105,0.054l-0.105,0.053l-0.107,0.053l-0.106,0.051l-0.108,0.051l-0.108,0.049l-0.109,0.049l-0.109,0.048l-0.11,0.046l-0.111,0.046l-0.111,0.045l-0.112,0.044l-0.112,0.044l-0.114,0.042l-0.113,0.041l-0.115,0.041l-0.115,0.039l-0.115,0.039l-0.116,0.037l-0.117,0.037l-0.118,0.036l-0.118,0.035l-0.118,0.034l-0.12,0.033l-0.12,0.032l-0.12,0.031l-0.121,0.031l-0.122,0.029l-0.122,0.028l-0.123,0.028l-0.123,0.027l-0.125,0.025l-0.124,0.025l-0.126,0.024l-0.126,0.023l-0.126,0.022l-0.127,0.022l-0.128,0.02l-0.128,0.019l-0.129,0.019l-0.13,0.017l-0.13,0.017l-0.131,0.016l-0.131,0.014l-0.132,0.014l-0.132,0.013l-0.133,0.013l-0.134,0.011l-0.134,0.01l-0.135,0.01l-0.136,0.008l-0.136,0.008l-0.137,0.006l-0.137,0.006l-0.138,0.005l-0.138,0.004l-0.139,0.003l-0.14,0.003l-0.14,0.001l-0.14,0l-12.353,0l-0.087,-0.007l-0.084,-0.023l-0.079,-0.037l-0.072,-0.05l-0.061,-0.061l-0.05,-0.072l-0.037,-0.079l-0.023,-0.084l-0.007,-0.087l0,-47.04l0.007,-0.086l0.023,-0.085l0.037,-0.079l0.05,-0.071l0.061,-0.062l0.072,-0.05l0.079,-0.036l0.084,-0.023l0.087,-0.008l12.353,0l0.118,0.001Zm-11.971,0.999l0,46.04l11.851,0l0.135,0l0.134,-0.001l0.133,-0.002l0.133,-0.003l0.132,-0.004l0.131,-0.005l0.131,-0.005l0.13,-0.007l0.129,-0.007l0.128,-0.008l0.128,-0.009l0.128,-0.01l0.126,-0.011l0.126,-0.011l0.126,-0.012l0.124,-0.014l0.124,-0.014l0.124,-0.014l0.123,-0.016l0.122,-0.017l0.121,-0.017l0.121,-0.018l0.12,-0.019l0.12,-0.02l0.118,-0.021l0.119,-0.022l0.117,-0.022l0.117,-0.024l0.116,-0.024l0.116,-0.025l0.115,-0.025l0.114,-0.027l0.114,-0.028l0.113,-0.028l0.112,-0.029l0.112,-0.03l0.111,-0.031l0.111,-0.031l0.11,-0.033l0.109,-0.033l0.108,-0.034l0.108,-0.035l0.108,-0.036l0.106,-0.037l0.106,-0.037l0.106,-0.038l0.104,-0.04l0.105,-0.04l0.103,-0.04l0.103,-0.042l0.102,-0.042l0.102,-0.044l0.101,-0.044l0.1,-0.045l0.1,-0.045l0.099,-0.047l0.098,-0.047l0.098,-0.049l0.098,-0.049l0.096,-0.05l0.096,-0.05l0.096,-0.052l0.095,-0.052l0.088,-0.05l0.16,-0.099l0.081,-0.051l0.081,-0.052l0.08,-0.052l0.08,-0.053l0.079,-0.053l0.079,-0.054l0.078,-0.054l0.077,-0.055l0.077,-0.056l0.077,-0.055l0.076,-0.057l0.075,-0.057l0.075,-0.057l0.074,-0.058l0.074,-0.058l0.073,-0.059l0.072,-0.059l0.072,-0.06l0.072,-0.06l0.071,-0.061l0.07,-0.062l0.07,-0.062l0.069,-0.062l0.069,-0.063l0.068,-0.063l0.068,-0.064l0.067,-0.064l0.066,-0.065l0.066,-0.066l0.066,-0.066l0.065,-0.066l0.064,-0.067l0.064,-0.067l0.063,-0.068l0.063,-0.069l0.062,-0.069l0.062,-0.069l0.061,-0.07l0.061,-0.071l0.06,-0.071l0.059,-0.071l0.059,-0.072l0.059,-0.073l0.058,-0.073l0.057,-0.073l0.057,-0.074l0.056,-0.075l0.056,-0.075l0.055,-0.076l0.055,-0.076l0.054,-0.077l0.054,-0.077l0.053,-0.078l0.053,-0.078l0.052,-0.079l0.051,-0.079l0.051,-0.08l0.051,-0.08l0.05,-0.081l0.049,-0.081l0.049,-0.082l0.049,-0.084l0.057,-0.096l0.054,-0.095l0.053,-0.095l0.053,-0.096l0.051,-0.097l0.051,-0.097l0.05,-0.098l0.049,-0.099l0.048,-0.099l0.048,-0.099l0.046,-0.101l0.046,-0.1l0.045,-0.102l0.044,-0.102l0.043,-0.103l0.042,-0.103l0.041,-0.104l0.041,-0.105l0.039,-0.105l0.039,-0.106l0.038,-0.107l0.037,-0.107l0.036,-0.108l0.036,-0.108l0.034,-0.109l0.034,-0.11l0.032,-0.11l0.032,-0.111l0.031,-0.112l0.031,-0.112l0.029,-0.113l0.028,-0.114l0.028,-0.114l0.026,-0.115l0.026,-0.115l0.025,-0.117l0.024,-0.116l0.024,-0.118l0.022,-0.118l0.021,-0.119l0.021,-0.119l0.02,-0.12l0.019,-0.121l0.018,-0.121l0.017,-0.122l0.016,-0.123l0.015,-0.123l0.015,-0.124l0.014,-0.124l0.012,-0.126l0.012,-0.126l0.011,-0.126l0.01,-0.127l0.01,-0.128l0.008,-0.129l0.008,-0.129l0.006,-0.13l0.006,-0.13l0.005,-0.131l0.004,-0.132l0.003,-0.132l0.002,-0.133l0.001,-0.134l0.001,-0.135l-0.001,-0.112l-0.001,-0.112l-0.001,-0.111l-0.003,-0.111l-0.003,-0.11l-0.004,-0.11l-0.005,-0.109l-0.005,-0.109l-0.007,-0.108l-0.007,-0.107l-0.007,-0.107l-0.009,-0.106l-0.009,-0.106l-0.009,-0.105l-0.011,-0.105l-0.011,-0.104l-0.012,-0.104l-0.013,-0.103l-0.013,-0.102l-0.014,-0.102l-0.015,-0.101l-0.016,-0.101l-0.016,-0.1l-0.017,-0.1l-0.017,-0.099l-0.019,-0.098l-0.019,-0.098l-0.02,-0.098l-0.02,-0.096l-0.022,-0.097l-0.021,-0.096l-0.023,-0.095l-0.024,-0.094l-0.024,-0.094l-0.024,-0.094l-0.026,-0.093l-0.026,-0.093l-0.027,-0.091l-0.028,-0.092l-0.028,-0.091l-0.029,-0.09l-0.03,-0.09l-0.03,-0.089l-0.031,-0.088l-0.032,-0.089l-0.033,-0.087l-0.033,-0.087l-0.034,-0.087l-0.034,-0.086l-0.036,-0.085l-0.036,-0.085l-0.037,-0.084l-0.037,-0.084l-0.038,-0.084l-0.039,-0.082l-0.04,-0.083l-0.04,-0.081l-0.041,-0.082l-0.042,-0.08l-0.042,-0.08l-0.043,-0.08l-0.044,-0.079l-0.045,-0.079l-0.048,-0.084l-0.046,-0.082l-0.042,-0.075l-0.044,-0.075l-0.044,-0.075l-0.044,-0.074l-0.045,-0.073l-0.046,-0.073l-0.046,-0.073l-0.047,-0.072l-0.048,-0.071l-0.048,-0.071l-0.049,-0.071l-0.049,-0.07l-0.05,-0.07l-0.05,-0.069l-0.051,-0.069l-0.052,-0.068l-0.052,-0.067l-0.053,-0.068l-0.053,-0.067l-0.054,-0.066l-0.055,-0.066l-0.055,-0.065l-0.056,-0.065l-0.056,-0.064l-0.057,-0.064l-0.058,-0.064l-0.058,-0.063l-0.059,-0.062l-0.059,-0.062l-0.06,-0.062l-0.061,-0.061l-0.061,-0.061l-0.062,-0.06l-0.062,-0.06l-0.063,-0.059l-0.064,-0.059l-0.064,-0.058l-0.065,-0.058l-0.065,-0.057l-0.066,-0.057l-0.067,-0.057l-0.067,-0.056l-0.068,-0.055l-0.069,-0.055l-0.069,-0.055l-0.07,-0.054l-0.07,-0.054l-0.071,-0.053l-0.071,-0.053l-0.073,-0.052l-0.073,-0.052l-0.073,-0.051l-0.074,-0.051l-0.075,-0.051l-0.075,-0.05l-0.076,-0.049l-0.077,-0.05l-0.077,-0.048l-0.078,-0.048l-0.078,-0.048l-0.078,-0.047l-0.161,-0.094l-0.106,-0.059l-0.106,-0.058l-0.106,-0.056l-0.106,-0.053l-0.105,-0.052l-0.106,-0.05l-0.105,-0.048l-0.109,-0.047l-0.079,-0.044l-0.07,-0.057l-0.058,-0.069l-0.046,-0.078l-0.03,-0.085l-0.015,-0.089l0.002,-0.09l0.017,-0.088l0.034,-0.084l0.047,-0.077l0.061,-0.066l0.072,-0.055l0.132,-0.083l0.127,-0.083l0.126,-0.084l0.124,-0.086l0.123,-0.087l0.121,-0.089l0.119,-0.091l0.118,-0.093l0.117,-0.094l0.114,-0.095l0.113,-0.098l0.112,-0.099l0.11,-0.101l0.109,-0.102l0.107,-0.104l0.105,-0.106l0.104,-0.107l0.102,-0.109l0.101,-0.111l0.1,-0.113l0.097,-0.114l0.097,-0.116l0.094,-0.117l0.094,-0.12l0.091,-0.121l0.091,-0.122l0.088,-0.125l0.087,-0.126l0.086,-0.128l0.084,-0.129l0.083,-0.132l0.078,-0.128l0.038,-0.067l0.04,-0.075l0.04,-0.075l0.04,-0.076l0.039,-0.076l0.038,-0.076l0.037,-0.077l0.037,-0.078l0.036,-0.078l0.036,-0.079l0.035,-0.079l0.034,-0.079l0.034,-0.08l0.033,-0.081l0.032,-0.081l0.032,-0.082l0.031,-0.082l0.031,-0.082l0.029,-0.083l0.029,-0.084l0.029,-0.084l0.028,-0.085l0.027,-0.085l0.027,-0.086l0.026,-0.086l0.025,-0.087l0.024,-0.087l0.024,-0.087l0.024,-0.089l0.022,-0.088l0.023,-0.09l0.021,-0.09l0.021,-0.09l0.02,-0.091l0.019,-0.091l0.019,-0.092l0.018,-0.092l0.018,-0.093l0.017,-0.094l0.016,-0.094l0.015,-0.094l0.015,-0.095l0.014,-0.096l0.014,-0.095l0.025,-0.194l0.023,-0.196l0.02,-0.198l0.017,-0.2l0.014,-0.202l0.012,-0.204l0.01,-0.207l0.006,-0.208l0.004,-0.211l0.002,-0.213l-0.001,-0.126l-0.001,-0.126l-0.002,-0.125l-0.003,-0.125l-0.003,-0.124l-0.005,-0.124l-0.005,-0.123l-0.006,-0.123l-0.007,-0.122l-0.008,-0.121l-0.009,-0.121l-0.009,-0.12l-0.011,-0.12l-0.011,-0.12l-0.011,-0.118l-0.013,-0.118l-0.014,-0.118l-0.014,-0.117l-0.015,-0.116l-0.016,-0.116l-0.017,-0.116l-0.017,-0.114l-0.019,-0.115l-0.019,-0.113l-0.02,-0.114l-0.021,-0.112l-0.021,-0.112l-0.023,-0.112l-0.023,-0.111l-0.024,-0.11l-0.025,-0.11l-0.026,-0.109l-0.026,-0.109l-0.027,-0.108l-0.028,-0.108l-0.029,-0.107l-0.03,-0.107l-0.03,-0.106l-0.032,-0.105l-0.032,-0.105l-0.033,-0.105l-0.033,-0.104l-0.035,-0.103l-0.035,-0.103l-0.036,-0.102l-0.037,-0.102l-0.038,-0.101l-0.038,-0.101l-0.04,-0.1l-0.04,-0.1l-0.041,-0.099l-0.042,-0.098l-0.042,-0.098l-0.043,-0.098l-0.045,-0.097l-0.044,-0.096l-0.046,-0.096l-0.047,-0.096l-0.047,-0.095l-0.048,-0.094l-0.049,-0.094l-0.05,-0.093l-0.051,-0.093l-0.047,-0.086l-0.09,-0.147l-0.095,-0.151l-0.096,-0.148l-0.098,-0.146l-0.1,-0.144l-0.101,-0.141l-0.103,-0.139l-0.104,-0.137l-0.107,-0.135l-0.107,-0.133l-0.11,-0.13l-0.111,-0.128l-0.112,-0.126l-0.114,-0.124l-0.116,-0.122l-0.118,-0.119l-0.119,-0.117l-0.121,-0.115l-0.122,-0.113l-0.124,-0.111l-0.126,-0.108l-0.127,-0.107l-0.129,-0.104l-0.131,-0.102l-0.132,-0.1l-0.134,-0.098l-0.136,-0.095l-0.137,-0.094l-0.139,-0.091l-0.141,-0.09l-0.143,-0.087l-0.145,-0.085l-0.082,-0.048l-0.083,-0.046l-0.083,-0.046l-0.083,-0.045l-0.084,-0.044l-0.085,-0.044l-0.085,-0.043l-0.085,-0.042l-0.086,-0.041l-0.087,-0.041l-0.086,-0.04l-0.088,-0.039l-0.087,-0.039l-0.089,-0.037l-0.088,-0.037l-0.089,-0.036l-0.09,-0.036l-0.09,-0.035l-0.091,-0.034l-0.09,-0.033l-0.092,-0.032l-0.092,-0.032l-0.092,-0.031l-0.093,-0.031l-0.094,-0.029l-0.093,-0.029l-0.095,-0.028l-0.094,-0.027l-0.096,-0.027l-0.095,-0.026l-0.097,-0.025l-0.096,-0.024l-0.098,-0.024l-0.097,-0.023l-0.098,-0.022l-0.099,-0.021l-0.099,-0.021l-0.1,-0.02l-0.1,-0.019l-0.1,-0.018l-0.101,-0.018l-0.102,-0.017l-0.102,-0.016l-0.102,-0.016l-0.103,-0.014l-0.104,-0.014l-0.104,-0.013l-0.104,-0.013l-0.105,-0.012l-0.106,-0.01l-0.106,-0.011l-0.106,-0.009l-0.107,-0.009l-0.108,-0.008l-0.108,-0.007l-0.108,-0.006l-0.109,-0.006l-0.109,-0.005l-0.11,-0.004l-0.111,-0.003l-0.111,-0.003l-0.111,-0.002l-0.112,-0.001l-0.113,-0.001l-11.851,0Zm11.978,24.857l0.126,0.003l0.124,0.004l0.124,0.006l0.123,0.008l0.121,0.01l0.121,0.011l0.12,0.013l0.12,0.015l0.118,0.016l0.117,0.018l0.117,0.02l0.115,0.022l0.115,0.024l0.113,0.025l0.113,0.027l0.112,0.029l0.111,0.031l0.109,0.033l0.109,0.034l0.108,0.036l0.107,0.038l0.106,0.04l0.105,0.041l0.104,0.044l0.103,0.045l0.102,0.047l0.1,0.048l0.1,0.051l0.099,0.052l0.098,0.054l0.089,0.052l0.081,0.046l0.087,0.05l0.086,0.053l0.085,0.054l0.084,0.056l0.084,0.057l0.082,0.059l0.082,0.061l0.08,0.062l0.08,0.064l0.079,0.065l0.078,0.067l0.077,0.068l0.076,0.07l0.075,0.072l0.074,0.073l0.074,0.074l0.072,0.077l0.072,0.077l0.07,0.079l0.07,0.081l0.069,0.082l0.068,0.084l0.067,0.085l0.066,0.087l0.065,0.088l0.065,0.09l0.063,0.091l0.063,0.092l0.061,0.094l0.061,0.096l0.064,0.103l0.071,0.126l0.065,0.123l0.063,0.124l0.061,0.126l0.059,0.127l0.057,0.129l0.055,0.13l0.052,0.132l0.05,0.133l0.048,0.135l0.046,0.136l0.044,0.137l0.041,0.139l0.039,0.141l0.038,0.142l0.035,0.143l0.032,0.145l0.031,0.146l0.028,0.147l0.027,0.149l0.024,0.15l0.022,0.152l0.02,0.153l0.018,0.155l0.016,0.156l0.013,0.157l0.012,0.158l0.009,0.161l0.007,0.161l0.006,0.163l0.003,0.164l0.001,0.165l-0.001,0.166l-0.003,0.164l-0.006,0.162l-0.007,0.161l-0.009,0.16l-0.012,0.158l-0.013,0.157l-0.016,0.155l-0.018,0.153l-0.02,0.152l-0.022,0.151l-0.024,0.149l-0.027,0.147l-0.028,0.146l-0.031,0.145l-0.033,0.143l-0.035,0.141l-0.037,0.14l-0.04,0.138l-0.041,0.137l-0.044,0.135l-0.046,0.134l-0.048,0.132l-0.05,0.131l-0.053,0.129l-0.055,0.127l-0.057,0.126l-0.059,0.124l-0.061,0.123l-0.064,0.121l-0.066,0.119l-0.068,0.116l-0.056,0.094l-0.057,0.093l-0.059,0.091l-0.059,0.09l-0.061,0.089l-0.062,0.087l-0.063,0.087l-0.064,0.085l-0.065,0.084l-0.067,0.083l-0.067,0.081l-0.069,0.081l-0.069,0.079l-0.071,0.078l-0.072,0.076l-0.073,0.075l-0.074,0.074l-0.075,0.073l-0.077,0.072l-0.077,0.07l-0.079,0.069l-0.079,0.068l-0.081,0.066l-0.082,0.065l-0.083,0.064l-0.084,0.062l-0.085,0.062l-0.086,0.06l-0.087,0.058l-0.088,0.057l-0.089,0.056l-0.091,0.055l-0.092,0.054l-0.095,0.053l-0.095,0.05l-0.097,0.049l-0.097,0.047l-0.099,0.046l-0.1,0.043l-0.101,0.042l-0.102,0.04l-0.104,0.039l-0.104,0.036l-0.106,0.035l-0.106,0.033l-0.108,0.032l-0.108,0.029l-0.11,0.028l-0.111,0.026l-0.112,0.025l-0.113,0.022l-0.113,0.021l-0.115,0.02l-0.116,0.017l-0.117,0.016l-0.118,0.014l-0.119,0.013l-0.12,0.011l-0.121,0.009l-0.122,0.007l-0.123,0.006l-0.124,0.004l-0.125,0.003l-0.125,0l-5.185,0l-0.087,-0.007l-0.084,-0.023l-0.079,-0.037l-0.072,-0.05l-0.061,-0.061l-0.05,-0.072l-0.037,-0.079l-0.023,-0.084l-0.007,-0.087l0,-14.656l0.007,-0.086l0.023,-0.085l0.037,-0.079l0.05,-0.071l0.061,-0.062l0.072,-0.05l0.079,-0.036l0.084,-0.023l0.087,-0.008l5.121,0l0.125,0.001Zm-4.746,0.999l0,13.656l4.682,0l0.115,0l0.111,-0.003l0.111,-0.003l0.109,-0.005l0.108,-0.007l0.106,-0.008l0.106,-0.009l0.104,-0.011l0.103,-0.013l0.101,-0.014l0.101,-0.015l0.099,-0.016l0.098,-0.019l0.097,-0.019l0.095,-0.021l0.095,-0.022l0.093,-0.024l0.092,-0.025l0.091,-0.026l0.089,-0.028l0.089,-0.029l0.087,-0.031l0.086,-0.032l0.085,-0.033l0.084,-0.035l0.082,-0.036l0.082,-0.037l0.08,-0.039l0.08,-0.04l0.078,-0.042l0.077,-0.043l0.076,-0.044l0.077,-0.047l0.076,-0.047l0.075,-0.049l0.073,-0.05l0.073,-0.05l0.072,-0.052l0.071,-0.053l0.071,-0.054l0.069,-0.055l0.068,-0.057l0.067,-0.057l0.067,-0.058l0.065,-0.06l0.065,-0.06l0.064,-0.062l0.063,-0.063l0.062,-0.063l0.061,-0.065l0.06,-0.067l0.059,-0.067l0.059,-0.068l0.057,-0.07l0.057,-0.07l0.056,-0.072l0.054,-0.073l0.054,-0.074l0.054,-0.076l0.052,-0.076l0.051,-0.078l0.051,-0.079l0.05,-0.08l0.048,-0.081l0.059,-0.101l0.056,-0.101l0.054,-0.103l0.053,-0.105l0.05,-0.107l0.049,-0.108l0.048,-0.11l0.045,-0.111l0.044,-0.113l0.041,-0.115l0.04,-0.116l0.039,-0.118l0.036,-0.12l0.035,-0.122l0.032,-0.123l0.031,-0.125l0.03,-0.126l0.027,-0.129l0.025,-0.13l0.024,-0.132l0.022,-0.133l0.02,-0.136l0.018,-0.137l0.016,-0.139l0.014,-0.14l0.012,-0.143l0.011,-0.144l0.008,-0.146l0.007,-0.147l0.005,-0.15l0.003,-0.151l0.001,-0.153l-0.001,-0.152l-0.003,-0.152l-0.005,-0.15l-0.007,-0.148l-0.008,-0.146l-0.011,-0.145l-0.012,-0.143l-0.014,-0.142l-0.016,-0.14l-0.019,-0.138l-0.019,-0.137l-0.022,-0.135l-0.024,-0.134l-0.025,-0.132l-0.028,-0.13l-0.029,-0.129l-0.031,-0.127l-0.033,-0.126l-0.035,-0.124l-0.036,-0.122l-0.038,-0.121l-0.041,-0.12l-0.042,-0.118l-0.044,-0.116l-0.045,-0.115l-0.048,-0.113l-0.049,-0.112l-0.051,-0.11l-0.053,-0.109l-0.055,-0.107l-0.056,-0.106l-0.055,-0.099l-0.049,-0.079l-0.054,-0.084l-0.054,-0.083l-0.055,-0.081l-0.055,-0.079l-0.056,-0.078l-0.056,-0.076l-0.057,-0.075l-0.058,-0.074l-0.058,-0.071l-0.059,-0.071l-0.06,-0.069l-0.06,-0.067l-0.061,-0.066l-0.061,-0.064l-0.062,-0.063l-0.062,-0.061l-0.063,-0.06l-0.064,-0.059l-0.064,-0.057l-0.065,-0.056l-0.065,-0.054l-0.066,-0.052l-0.067,-0.052l-0.067,-0.05l-0.068,-0.048l-0.068,-0.047l-0.07,-0.046l-0.069,-0.045l-0.071,-0.043l-0.071,-0.041l-0.078,-0.044l-0.087,-0.051l-0.081,-0.045l-0.083,-0.043l-0.083,-0.042l-0.084,-0.041l-0.085,-0.039l-0.086,-0.038l-0.087,-0.036l-0.088,-0.035l-0.09,-0.034l-0.09,-0.032l-0.091,-0.03l-0.092,-0.029l-0.093,-0.028l-0.094,-0.026l-0.095,-0.024l-0.097,-0.024l-0.097,-0.021l-0.099,-0.021l-0.099,-0.018l-0.101,-0.018l-0.101,-0.016l-0.103,-0.014l-0.104,-0.013l-0.105,-0.011l-0.106,-0.01l-0.107,-0.008l-0.108,-0.007l-0.11,-0.006l-0.11,-0.003l-0.112,-0.003l-0.114,-0.001l-4.618,0Zm4.707,-20.327l0.086,0.002l0.086,0.003l0.086,0.004l0.085,0.006l0.084,0.007l0.085,0.008l0.084,0.009l0.083,0.01l0.083,0.012l0.082,0.013l0.083,0.015l0.081,0.015l0.081,0.017l0.081,0.018l0.08,0.019l0.08,0.021l0.079,0.022l0.079,0.023l0.078,0.024l0.077,0.026l0.078,0.027l0.076,0.028l0.076,0.03l0.076,0.03l0.075,0.032l0.074,0.034l0.074,0.034l0.073,0.036l0.073,0.037l0.072,0.038l0.072,0.04l0.072,0.041l0.07,0.042l0.07,0.044l0.069,0.045l0.069,0.046l0.067,0.048l0.067,0.048l0.065,0.05l0.065,0.052l0.064,0.052l0.063,0.054l0.062,0.055l0.062,0.056l0.06,0.057l0.059,0.059l0.059,0.06l0.058,0.061l0.056,0.062l0.056,0.063l0.055,0.064l0.054,0.066l0.053,0.067l0.052,0.068l0.052,0.069l0.05,0.07l0.049,0.071l0.049,0.072l0.047,0.074l0.047,0.074l0.046,0.076l0.045,0.077l0.044,0.077l0.059,0.108l0.058,0.111l0.056,0.113l0.054,0.114l0.053,0.115l0.05,0.118l0.049,0.118l0.047,0.121l0.045,0.121l0.044,0.124l0.041,0.125l0.04,0.126l0.038,0.128l0.036,0.13l0.035,0.131l0.032,0.133l0.031,0.134l0.029,0.135l0.028,0.137l0.025,0.139l0.024,0.14l0.022,0.142l0.02,0.143l0.019,0.145l0.017,0.146l0.015,0.148l0.014,0.149l0.012,0.15l0.01,0.153l0.008,0.153l0.007,0.156l0.005,0.163l-0.001,0.168l-0.003,0.159l-0.005,0.159l-0.007,0.157l-0.009,0.155l-0.01,0.154l-0.013,0.152l-0.015,0.151l-0.017,0.149l-0.018,0.148l-0.021,0.146l-0.023,0.145l-0.025,0.143l-0.026,0.142l-0.029,0.14l-0.031,0.139l-0.033,0.137l-0.035,0.136l-0.037,0.134l-0.039,0.133l-0.041,0.131l-0.043,0.129l-0.045,0.128l-0.048,0.127l-0.049,0.125l-0.051,0.123l-0.054,0.122l-0.056,0.12l-0.057,0.119l-0.06,0.116l-0.062,0.116l-0.062,0.109l-0.042,0.075l-0.045,0.077l-0.046,0.076l-0.047,0.074l-0.047,0.074l-0.049,0.072l-0.049,0.071l-0.05,0.07l-0.052,0.069l-0.052,0.068l-0.053,0.067l-0.054,0.066l-0.055,0.064l-0.056,0.063l-0.056,0.062l-0.058,0.061l-0.059,0.06l-0.059,0.059l-0.06,0.057l-0.062,0.056l-0.062,0.055l-0.063,0.054l-0.064,0.052l-0.065,0.051l-0.065,0.05l-0.067,0.049l-0.067,0.048l-0.069,0.046l-0.069,0.045l-0.07,0.044l-0.07,0.042l-0.072,0.041l-0.072,0.04l-0.072,0.038l-0.073,0.037l-0.073,0.036l-0.074,0.034l-0.074,0.033l-0.075,0.032l-0.076,0.031l-0.076,0.03l-0.076,0.028l-0.078,0.027l-0.077,0.025l-0.078,0.025l-0.079,0.023l-0.079,0.022l-0.08,0.021l-0.08,0.019l-0.081,0.018l-0.081,0.017l-0.081,0.015l-0.083,0.015l-0.082,0.013l-0.083,0.011l-0.083,0.011l-0.084,0.009l-0.085,0.008l-0.084,0.007l-0.085,0.006l-0.086,0.004l-0.086,0.003l-0.086,0.002l-0.085,0l-5.122,0l-0.087,-0.007l-0.084,-0.023l-0.079,-0.037l-0.072,-0.05l-0.061,-0.061l-0.05,-0.072l-0.037,-0.079l-0.023,-0.084l-0.007,-0.087l0,-12.8l0.007,-0.086l0.023,-0.085l0.037,-0.079l0.05,-0.071l0.061,-0.062l0.072,-0.05l0.079,-0.036l0.084,-0.023l0.087,-0.008l5.122,0l0.085,0.001Zm-4.707,0.999l0,11.8l4.618,0l0.074,0l0.073,-0.002l0.071,-0.002l0.071,-0.004l0.07,-0.004l0.07,-0.006l0.069,-0.006l0.069,-0.008l0.068,-0.009l0.068,-0.009l0.067,-0.011l0.066,-0.011l0.066,-0.013l0.065,-0.014l0.065,-0.014l0.065,-0.016l0.063,-0.016l0.064,-0.018l0.062,-0.018l0.063,-0.02l0.062,-0.02l0.061,-0.021l0.061,-0.023l0.06,-0.023l0.06,-0.025l0.06,-0.025l0.059,-0.026l0.058,-0.028l0.059,-0.028l0.057,-0.03l0.058,-0.03l0.056,-0.031l0.056,-0.032l0.055,-0.033l0.055,-0.034l0.053,-0.035l0.053,-0.036l0.053,-0.037l0.051,-0.038l0.051,-0.039l0.051,-0.04l0.05,-0.04l0.049,-0.042l0.048,-0.043l0.048,-0.044l0.048,-0.045l0.046,-0.046l0.047,-0.047l0.045,-0.049l0.045,-0.049l0.045,-0.05l0.043,-0.052l0.044,-0.052l0.042,-0.054l0.042,-0.055l0.042,-0.055l0.041,-0.057l0.04,-0.059l0.04,-0.059l0.039,-0.06l0.039,-0.062l0.038,-0.062l0.037,-0.064l0.038,-0.068l0.057,-0.1l0.052,-0.098l0.051,-0.099l0.049,-0.101l0.048,-0.103l0.045,-0.104l0.045,-0.106l0.042,-0.107l0.041,-0.109l0.039,-0.111l0.038,-0.113l0.035,-0.114l0.034,-0.116l0.033,-0.117l0.031,-0.12l0.029,-0.121l0.027,-0.123l0.025,-0.124l0.024,-0.127l0.022,-0.128l0.021,-0.13l0.018,-0.131l0.017,-0.134l0.016,-0.135l0.013,-0.137l0.012,-0.138l0.009,-0.14l0.008,-0.143l0.007,-0.143l0.004,-0.146l0.003,-0.147l0.001,-0.143l-0.005,-0.139l-0.006,-0.144l-0.008,-0.142l-0.009,-0.141l-0.011,-0.138l-0.012,-0.137l-0.014,-0.135l-0.016,-0.134l-0.017,-0.132l-0.018,-0.13l-0.02,-0.128l-0.022,-0.126l-0.023,-0.125l-0.024,-0.123l-0.026,-0.121l-0.028,-0.12l-0.029,-0.117l-0.03,-0.117l-0.032,-0.114l-0.033,-0.112l-0.035,-0.111l-0.037,-0.109l-0.037,-0.108l-0.04,-0.106l-0.04,-0.104l-0.042,-0.102l-0.044,-0.101l-0.045,-0.099l-0.046,-0.097l-0.048,-0.096l-0.049,-0.094l-0.051,-0.093l-0.037,-0.066l-0.037,-0.064l-0.038,-0.062l-0.039,-0.062l-0.039,-0.06l-0.04,-0.06l-0.04,-0.058l-0.041,-0.057l-0.042,-0.056l-0.042,-0.054l-0.042,-0.054l-0.044,-0.053l-0.043,-0.051l-0.045,-0.05l-0.045,-0.05l-0.045,-0.048l-0.047,-0.047l-0.046,-0.046l-0.048,-0.045l-0.048,-0.044l-0.048,-0.043l-0.049,-0.042l-0.05,-0.041l-0.051,-0.039l-0.051,-0.039l-0.051,-0.038l-0.053,-0.037l-0.053,-0.036l-0.053,-0.035l-0.055,-0.034l-0.055,-0.033l-0.056,-0.032l-0.056,-0.031l-0.058,-0.031l-0.057,-0.029l-0.059,-0.028l-0.058,-0.028l-0.059,-0.026l-0.06,-0.025l-0.06,-0.025l-0.06,-0.023l-0.061,-0.023l-0.061,-0.021l-0.062,-0.021l-0.063,-0.019l-0.062,-0.018l-0.064,-0.018l-0.063,-0.016l-0.065,-0.016l-0.065,-0.015l-0.065,-0.013l-0.066,-0.013l-0.066,-0.011l-0.067,-0.011l-0.068,-0.009l-0.068,-0.009l-0.069,-0.008l-0.069,-0.006l-0.07,-0.006l-0.07,-0.004l-0.071,-0.004l-0.071,-0.002l-0.073,-0.002l-0.074,-0.001l-4.618,0Z" style="fill:#d4d7de;"/><path d="M303.06,155.623l0.094,0.029l0.087,0.046l0.075,0.062l0.063,0.076l0.046,0.086l0.028,0.094l0.01,0.097l0,26.892l6.604,0l0.097,0.01l0.094,0.029l0.087,0.046l0.075,0.062l0.063,0.076l0.046,0.086l0.028,0.094l0.01,0.097l0,6.528l-0.01,0.098l-0.028,0.094l-0.046,0.086l-0.063,0.076l-0.075,0.062l-0.087,0.046l-0.094,0.029l-0.097,0.009l-22.4,0l-0.098,-0.009l-0.094,-0.029l-0.086,-0.046l-0.076,-0.062l-0.062,-0.076l-0.046,-0.086l-0.029,-0.094l-0.009,-0.098l0,-6.528l0.009,-0.097l0.029,-0.094l0.046,-0.086l0.062,-0.076l0.076,-0.062l0.086,-0.046l0.094,-0.029l0.098,-0.01l7.5,0l0,-19.864l-6.604,0l-0.098,-0.009l-0.094,-0.029l-0.086,-0.046l-0.076,-0.062l-0.062,-0.076l-0.046,-0.086l-0.029,-0.094l-0.009,-0.098l0,-6.528l0.009,-0.097l0.029,-0.094l0.046,-0.086l0.062,-0.076l0.076,-0.062l0.086,-0.046l0.094,-0.029l0.098,-0.01l14.4,0l0.097,0.01Zm-13.997,0.99l0,5.528l6.604,0l0.097,0.01l0.094,0.029l0.087,0.046l0.075,0.062l0.063,0.076l0.046,0.086l0.028,0.094l0.01,0.097l0,20.864l-0.01,0.098l-0.028,0.094l-0.046,0.086l-0.063,0.076l-0.075,0.062l-0.087,0.046l-0.094,0.029l-0.097,0.009l-7.5,0l0,5.528l21.4,0l0,-5.528l-6.604,0l-0.098,-0.009l-0.094,-0.029l-0.086,-0.046l-0.076,-0.062l-0.062,-0.076l-0.046,-0.086l-0.029,-0.094l-0.009,-0.098l0,-26.892l-13.4,0Zm9.906,-15.783l0.102,0.002l0.1,0.003l0.101,0.005l0.099,0.006l0.099,0.008l0.098,0.008l0.098,0.011l0.097,0.011l0.096,0.013l0.096,0.014l0.095,0.016l0.094,0.017l0.094,0.018l0.092,0.02l0.093,0.021l0.091,0.023l0.091,0.024l0.09,0.025l0.089,0.027l0.089,0.028l0.088,0.029l0.087,0.031l0.086,0.033l0.086,0.034l0.085,0.035l0.084,0.036l0.083,0.038l0.083,0.04l0.082,0.041l0.08,0.042l0.088,0.047l0.073,0.045l0.065,0.041l0.065,0.042l0.063,0.043l0.063,0.044l0.062,0.044l0.061,0.045l0.061,0.047l0.059,0.047l0.059,0.048l0.058,0.049l0.058,0.05l0.056,0.05l0.056,0.051l0.054,0.053l0.054,0.053l0.053,0.054l0.053,0.055l0.051,0.055l0.051,0.057l0.049,0.057l0.049,0.058l0.048,0.059l0.047,0.059l0.047,0.061l0.045,0.061l0.045,0.062l0.043,0.063l0.043,0.064l0.042,0.064l0.041,0.065l0.045,0.074l0.047,0.087l0.043,0.081l0.04,0.081l0.04,0.083l0.038,0.083l0.037,0.084l0.035,0.085l0.033,0.086l0.033,0.086l0.031,0.087l0.029,0.088l0.029,0.089l0.026,0.089l0.026,0.09l0.024,0.091l0.022,0.092l0.021,0.092l0.02,0.093l0.019,0.093l0.017,0.094l0.015,0.095l0.014,0.096l0.013,0.096l0.012,0.097l0.01,0.098l0.009,0.098l0.007,0.099l0.006,0.1l0.005,0.1l0.003,0.101l0.002,0.101l0.001,0.102l-0.001,0.103l-0.002,0.101l-0.003,0.101l-0.005,0.1l-0.006,0.1l-0.007,0.099l-0.009,0.098l-0.01,0.098l-0.012,0.097l-0.013,0.096l-0.014,0.095l-0.015,0.095l-0.017,0.095l-0.019,0.093l-0.02,0.093l-0.021,0.092l-0.022,0.092l-0.024,0.091l-0.026,0.09l-0.026,0.089l-0.029,0.089l-0.029,0.087l-0.031,0.088l-0.033,0.086l-0.033,0.086l-0.035,0.084l-0.037,0.085l-0.038,0.083l-0.04,0.082l-0.04,0.082l-0.043,0.081l-0.047,0.087l-0.045,0.074l-0.041,0.065l-0.042,0.064l-0.043,0.064l-0.043,0.063l-0.045,0.062l-0.045,0.061l-0.047,0.06l-0.047,0.06l-0.048,0.059l-0.049,0.058l-0.049,0.057l-0.051,0.057l-0.051,0.055l-0.053,0.055l-0.053,0.054l-0.054,0.053l-0.054,0.052l-0.056,0.052l-0.056,0.05l-0.058,0.05l-0.058,0.049l-0.059,0.048l-0.059,0.047l-0.061,0.046l-0.061,0.046l-0.062,0.044l-0.063,0.044l-0.063,0.043l-0.065,0.042l-0.065,0.041l-0.073,0.045l-0.088,0.047l-0.08,0.042l-0.082,0.041l-0.083,0.04l-0.083,0.038l-0.084,0.036l-0.085,0.035l-0.086,0.034l-0.086,0.033l-0.087,0.031l-0.088,0.029l-0.089,0.028l-0.089,0.027l-0.09,0.025l-0.091,0.024l-0.091,0.023l-0.093,0.021l-0.092,0.02l-0.094,0.018l-0.094,0.017l-0.095,0.016l-0.096,0.014l-0.096,0.013l-0.097,0.011l-0.098,0.011l-0.098,0.008l-0.099,0.008l-0.099,0.006l-0.101,0.004l-0.1,0.004l-0.102,0.002l-0.102,0l-0.102,0l-0.102,-0.002l-0.101,-0.004l-0.1,-0.004l-0.1,-0.006l-0.099,-0.008l-0.098,-0.008l-0.097,-0.011l-0.097,-0.011l-0.097,-0.013l-0.095,-0.014l-0.095,-0.016l-0.094,-0.017l-0.094,-0.018l-0.093,-0.02l-0.092,-0.021l-0.092,-0.023l-0.09,-0.024l-0.09,-0.025l-0.09,-0.027l-0.088,-0.028l-0.088,-0.029l-0.087,-0.031l-0.087,-0.033l-0.085,-0.034l-0.085,-0.035l-0.084,-0.036l-0.084,-0.038l-0.082,-0.04l-0.082,-0.041l-0.081,-0.042l-0.087,-0.047l-0.073,-0.045l-0.066,-0.041l-0.064,-0.042l-0.064,-0.043l-0.062,-0.044l-0.062,-0.044l-0.062,-0.046l-0.06,-0.046l-0.06,-0.047l-0.059,-0.048l-0.058,-0.049l-0.057,-0.05l-0.057,-0.05l-0.055,-0.052l-0.055,-0.052l-0.054,-0.053l-0.053,-0.054l-0.052,-0.055l-0.052,-0.055l-0.05,-0.057l-0.05,-0.057l-0.049,-0.058l-0.048,-0.059l-0.047,-0.06l-0.046,-0.06l-0.046,-0.061l-0.044,-0.062l-0.044,-0.063l-0.043,-0.064l-0.042,-0.064l-0.041,-0.065l-0.044,-0.074l-0.048,-0.087l-0.042,-0.081l-0.041,-0.082l-0.039,-0.082l-0.038,-0.083l-0.037,-0.085l-0.035,-0.084l-0.034,-0.086l-0.032,-0.086l-0.031,-0.088l-0.03,-0.087l-0.028,-0.089l-0.027,-0.089l-0.025,-0.09l-0.024,-0.091l-0.023,-0.092l-0.021,-0.092l-0.02,-0.093l-0.018,-0.093l-0.017,-0.095l-0.016,-0.094l-0.014,-0.096l-0.013,-0.096l-0.011,-0.097l-0.01,-0.098l-0.009,-0.098l-0.007,-0.099l-0.006,-0.1l-0.005,-0.1l-0.004,-0.101l-0.002,-0.101l0,-0.103l0,-0.102l0.002,-0.101l0.004,-0.101l0.005,-0.1l0.006,-0.1l0.007,-0.099l0.009,-0.098l0.01,-0.098l0.011,-0.097l0.013,-0.096l0.014,-0.096l0.016,-0.095l0.017,-0.094l0.018,-0.093l0.02,-0.093l0.021,-0.092l0.023,-0.092l0.024,-0.091l0.025,-0.09l0.027,-0.089l0.028,-0.089l0.03,-0.088l0.031,-0.087l0.032,-0.086l0.034,-0.086l0.035,-0.085l0.037,-0.084l0.038,-0.083l0.039,-0.083l0.041,-0.081l0.042,-0.081l0.047,-0.087l0.045,-0.074l0.041,-0.065l0.042,-0.064l0.043,-0.064l0.044,-0.063l0.044,-0.062l0.046,-0.061l0.046,-0.061l0.047,-0.059l0.048,-0.059l0.049,-0.058l0.05,-0.057l0.05,-0.057l0.052,-0.055l0.052,-0.055l0.053,-0.054l0.054,-0.053l0.055,-0.052l0.056,-0.052l0.056,-0.05l0.057,-0.05l0.058,-0.049l0.059,-0.048l0.06,-0.047l0.06,-0.047l0.062,-0.045l0.062,-0.044l0.062,-0.044l0.064,-0.043l0.064,-0.042l0.066,-0.041l0.073,-0.045l0.087,-0.047l0.081,-0.042l0.082,-0.041l0.082,-0.04l0.084,-0.038l0.084,-0.036l0.085,-0.035l0.085,-0.034l0.087,-0.033l0.087,-0.031l0.088,-0.029l0.088,-0.028l0.09,-0.027l0.09,-0.025l0.091,-0.024l0.091,-0.023l0.092,-0.021l0.093,-0.02l0.094,-0.018l0.094,-0.017l0.095,-0.016l0.095,-0.014l0.097,-0.013l0.097,-0.011l0.097,-0.011l0.098,-0.008l0.099,-0.008l0.1,-0.006l0.1,-0.005l0.101,-0.003l0.102,-0.002l0.102,-0.001l0.102,0.001Zm-0.191,1l-0.088,0.002l-0.088,0.003l-0.086,0.004l-0.086,0.005l-0.085,0.006l-0.084,0.008l-0.083,0.008l-0.082,0.01l-0.082,0.011l-0.08,0.012l-0.08,0.013l-0.079,0.014l-0.078,0.016l-0.078,0.016l-0.076,0.018l-0.076,0.019l-0.075,0.019l-0.074,0.021l-0.074,0.022l-0.072,0.023l-0.072,0.025l-0.071,0.025l-0.071,0.026l-0.069,0.028l-0.069,0.028l-0.068,0.03l-0.068,0.031l-0.066,0.031l-0.066,0.033l-0.066,0.034l-0.057,0.032l-0.046,0.028l-0.053,0.033l-0.052,0.034l-0.051,0.034l-0.05,0.035l-0.05,0.036l-0.049,0.036l-0.048,0.037l-0.048,0.038l-0.047,0.038l-0.046,0.039l-0.045,0.039l-0.045,0.041l-0.044,0.04l-0.044,0.042l-0.043,0.042l-0.042,0.043l-0.041,0.043l-0.041,0.044l-0.04,0.045l-0.04,0.046l-0.039,0.046l-0.038,0.047l-0.038,0.047l-0.036,0.049l-0.037,0.049l-0.036,0.049l-0.035,0.051l-0.034,0.051l-0.034,0.052l-0.033,0.052l-0.028,0.046l-0.031,0.058l-0.034,0.065l-0.033,0.066l-0.032,0.067l-0.031,0.067l-0.03,0.068l-0.028,0.069l-0.028,0.07l-0.026,0.07l-0.025,0.071l-0.024,0.072l-0.023,0.073l-0.022,0.073l-0.021,0.075l-0.02,0.075l-0.019,0.075l-0.017,0.077l-0.017,0.077l-0.015,0.078l-0.014,0.079l-0.014,0.08l-0.012,0.081l-0.01,0.081l-0.01,0.083l-0.009,0.083l-0.007,0.084l-0.007,0.085l-0.005,0.085l-0.004,0.087l-0.003,0.087l-0.002,0.088l0,0.089l0,0.089l0.002,0.089l0.003,0.087l0.004,0.087l0.005,0.085l0.007,0.085l0.007,0.084l0.009,0.083l0.01,0.083l0.01,0.081l0.012,0.081l0.014,0.079l0.014,0.08l0.015,0.078l0.017,0.077l0.017,0.077l0.019,0.075l0.02,0.075l0.021,0.075l0.022,0.073l0.023,0.073l0.024,0.071l0.025,0.072l0.027,0.07l0.027,0.07l0.028,0.068l0.03,0.069l0.031,0.067l0.032,0.067l0.033,0.066l0.034,0.065l0.031,0.058l0.028,0.046l0.033,0.052l0.034,0.052l0.034,0.051l0.035,0.05l0.036,0.05l0.036,0.049l0.037,0.048l0.038,0.048l0.038,0.047l0.039,0.046l0.04,0.046l0.04,0.044l0.041,0.045l0.041,0.043l0.042,0.043l0.043,0.042l0.044,0.042l0.044,0.04l0.045,0.041l0.045,0.039l0.046,0.039l0.047,0.038l0.048,0.038l0.048,0.037l0.049,0.036l0.05,0.036l0.05,0.035l0.051,0.034l0.052,0.034l0.053,0.033l0.046,0.028l0.057,0.031l0.066,0.035l0.066,0.033l0.066,0.031l0.068,0.031l0.068,0.03l0.069,0.028l0.069,0.028l0.071,0.026l0.071,0.025l0.072,0.025l0.072,0.023l0.074,0.022l0.074,0.021l0.075,0.019l0.076,0.019l0.076,0.018l0.078,0.016l0.078,0.015l0.079,0.015l0.08,0.013l0.08,0.012l0.082,0.011l0.082,0.009l0.083,0.009l0.084,0.008l0.085,0.006l0.086,0.005l0.086,0.004l0.088,0.003l0.088,0.002l0.089,0l0.089,0l0.088,-0.002l0.087,-0.003l0.087,-0.004l0.086,-0.005l0.084,-0.006l0.084,-0.008l0.084,-0.009l0.082,-0.009l0.081,-0.011l0.081,-0.012l0.08,-0.013l0.079,-0.015l0.078,-0.015l0.077,-0.016l0.077,-0.018l0.076,-0.019l0.075,-0.019l0.074,-0.021l0.073,-0.022l0.073,-0.023l0.072,-0.025l0.071,-0.025l0.07,-0.026l0.07,-0.028l0.069,-0.028l0.068,-0.03l0.067,-0.031l0.067,-0.031l0.066,-0.033l0.065,-0.035l0.058,-0.031l0.046,-0.028l0.052,-0.033l0.052,-0.034l0.051,-0.034l0.051,-0.035l0.05,-0.036l0.049,-0.036l0.048,-0.037l0.047,-0.038l0.047,-0.038l0.046,-0.039l0.046,-0.039l0.045,-0.041l0.044,-0.041l0.043,-0.041l0.043,-0.042l0.042,-0.043l0.042,-0.043l0.041,-0.045l0.04,-0.044l0.039,-0.046l0.039,-0.046l0.039,-0.047l0.037,-0.048l0.037,-0.048l0.036,-0.049l0.036,-0.05l0.035,-0.05l0.035,-0.051l0.033,-0.052l0.033,-0.052l0.029,-0.046l0.031,-0.058l0.034,-0.065l0.033,-0.066l0.032,-0.067l0.03,-0.067l0.03,-0.069l0.029,-0.068l0.027,-0.07l0.026,-0.07l0.026,-0.072l0.024,-0.071l0.023,-0.073l0.022,-0.073l0.021,-0.075l0.02,-0.075l0.018,-0.075l0.018,-0.077l0.016,-0.077l0.016,-0.079l0.014,-0.079l0.013,-0.079l0.012,-0.081l0.011,-0.081l0.01,-0.083l0.008,-0.083l0.008,-0.084l0.006,-0.085l0.006,-0.085l0.004,-0.087l0.002,-0.087l0.002,-0.088l0.001,-0.09l-0.001,-0.089l-0.002,-0.088l-0.002,-0.087l-0.004,-0.087l-0.006,-0.085l-0.006,-0.085l-0.008,-0.084l-0.008,-0.083l-0.01,-0.083l-0.011,-0.081l-0.012,-0.081l-0.013,-0.08l-0.014,-0.079l-0.016,-0.078l-0.016,-0.077l-0.018,-0.077l-0.018,-0.076l-0.02,-0.074l-0.021,-0.075l-0.022,-0.073l-0.023,-0.073l-0.024,-0.072l-0.026,-0.071l-0.026,-0.07l-0.027,-0.07l-0.029,-0.069l-0.03,-0.068l-0.03,-0.067l-0.032,-0.067l-0.033,-0.066l-0.034,-0.065l-0.032,-0.058l-0.028,-0.046l-0.033,-0.052l-0.033,-0.052l-0.035,-0.051l-0.035,-0.051l-0.036,-0.049l-0.036,-0.049l-0.037,-0.049l-0.037,-0.047l-0.039,-0.047l-0.039,-0.046l-0.039,-0.046l-0.04,-0.045l-0.041,-0.044l-0.042,-0.043l-0.042,-0.043l-0.043,-0.042l-0.043,-0.042l-0.044,-0.04l-0.045,-0.041l-0.046,-0.039l-0.046,-0.039l-0.047,-0.038l-0.047,-0.038l-0.048,-0.037l-0.049,-0.036l-0.05,-0.036l-0.051,-0.035l-0.051,-0.034l-0.052,-0.034l-0.052,-0.033l-0.046,-0.028l-0.058,-0.032l-0.065,-0.034l-0.066,-0.033l-0.067,-0.031l-0.067,-0.031l-0.068,-0.03l-0.069,-0.028l-0.07,-0.028l-0.07,-0.026l-0.071,-0.025l-0.072,-0.025l-0.073,-0.023l-0.073,-0.022l-0.074,-0.021l-0.075,-0.019l-0.076,-0.019l-0.077,-0.018l-0.077,-0.016l-0.078,-0.016l-0.079,-0.014l-0.08,-0.013l-0.081,-0.012l-0.081,-0.011l-0.082,-0.01l-0.084,-0.008l-0.084,-0.008l-0.084,-0.006l-0.086,-0.005l-0.087,-0.004l-0.087,-0.003l-0.088,-0.002l-0.089,-0.001l-0.089,0.001Z" style="fill:#d4d7de;"/><path d="M331.402,142.501l0.084,0.023l0.079,0.036l0.071,0.05l0.062,0.062l0.05,0.071l0.037,0.079l0.022,0.085l0.008,0.086l0,12.62l8.588,0l0.087,0.008l0.084,0.023l0.079,0.036l0.071,0.05l0.062,0.062l0.05,0.071l0.037,0.079l0.022,0.085l0.008,0.086l0,6.528l-0.008,0.087l-0.022,0.084l-0.037,0.079l-0.05,0.072l-0.062,0.061l-0.071,0.05l-0.079,0.037l-0.084,0.023l-0.087,0.007l-8.588,0l0,13.52l-0.003,0.211l0,0.202l0.002,0.199l0.005,0.197l0.007,0.193l0.009,0.191l0.012,0.188l0.014,0.186l0.017,0.182l0.019,0.18l0.021,0.177l0.024,0.174l0.026,0.172l0.028,0.168l0.031,0.166l0.033,0.164l0.017,0.079l0.018,0.08l0.019,0.079l0.019,0.078l0.02,0.078l0.02,0.077l0.021,0.076l0.021,0.076l0.022,0.075l0.023,0.074l0.023,0.073l0.024,0.073l0.024,0.072l0.025,0.072l0.025,0.07l0.026,0.071l0.026,0.069l0.027,0.069l0.028,0.068l0.028,0.067l0.029,0.067l0.029,0.065l0.03,0.066l0.03,0.064l0.031,0.064l0.032,0.064l0.032,0.062l0.032,0.062l0.033,0.061l0.034,0.061l0.034,0.06l0.038,0.064l0.035,0.063l0.034,0.056l0.033,0.055l0.035,0.054l0.034,0.054l0.035,0.052l0.036,0.051l0.036,0.05l0.037,0.049l0.037,0.048l0.037,0.047l0.038,0.047l0.039,0.045l0.039,0.044l0.039,0.043l0.04,0.042l0.04,0.042l0.041,0.04l0.041,0.04l0.042,0.038l0.042,0.038l0.043,0.036l0.043,0.036l0.043,0.035l0.045,0.034l0.044,0.033l0.045,0.032l0.046,0.032l0.046,0.03l0.047,0.03l0.047,0.028l0.052,0.031l0.037,0.021l0.032,0.019l0.033,0.017l0.033,0.017l0.034,0.017l0.034,0.016l0.035,0.015l0.035,0.015l0.036,0.014l0.036,0.013l0.037,0.014l0.037,0.012l0.038,0.012l0.038,0.011l0.039,0.011l0.039,0.01l0.04,0.01l0.041,0.009l0.041,0.008l0.041,0.008l0.043,0.008l0.043,0.006l0.043,0.006l0.044,0.006l0.045,0.005l0.045,0.004l0.046,0.003l0.047,0.003l0.047,0.003l0.047,0.001l0.049,0.001l0.049,0l0.049,0l0.048,-0.001l0.049,-0.002l0.047,-0.002l0.048,-0.003l0.046,-0.003l0.047,-0.005l0.046,-0.004l0.045,-0.006l0.045,-0.006l0.045,-0.007l0.044,-0.007l0.044,-0.008l0.043,-0.009l0.043,-0.009l0.042,-0.01l0.042,-0.01l0.042,-0.011l0.041,-0.012l0.041,-0.012l0.041,-0.013l0.04,-0.014l0.04,-0.014l0.039,-0.014l0.039,-0.016l0.039,-0.016l0.038,-0.016l0.038,-0.018l0.038,-0.017l0.037,-0.019l0.037,-0.019l0.033,-0.017l0.043,-0.025l0.046,-0.029l0.046,-0.029l0.046,-0.031l0.046,-0.032l0.045,-0.033l0.045,-0.034l0.045,-0.035l0.044,-0.037l0.044,-0.038l0.044,-0.039l0.043,-0.04l0.044,-0.041l0.042,-0.043l0.043,-0.044l0.042,-0.045l0.042,-0.046l0.042,-0.048l0.042,-0.048l0.041,-0.051l0.04,-0.051l0.041,-0.053l0.04,-0.054l0.04,-0.055l0.04,-0.057l0.039,-0.057l0.039,-0.06l0.038,-0.06l0.038,-0.062l0.038,-0.063l0.038,-0.065l0.039,-0.069l0.054,-0.095l0.05,-0.091l0.049,-0.092l0.047,-0.093l0.046,-0.095l0.045,-0.097l0.044,-0.097l0.043,-0.099l0.041,-0.101l0.04,-0.102l0.039,-0.103l0.038,-0.105l0.036,-0.106l0.036,-0.108l0.034,-0.109l0.032,-0.111l0.032,-0.112l0.03,-0.114l0.029,-0.115l0.028,-0.116l0.026,-0.118l0.025,-0.119l0.024,-0.121l0.023,-0.122l0.021,-0.124l0.02,-0.125l0.019,-0.127l0.017,-0.128l0.016,-0.13l0.015,-0.131l0.013,-0.132l0.013,-0.137l0.018,-0.095l0.036,-0.09l0.053,-0.081l0.068,-0.07l0.079,-0.055l0.089,-0.039l0.095,-0.021l0.097,-0.002l0.095,0.016l6.976,1.92l0.086,0.033l0.078,0.047l0.068,0.06l0.056,0.072l0.043,0.081l0.026,0.087l0.011,0.091l-0.007,0.091l-0.029,0.182l-0.031,0.183l-0.034,0.182l-0.035,0.181l-0.037,0.179l-0.039,0.178l-0.04,0.177l-0.043,0.175l-0.044,0.174l-0.046,0.173l-0.048,0.171l-0.05,0.17l-0.052,0.169l-0.053,0.167l-0.056,0.166l-0.057,0.164l-0.059,0.164l-0.061,0.162l-0.063,0.16l-0.064,0.159l-0.066,0.158l-0.069,0.157l-0.07,0.155l-0.072,0.153l-0.074,0.153l-0.075,0.151l-0.078,0.149l-0.079,0.148l-0.081,0.147l-0.083,0.146l-0.085,0.144l-0.081,0.133l-0.092,0.16l-0.098,0.167l-0.101,0.165l-0.102,0.162l-0.105,0.159l-0.106,0.157l-0.108,0.155l-0.111,0.152l-0.112,0.15l-0.114,0.147l-0.116,0.145l-0.119,0.143l-0.12,0.139l-0.122,0.138l-0.124,0.135l-0.125,0.131l-0.065,0.067l-0.064,0.064l-0.065,0.064l-0.065,0.064l-0.066,0.062l-0.066,0.062l-0.066,0.062l-0.067,0.061l-0.068,0.06l-0.068,0.06l-0.069,0.059l-0.069,0.058l-0.069,0.058l-0.071,0.057l-0.07,0.056l-0.071,0.056l-0.072,0.055l-0.071,0.055l-0.073,0.053l-0.073,0.054l-0.073,0.052l-0.074,0.052l-0.074,0.052l-0.075,0.05l-0.075,0.05l-0.076,0.05l-0.076,0.048l-0.077,0.048l-0.077,0.048l-0.078,0.047l-0.078,0.046l-0.079,0.045l-0.079,0.045l-0.079,0.044l-0.08,0.044l-0.08,0.042l-0.08,0.042l-0.081,0.042l-0.082,0.04l-0.081,0.04l-0.082,0.039l-0.083,0.039l-0.082,0.038l-0.084,0.037l-0.083,0.036l-0.084,0.036l-0.084,0.035l-0.085,0.034l-0.085,0.033l-0.085,0.033l-0.086,0.032l-0.086,0.032l-0.086,0.03l-0.087,0.03l-0.087,0.029l-0.089,0.029l-0.175,0.055l-0.177,0.052l-0.179,0.049l-0.181,0.047l-0.181,0.043l-0.183,0.041l-0.185,0.038l-0.186,0.035l-0.187,0.032l-0.189,0.03l-0.19,0.026l-0.191,0.024l-0.193,0.021l-0.194,0.018l-0.196,0.016l-0.197,0.012l-0.198,0.01l-0.199,0.007l-0.201,0.004l-0.202,0.001l-0.206,-0.001l-0.205,-0.004l-0.203,-0.007l-0.201,-0.01l-0.2,-0.012l-0.198,-0.016l-0.197,-0.018l-0.195,-0.021l-0.194,-0.024l-0.192,-0.026l-0.191,-0.03l-0.189,-0.032l-0.188,-0.035l-0.186,-0.038l-0.184,-0.041l-0.182,-0.043l-0.092,-0.023l-0.09,-0.024l-0.091,-0.024l-0.089,-0.025l-0.09,-0.026l-0.088,-0.026l-0.089,-0.027l-0.088,-0.028l-0.088,-0.029l-0.087,-0.029l-0.087,-0.03l-0.086,-0.03l-0.086,-0.032l-0.086,-0.032l-0.085,-0.033l-0.085,-0.033l-0.085,-0.035l-0.084,-0.035l-0.083,-0.035l-0.083,-0.037l-0.083,-0.037l-0.083,-0.038l-0.082,-0.038l-0.081,-0.04l-0.081,-0.04l-0.081,-0.04l-0.08,-0.042l-0.08,-0.042l-0.08,-0.042l-0.079,-0.044l-0.078,-0.044l-0.079,-0.046l-0.154,-0.091l-0.152,-0.093l-0.151,-0.097l-0.149,-0.098l-0.148,-0.101l-0.146,-0.104l-0.144,-0.106l-0.142,-0.108l-0.141,-0.111l-0.139,-0.113l-0.137,-0.116l-0.136,-0.118l-0.133,-0.12l-0.132,-0.123l-0.131,-0.125l-0.128,-0.127l-0.127,-0.13l-0.125,-0.133l-0.123,-0.134l-0.122,-0.137l-0.12,-0.139l-0.118,-0.142l-0.116,-0.144l-0.114,-0.146l-0.113,-0.149l-0.111,-0.151l-0.109,-0.153l-0.108,-0.156l-0.105,-0.158l-0.104,-0.16l-0.103,-0.162l-0.102,-0.169l-0.067,-0.117l-0.063,-0.114l-0.062,-0.114l-0.061,-0.115l-0.06,-0.117l-0.058,-0.116l-0.058,-0.118l-0.057,-0.118l-0.056,-0.12l-0.055,-0.12l-0.053,-0.121l-0.053,-0.121l-0.052,-0.123l-0.051,-0.123l-0.049,-0.124l-0.049,-0.125l-0.048,-0.126l-0.046,-0.126l-0.046,-0.128l-0.044,-0.128l-0.044,-0.129l-0.043,-0.129l-0.041,-0.131l-0.041,-0.131l-0.039,-0.132l-0.039,-0.133l-0.037,-0.134l-0.037,-0.134l-0.035,-0.135l-0.034,-0.136l-0.034,-0.137l-0.032,-0.138l-0.032,-0.138l-0.03,-0.139l-0.03,-0.14l-0.028,-0.141l-0.027,-0.142l-0.027,-0.142l-0.025,-0.143l-0.025,-0.144l-0.023,-0.145l-0.022,-0.145l-0.022,-0.146l-0.02,-0.147l-0.019,-0.148l-0.019,-0.149l-0.017,-0.149l-0.016,-0.15l-0.016,-0.151l-0.014,-0.152l-0.014,-0.152l-0.012,-0.153l-0.011,-0.155l-0.011,-0.154l-0.009,-0.156l-0.009,-0.156l-0.007,-0.158l-0.006,-0.157l-0.006,-0.159l-0.004,-0.16l-0.004,-0.16l-0.002,-0.161l-0.002,-0.162l0,-0.162l0,-13.517l-5.516,0l-0.087,-0.007l-0.084,-0.023l-0.079,-0.037l-0.072,-0.05l-0.061,-0.061l-0.05,-0.072l-0.037,-0.079l-0.023,-0.084l-0.007,-0.087l0,-6.528l0.007,-0.086l0.023,-0.085l0.037,-0.079l0.05,-0.071l0.061,-0.062l0.072,-0.05l0.079,-0.036l0.084,-0.023l0.087,-0.008l5.516,0l0,-12.62l0.007,-0.086l0.023,-0.085l0.037,-0.079l0.05,-0.071l0.061,-0.062l0.072,-0.05l0.079,-0.036l0.084,-0.023l0.087,-0.008l7.296,0l0.087,0.008Zm-6.883,0.992l0,12.62l-0.008,0.087l-0.022,0.084l-0.037,0.079l-0.05,0.072l-0.062,0.061l-0.071,0.05l-0.079,0.037l-0.084,0.023l-0.087,0.007l-5.516,0l0,5.528l5.516,0l0.087,0.008l0.084,0.023l0.079,0.036l0.071,0.05l0.062,0.062l0.05,0.071l0.037,0.079l0.022,0.085l0.008,0.086l0,14.016l0,0.157l0.002,0.156l0.002,0.155l0.003,0.154l0.005,0.153l0.005,0.152l0.006,0.152l0.007,0.15l0.008,0.15l0.009,0.149l0.01,0.148l0.011,0.147l0.012,0.147l0.013,0.145l0.013,0.145l0.015,0.144l0.016,0.143l0.016,0.142l0.018,0.142l0.018,0.14l0.019,0.14l0.021,0.139l0.021,0.138l0.022,0.137l0.023,0.136l0.024,0.136l0.025,0.134l0.026,0.134l0.027,0.133l0.028,0.132l0.028,0.131l0.03,0.131l0.03,0.129l0.032,0.129l0.032,0.128l0.034,0.127l0.034,0.126l0.035,0.126l0.036,0.124l0.037,0.124l0.038,0.123l0.039,0.122l0.04,0.121l0.04,0.121l0.042,0.119l0.043,0.119l0.043,0.118l0.045,0.117l0.045,0.116l0.046,0.116l0.047,0.114l0.048,0.114l0.049,0.113l0.05,0.112l0.051,0.112l0.052,0.11l0.052,0.11l0.054,0.109l0.054,0.108l0.056,0.107l0.056,0.107l0.057,0.106l0.058,0.104l0.057,0.1l0.091,0.149l0.094,0.151l0.097,0.148l0.097,0.146l0.099,0.143l0.101,0.142l0.102,0.139l0.104,0.136l0.105,0.135l0.107,0.132l0.108,0.13l0.109,0.127l0.111,0.125l0.113,0.123l0.114,0.121l0.116,0.118l0.117,0.117l0.118,0.113l0.121,0.112l0.121,0.11l0.123,0.107l0.125,0.105l0.126,0.103l0.128,0.1l0.129,0.098l0.131,0.097l0.132,0.093l0.134,0.092l0.135,0.09l0.137,0.087l0.139,0.085l0.141,0.084l0.069,0.04l0.071,0.039l0.071,0.039l0.071,0.039l0.072,0.038l0.072,0.037l0.073,0.036l0.073,0.036l0.073,0.036l0.074,0.034l0.074,0.034l0.075,0.034l0.075,0.033l0.075,0.032l0.076,0.031l0.076,0.031l0.076,0.031l0.077,0.029l0.078,0.029l0.077,0.029l0.079,0.027l0.078,0.028l0.079,0.026l0.08,0.026l0.079,0.025l0.081,0.025l0.08,0.024l0.081,0.023l0.082,0.023l0.082,0.022l0.082,0.021l0.082,0.021l0.167,0.04l0.169,0.037l0.17,0.035l0.172,0.032l0.173,0.029l0.175,0.027l0.177,0.025l0.179,0.022l0.18,0.019l0.182,0.017l0.184,0.014l0.186,0.012l0.187,0.009l0.189,0.006l0.19,0.004l0.193,0.001l0.188,-0.001l0.187,-0.004l0.185,-0.006l0.184,-0.009l0.182,-0.012l0.181,-0.014l0.179,-0.017l0.178,-0.019l0.176,-0.022l0.175,-0.025l0.173,-0.027l0.172,-0.029l0.17,-0.032l0.168,-0.035l0.167,-0.037l0.166,-0.04l0.164,-0.042l0.163,-0.045l0.161,-0.047l0.161,-0.05l0.079,-0.026l0.079,-0.026l0.078,-0.028l0.079,-0.027l0.078,-0.029l0.077,-0.029l0.077,-0.03l0.077,-0.03l0.077,-0.031l0.076,-0.031l0.076,-0.033l0.075,-0.033l0.075,-0.033l0.075,-0.034l0.075,-0.035l0.074,-0.035l0.073,-0.036l0.074,-0.037l0.073,-0.037l0.073,-0.038l0.072,-0.039l0.072,-0.039l0.072,-0.04l0.071,-0.04l0.071,-0.041l0.071,-0.042l0.07,-0.042l0.069,-0.043l0.07,-0.044l0.068,-0.044l0.069,-0.044l0.068,-0.045l0.067,-0.046l0.067,-0.046l0.067,-0.047l0.066,-0.048l0.066,-0.048l0.065,-0.048l0.065,-0.049l0.065,-0.05l0.064,-0.05l0.063,-0.051l0.063,-0.052l0.063,-0.052l0.063,-0.053l0.062,-0.053l0.061,-0.054l0.061,-0.054l0.061,-0.055l0.06,-0.055l0.06,-0.057l0.059,-0.056l0.059,-0.058l0.059,-0.058l0.058,-0.058l0.057,-0.059l0.115,-0.12l0.112,-0.123l0.111,-0.124l0.109,-0.128l0.108,-0.129l0.106,-0.132l0.104,-0.134l0.102,-0.137l0.101,-0.139l0.099,-0.142l0.098,-0.144l0.096,-0.147l0.094,-0.149l0.093,-0.151l0.09,-0.154l0.095,-0.165l0.085,-0.14l0.078,-0.132l0.076,-0.134l0.075,-0.135l0.073,-0.136l0.071,-0.137l0.069,-0.139l0.068,-0.141l0.067,-0.141l0.064,-0.143l0.063,-0.145l0.062,-0.145l0.059,-0.148l0.058,-0.148l0.057,-0.15l0.054,-0.152l0.054,-0.152l0.051,-0.155l0.05,-0.155l0.048,-0.157l0.046,-0.158l0.045,-0.16l0.043,-0.162l0.042,-0.162l0.039,-0.164l0.038,-0.166l0.037,-0.167l0.035,-0.168l0.033,-0.17l0.014,-0.078l-5.974,-1.645l-0.015,0.115l-0.021,0.139l-0.022,0.137l-0.023,0.135l-0.025,0.135l-0.026,0.133l-0.028,0.131l-0.029,0.131l-0.031,0.129l-0.032,0.128l-0.034,0.127l-0.035,0.125l-0.036,0.124l-0.039,0.123l-0.039,0.121l-0.041,0.12l-0.043,0.119l-0.044,0.117l-0.046,0.116l-0.047,0.115l-0.049,0.114l-0.05,0.112l-0.052,0.111l-0.054,0.109l-0.054,0.108l-0.057,0.107l-0.058,0.105l-0.056,0.099l-0.042,0.073l-0.044,0.076l-0.044,0.075l-0.046,0.073l-0.046,0.072l-0.046,0.071l-0.047,0.07l-0.048,0.069l-0.049,0.067l-0.049,0.067l-0.05,0.065l-0.051,0.063l-0.052,0.063l-0.052,0.062l-0.052,0.06l-0.054,0.059l-0.054,0.057l-0.055,0.057l-0.055,0.055l-0.057,0.054l-0.057,0.052l-0.058,0.052l-0.058,0.05l-0.059,0.048l-0.06,0.048l-0.06,0.046l-0.062,0.045l-0.062,0.043l-0.062,0.042l-0.064,0.041l-0.063,0.039l-0.069,0.04l-0.056,0.03l-0.052,0.027l-0.053,0.026l-0.053,0.024l-0.053,0.025l-0.054,0.023l-0.054,0.022l-0.054,0.021l-0.055,0.021l-0.056,0.02l-0.055,0.018l-0.056,0.018l-0.057,0.017l-0.057,0.016l-0.057,0.015l-0.058,0.015l-0.057,0.013l-0.059,0.013l-0.058,0.011l-0.059,0.011l-0.059,0.01l-0.06,0.009l-0.06,0.008l-0.06,0.007l-0.06,0.007l-0.061,0.005l-0.061,0.005l-0.062,0.004l-0.061,0.003l-0.062,0.002l-0.063,0.001l-0.062,0l-0.063,0l-0.062,-0.001l-0.062,-0.002l-0.061,-0.003l-0.061,-0.004l-0.061,-0.005l-0.06,-0.005l-0.06,-0.007l-0.059,-0.007l-0.059,-0.008l-0.059,-0.009l-0.058,-0.01l-0.058,-0.011l-0.057,-0.012l-0.057,-0.013l-0.056,-0.013l-0.057,-0.015l-0.055,-0.015l-0.055,-0.017l-0.055,-0.017l-0.055,-0.018l-0.053,-0.02l-0.054,-0.02l-0.053,-0.021l-0.052,-0.022l-0.052,-0.023l-0.051,-0.024l-0.051,-0.024l-0.05,-0.026l-0.05,-0.027l-0.049,-0.027l-0.044,-0.026l-0.059,-0.035l-0.063,-0.038l-0.062,-0.039l-0.061,-0.041l-0.061,-0.041l-0.06,-0.043l-0.059,-0.044l-0.059,-0.045l-0.058,-0.046l-0.056,-0.047l-0.057,-0.049l-0.055,-0.049l-0.055,-0.051l-0.054,-0.051l-0.053,-0.053l-0.052,-0.054l-0.052,-0.054l-0.051,-0.056l-0.05,-0.057l-0.049,-0.058l-0.048,-0.059l-0.048,-0.059l-0.047,-0.061l-0.046,-0.062l-0.045,-0.063l-0.044,-0.064l-0.044,-0.065l-0.043,-0.066l-0.042,-0.066l-0.042,-0.068l-0.04,-0.069l-0.037,-0.064l-0.038,-0.065l-0.04,-0.07l-0.039,-0.07l-0.038,-0.072l-0.038,-0.072l-0.037,-0.072l-0.037,-0.074l-0.036,-0.073l-0.035,-0.075l-0.034,-0.075l-0.034,-0.076l-0.032,-0.076l-0.033,-0.078l-0.031,-0.077l-0.031,-0.079l-0.03,-0.079l-0.03,-0.079l-0.028,-0.081l-0.029,-0.08l-0.027,-0.082l-0.027,-0.082l-0.026,-0.083l-0.025,-0.083l-0.025,-0.084l-0.024,-0.085l-0.023,-0.085l-0.022,-0.086l-0.022,-0.086l-0.022,-0.087l-0.02,-0.088l-0.02,-0.088l-0.02,-0.09l-0.036,-0.179l-0.034,-0.182l-0.031,-0.184l-0.028,-0.187l-0.026,-0.19l-0.023,-0.192l-0.021,-0.194l-0.017,-0.197l-0.016,-0.199l-0.012,-0.202l-0.011,-0.204l-0.007,-0.207l-0.005,-0.209l-0.002,-0.211l0,-0.214l0.003,-0.211l0,-14.013l0.007,-0.086l0.023,-0.085l0.037,-0.079l0.05,-0.071l0.061,-0.062l0.072,-0.05l0.079,-0.036l0.084,-0.023l0.087,-0.008l8.588,0l0,-5.528l-8.588,0l-0.087,-0.007l-0.084,-0.023l-0.079,-0.037l-0.072,-0.05l-0.061,-0.061l-0.05,-0.072l-0.037,-0.079l-0.023,-0.084l-0.007,-0.087l0,-12.62l-6.296,0Z" style="fill:#d4d7de;"/><path d="M363.211,155.102l0.152,0.001l0.151,0.002l0.15,0.004l0.149,0.004l0.149,0.005l0.147,0.005l0.147,0.007l0.146,0.008l0.145,0.008l0.145,0.01l0.143,0.01l0.143,0.011l0.142,0.012l0.141,0.013l0.141,0.014l0.139,0.015l0.139,0.016l0.138,0.016l0.137,0.018l0.137,0.018l0.135,0.019l0.135,0.021l0.134,0.021l0.133,0.022l0.132,0.023l0.132,0.024l0.13,0.025l0.13,0.025l0.129,0.027l0.128,0.027l0.128,0.029l0.126,0.029l0.126,0.031l0.125,0.031l0.124,0.032l0.124,0.033l0.122,0.034l0.122,0.035l0.121,0.036l0.12,0.036l0.119,0.038l0.119,0.039l0.117,0.039l0.117,0.041l0.116,0.041l0.116,0.042l0.114,0.044l0.113,0.044l0.113,0.045l0.112,0.046l0.111,0.047l0.11,0.048l0.11,0.049l0.108,0.049l0.108,0.051l0.107,0.052l0.106,0.052l0.105,0.054l0.105,0.054l0.103,0.056l0.103,0.056l0.102,0.057l0.099,0.057l0.085,0.05l0.086,0.05l0.086,0.052l0.086,0.052l0.084,0.052l0.085,0.053l0.083,0.054l0.083,0.054l0.082,0.055l0.082,0.055l0.081,0.056l0.081,0.056l0.08,0.058l0.079,0.057l0.079,0.058l0.078,0.059l0.077,0.059l0.077,0.06l0.077,0.061l0.075,0.061l0.076,0.061l0.074,0.062l0.074,0.063l0.073,0.063l0.073,0.064l0.072,0.065l0.071,0.065l0.071,0.065l0.07,0.066l0.07,0.067l0.069,0.067l0.068,0.068l0.068,0.068l0.067,0.069l0.067,0.07l0.066,0.07l0.065,0.07l0.065,0.071l0.064,0.072l0.063,0.072l0.063,0.073l0.062,0.073l0.061,0.074l0.061,0.075l0.061,0.075l0.059,0.075l0.059,0.077l0.059,0.076l0.058,0.077l0.057,0.078l0.056,0.078l0.056,0.079l0.055,0.08l0.055,0.08l0.054,0.08l0.053,0.081l0.053,0.082l0.052,0.082l0.052,0.083l0.051,0.083l0.05,0.083l0.05,0.085l0.049,0.085l0.046,0.081l0.056,0.097l0.057,0.101l0.056,0.102l0.054,0.102l0.054,0.103l0.053,0.103l0.052,0.104l0.051,0.104l0.049,0.105l0.049,0.105l0.047,0.106l0.047,0.106l0.045,0.107l0.045,0.108l0.043,0.108l0.042,0.106l0.023,0.076l0.01,0.079l-0.002,0.08l-0.015,0.078l-0.027,0.075l-0.038,0.07l-0.05,0.062l-0.058,0.054l-0.067,0.045l-0.072,0.033l-6.72,2.432l-0.08,0.021l-0.083,0.008l-0.083,-0.005l-0.08,-0.02l-0.077,-0.032l-0.07,-0.044l-0.061,-0.056l-0.052,-0.065l-0.04,-0.072l-0.055,-0.123l-0.055,-0.114l-0.056,-0.113l-0.058,-0.109l-0.059,-0.107l-0.062,-0.106l-0.031,-0.05l-0.032,-0.051l-0.032,-0.05l-0.032,-0.049l-0.033,-0.049l-0.034,-0.048l-0.033,-0.048l-0.035,-0.047l-0.034,-0.046l-0.035,-0.046l-0.036,-0.045l-0.036,-0.044l-0.036,-0.044l-0.037,-0.044l-0.037,-0.042l-0.037,-0.042l-0.038,-0.042l-0.039,-0.041l-0.038,-0.04l-0.04,-0.04l-0.049,-0.049l-0.05,-0.047l-0.05,-0.047l-0.051,-0.046l-0.052,-0.046l-0.053,-0.044l-0.053,-0.044l-0.053,-0.043l-0.055,-0.043l-0.055,-0.041l-0.055,-0.041l-0.057,-0.04l-0.057,-0.04l-0.058,-0.038l-0.058,-0.038l-0.059,-0.037l-0.06,-0.037l-0.06,-0.035l-0.062,-0.035l-0.062,-0.034l-0.062,-0.034l-0.064,-0.033l-0.064,-0.031l-0.064,-0.032l-0.066,-0.03l-0.066,-0.03l-0.067,-0.029l-0.068,-0.028l-0.068,-0.028l-0.069,-0.026l-0.07,-0.026l-0.071,-0.026l-0.071,-0.024l-0.072,-0.024l-0.073,-0.023l-0.074,-0.022l-0.074,-0.022l-0.075,-0.021l-0.076,-0.02l-0.077,-0.019l-0.078,-0.018l-0.078,-0.018l-0.079,-0.017l-0.08,-0.016l-0.08,-0.016l-0.082,-0.014l-0.082,-0.014l-0.083,-0.013l-0.083,-0.013l-0.085,-0.011l-0.085,-0.011l-0.086,-0.01l-0.087,-0.009l-0.087,-0.008l-0.089,-0.008l-0.089,-0.007l-0.09,-0.006l-0.091,-0.005l-0.091,-0.004l-0.092,-0.004l-0.093,-0.003l-0.094,-0.002l-0.095,-0.001l-0.095,-0.001l-0.106,0.001l-0.105,0.001l-0.104,0.002l-0.103,0.002l-0.102,0.004l-0.101,0.003l-0.099,0.005l-0.099,0.006l-0.097,0.006l-0.097,0.007l-0.095,0.007l-0.094,0.008l-0.094,0.009l-0.092,0.01l-0.091,0.01l-0.09,0.011l-0.089,0.012l-0.088,0.013l-0.086,0.013l-0.086,0.014l-0.085,0.014l-0.083,0.015l-0.082,0.016l-0.082,0.017l-0.08,0.017l-0.079,0.018l-0.078,0.019l-0.077,0.019l-0.076,0.02l-0.075,0.02l-0.074,0.021l-0.072,0.022l-0.072,0.023l-0.07,0.023l-0.07,0.024l-0.068,0.024l-0.067,0.025l-0.066,0.026l-0.065,0.026l-0.064,0.027l-0.063,0.028l-0.062,0.028l-0.061,0.028l-0.06,0.03l-0.058,0.03l-0.058,0.03l-0.057,0.031l-0.055,0.032l-0.055,0.032l-0.053,0.033l-0.053,0.033l-0.051,0.034l-0.051,0.035l-0.049,0.035l-0.049,0.036l-0.047,0.036l-0.047,0.037l-0.045,0.038l-0.045,0.038l-0.044,0.038l-0.042,0.039l-0.042,0.04l-0.041,0.04l-0.044,0.045l-0.043,0.044l-0.038,0.041l-0.037,0.042l-0.036,0.042l-0.035,0.042l-0.033,0.043l-0.032,0.043l-0.031,0.044l-0.029,0.045l-0.029,0.045l-0.027,0.045l-0.027,0.046l-0.025,0.047l-0.024,0.047l-0.023,0.049l-0.021,0.048l-0.021,0.05l-0.02,0.05l-0.018,0.051l-0.018,0.051l-0.016,0.053l-0.015,0.053l-0.015,0.054l-0.013,0.054l-0.012,0.056l-0.01,0.056l-0.01,0.058l-0.009,0.058l-0.007,0.059l-0.007,0.06l-0.005,0.06l-0.002,0.029l0.006,0.059l0.01,0.091l0.012,0.09l0.015,0.091l0.017,0.089l0.019,0.089l0.022,0.089l0.023,0.089l0.026,0.088l0.028,0.087l0.03,0.088l0.033,0.087l0.035,0.086l0.037,0.087l0.039,0.086l0.034,0.069l0.022,0.036l0.033,0.052l0.033,0.051l0.035,0.051l0.035,0.05l0.036,0.049l0.037,0.048l0.037,0.048l0.038,0.047l0.039,0.047l0.04,0.045l0.04,0.046l0.042,0.044l0.042,0.044l0.042,0.043l0.044,0.043l0.044,0.042l0.046,0.041l0.046,0.041l0.047,0.04l0.047,0.039l0.049,0.039l0.049,0.038l0.05,0.038l0.051,0.037l0.052,0.036l0.053,0.036l0.054,0.035l0.054,0.035l0.056,0.034l0.056,0.033l0.06,0.034l0.084,0.048l0.082,0.045l0.088,0.043l0.092,0.044l0.097,0.043l0.101,0.042l0.106,0.042l0.112,0.041l0.115,0.041l0.121,0.039l0.125,0.04l0.129,0.038l0.134,0.038l0.139,0.036l0.143,0.036l0.148,0.035l0.153,0.034l0.157,0.034l0.161,0.032l0.166,0.032l0.17,0.03l0.175,0.03l0.179,0.029l0.184,0.028l0.188,0.027l0.192,0.026l0.197,0.025l0.201,0.024l0.206,0.023l0.21,0.022l0.214,0.021l0.221,0.021l0.265,0.025l0.263,0.027l0.258,0.029l0.255,0.031l0.251,0.033l0.248,0.034l0.243,0.037l0.24,0.038l0.237,0.04l0.232,0.043l0.229,0.044l0.225,0.046l0.221,0.048l0.218,0.049l0.214,0.052l0.21,0.054l0.206,0.055l0.203,0.058l0.199,0.06l0.196,0.061l0.191,0.064l0.187,0.065l0.094,0.034l0.092,0.034l0.091,0.034l0.089,0.035l0.089,0.036l0.088,0.036l0.088,0.037l0.086,0.037l0.085,0.037l0.084,0.038l0.084,0.039l0.082,0.039l0.082,0.04l0.081,0.04l0.079,0.041l0.079,0.041l0.078,0.042l0.077,0.043l0.076,0.043l0.076,0.043l0.145,0.087l0.145,0.089l0.142,0.091l0.14,0.093l0.139,0.096l0.137,0.097l0.135,0.1l0.134,0.101l0.131,0.104l0.13,0.105l0.128,0.108l0.126,0.109l0.124,0.112l0.123,0.114l0.12,0.116l0.119,0.117l0.117,0.12l0.115,0.122l0.113,0.124l0.111,0.126l0.109,0.128l0.108,0.13l0.106,0.131l0.103,0.134l0.102,0.136l0.1,0.138l0.098,0.14l0.097,0.141l0.094,0.144l0.092,0.145l0.091,0.148l0.089,0.15l0.091,0.161l0.088,0.16l0.085,0.162l0.082,0.163l0.079,0.164l0.077,0.165l0.073,0.167l0.071,0.167l0.068,0.168l0.065,0.169l0.062,0.171l0.059,0.171l0.056,0.173l0.053,0.174l0.051,0.174l0.047,0.176l0.045,0.176l0.042,0.178l0.039,0.179l0.036,0.179l0.033,0.181l0.03,0.181l0.028,0.183l0.024,0.183l0.021,0.185l0.019,0.185l0.016,0.187l0.013,0.187l0.01,0.188l0.007,0.189l0.004,0.19l0.002,0.191l-0.001,0.171l-0.004,0.169l-0.006,0.168l-0.008,0.167l-0.011,0.165l-0.013,0.165l-0.015,0.163l-0.018,0.163l-0.02,0.161l-0.022,0.159l-0.025,0.159l-0.027,0.158l-0.03,0.156l-0.032,0.155l-0.034,0.154l-0.037,0.153l-0.039,0.151l-0.042,0.151l-0.044,0.149l-0.046,0.147l-0.049,0.147l-0.052,0.145l-0.053,0.145l-0.056,0.142l-0.059,0.142l-0.061,0.14l-0.063,0.139l-0.066,0.138l-0.068,0.136l-0.071,0.135l-0.072,0.134l-0.075,0.132l-0.081,0.138l-0.084,0.137l-0.086,0.135l-0.088,0.134l-0.09,0.132l-0.093,0.131l-0.095,0.129l-0.097,0.128l-0.099,0.126l-0.102,0.124l-0.104,0.123l-0.106,0.121l-0.108,0.119l-0.11,0.118l-0.113,0.117l-0.115,0.114l-0.117,0.113l-0.119,0.112l-0.121,0.109l-0.124,0.108l-0.126,0.107l-0.128,0.105l-0.13,0.103l-0.132,0.101l-0.134,0.1l-0.136,0.098l-0.139,0.097l-0.141,0.095l-0.142,0.093l-0.145,0.092l-0.147,0.09l-0.152,0.09l-0.114,0.064l-0.111,0.06l-0.112,0.06l-0.113,0.059l-0.114,0.058l-0.115,0.057l-0.115,0.056l-0.116,0.055l-0.117,0.054l-0.118,0.053l-0.119,0.052l-0.119,0.052l-0.12,0.05l-0.121,0.049l-0.121,0.048l-0.123,0.047l-0.123,0.046l-0.124,0.045l-0.124,0.044l-0.126,0.043l-0.126,0.043l-0.127,0.041l-0.128,0.04l-0.128,0.039l-0.13,0.039l-0.13,0.037l-0.13,0.036l-0.132,0.035l-0.132,0.035l-0.133,0.033l-0.134,0.032l-0.135,0.032l-0.135,0.03l-0.136,0.03l-0.137,0.028l-0.137,0.028l-0.139,0.026l-0.139,0.026l-0.14,0.024l-0.14,0.024l-0.142,0.022l-0.142,0.022l-0.143,0.021l-0.143,0.02l-0.145,0.018l-0.145,0.018l-0.146,0.017l-0.146,0.016l-0.148,0.015l-0.148,0.014l-0.149,0.013l-0.149,0.011l-0.151,0.012l-0.151,0.01l-0.152,0.009l-0.152,0.008l-0.154,0.007l-0.154,0.006l-0.155,0.006l-0.155,0.004l-0.157,0.003l-0.157,0.003l-0.158,0.001l-0.158,0l-0.153,0l-0.151,-0.001l-0.151,-0.003l-0.15,-0.003l-0.15,-0.004l-0.148,-0.005l-0.148,-0.005l-0.147,-0.007l-0.146,-0.008l-0.145,-0.008l-0.144,-0.01l-0.144,-0.01l-0.143,-0.011l-0.142,-0.012l-0.141,-0.013l-0.14,-0.014l-0.14,-0.015l-0.139,-0.016l-0.137,-0.016l-0.138,-0.018l-0.136,-0.018l-0.135,-0.02l-0.135,-0.02l-0.134,-0.021l-0.133,-0.022l-0.132,-0.023l-0.132,-0.024l-0.131,-0.025l-0.129,-0.025l-0.13,-0.027l-0.128,-0.028l-0.127,-0.028l-0.127,-0.029l-0.126,-0.031l-0.125,-0.031l-0.124,-0.032l-0.123,-0.033l-0.123,-0.034l-0.121,-0.035l-0.121,-0.036l-0.12,-0.037l-0.12,-0.037l-0.118,-0.039l-0.118,-0.039l-0.117,-0.041l-0.116,-0.041l-0.115,-0.042l-0.114,-0.044l-0.114,-0.044l-0.113,-0.045l-0.111,-0.046l-0.111,-0.047l-0.111,-0.048l-0.109,-0.049l-0.109,-0.05l-0.107,-0.05l-0.107,-0.052l-0.106,-0.052l-0.106,-0.054l-0.104,-0.054l-0.104,-0.056l-0.102,-0.056l-0.102,-0.057l-0.099,-0.057l-0.085,-0.05l-0.087,-0.05l-0.086,-0.052l-0.085,-0.052l-0.085,-0.052l-0.084,-0.053l-0.083,-0.054l-0.083,-0.054l-0.083,-0.055l-0.081,-0.055l-0.082,-0.056l-0.08,-0.057l-0.08,-0.057l-0.079,-0.057l-0.079,-0.058l-0.078,-0.059l-0.078,-0.059l-0.077,-0.06l-0.076,-0.061l-0.076,-0.061l-0.075,-0.061l-0.074,-0.063l-0.074,-0.062l-0.074,-0.063l-0.072,-0.064l-0.072,-0.065l-0.072,-0.065l-0.071,-0.065l-0.07,-0.066l-0.069,-0.067l-0.069,-0.067l-0.069,-0.068l-0.067,-0.068l-0.068,-0.069l-0.066,-0.07l-0.066,-0.07l-0.065,-0.07l-0.065,-0.071l-0.064,-0.072l-0.063,-0.072l-0.063,-0.073l-0.062,-0.074l-0.062,-0.073l-0.061,-0.075l-0.06,-0.075l-0.06,-0.075l-0.059,-0.077l-0.058,-0.076l-0.058,-0.077l-0.057,-0.078l-0.057,-0.079l-0.056,-0.078l-0.055,-0.08l-0.055,-0.08l-0.054,-0.08l-0.053,-0.081l-0.053,-0.082l-0.052,-0.082l-0.051,-0.083l-0.051,-0.083l-0.05,-0.083l-0.05,-0.085l-0.049,-0.085l-0.046,-0.081l-0.056,-0.097l-0.057,-0.101l-0.056,-0.102l-0.055,-0.102l-0.054,-0.103l-0.053,-0.103l-0.051,-0.104l-0.051,-0.104l-0.05,-0.105l-0.048,-0.105l-0.048,-0.106l-0.046,-0.106l-0.046,-0.107l-0.044,-0.108l-0.044,-0.108l-0.041,-0.106l-0.023,-0.076l-0.011,-0.079l0.003,-0.08l0.014,-0.078l0.027,-0.075l0.039,-0.07l0.049,-0.062l0.059,-0.055l0.066,-0.044l0.073,-0.033l6.72,-2.432l0.08,-0.021l0.082,-0.008l0.083,0.005l0.081,0.019l0.076,0.033l0.07,0.044l0.062,0.056l0.052,0.065l0.04,0.072l0.055,0.122l0.054,0.115l0.056,0.112l0.058,0.11l0.06,0.107l0.062,0.106l0.03,0.05l0.032,0.051l0.032,0.05l0.033,0.049l0.033,0.049l0.033,0.048l0.034,0.048l0.034,0.047l0.035,0.046l0.035,0.046l0.035,0.045l0.036,0.044l0.036,0.044l0.037,0.043l0.037,0.043l0.038,0.042l0.038,0.042l0.038,0.041l0.039,0.04l0.039,0.04l0.05,0.048l0.049,0.048l0.051,0.047l0.051,0.046l0.052,0.046l0.052,0.044l0.053,0.044l0.054,0.043l0.054,0.043l0.055,0.041l0.056,0.041l0.056,0.04l0.058,0.04l0.057,0.038l0.059,0.038l0.059,0.037l0.06,0.037l0.06,0.035l0.061,0.035l0.062,0.034l0.063,0.034l0.063,0.032l0.064,0.032l0.065,0.032l0.065,0.03l0.067,0.03l0.066,0.029l0.068,0.028l0.069,0.028l0.069,0.026l0.07,0.026l0.07,0.026l0.072,0.024l0.072,0.024l0.073,0.023l0.073,0.022l0.075,0.022l0.075,0.021l0.076,0.02l0.077,0.019l0.077,0.018l0.078,0.018l0.079,0.017l0.08,0.016l0.081,0.016l0.081,0.014l0.082,0.014l0.083,0.013l0.084,0.012l0.084,0.012l0.086,0.011l0.086,0.01l0.086,0.009l0.088,0.008l0.088,0.008l0.09,0.007l0.089,0.006l0.091,0.005l0.092,0.004l0.092,0.004l0.093,0.003l0.094,0.002l0.094,0.001l0.096,0l0.106,0l0.105,-0.001l0.104,-0.002l0.103,-0.002l0.101,-0.004l0.101,-0.004l0.1,-0.004l0.098,-0.006l0.098,-0.006l0.096,-0.007l0.096,-0.007l0.094,-0.008l0.093,-0.009l0.092,-0.01l0.091,-0.01l0.09,-0.012l0.089,-0.011l0.088,-0.013l0.087,-0.013l0.086,-0.014l0.084,-0.014l0.084,-0.015l0.082,-0.016l0.081,-0.017l0.081,-0.017l0.079,-0.018l0.078,-0.019l0.077,-0.019l0.076,-0.02l0.074,-0.02l0.074,-0.022l0.073,-0.021l0.071,-0.023l0.071,-0.023l0.069,-0.024l0.068,-0.024l0.068,-0.025l0.066,-0.026l0.065,-0.026l0.064,-0.027l0.063,-0.028l0.062,-0.028l0.06,-0.028l0.06,-0.03l0.059,-0.03l0.058,-0.03l0.056,-0.031l0.056,-0.032l0.054,-0.032l0.054,-0.033l0.052,-0.033l0.052,-0.034l0.05,-0.035l0.05,-0.035l0.048,-0.036l0.048,-0.036l0.046,-0.037l0.046,-0.038l0.045,-0.038l0.043,-0.038l0.043,-0.039l0.042,-0.04l0.041,-0.041l0.043,-0.044l0.044,-0.044l0.038,-0.041l0.037,-0.042l0.036,-0.042l0.034,-0.042l0.033,-0.043l0.032,-0.043l0.031,-0.044l0.03,-0.045l0.029,-0.045l0.027,-0.045l0.026,-0.046l0.025,-0.047l0.024,-0.048l0.023,-0.048l0.022,-0.048l0.021,-0.05l0.019,-0.05l0.019,-0.051l0.017,-0.051l0.017,-0.053l0.015,-0.053l0.014,-0.054l0.013,-0.054l0.012,-0.056l0.011,-0.056l0.01,-0.058l0.008,-0.058l0.008,-0.059l0.006,-0.06l0.005,-0.061l0.002,-0.028l-0.005,-0.059l-0.01,-0.091l-0.013,-0.09l-0.015,-0.091l-0.017,-0.089l-0.019,-0.09l-0.021,-0.088l-0.024,-0.089l-0.026,-0.088l-0.028,-0.087l-0.03,-0.088l-0.032,-0.087l-0.035,-0.086l-0.037,-0.087l-0.04,-0.086l-0.033,-0.069l-0.022,-0.036l-0.033,-0.052l-0.034,-0.051l-0.034,-0.051l-0.035,-0.05l-0.036,-0.049l-0.037,-0.048l-0.037,-0.048l-0.039,-0.047l-0.039,-0.047l-0.039,-0.046l-0.041,-0.045l-0.041,-0.044l-0.042,-0.044l-0.043,-0.043l-0.043,-0.043l-0.045,-0.042l-0.045,-0.041l-0.046,-0.041l-0.047,-0.04l-0.048,-0.039l-0.048,-0.039l-0.05,-0.038l-0.05,-0.038l-0.051,-0.037l-0.052,-0.036l-0.053,-0.036l-0.053,-0.035l-0.055,-0.035l-0.055,-0.034l-0.056,-0.033l-0.06,-0.034l-0.084,-0.048l-0.083,-0.045l-0.087,-0.043l-0.092,-0.044l-0.097,-0.043l-0.102,-0.042l-0.106,-0.042l-0.111,-0.041l-0.116,-0.041l-0.12,-0.04l-0.125,-0.039l-0.13,-0.038l-0.134,-0.038l-0.138,-0.036l-0.144,-0.036l-0.148,-0.035l-0.152,-0.035l-0.157,-0.033l-0.161,-0.032l-0.166,-0.032l-0.171,-0.031l-0.174,-0.029l-0.179,-0.029l-0.184,-0.028l-0.188,-0.027l-0.193,-0.026l-0.197,-0.025l-0.201,-0.024l-0.205,-0.023l-0.211,-0.022l-0.214,-0.021l-0.221,-0.021l-0.265,-0.025l-0.262,-0.027l-0.259,-0.029l-0.255,-0.031l-0.251,-0.033l-0.247,-0.034l-0.244,-0.037l-0.24,-0.038l-0.236,-0.041l-0.232,-0.042l-0.229,-0.044l-0.225,-0.046l-0.221,-0.048l-0.218,-0.049l-0.214,-0.052l-0.21,-0.054l-0.207,-0.056l-0.202,-0.057l-0.2,-0.06l-0.195,-0.061l-0.192,-0.064l-0.187,-0.065l-0.093,-0.034l-0.092,-0.034l-0.091,-0.034l-0.09,-0.035l-0.089,-0.036l-0.088,-0.036l-0.087,-0.037l-0.086,-0.037l-0.085,-0.037l-0.085,-0.039l-0.083,-0.038l-0.083,-0.039l-0.081,-0.04l-0.081,-0.04l-0.08,-0.041l-0.079,-0.041l-0.078,-0.042l-0.077,-0.043l-0.076,-0.043l-0.075,-0.043l-0.146,-0.087l-0.144,-0.089l-0.142,-0.091l-0.141,-0.094l-0.139,-0.095l-0.137,-0.097l-0.135,-0.1l-0.133,-0.101l-0.132,-0.104l-0.129,-0.105l-0.128,-0.108l-0.126,-0.11l-0.125,-0.111l-0.122,-0.114l-0.121,-0.116l-0.118,-0.118l-0.117,-0.119l-0.115,-0.122l-0.113,-0.124l-0.112,-0.126l-0.109,-0.128l-0.107,-0.13l-0.106,-0.131l-0.104,-0.134l-0.102,-0.136l-0.1,-0.138l-0.098,-0.14l-0.096,-0.141l-0.094,-0.144l-0.093,-0.146l-0.09,-0.147l-0.09,-0.15l-0.091,-0.161l-0.087,-0.16l-0.085,-0.162l-0.083,-0.163l-0.079,-0.164l-0.076,-0.165l-0.074,-0.167l-0.07,-0.167l-0.068,-0.168l-0.065,-0.17l-0.062,-0.17l-0.059,-0.172l-0.057,-0.172l-0.053,-0.174l-0.05,-0.174l-0.048,-0.176l-0.045,-0.176l-0.041,-0.178l-0.039,-0.179l-0.036,-0.179l-0.033,-0.181l-0.031,-0.181l-0.027,-0.183l-0.024,-0.184l-0.022,-0.184l-0.019,-0.185l-0.015,-0.187l-0.013,-0.187l-0.01,-0.188l-0.007,-0.189l-0.005,-0.191l-0.001,-0.19l0.001,-0.171l0.003,-0.169l0.006,-0.168l0.009,-0.167l0.01,-0.165l0.013,-0.165l0.015,-0.163l0.018,-0.163l0.02,-0.161l0.023,-0.159l0.025,-0.159l0.027,-0.158l0.029,-0.156l0.032,-0.155l0.035,-0.154l0.037,-0.153l0.039,-0.151l0.042,-0.151l0.044,-0.149l0.046,-0.148l0.049,-0.146l0.051,-0.145l0.054,-0.145l0.056,-0.142l0.059,-0.142l0.06,-0.14l0.064,-0.139l0.065,-0.138l0.069,-0.136l0.07,-0.135l0.073,-0.134l0.075,-0.132l0.081,-0.138l0.083,-0.137l0.086,-0.135l0.089,-0.134l0.09,-0.132l0.093,-0.131l0.094,-0.129l0.098,-0.128l0.099,-0.126l0.101,-0.124l0.104,-0.123l0.106,-0.121l0.109,-0.12l0.11,-0.117l0.113,-0.117l0.114,-0.114l0.117,-0.113l0.12,-0.112l0.121,-0.109l0.124,-0.108l0.125,-0.107l0.128,-0.105l0.13,-0.103l0.132,-0.101l0.135,-0.1l0.136,-0.099l0.138,-0.096l0.141,-0.095l0.143,-0.093l0.145,-0.092l0.147,-0.09l0.151,-0.09l0.114,-0.064l0.112,-0.061l0.112,-0.06l0.113,-0.058l0.114,-0.058l0.114,-0.057l0.116,-0.056l0.116,-0.055l0.117,-0.054l0.118,-0.054l0.118,-0.052l0.119,-0.051l0.12,-0.05l0.121,-0.049l0.122,-0.048l0.122,-0.047l0.123,-0.046l0.124,-0.045l0.125,-0.044l0.125,-0.044l0.127,-0.042l0.127,-0.041l0.127,-0.04l0.129,-0.039l0.129,-0.039l0.13,-0.037l0.131,-0.036l0.131,-0.035l0.133,-0.035l0.133,-0.033l0.134,-0.033l0.134,-0.031l0.136,-0.03l0.136,-0.03l0.136,-0.028l0.138,-0.028l0.138,-0.026l0.139,-0.026l0.14,-0.024l0.141,-0.024l0.141,-0.023l0.142,-0.021l0.143,-0.021l0.144,-0.02l0.144,-0.018l0.145,-0.018l0.146,-0.017l0.147,-0.016l0.147,-0.015l0.148,-0.014l0.149,-0.013l0.15,-0.012l0.15,-0.011l0.151,-0.01l0.152,-0.009l0.153,-0.008l0.153,-0.007l0.154,-0.006l0.155,-0.006l0.156,-0.004l0.156,-0.003l0.157,-0.003l0.158,-0.001l0.159,-0.001l0.152,0.001Zm-0.305,1l-0.152,0.001l-0.151,0.003l-0.15,0.003l-0.149,0.004l-0.149,0.005l-0.147,0.006l-0.147,0.007l-0.146,0.008l-0.146,0.008l-0.144,0.01l-0.144,0.011l-0.143,0.011l-0.142,0.012l-0.141,0.014l-0.14,0.014l-0.14,0.015l-0.139,0.016l-0.138,0.017l-0.137,0.018l-0.136,0.018l-0.136,0.02l-0.134,0.02l-0.134,0.022l-0.133,0.022l-0.133,0.023l-0.131,0.025l-0.131,0.025l-0.13,0.026l-0.129,0.026l-0.128,0.028l-0.128,0.029l-0.126,0.029l-0.126,0.031l-0.125,0.031l-0.124,0.032l-0.124,0.034l-0.122,0.034l-0.122,0.034l-0.121,0.036l-0.121,0.037l-0.119,0.038l-0.119,0.038l-0.117,0.039l-0.117,0.041l-0.117,0.041l-0.115,0.042l-0.115,0.043l-0.114,0.044l-0.113,0.044l-0.112,0.046l-0.111,0.047l-0.111,0.047l-0.11,0.048l-0.109,0.049l-0.108,0.05l-0.108,0.051l-0.107,0.052l-0.106,0.053l-0.105,0.053l-0.104,0.055l-0.104,0.055l-0.103,0.056l-0.099,0.056l-0.134,0.079l-0.135,0.083l-0.132,0.084l-0.131,0.085l-0.128,0.087l-0.126,0.087l-0.124,0.09l-0.122,0.09l-0.119,0.092l-0.118,0.094l-0.116,0.094l-0.113,0.096l-0.111,0.098l-0.11,0.099l-0.107,0.1l-0.105,0.101l-0.103,0.103l-0.101,0.104l-0.099,0.106l-0.097,0.107l-0.095,0.108l-0.092,0.11l-0.091,0.111l-0.089,0.113l-0.087,0.114l-0.084,0.115l-0.083,0.117l-0.081,0.118l-0.079,0.12l-0.076,0.121l-0.075,0.122l-0.073,0.125l-0.067,0.117l-0.065,0.118l-0.062,0.12l-0.06,0.12l-0.058,0.121l-0.056,0.123l-0.054,0.124l-0.051,0.125l-0.05,0.127l-0.048,0.127l-0.045,0.129l-0.044,0.13l-0.041,0.132l-0.039,0.133l-0.037,0.134l-0.035,0.135l-0.033,0.136l-0.031,0.138l-0.029,0.139l-0.026,0.141l-0.025,0.141l-0.022,0.143l-0.02,0.145l-0.019,0.146l-0.016,0.147l-0.014,0.148l-0.011,0.15l-0.01,0.151l-0.008,0.152l-0.005,0.154l-0.003,0.155l-0.001,0.156l0.001,0.176l0.004,0.175l0.007,0.174l0.009,0.173l0.012,0.172l0.014,0.17l0.017,0.17l0.02,0.168l0.022,0.168l0.025,0.166l0.028,0.166l0.03,0.164l0.033,0.164l0.035,0.162l0.038,0.161l0.04,0.161l0.044,0.159l0.045,0.159l0.049,0.157l0.051,0.156l0.053,0.156l0.057,0.155l0.059,0.153l0.061,0.153l0.064,0.152l0.067,0.15l0.069,0.15l0.072,0.149l0.075,0.148l0.077,0.147l0.08,0.147l0.082,0.144l0.081,0.136l0.082,0.135l0.085,0.132l0.086,0.131l0.087,0.129l0.089,0.127l0.091,0.125l0.092,0.123l0.094,0.121l0.096,0.12l0.097,0.117l0.099,0.116l0.101,0.114l0.102,0.111l0.104,0.11l0.105,0.108l0.107,0.107l0.109,0.104l0.11,0.103l0.112,0.1l0.114,0.099l0.115,0.097l0.117,0.096l0.119,0.093l0.12,0.092l0.122,0.089l0.124,0.088l0.125,0.086l0.128,0.085l0.129,0.082l0.13,0.081l0.133,0.079l0.065,0.038l0.067,0.038l0.068,0.037l0.069,0.037l0.07,0.037l0.071,0.036l0.072,0.036l0.072,0.035l0.074,0.035l0.075,0.035l0.076,0.034l0.077,0.034l0.078,0.034l0.079,0.033l0.08,0.033l0.081,0.032l0.082,0.032l0.084,0.032l0.084,0.031l0.084,0.031l0.174,0.06l0.178,0.059l0.181,0.057l0.185,0.056l0.19,0.054l0.194,0.052l0.197,0.05l0.202,0.049l0.206,0.047l0.21,0.046l0.214,0.043l0.217,0.042l0.222,0.041l0.226,0.038l0.23,0.037l0.234,0.035l0.238,0.033l0.242,0.032l0.246,0.03l0.25,0.028l0.254,0.026l0.259,0.025l0.223,0.02l0.221,0.022l0.217,0.023l0.212,0.024l0.209,0.025l0.204,0.026l0.201,0.027l0.196,0.028l0.192,0.029l0.188,0.03l0.184,0.031l0.18,0.033l0.176,0.033l0.172,0.035l0.167,0.035l0.164,0.037l0.16,0.038l0.156,0.039l0.152,0.041l0.148,0.041l0.144,0.043l0.141,0.043l0.136,0.046l0.132,0.046l0.129,0.048l0.125,0.049l0.121,0.051l0.118,0.052l0.113,0.053l0.11,0.056l0.107,0.056l0.096,0.055l0.067,0.039l0.069,0.041l0.068,0.041l0.068,0.043l0.066,0.044l0.066,0.044l0.065,0.046l0.063,0.046l0.063,0.047l0.062,0.048l0.061,0.049l0.061,0.05l0.059,0.05l0.058,0.052l0.058,0.052l0.056,0.054l0.056,0.054l0.054,0.055l0.054,0.056l0.052,0.057l0.052,0.057l0.051,0.059l0.049,0.059l0.049,0.06l0.048,0.061l0.046,0.062l0.046,0.062l0.045,0.064l0.043,0.064l0.043,0.065l0.042,0.066l0.038,0.063l0.024,0.042l0.049,0.101l0.049,0.108l0.046,0.108l0.044,0.109l0.041,0.109l0.038,0.11l0.036,0.111l0.032,0.112l0.03,0.112l0.027,0.112l0.025,0.114l0.021,0.114l0.019,0.114l0.016,0.115l0.013,0.115l0.01,0.11l0.001,0.077l-0.005,0.077l-0.007,0.081l-0.009,0.08l-0.01,0.08l-0.012,0.079l-0.013,0.078l-0.015,0.078l-0.017,0.077l-0.018,0.077l-0.02,0.076l-0.021,0.075l-0.024,0.074l-0.025,0.074l-0.026,0.073l-0.028,0.072l-0.03,0.071l-0.032,0.071l-0.033,0.069l-0.035,0.069l-0.037,0.068l-0.038,0.067l-0.039,0.067l-0.042,0.065l-0.043,0.064l-0.044,0.063l-0.046,0.063l-0.048,0.061l-0.049,0.061l-0.051,0.059l-0.052,0.058l-0.053,0.058l-0.052,0.052l-0.049,0.051l-0.054,0.053l-0.055,0.053l-0.057,0.051l-0.057,0.051l-0.058,0.049l-0.06,0.049l-0.06,0.048l-0.062,0.047l-0.062,0.046l-0.064,0.045l-0.064,0.044l-0.066,0.044l-0.066,0.042l-0.068,0.041l-0.068,0.041l-0.07,0.039l-0.07,0.039l-0.071,0.038l-0.073,0.037l-0.073,0.036l-0.074,0.035l-0.075,0.034l-0.076,0.033l-0.077,0.032l-0.078,0.032l-0.079,0.03l-0.08,0.03l-0.08,0.029l-0.082,0.028l-0.083,0.027l-0.083,0.026l-0.085,0.026l-0.085,0.024l-0.086,0.024l-0.087,0.023l-0.088,0.022l-0.089,0.021l-0.09,0.02l-0.091,0.02l-0.091,0.019l-0.093,0.017l-0.094,0.017l-0.094,0.017l-0.095,0.015l-0.097,0.015l-0.097,0.013l-0.098,0.013l-0.099,0.013l-0.1,0.011l-0.101,0.011l-0.101,0.009l-0.103,0.009l-0.104,0.009l-0.104,0.007l-0.106,0.007l-0.106,0.005l-0.108,0.005l-0.108,0.005l-0.109,0.003l-0.11,0.003l-0.111,0.002l-0.112,0.001l-0.113,0l-0.104,0l-0.103,-0.001l-0.103,-0.002l-0.102,-0.004l-0.101,-0.004l-0.101,-0.004l-0.1,-0.006l-0.099,-0.007l-0.099,-0.007l-0.098,-0.009l-0.097,-0.009l-0.097,-0.01l-0.096,-0.011l-0.095,-0.012l-0.095,-0.013l-0.094,-0.014l-0.093,-0.015l-0.093,-0.016l-0.092,-0.016l-0.091,-0.018l-0.091,-0.018l-0.09,-0.019l-0.089,-0.021l-0.089,-0.021l-0.088,-0.022l-0.088,-0.023l-0.086,-0.024l-0.086,-0.025l-0.086,-0.026l-0.084,-0.026l-0.084,-0.028l-0.084,-0.029l-0.082,-0.029l-0.082,-0.031l-0.082,-0.031l-0.08,-0.033l-0.08,-0.033l-0.079,-0.034l-0.079,-0.035l-0.077,-0.037l-0.077,-0.037l-0.077,-0.038l-0.075,-0.039l-0.075,-0.04l-0.074,-0.041l-0.074,-0.042l-0.072,-0.042l-0.072,-0.044l-0.071,-0.045l-0.071,-0.046l-0.069,-0.046l-0.069,-0.048l-0.068,-0.048l-0.068,-0.05l-0.067,-0.05l-0.065,-0.051l-0.065,-0.053l-0.065,-0.053l-0.063,-0.054l-0.063,-0.055l-0.062,-0.056l-0.061,-0.057l-0.06,-0.057l-0.06,-0.059l-0.048,-0.049l-0.048,-0.049l-0.047,-0.051l-0.046,-0.05l-0.046,-0.052l-0.046,-0.052l-0.044,-0.053l-0.045,-0.053l-0.043,-0.054l-0.043,-0.055l-0.043,-0.056l-0.042,-0.056l-0.041,-0.056l-0.041,-0.058l-0.04,-0.058l-0.039,-0.058l-0.039,-0.059l-0.039,-0.06l-0.037,-0.061l-0.038,-0.062l-0.072,-0.123l-0.071,-0.126l-0.056,-0.106l-5.803,2.1l0.008,0.019l0.044,0.096l0.044,0.096l0.046,0.096l0.046,0.095l0.047,0.095l0.048,0.094l0.049,0.094l0.051,0.093l0.051,0.093l0.052,0.093l0.055,0.095l0.046,0.082l0.045,0.078l0.045,0.077l0.046,0.076l0.047,0.076l0.047,0.076l0.047,0.075l0.048,0.074l0.049,0.074l0.05,0.074l0.049,0.072l0.051,0.073l0.051,0.072l0.051,0.071l0.052,0.071l0.053,0.07l0.053,0.07l0.054,0.069l0.054,0.069l0.055,0.068l0.055,0.068l0.056,0.067l0.057,0.067l0.057,0.066l0.058,0.066l0.058,0.065l0.059,0.065l0.059,0.064l0.06,0.064l0.061,0.063l0.061,0.063l0.061,0.062l0.063,0.062l0.062,0.061l0.064,0.06l0.064,0.061l0.064,0.059l0.065,0.06l0.066,0.058l0.066,0.058l0.067,0.058l0.067,0.057l0.068,0.057l0.069,0.056l0.069,0.056l0.07,0.055l0.07,0.055l0.071,0.054l0.071,0.054l0.072,0.053l0.073,0.053l0.073,0.052l0.074,0.052l0.074,0.051l0.075,0.051l0.076,0.05l0.076,0.05l0.077,0.049l0.077,0.049l0.078,0.048l0.079,0.048l0.079,0.047l0.08,0.047l0.176,0.101l0.092,0.053l0.094,0.051l0.094,0.05l0.095,0.05l0.096,0.049l0.097,0.048l0.098,0.047l0.099,0.047l0.099,0.045l0.1,0.045l0.102,0.044l0.102,0.043l0.102,0.042l0.104,0.042l0.105,0.041l0.105,0.04l0.107,0.039l0.107,0.038l0.108,0.037l0.109,0.037l0.11,0.036l0.11,0.035l0.112,0.034l0.112,0.033l0.114,0.032l0.114,0.032l0.115,0.031l0.116,0.03l0.117,0.029l0.117,0.028l0.119,0.028l0.119,0.027l0.12,0.025l0.122,0.025l0.122,0.025l0.123,0.023l0.123,0.022l0.125,0.022l0.126,0.021l0.126,0.02l0.127,0.019l0.129,0.018l0.129,0.018l0.13,0.016l0.131,0.016l0.131,0.015l0.133,0.014l0.133,0.013l0.135,0.013l0.135,0.011l0.136,0.011l0.137,0.01l0.138,0.009l0.139,0.008l0.139,0.007l0.141,0.006l0.141,0.006l0.142,0.005l0.143,0.004l0.144,0.003l0.145,0.002l0.146,0.001l0.147,0l0.152,0l0.152,-0.001l0.151,-0.003l0.15,-0.003l0.15,-0.004l0.148,-0.005l0.148,-0.006l0.147,-0.007l0.146,-0.008l0.145,-0.008l0.145,-0.01l0.143,-0.011l0.143,-0.011l0.142,-0.012l0.141,-0.014l0.141,-0.014l0.139,-0.015l0.139,-0.016l0.138,-0.017l0.137,-0.018l0.137,-0.018l0.135,-0.02l0.135,-0.021l0.134,-0.021l0.133,-0.022l0.132,-0.024l0.132,-0.024l0.131,-0.025l0.129,-0.026l0.129,-0.027l0.129,-0.027l0.127,-0.029l0.127,-0.029l0.126,-0.031l0.125,-0.031l0.124,-0.032l0.123,-0.034l0.123,-0.034l0.122,-0.035l0.121,-0.035l0.12,-0.037l0.12,-0.038l0.118,-0.038l0.118,-0.04l0.117,-0.04l0.116,-0.041l0.116,-0.042l0.114,-0.043l0.114,-0.044l0.113,-0.045l0.112,-0.045l0.112,-0.047l0.111,-0.047l0.11,-0.048l0.109,-0.049l0.108,-0.05l0.108,-0.051l0.106,-0.052l0.106,-0.053l0.105,-0.053l0.105,-0.055l0.104,-0.055l0.102,-0.057l0.099,-0.055l0.135,-0.08l0.134,-0.082l0.133,-0.084l0.13,-0.085l0.128,-0.087l0.126,-0.088l0.124,-0.089l0.122,-0.09l0.12,-0.092l0.118,-0.094l0.115,-0.094l0.114,-0.097l0.111,-0.097l0.109,-0.099l0.107,-0.1l0.105,-0.101l0.104,-0.103l0.101,-0.104l0.098,-0.106l0.097,-0.107l0.095,-0.108l0.093,-0.11l0.091,-0.111l0.089,-0.113l0.086,-0.114l0.085,-0.115l0.083,-0.117l0.081,-0.118l0.078,-0.12l0.077,-0.121l0.075,-0.122l0.073,-0.125l0.067,-0.117l0.064,-0.118l0.062,-0.12l0.06,-0.12l0.059,-0.122l0.055,-0.122l0.054,-0.124l0.052,-0.125l0.05,-0.127l0.047,-0.127l0.046,-0.129l0.043,-0.131l0.041,-0.131l0.04,-0.133l0.037,-0.134l0.035,-0.135l0.033,-0.136l0.03,-0.138l0.029,-0.139l0.027,-0.141l0.024,-0.141l0.023,-0.143l0.02,-0.145l0.018,-0.146l0.016,-0.147l0.014,-0.148l0.012,-0.15l0.01,-0.151l0.007,-0.152l0.005,-0.154l0.004,-0.155l0.001,-0.156l-0.002,-0.177l-0.003,-0.174l-0.007,-0.174l-0.009,-0.173l-0.012,-0.172l-0.015,-0.17l-0.017,-0.17l-0.019,-0.169l-0.023,-0.167l-0.025,-0.166l-0.027,-0.166l-0.03,-0.164l-0.033,-0.164l-0.035,-0.162l-0.038,-0.161l-0.041,-0.161l-0.043,-0.159l-0.046,-0.159l-0.048,-0.157l-0.051,-0.157l-0.054,-0.155l-0.056,-0.155l-0.059,-0.153l-0.061,-0.153l-0.065,-0.152l-0.066,-0.15l-0.07,-0.15l-0.072,-0.149l-0.074,-0.148l-0.077,-0.147l-0.08,-0.147l-0.083,-0.144l-0.08,-0.136l-0.083,-0.135l-0.084,-0.133l-0.086,-0.13l-0.088,-0.129l-0.089,-0.127l-0.09,-0.125l-0.093,-0.123l-0.094,-0.122l-0.095,-0.119l-0.098,-0.117l-0.098,-0.116l-0.101,-0.114l-0.102,-0.111l-0.104,-0.11l-0.105,-0.109l-0.107,-0.106l-0.109,-0.104l-0.11,-0.103l-0.112,-0.101l-0.114,-0.098l-0.115,-0.097l-0.118,-0.096l-0.118,-0.093l-0.121,-0.092l-0.122,-0.089l-0.123,-0.088l-0.126,-0.087l-0.127,-0.084l-0.129,-0.082l-0.131,-0.081l-0.132,-0.079l-0.066,-0.038l-0.067,-0.038l-0.067,-0.037l-0.069,-0.037l-0.07,-0.037l-0.071,-0.036l-0.072,-0.036l-0.073,-0.035l-0.074,-0.035l-0.075,-0.035l-0.076,-0.035l-0.077,-0.034l-0.078,-0.033l-0.079,-0.033l-0.08,-0.033l-0.081,-0.032l-0.082,-0.032l-0.083,-0.032l-0.084,-0.031l-0.084,-0.031l-0.175,-0.06l-0.177,-0.059l-0.181,-0.057l-0.186,-0.056l-0.189,-0.054l-0.194,-0.052l-0.198,-0.05l-0.202,-0.049l-0.205,-0.047l-0.21,-0.046l-0.214,-0.043l-0.218,-0.042l-0.222,-0.041l-0.226,-0.038l-0.23,-0.037l-0.234,-0.035l-0.238,-0.033l-0.242,-0.032l-0.246,-0.03l-0.25,-0.028l-0.254,-0.026l-0.259,-0.025l-0.223,-0.02l-0.22,-0.022l-0.217,-0.023l-0.213,-0.024l-0.208,-0.025l-0.205,-0.026l-0.2,-0.027l-0.196,-0.028l-0.192,-0.029l-0.188,-0.03l-0.184,-0.032l-0.18,-0.032l-0.176,-0.033l-0.172,-0.035l-0.168,-0.036l-0.164,-0.036l-0.16,-0.038l-0.155,-0.039l-0.152,-0.041l-0.149,-0.041l-0.144,-0.043l-0.14,-0.044l-0.136,-0.045l-0.133,-0.046l-0.129,-0.048l-0.125,-0.049l-0.121,-0.051l-0.117,-0.052l-0.114,-0.053l-0.11,-0.056l-0.106,-0.056l-0.096,-0.055l-0.067,-0.039l-0.07,-0.041l-0.068,-0.042l-0.067,-0.042l-0.067,-0.044l-0.065,-0.044l-0.065,-0.046l-0.064,-0.046l-0.063,-0.047l-0.062,-0.048l-0.061,-0.049l-0.06,-0.05l-0.059,-0.051l-0.059,-0.051l-0.057,-0.053l-0.056,-0.053l-0.056,-0.054l-0.055,-0.055l-0.053,-0.056l-0.053,-0.057l-0.051,-0.057l-0.051,-0.059l-0.05,-0.059l-0.048,-0.06l-0.048,-0.061l-0.047,-0.062l-0.045,-0.062l-0.045,-0.064l-0.044,-0.064l-0.043,-0.065l-0.041,-0.066l-0.039,-0.063l-0.023,-0.042l-0.049,-0.102l-0.049,-0.107l-0.047,-0.108l-0.043,-0.109l-0.041,-0.109l-0.039,-0.11l-0.035,-0.111l-0.033,-0.112l-0.03,-0.112l-0.027,-0.113l-0.024,-0.113l-0.022,-0.114l-0.018,-0.114l-0.016,-0.115l-0.013,-0.115l-0.01,-0.11l-0.001,-0.077l0.005,-0.077l0.007,-0.081l0.008,-0.08l0.01,-0.08l0.012,-0.079l0.014,-0.078l0.015,-0.078l0.016,-0.077l0.019,-0.077l0.019,-0.076l0.022,-0.075l0.023,-0.074l0.025,-0.074l0.027,-0.073l0.028,-0.072l0.03,-0.071l0.032,-0.071l0.033,-0.07l0.035,-0.068l0.036,-0.068l0.038,-0.067l0.04,-0.067l0.041,-0.065l0.043,-0.064l0.045,-0.063l0.046,-0.063l0.048,-0.061l0.049,-0.061l0.05,-0.059l0.052,-0.058l0.054,-0.058l0.051,-0.052l0.05,-0.051l0.054,-0.053l0.055,-0.053l0.056,-0.051l0.058,-0.051l0.058,-0.05l0.059,-0.048l0.061,-0.048l0.061,-0.047l0.063,-0.046l0.063,-0.045l0.065,-0.044l0.065,-0.044l0.067,-0.042l0.067,-0.041l0.069,-0.041l0.069,-0.04l0.071,-0.038l0.071,-0.038l0.072,-0.037l0.073,-0.036l0.075,-0.035l0.075,-0.034l0.076,-0.033l0.077,-0.032l0.078,-0.032l0.079,-0.031l0.079,-0.029l0.081,-0.029l0.082,-0.028l0.082,-0.027l0.084,-0.026l0.084,-0.026l0.085,-0.024l0.087,-0.024l0.087,-0.023l0.088,-0.022l0.089,-0.021l0.09,-0.02l0.09,-0.02l0.092,-0.019l0.093,-0.017l0.093,-0.018l0.095,-0.016l0.095,-0.015l0.096,-0.015l0.097,-0.014l0.098,-0.013l0.1,-0.012l0.099,-0.011l0.101,-0.011l0.102,-0.009l0.103,-0.009l0.103,-0.009l0.105,-0.007l0.105,-0.007l0.107,-0.006l0.107,-0.005l0.108,-0.004l0.11,-0.003l0.11,-0.003l0.111,-0.002l0.112,-0.001l0.113,-0.001l0.104,0.001l0.103,0.001l0.103,0.002l0.101,0.004l0.102,0.003l0.1,0.005l0.1,0.006l0.1,0.007l0.098,0.007l0.098,0.009l0.097,0.009l0.097,0.01l0.096,0.011l0.095,0.012l0.095,0.013l0.094,0.014l0.094,0.015l0.092,0.016l0.092,0.016l0.092,0.018l0.09,0.018l0.091,0.019l0.089,0.021l0.089,0.021l0.088,0.022l0.087,0.023l0.087,0.024l0.086,0.025l0.085,0.026l0.085,0.026l0.084,0.028l0.083,0.029l0.083,0.029l0.082,0.031l0.081,0.031l0.081,0.033l0.079,0.033l0.08,0.034l0.078,0.035l0.078,0.037l0.077,0.037l0.076,0.038l0.076,0.039l0.075,0.04l0.074,0.041l0.073,0.042l0.073,0.042l0.072,0.044l0.071,0.045l0.07,0.046l0.07,0.046l0.069,0.048l0.068,0.048l0.067,0.05l0.067,0.05l0.066,0.051l0.065,0.053l0.064,0.053l0.064,0.054l0.062,0.055l0.062,0.056l0.062,0.056l0.06,0.058l0.059,0.059l0.049,0.049l0.047,0.049l0.047,0.05l0.047,0.051l0.046,0.052l0.045,0.052l0.045,0.053l0.044,0.053l0.044,0.054l0.043,0.055l0.042,0.056l0.042,0.056l0.041,0.056l0.041,0.058l0.04,0.058l0.04,0.058l0.039,0.059l0.038,0.06l0.038,0.061l0.038,0.062l0.072,0.123l0.07,0.126l0.056,0.106l5.803,-2.1l-0.008,-0.019l-0.043,-0.096l-0.045,-0.096l-0.045,-0.096l-0.046,-0.095l-0.048,-0.095l-0.048,-0.094l-0.049,-0.094l-0.05,-0.093l-0.051,-0.093l-0.052,-0.093l-0.055,-0.095l-0.047,-0.082l-0.044,-0.078l-0.046,-0.077l-0.046,-0.076l-0.046,-0.076l-0.047,-0.076l-0.048,-0.075l-0.048,-0.074l-0.049,-0.074l-0.049,-0.074l-0.05,-0.072l-0.05,-0.073l-0.051,-0.072l-0.052,-0.071l-0.052,-0.071l-0.052,-0.07l-0.053,-0.07l-0.054,-0.069l-0.054,-0.069l-0.055,-0.068l-0.056,-0.068l-0.056,-0.067l-0.056,-0.067l-0.057,-0.066l-0.058,-0.066l-0.058,-0.065l-0.059,-0.065l-0.06,-0.064l-0.059,-0.064l-0.061,-0.063l-0.061,-0.063l-0.062,-0.062l-0.062,-0.062l-0.063,-0.061l-0.063,-0.061l-0.064,-0.06l-0.065,-0.059l-0.065,-0.06l-0.065,-0.058l-0.067,-0.058l-0.066,-0.058l-0.068,-0.057l-0.068,-0.057l-0.068,-0.056l-0.069,-0.056l-0.07,-0.055l-0.07,-0.055l-0.071,-0.054l-0.072,-0.054l-0.072,-0.053l-0.072,-0.053l-0.074,-0.052l-0.074,-0.052l-0.074,-0.051l-0.075,-0.051l-0.075,-0.05l-0.077,-0.05l-0.076,-0.049l-0.078,-0.049l-0.078,-0.048l-0.078,-0.048l-0.079,-0.047l-0.08,-0.047l-0.082,-0.047l-0.094,-0.055l-0.093,-0.052l-0.093,-0.051l-0.094,-0.05l-0.096,-0.05l-0.096,-0.049l-0.097,-0.048l-0.097,-0.047l-0.099,-0.047l-0.1,-0.045l-0.1,-0.045l-0.101,-0.044l-0.102,-0.043l-0.103,-0.042l-0.104,-0.042l-0.104,-0.041l-0.106,-0.04l-0.106,-0.039l-0.107,-0.038l-0.108,-0.037l-0.109,-0.037l-0.11,-0.036l-0.111,-0.035l-0.111,-0.034l-0.113,-0.033l-0.113,-0.033l-0.114,-0.031l-0.115,-0.031l-0.116,-0.03l-0.117,-0.029l-0.118,-0.029l-0.118,-0.027l-0.12,-0.027l-0.12,-0.026l-0.121,-0.025l-0.122,-0.024l-0.123,-0.023l-0.124,-0.022l-0.125,-0.022l-0.125,-0.021l-0.127,-0.02l-0.127,-0.019l-0.128,-0.018l-0.129,-0.018l-0.13,-0.016l-0.131,-0.016l-0.132,-0.015l-0.132,-0.014l-0.134,-0.013l-0.134,-0.013l-0.135,-0.011l-0.136,-0.011l-0.137,-0.01l-0.138,-0.009l-0.139,-0.008l-0.14,-0.007l-0.14,-0.007l-0.141,-0.005l-0.143,-0.005l-0.143,-0.004l-0.144,-0.003l-0.145,-0.002l-0.146,-0.001l-0.146,-0.001l-0.153,0.001Z" style="fill:#d4d7de;"/><g transform="matrix(64,0,0,64,250.867,190.033)"><path d="M0.05,0l0,-0.735l0.193,0c0.039,0 0.072,0.008 0.101,0.025c0.025,0.015 0.046,0.035 0.062,0.062c0.018,0.032 0.027,0.07 0.027,0.113c0,0.037 -0.007,0.068 -0.022,0.094c-0.014,0.023 -0.032,0.042 -0.055,0.056c0.005,0.002 0.009,0.004 0.014,0.007c0.028,0.016 0.049,0.037 0.064,0.064c0.016,0.027 0.024,0.06 0.024,0.099c0,0.046 -0.01,0.085 -0.029,0.118c-0.017,0.029 -0.039,0.052 -0.068,0.069c-0.033,0.019 -0.072,0.028 -0.118,0.028l-0.193,0Zm0.113,-0.433l0.08,0c0.013,0 0.025,-0.003 0.036,-0.009c0.011,-0.006 0.019,-0.015 0.026,-0.027c0.01,-0.017 0.015,-0.039 0.015,-0.065c-0.001,-0.025 -0.006,-0.046 -0.015,-0.063c-0.007,-0.012 -0.015,-0.021 -0.026,-0.027c-0.011,-0.006 -0.023,-0.009 -0.036,-0.009l-0.08,0l0,0.2Zm0,0.331l0.081,0c0.02,0 0.037,-0.004 0.051,-0.013c0.014,-0.008 0.025,-0.019 0.034,-0.034c0.011,-0.018 0.016,-0.04 0.016,-0.067c0,-0.027 -0.005,-0.049 -0.016,-0.068c-0.009,-0.015 -0.021,-0.027 -0.034,-0.034c-0.015,-0.009 -0.032,-0.013 -0.052,-0.013l-0.08,0l0,0.229Z" style="fill:#fff;fill-rule:nonzero;"/></g><g transform="matrix(64,0,0,64,282.867,190.033)"><path d="M0.25,-0.609c-0.016,0 -0.03,-0.003 -0.042,-0.01c-0.01,-0.006 -0.018,-0.014 -0.024,-0.024c-0.007,-0.012 -0.01,-0.026 -0.01,-0.042c0,-0.016 0.003,-0.03 0.01,-0.042c0.006,-0.01 0.014,-0.018 0.024,-0.024c0.012,-0.007 0.026,-0.01 0.042,-0.01c0.016,0 0.03,0.003 0.042,0.01c0.01,0.006 0.018,0.014 0.024,0.024c0.007,0.012 0.01,0.026 0.01,0.042c0,0.016 -0.003,0.03 -0.01,0.042c-0.006,0.01 -0.014,0.018 -0.024,0.024c-0.012,0.007 -0.026,0.01 -0.042,0.01Zm-0.175,0.609l0,-0.102l0.125,0l0,-0.326l-0.111,0l0,-0.102l0.225,0l0,0.428l0.111,0l0,0.102l-0.35,0Z" style="fill:#fff;fill-rule:nonzero;"/></g><g transform="matrix(64,0,0,64,314.867,190.033)"><path d="M0.322,0.008c-0.033,0 -0.062,-0.007 -0.087,-0.021c-0.025,-0.015 -0.045,-0.035 -0.061,-0.062c-0.021,-0.036 -0.031,-0.081 -0.031,-0.134l0,-0.219l-0.094,0l0,-0.102l0.094,0l0,-0.205l0.114,0l0,0.205l0.142,0l0,0.102l-0.142,0l0,0.219c-0.001,0.035 0.005,0.064 0.018,0.085c0.006,0.011 0.014,0.019 0.023,0.024c0.007,0.004 0.015,0.006 0.024,0.006c0.009,0 0.018,-0.002 0.025,-0.006c0.009,-0.005 0.017,-0.014 0.024,-0.026c0.009,-0.016 0.015,-0.036 0.017,-0.059l0.109,0.03c-0.005,0.03 -0.014,0.056 -0.028,0.079c-0.015,0.027 -0.036,0.048 -0.061,0.063c-0.025,0.014 -0.053,0.021 -0.086,0.021Z" style="fill:#fff;fill-rule:nonzero;"/></g><g transform="matrix(64,0,0,64,346.867,190.033)"><path d="M0.247,0.008c-0.05,0 -0.091,-0.009 -0.123,-0.028c-0.028,-0.016 -0.05,-0.038 -0.065,-0.065c-0.005,-0.008 -0.009,-0.016 -0.012,-0.025l0.105,-0.038c0.005,0.011 0.011,0.02 0.018,0.027c0.018,0.018 0.044,0.027 0.077,0.027c0.037,0 0.063,-0.008 0.078,-0.024c0.008,-0.008 0.012,-0.018 0.013,-0.03c-0.001,-0.009 -0.003,-0.017 -0.007,-0.025c-0.006,-0.01 -0.014,-0.018 -0.025,-0.024c-0.015,-0.009 -0.041,-0.015 -0.078,-0.018c-0.044,-0.004 -0.078,-0.013 -0.101,-0.026c-0.023,-0.014 -0.042,-0.033 -0.056,-0.057c-0.015,-0.025 -0.022,-0.053 -0.022,-0.084c0,-0.027 0.006,-0.051 0.018,-0.072c0.013,-0.022 0.031,-0.04 0.055,-0.054c0.035,-0.02 0.079,-0.03 0.131,-0.03c0.05,0 0.091,0.009 0.123,0.028c0.028,0.016 0.05,0.038 0.065,0.065c0.005,0.008 0.009,0.016 0.012,0.025l-0.105,0.038c-0.005,-0.011 -0.011,-0.02 -0.018,-0.027c-0.018,-0.018 -0.044,-0.027 -0.077,-0.027c-0.037,0 -0.063,0.008 -0.078,0.024c-0.008,0.008 -0.012,0.018 -0.013,0.03c0.001,0.009 0.003,0.017 0.007,0.025c0.006,0.01 0.014,0.018 0.025,0.024c0.015,0.009 0.041,0.015 0.078,0.018c0.044,0.004 0.078,0.013 0.101,0.027c0.023,0.013 0.042,0.032 0.056,0.056c0.015,0.025 0.022,0.053 0.022,0.084c0,0.027 -0.006,0.051 -0.018,0.072c-0.013,0.022 -0.031,0.04 -0.055,0.054c-0.035,0.02 -0.079,0.03 -0.131,0.03Z" style="fill:#fff;fill-rule:nonzero;"/></g></g></g></svg>