<?xml version="1.0" encoding="UTF-8" standalone="no"?><!DOCTYPE svg PUBLIC "-//W3C//DTD SVG 1.1//EN" "http://www.w3.org/Graphics/SVG/1.1/DTD/svg11.dtd"><svg width="100%" height="100%" viewBox="0 0 400 400" version="1.1" xmlns="http://www.w3.org/2000/svg" xmlns:xlink="http://www.w3.org/1999/xlink" xml:space="preserve" xmlns:serif="http://www.serif.com/" style="fill-rule:evenodd;clip-rule:evenodd;stroke-linecap:round;stroke-linejoin:round;stroke-miterlimit:1.5;"><g id="Reads-Circle" serif:id="Reads Circle"><circle id="BG" cx="200" cy="200" r="200" style="fill:#282c34;"/><clipPath id="_clip1"><circle cx="200" cy="200" r="200"/></clipPath><g clip-path="url(#_clip1)"><g id="Books"><path d="M140,273.84l-125.74,0c-19.038,1.739 -18.988,50.421 -0,52.16l125.74,0" style="fill:#e9f9f8;"/><clipPath id="_clip2"><path d="M140,273.84l-125.74,0c-19.038,1.739 -18.988,50.421 -0,52.16l125.74,0"/></clipPath><g clip-path="url(#_clip2)"><path d="M54.966,312.67l109.046,0" style="fill:none;stroke:#282c34;stroke-opacity:0.47;stroke-width:0.2px;"/><path d="M24.55,290.673c26.436,-0.242 52.874,-0.076 79.311,-0.076" style="fill:none;stroke:#282c34;stroke-opacity:0.47;stroke-width:0.2px;"/><path d="M88.085,304.647l44.371,0" style="fill:none;stroke:#282c34;stroke-opacity:0.47;stroke-width:0.2px;"/></g><path d="M140,273.84l-125.74,0c-19.038,1.739 -18.988,50.421 -0,52.16l125.74,0" style="fill:none;stroke:#217342;stroke-width:6.01px;"/><path d="M442,133.84l-125.74,0c-19.038,1.739 -18.988,50.421 -0,52.16l125.74,0" style="fill:#e9f9f8;"/><clipPath id="_clip3"><path d="M442,133.84l-125.74,0c-19.038,1.739 -18.988,50.421 -0,52.16l125.74,0"/></clipPath><g clip-path="url(#_clip3)"><path d="M356.966,172.67l109.046,0" style="fill:none;stroke:#282c34;stroke-opacity:0.47;stroke-width:0.2px;"/><path d="M326.55,150.673c26.436,-0.242 52.874,-0.076 79.311,-0.076" style="fill:none;stroke:#282c34;stroke-opacity:0.47;stroke-width:0.2px;"/><path d="M390.085,164.647l44.371,0" style="fill:none;stroke:#282c34;stroke-opacity:0.47;stroke-width:0.2px;"/></g><path d="M442,133.84l-125.74,0c-19.038,1.739 -18.988,50.421 -0,52.16l125.74,0" style="fill:none;stroke:#217342;stroke-width:6.01px;"/><path d="M302,359.84l125.74,0c19.038,1.739 18.988,50.421 0,52.16l-125.74,-0" style="fill:#e9f9f8;"/><clipPath id="_clip4"><path d="M302,359.84l125.74,0c19.038,1.739 18.988,50.421 0,52.16l-125.74,-0"/></clipPath><g clip-path="url(#_clip4)"><path d="M387.034,398.67l-109.046,0" style="fill:none;stroke:#282c34;stroke-opacity:0.47;stroke-width:0.2px;"/><path d="M417.45,376.673c-26.436,-0.242 -52.874,-0.076 -79.311,-0.076" style="fill:none;stroke:#282c34;stroke-opacity:0.47;stroke-width:0.2px;"/><path d="M353.915,390.647l-44.371,0" style="fill:none;stroke:#282c34;stroke-opacity:0.47;stroke-width:0.2px;"/></g><path d="M302,359.84l125.74,0c19.038,1.739 18.988,50.421 0,52.16l-125.74,-0" style="fill:none;stroke:#217342;stroke-width:6.01px;"/><path d="M292,397.84l-125.74,0c-19.038,1.739 -18.988,50.421 -0,52.16l125.74,-0" style="fill:#e9f9f8;"/><path d="M292,397.84l-125.74,0c-19.038,1.739 -18.988,50.421 -0,52.16l125.74,-0" style="fill:none;stroke:#217342;stroke-width:6.01px;"/><path d="M292,-2.16l-125.74,0c-19.038,1.739 -18.988,50.421 -0,52.16l125.74,0" style="fill:#e9f9f8;"/><clipPath id="_clip5"><path d="M292,-2.16l-125.74,0c-19.038,1.739 -18.988,50.421 -0,52.16l125.74,0"/></clipPath><g clip-path="url(#_clip5)"><path d="M206.966,36.67l109.046,0" style="fill:none;stroke:#282c34;stroke-opacity:0.47;stroke-width:0.2px;"/><path d="M176.55,14.673c26.436,-0.242 52.874,-0.076 79.311,-0.076" style="fill:none;stroke:#282c34;stroke-opacity:0.47;stroke-width:0.2px;"/><path d="M240.085,28.647l44.371,0" style="fill:none;stroke:#282c34;stroke-opacity:0.47;stroke-width:0.2px;"/></g><path d="M292,-2.16l-125.74,0c-19.038,1.739 -18.988,50.421 -0,52.16l125.74,0" style="fill:none;stroke:#217342;stroke-width:6.01px;"/><path d="M140,101.84l-125.74,0c-19.038,1.739 -18.988,50.421 -0,52.16l125.74,0" style="fill:#e9f9f8;"/><clipPath id="_clip6"><path d="M140,101.84l-125.74,0c-19.038,1.739 -18.988,50.421 -0,52.16l125.74,0"/></clipPath><g clip-path="url(#_clip6)"><path d="M54.966,140.67l109.046,0" style="fill:none;stroke:#282c34;stroke-opacity:0.47;stroke-width:0.2px;"/><path d="M24.55,118.673c26.436,-0.242 52.874,-0.076 79.311,-0.076" style="fill:none;stroke:#282c34;stroke-opacity:0.47;stroke-width:0.2px;"/><path d="M88.085,132.647l44.371,0" style="fill:none;stroke:#282c34;stroke-opacity:0.47;stroke-width:0.2px;"/></g><path d="M140,101.84l-125.74,0c-19.038,1.739 -18.988,50.421 -0,52.16l125.74,0" style="fill:none;stroke:#217342;stroke-width:6.01px;"/><path d="M292,225.84l-125.74,0c-19.038,1.739 -18.988,50.421 -0,52.16l125.74,0" style="fill:#e9f9f8;"/><clipPath id="_clip7"><path d="M292,225.84l-125.74,0c-19.038,1.739 -18.988,50.421 -0,52.16l125.74,0"/></clipPath><g clip-path="url(#_clip7)"><path d="M206.966,264.67l109.046,0" style="fill:none;stroke:#282c34;stroke-opacity:0.47;stroke-width:0.2px;"/><path d="M176.55,242.673c26.436,-0.242 52.874,-0.076 79.311,-0.076" style="fill:none;stroke:#282c34;stroke-opacity:0.47;stroke-width:0.2px;"/><path d="M240.085,256.647l44.371,0" style="fill:none;stroke:#282c34;stroke-opacity:0.47;stroke-width:0.2px;"/></g><path d="M292,225.84l-125.74,0c-19.038,1.739 -18.988,50.421 -0,52.16l125.74,0" style="fill:none;stroke:#217342;stroke-width:6.01px;"/><path d="M0,226.194l125.74,0c19.038,1.051 18.988,30.477 0,31.528l-125.74,0" style="fill:#fffef8;"/><clipPath id="_clip8"><path d="M0,226.194l125.74,0c19.038,1.051 18.988,30.477 0,31.528l-125.74,0"/></clipPath><g clip-path="url(#_clip8)"><path d="M19.082,251.492l82.429,0" style="fill:none;stroke:#282c34;stroke-opacity:0.47;stroke-width:0.2px;"/><path d="M65.413,241.696c21.819,0.103 43.628,-0.397 65.449,-0.41" style="fill:none;stroke:#282c34;stroke-opacity:0.47;stroke-width:0.2px;"/><path d="M2.808,237.334l89.251,-0" style="fill:none;stroke:#282c34;stroke-opacity:0.47;stroke-width:0.2px;"/></g><path d="M0,226.194l125.74,0c19.038,1.051 18.988,30.477 0,31.528l-125.74,0" style="fill:none;stroke:#b75353;stroke-width:4.18px;"/><path d="M302,86.194l125.74,0c19.038,1.051 18.988,30.477 0,31.528l-125.74,0" style="fill:#fffef8;"/><clipPath id="_clip9"><path d="M302,86.194l125.74,0c19.038,1.051 18.988,30.477 0,31.528l-125.74,0"/></clipPath><g clip-path="url(#_clip9)"><path d="M321.082,111.492l82.429,0" style="fill:none;stroke:#282c34;stroke-opacity:0.47;stroke-width:0.2px;"/><path d="M367.413,101.696c21.819,0.103 43.628,-0.397 65.449,-0.41" style="fill:none;stroke:#282c34;stroke-opacity:0.47;stroke-width:0.2px;"/><path d="M304.808,97.334l89.251,-0" style="fill:none;stroke:#282c34;stroke-opacity:0.47;stroke-width:0.2px;"/></g><path d="M302,86.194l125.74,0c19.038,1.051 18.988,30.477 0,31.528l-125.74,0" style="fill:none;stroke:#b75353;stroke-width:4.18px;"/><path d="M442,312.194l-125.74,0c-19.038,1.051 -18.988,30.477 -0,31.528l125.74,0" style="fill:#fffef8;"/><clipPath id="_clip10"><path d="M442,312.194l-125.74,0c-19.038,1.051 -18.988,30.477 -0,31.528l125.74,0"/></clipPath><g clip-path="url(#_clip10)"><path d="M422.918,337.492l-82.429,0" style="fill:none;stroke:#282c34;stroke-opacity:0.47;stroke-width:0.2px;"/><path d="M376.587,327.696c-21.819,0.103 -43.628,-0.397 -65.449,-0.41" style="fill:none;stroke:#282c34;stroke-opacity:0.47;stroke-width:0.2px;"/><path d="M439.192,323.334l-89.251,-0" style="fill:none;stroke:#282c34;stroke-opacity:0.47;stroke-width:0.2px;"/></g><path d="M442,312.194l-125.74,0c-19.038,1.051 -18.988,30.477 -0,31.528l125.74,0" style="fill:none;stroke:#b75353;stroke-width:4.18px;"/><path d="M152,350.194l125.74,0c19.038,1.051 18.988,30.477 0,31.528l-125.74,0" style="fill:#fffef8;"/><clipPath id="_clip11"><path d="M152,350.194l125.74,0c19.038,1.051 18.988,30.477 0,31.528l-125.74,0"/></clipPath><g clip-path="url(#_clip11)"><path d="M171.082,375.492l82.429,0" style="fill:none;stroke:#282c34;stroke-opacity:0.47;stroke-width:0.2px;"/><path d="M217.413,365.696c21.819,0.103 43.628,-0.397 65.449,-0.41" style="fill:none;stroke:#282c34;stroke-opacity:0.47;stroke-width:0.2px;"/><path d="M154.808,361.334l89.251,-0" style="fill:none;stroke:#282c34;stroke-opacity:0.47;stroke-width:0.2px;"/></g><path d="M152,350.194l125.74,0c19.038,1.051 18.988,30.477 0,31.528l-125.74,0" style="fill:none;stroke:#b75353;stroke-width:4.18px;"/><path d="M0,54.194l125.74,0c19.038,1.051 18.988,30.477 0,31.528l-125.74,0" style="fill:#fffef8;"/><clipPath id="_clip12"><path d="M0,54.194l125.74,0c19.038,1.051 18.988,30.477 0,31.528l-125.74,0"/></clipPath><g clip-path="url(#_clip12)"><path d="M19.082,79.492l82.429,0" style="fill:none;stroke:#282c34;stroke-opacity:0.47;stroke-width:0.2px;"/><path d="M65.413,69.696c21.819,0.103 43.628,-0.397 65.449,-0.41" style="fill:none;stroke:#282c34;stroke-opacity:0.47;stroke-width:0.2px;"/><path d="M2.808,65.334l89.251,-0" style="fill:none;stroke:#282c34;stroke-opacity:0.47;stroke-width:0.2px;"/></g><path d="M0,54.194l125.74,0c19.038,1.051 18.988,30.477 0,31.528l-125.74,0" style="fill:none;stroke:#b75353;stroke-width:4.18px;"/><path d="M152,178.194l125.74,0c19.038,1.051 18.988,30.477 0,31.528l-125.74,0" style="fill:#fffef8;"/><clipPath id="_clip13"><path d="M152,178.194l125.74,0c19.038,1.051 18.988,30.477 0,31.528l-125.74,0"/></clipPath><g clip-path="url(#_clip13)"><path d="M171.082,203.492l82.429,0" style="fill:none;stroke:#282c34;stroke-opacity:0.47;stroke-width:0.2px;"/><path d="M217.413,193.696c21.819,0.103 43.628,-0.397 65.449,-0.41" style="fill:none;stroke:#282c34;stroke-opacity:0.47;stroke-width:0.2px;"/><path d="M154.808,189.334l89.251,-0" style="fill:none;stroke:#282c34;stroke-opacity:0.47;stroke-width:0.2px;"/></g><path d="M152,178.194l125.74,0c19.038,1.051 18.988,30.477 0,31.528l-125.74,0" style="fill:none;stroke:#b75353;stroke-width:4.18px;"/><path d="M0,226.194l125.74,0c19.038,1.051 18.988,30.477 0,31.528l-125.74,0" style="fill:#fffef8;"/><clipPath id="_clip14"><path d="M0,226.194l125.74,0c19.038,1.051 18.988,30.477 0,31.528l-125.74,0"/></clipPath><g clip-path="url(#_clip14)"><path d="M19.082,251.492l82.429,0" style="fill:none;stroke:#282c34;stroke-opacity:0.47;stroke-width:0.2px;"/><path d="M65.413,241.696c21.819,0.103 43.628,-0.397 65.449,-0.41" style="fill:none;stroke:#282c34;stroke-opacity:0.47;stroke-width:0.2px;"/><path d="M2.808,237.334l89.251,-0" style="fill:none;stroke:#282c34;stroke-opacity:0.47;stroke-width:0.2px;"/></g><path d="M0,226.194l125.74,0c19.038,1.051 18.988,30.477 0,31.528l-125.74,0" style="fill:none;stroke:#b75353;stroke-width:4.18px;"/><path d="M302,86.194l125.74,0c19.038,1.051 18.988,30.477 0,31.528l-125.74,0" style="fill:#fffef8;"/><clipPath id="_clip15"><path d="M302,86.194l125.74,0c19.038,1.051 18.988,30.477 0,31.528l-125.74,0"/></clipPath><g clip-path="url(#_clip15)"><path d="M321.082,111.492l82.429,0" style="fill:none;stroke:#282c34;stroke-opacity:0.47;stroke-width:0.2px;"/><path d="M367.413,101.696c21.819,0.103 43.628,-0.397 65.449,-0.41" style="fill:none;stroke:#282c34;stroke-opacity:0.47;stroke-width:0.2px;"/><path d="M304.808,97.334l89.251,-0" style="fill:none;stroke:#282c34;stroke-opacity:0.47;stroke-width:0.2px;"/></g><path d="M302,86.194l125.74,0c19.038,1.051 18.988,30.477 0,31.528l-125.74,0" style="fill:none;stroke:#b75353;stroke-width:4.18px;"/><path d="M442,312.194l-125.74,0c-19.038,1.051 -18.988,30.477 -0,31.528l125.74,0" style="fill:#fffef8;"/><clipPath id="_clip16"><path d="M442,312.194l-125.74,0c-19.038,1.051 -18.988,30.477 -0,31.528l125.74,0"/></clipPath><g clip-path="url(#_clip16)"><path d="M422.918,337.492l-82.429,0" style="fill:none;stroke:#282c34;stroke-opacity:0.47;stroke-width:0.2px;"/><path d="M376.587,327.696c-21.819,0.103 -43.628,-0.397 -65.449,-0.41" style="fill:none;stroke:#282c34;stroke-opacity:0.47;stroke-width:0.2px;"/><path d="M439.192,323.334l-89.251,-0" style="fill:none;stroke:#282c34;stroke-opacity:0.47;stroke-width:0.2px;"/></g><path d="M442,312.194l-125.74,0c-19.038,1.051 -18.988,30.477 -0,31.528l125.74,0" style="fill:none;stroke:#b75353;stroke-width:4.18px;"/><path d="M152,350.194l125.74,0c19.038,1.051 18.988,30.477 0,31.528l-125.74,0" style="fill:#fffef8;"/><clipPath id="_clip17"><path d="M152,350.194l125.74,0c19.038,1.051 18.988,30.477 0,31.528l-125.74,0"/></clipPath><g clip-path="url(#_clip17)"><path d="M171.082,375.492l82.429,0" style="fill:none;stroke:#282c34;stroke-opacity:0.47;stroke-width:0.2px;"/><path d="M217.413,365.696c21.819,0.103 43.628,-0.397 65.449,-0.41" style="fill:none;stroke:#282c34;stroke-opacity:0.47;stroke-width:0.2px;"/><path d="M154.808,361.334l89.251,-0" style="fill:none;stroke:#282c34;stroke-opacity:0.47;stroke-width:0.2px;"/></g><path d="M152,350.194l125.74,0c19.038,1.051 18.988,30.477 0,31.528l-125.74,0" style="fill:none;stroke:#b75353;stroke-width:4.18px;"/><path d="M0,54.194l125.74,0c19.038,1.051 18.988,30.477 0,31.528l-125.74,0" style="fill:#fffef8;"/><clipPath id="_clip18"><path d="M0,54.194l125.74,0c19.038,1.051 18.988,30.477 0,31.528l-125.74,0"/></clipPath><g clip-path="url(#_clip18)"><path d="M19.082,79.492l82.429,0" style="fill:none;stroke:#282c34;stroke-opacity:0.47;stroke-width:0.2px;"/><path d="M65.413,69.696c21.819,0.103 43.628,-0.397 65.449,-0.41" style="fill:none;stroke:#282c34;stroke-opacity:0.47;stroke-width:0.2px;"/><path d="M2.808,65.334l89.251,-0" style="fill:none;stroke:#282c34;stroke-opacity:0.47;stroke-width:0.2px;"/></g><path d="M0,54.194l125.74,0c19.038,1.051 18.988,30.477 0,31.528l-125.74,0" style="fill:none;stroke:#b75353;stroke-width:4.18px;"/><path d="M152,178.194l125.74,0c19.038,1.051 18.988,30.477 0,31.528l-125.74,0" style="fill:#fffef8;"/><clipPath id="_clip19"><path d="M152,178.194l125.74,0c19.038,1.051 18.988,30.477 0,31.528l-125.74,0"/></clipPath><g clip-path="url(#_clip19)"><path d="M171.082,203.492l82.429,0" style="fill:none;stroke:#282c34;stroke-opacity:0.47;stroke-width:0.2px;"/><path d="M217.413,193.696c21.819,0.103 43.628,-0.397 65.449,-0.41" style="fill:none;stroke:#282c34;stroke-opacity:0.47;stroke-width:0.2px;"/><path d="M154.808,189.334l89.251,-0" style="fill:none;stroke:#282c34;stroke-opacity:0.47;stroke-width:0.2px;"/></g><path d="M152,178.194l125.74,0c19.038,1.051 18.988,30.477 0,31.528l-125.74,0" style="fill:none;stroke:#b75353;stroke-width:4.18px;"/><path d="M140,170l-125.74,0c-19.038,1.425 -18.988,41.315 -0,42.74l125.74,-0" style="fill:#fffde6;"/><clipPath id="_clip20"><path d="M140,170l-125.74,0c-19.038,1.425 -18.988,41.315 -0,42.74l125.74,-0"/></clipPath><g clip-path="url(#_clip20)"><path d="M64.4,180.827l66.462,-0" style="fill:none;stroke:#282c34;stroke-opacity:0.47;stroke-width:0.2px;"/><path d="M17.897,189.375l89.251,-0" style="fill:none;stroke:#282c34;stroke-opacity:0.47;stroke-width:0.2px;"/><path d="M43.045,197.923l49.014,-0" style="fill:none;stroke:#282c34;stroke-opacity:0.47;stroke-width:0.2px;"/></g><path d="M140,170l-125.74,0c-19.038,1.425 -18.988,41.315 -0,42.74l125.74,-0" style="fill:none;stroke:#b8b08c;stroke-width:5.14px;"/><path d="M442,30l-125.74,0c-19.038,1.425 -18.988,41.315 -0,42.74l125.74,-0" style="fill:#fffde6;"/><clipPath id="_clip21"><path d="M442,30l-125.74,0c-19.038,1.425 -18.988,41.315 -0,42.74l125.74,-0"/></clipPath><g clip-path="url(#_clip21)"><path d="M366.4,40.827l66.462,-0" style="fill:none;stroke:#282c34;stroke-opacity:0.47;stroke-width:0.2px;"/><path d="M319.897,49.375l89.251,-0" style="fill:none;stroke:#282c34;stroke-opacity:0.47;stroke-width:0.2px;"/><path d="M345.045,57.923l49.014,-0" style="fill:none;stroke:#282c34;stroke-opacity:0.47;stroke-width:0.2px;"/></g><path d="M442,30l-125.74,0c-19.038,1.425 -18.988,41.315 -0,42.74l125.74,-0" style="fill:none;stroke:#b8b08c;stroke-width:5.14px;"/><path d="M302,256l125.74,0c19.038,1.425 18.988,41.315 0,42.74l-125.74,-0" style="fill:#fffde6;"/><clipPath id="_clip22"><path d="M302,256l125.74,0c19.038,1.425 18.988,41.315 0,42.74l-125.74,-0"/></clipPath><g clip-path="url(#_clip22)"><path d="M377.6,266.827l-66.462,-0" style="fill:none;stroke:#282c34;stroke-opacity:0.47;stroke-width:0.2px;"/><path d="M424.103,275.375l-89.251,-0" style="fill:none;stroke:#282c34;stroke-opacity:0.47;stroke-width:0.2px;"/><path d="M398.955,283.923l-49.014,-0" style="fill:none;stroke:#282c34;stroke-opacity:0.47;stroke-width:0.2px;"/></g><path d="M302,256l125.74,0c19.038,1.425 18.988,41.315 0,42.74l-125.74,-0" style="fill:none;stroke:#b8b08c;stroke-width:5.14px;"/><path d="M292,294l-125.74,0c-19.038,1.425 -18.988,41.315 -0,42.74l125.74,-0" style="fill:#fffde6;"/><clipPath id="_clip23"><path d="M292,294l-125.74,0c-19.038,1.425 -18.988,41.315 -0,42.74l125.74,-0"/></clipPath><g clip-path="url(#_clip23)"><path d="M216.4,304.827l66.462,-0" style="fill:none;stroke:#282c34;stroke-opacity:0.47;stroke-width:0.2px;"/><path d="M169.897,313.375l89.251,-0" style="fill:none;stroke:#282c34;stroke-opacity:0.47;stroke-width:0.2px;"/><path d="M195.045,321.923l49.014,-0" style="fill:none;stroke:#282c34;stroke-opacity:0.47;stroke-width:0.2px;"/></g><path d="M292,294l-125.74,0c-19.038,1.425 -18.988,41.315 -0,42.74l125.74,-0" style="fill:none;stroke:#b8b08c;stroke-width:5.14px;"/><path d="M140,-2l-125.74,0c-19.038,1.425 -18.988,41.315 -0,42.74l125.74,-0" style="fill:#fffde6;"/><clipPath id="_clip24"><path d="M140,-2l-125.74,0c-19.038,1.425 -18.988,41.315 -0,42.74l125.74,-0"/></clipPath><g clip-path="url(#_clip24)"><path d="M64.4,8.827l66.462,-0" style="fill:none;stroke:#282c34;stroke-opacity:0.47;stroke-width:0.2px;"/><path d="M17.897,17.375l89.251,-0" style="fill:none;stroke:#282c34;stroke-opacity:0.47;stroke-width:0.2px;"/><path d="M43.045,25.923l49.014,-0" style="fill:none;stroke:#282c34;stroke-opacity:0.47;stroke-width:0.2px;"/></g><path d="M140,-2l-125.74,0c-19.038,1.425 -18.988,41.315 -0,42.74l125.74,-0" style="fill:none;stroke:#b8b08c;stroke-width:5.14px;"/><path d="M292,122l-125.74,0c-19.038,1.425 -18.988,41.315 -0,42.74l125.74,-0" style="fill:#fffde6;"/><clipPath id="_clip25"><path d="M292,122l-125.74,0c-19.038,1.425 -18.988,41.315 -0,42.74l125.74,-0"/></clipPath><g clip-path="url(#_clip25)"><path d="M216.4,132.827l66.462,-0" style="fill:none;stroke:#282c34;stroke-opacity:0.47;stroke-width:0.2px;"/><path d="M169.897,141.375l89.251,-0" style="fill:none;stroke:#282c34;stroke-opacity:0.47;stroke-width:0.2px;"/><path d="M195.045,149.923l49.014,-0" style="fill:none;stroke:#282c34;stroke-opacity:0.47;stroke-width:0.2px;"/></g><path d="M292,122l-125.74,0c-19.038,1.425 -18.988,41.315 -0,42.74l125.74,-0" style="fill:none;stroke:#b8b08c;stroke-width:5.14px;"/><path d="M140,340l-125.74,0c-19.038,1.425 -18.988,41.315 -0,42.74l125.74,-0" style="fill:#fffde6;"/><clipPath id="_clip26"><path d="M140,340l-125.74,0c-19.038,1.425 -18.988,41.315 -0,42.74l125.74,-0"/></clipPath><g clip-path="url(#_clip26)"><path d="M64.4,350.827l66.462,-0" style="fill:none;stroke:#282c34;stroke-opacity:0.47;stroke-width:0.2px;"/><path d="M17.897,359.375l89.251,-0" style="fill:none;stroke:#282c34;stroke-opacity:0.47;stroke-width:0.2px;"/><path d="M43.045,367.923l49.014,-0" style="fill:none;stroke:#282c34;stroke-opacity:0.47;stroke-width:0.2px;"/></g><path d="M140,340l-125.74,0c-19.038,1.425 -18.988,41.315 -0,42.74l125.74,-0" style="fill:none;stroke:#b8b08c;stroke-width:5.14px;"/><path d="M442,200l-125.74,0c-19.038,1.425 -18.988,41.315 -0,42.74l125.74,-0" style="fill:#fffde6;"/><clipPath id="_clip27"><path d="M442,200l-125.74,0c-19.038,1.425 -18.988,41.315 -0,42.74l125.74,-0"/></clipPath><g clip-path="url(#_clip27)"><path d="M366.4,210.827l66.462,-0" style="fill:none;stroke:#282c34;stroke-opacity:0.47;stroke-width:0.2px;"/><path d="M319.897,219.375l89.251,-0" style="fill:none;stroke:#282c34;stroke-opacity:0.47;stroke-width:0.2px;"/><path d="M345.045,227.923l49.014,-0" style="fill:none;stroke:#282c34;stroke-opacity:0.47;stroke-width:0.2px;"/></g><path d="M442,200l-125.74,0c-19.038,1.425 -18.988,41.315 -0,42.74l125.74,-0" style="fill:none;stroke:#b8b08c;stroke-width:5.14px;"/><path d="M152,64l125.74,0c19.038,1.425 18.988,41.315 0,42.74l-125.74,-0" style="fill:#fffde6;"/><clipPath id="_clip28"><path d="M152,64l125.74,0c19.038,1.425 18.988,41.315 0,42.74l-125.74,-0"/></clipPath><g clip-path="url(#_clip28)"><path d="M227.6,74.827l-66.462,-0" style="fill:none;stroke:#282c34;stroke-opacity:0.47;stroke-width:0.2px;"/><path d="M274.103,83.375l-89.251,-0" style="fill:none;stroke:#282c34;stroke-opacity:0.47;stroke-width:0.2px;"/><path d="M248.955,91.923l-49.014,-0" style="fill:none;stroke:#282c34;stroke-opacity:0.47;stroke-width:0.2px;"/></g><path d="M152,64l125.74,0c19.038,1.425 18.988,41.315 0,42.74l-125.74,-0" style="fill:none;stroke:#b8b08c;stroke-width:5.14px;"/></g></g><circle id="Overlay" cx="200" cy="200" r="200" style="fill:#282c34;fill-opacity:0.4;"/><g transform="matrix(2,0,0,2,-429.734,-145.171)"><path d="M276.134,174.715c0.807,1.381 1.217,3.046 1.217,4.998c-0,2.308 -0.492,4.28 -1.46,5.916c-0.843,1.449 -1.988,2.612 -3.448,3.495c-1.637,0.935 -3.607,1.409 -5.912,1.409l-9.264,0c-0.276,0 -0.5,-0.223 -0.5,-0.5l-0,-35.28c-0,-0.276 0.224,-0.5 0.5,-0.5c-0,0 9.264,0 9.264,0c1.952,0 3.651,0.427 5.098,1.268c1.289,0.746 2.341,1.795 3.155,3.151l0.007,0.012c0.903,1.606 1.36,3.495 1.36,5.669c-0,1.857 -0.378,3.442 -1.121,4.758l-0.006,0.012c-0.562,0.935 -1.26,1.723 -2.094,2.364c1.399,0.811 2.466,1.888 3.204,3.228Zm-18.367,14.818l8.764,0c2.11,0 3.917,-0.421 5.405,-1.271c1.303,-0.788 2.333,-1.833 3.093,-3.139c0.886,-1.497 1.322,-3.301 1.322,-5.41c-0,-1.756 -0.357,-3.257 -1.084,-4.499l-0.006,-0.012c-0.66,-1.2 -1.622,-2.158 -2.882,-2.878c-0.207,-0.119 -0.414,-0.222 -0.621,-0.311c-0.172,-0.073 -0.288,-0.236 -0.302,-0.422c-0.014,-0.187 0.077,-0.365 0.236,-0.463c1.018,-0.629 1.841,-1.467 2.47,-2.514c0.664,-1.178 0.989,-2.6 0.989,-4.261c-0,-1.982 -0.406,-3.708 -1.229,-5.173c-0.721,-1.2 -1.652,-2.133 -2.795,-2.794c-1.304,-0.759 -2.837,-1.133 -4.596,-1.133l-8.764,0l-0,34.28Zm11.507,-15.198c0.709,0.391 1.315,0.991 1.812,1.806l0.007,0.012c0.551,0.965 0.834,2.135 0.834,3.512c-0,1.383 -0.285,2.538 -0.838,3.471c-0.46,0.779 -1.063,1.389 -1.806,1.831c-0.743,0.442 -1.643,0.67 -2.704,0.67l-3.888,0c-0.276,0 -0.5,-0.223 -0.5,-0.5l-0,-10.992c-0,-0.276 0.224,-0.5 0.5,-0.5c-0,0 3.84,0 3.84,0c1.055,0 1.969,0.234 2.743,0.69Zm-6.083,10.302l3.388,0c0.859,0 1.591,-0.171 2.192,-0.529c0.601,-0.358 1.086,-0.852 1.458,-1.481c0.471,-0.795 0.698,-1.784 0.698,-2.962c-0,-1.179 -0.228,-2.184 -0.699,-3.01c-0.397,-0.651 -0.875,-1.136 -1.442,-1.447l-0.014,-0.008c-0.631,-0.373 -1.38,-0.555 -2.241,-0.555l-3.34,0l-0,9.992Zm-1,-15.388c-0,0.277 0.224,0.5 0.5,0.5l3.84,0c0.731,0 1.388,-0.167 1.973,-0.496c0.589,-0.331 1.071,-0.826 1.44,-1.489c0.515,-0.892 0.783,-2.014 0.783,-3.363l-0,-0.013c-0.035,-1.309 -0.301,-2.393 -0.784,-3.255c-0.368,-0.661 -0.85,-1.156 -1.439,-1.487c-0.585,-0.329 -1.242,-0.497 -1.973,-0.497l-3.84,0c-0.276,0 -0.5,0.224 -0.5,0.5l-0,9.6Zm1,-0.5l3.34,0c0.549,0 1.043,-0.12 1.483,-0.367c0.434,-0.245 0.784,-0.614 1.06,-1.11c0.44,-0.764 0.652,-1.72 0.653,-2.864c-0.03,-1.119 -0.244,-2.049 -0.657,-2.788c-0.272,-0.489 -0.622,-0.858 -1.056,-1.103c-0.44,-0.247 -0.934,-0.368 -1.483,-0.368l-3.34,0l-0,8.6Z" style="fill:#d4d7de;"/><path d="M290.867,190.917c2.078,0 3.888,-0.441 5.43,-1.312c1.456,-0.847 2.621,-2.027 3.499,-3.545c1.032,-1.798 1.555,-3.992 1.555,-6.587c-0,0 -0,-4.32 -0,-4.32c-0,-2.594 -0.523,-4.788 -1.555,-6.584c-0.878,-1.52 -2.043,-2.7 -3.494,-3.544c-1.547,-0.875 -3.357,-1.316 -5.435,-1.316c-2.079,0 -3.888,0.441 -5.43,1.313c-1.457,0.847 -2.622,2.027 -3.499,3.545c-1.032,1.798 -1.555,3.992 -1.555,6.586c-0,0 -0,4.32 -0,4.32c-0,2.595 0.523,4.789 1.554,6.585c0.878,1.52 2.043,2.7 3.494,3.544c1.548,0.874 3.357,1.315 5.436,1.315Zm-0,-1c-1.89,0 -3.536,-0.391 -4.938,-1.183c-1.296,-0.753 -2.339,-1.813 -3.125,-3.175c-0.952,-1.658 -1.421,-3.688 -1.421,-6.086l-0,-4.32c-0,-2.397 0.469,-4.427 1.421,-6.087c0.786,-1.36 1.829,-2.42 3.13,-3.176c1.397,-0.79 3.043,-1.181 4.933,-1.181c1.889,0 3.536,0.391 4.938,1.184c1.295,0.753 2.338,1.813 3.125,3.175c0.952,1.658 1.421,3.688 1.421,6.085l-0,4.32c-0,2.398 -0.469,4.428 -1.422,6.088c-0.786,1.36 -1.829,2.42 -3.13,3.176c-1.396,0.789 -3.043,1.18 -4.932,1.18Zm-2.315,-20.716c0.647,-0.393 1.418,-0.596 2.315,-0.596c0.897,0 1.668,0.203 2.315,0.596c0.712,0.394 1.304,0.998 1.765,1.813c0.612,1.055 0.946,2.429 0.98,4.129l-0,4.34c-0.034,1.701 -0.368,3.075 -0.977,4.124c-0.464,0.821 -1.056,1.425 -1.768,1.819c-0.647,0.393 -1.418,0.595 -2.315,0.595c-0.897,0 -1.668,-0.202 -2.315,-0.595c-0.713,-0.394 -1.305,-0.998 -1.766,-1.813c-0.612,-1.055 -0.945,-2.429 -0.979,-4.13l-0,-4.34c0.034,-1.7 0.367,-3.074 0.977,-4.124c0.463,-0.82 1.055,-1.424 1.768,-1.818Zm2.315,15.82c-0.699,0 -1.301,-0.147 -1.803,-0.454l-0.02,-0.012c-0.563,-0.309 -1.024,-0.792 -1.39,-1.44c-0.543,-0.934 -0.817,-2.152 -0.847,-3.652c-0,0.01 -0,-4.31 -0,-4.31c0.03,-1.489 0.304,-2.707 0.844,-3.636c0.369,-0.653 0.83,-1.136 1.393,-1.445l0.02,-0.012c0.502,-0.307 1.104,-0.455 1.803,-0.455c0.698,0 1.3,0.148 1.803,0.455l0.02,0.012c0.563,0.309 1.023,0.792 1.39,1.439c0.542,0.935 0.817,2.153 0.847,3.652c-0,-0.01 -0,4.31 -0,4.31c-0.03,1.49 -0.305,2.708 -0.845,3.637c-0.369,0.653 -0.829,1.136 -1.392,1.445l-0.02,0.012c-0.503,0.307 -1.105,0.454 -1.803,0.454Z" style="fill:#d4d7de;"/><path d="M314.867,190.917c2.078,0 3.888,-0.441 5.43,-1.312c1.456,-0.847 2.621,-2.027 3.499,-3.545c1.032,-1.798 1.555,-3.992 1.555,-6.587l-0,-4.32c-0,-2.594 -0.523,-4.788 -1.555,-6.584c-0.878,-1.52 -2.043,-2.7 -3.494,-3.544c-1.547,-0.875 -3.357,-1.316 -5.435,-1.316c-2.079,0 -3.888,0.441 -5.43,1.313c-1.457,0.847 -2.622,2.027 -3.499,3.545c-1.032,1.798 -1.555,3.992 -1.555,6.586l-0,4.32c-0,2.595 0.523,4.789 1.554,6.585c0.878,1.52 2.043,2.7 3.494,3.544c1.548,0.874 3.357,1.315 5.436,1.315Zm-0,-1c-1.89,0 -3.536,-0.391 -4.938,-1.183c-1.296,-0.753 -2.339,-1.813 -3.125,-3.175c-0.952,-1.658 -1.421,-3.688 -1.421,-6.086c-0,0 -0,-4.32 -0,-4.32c-0,-2.397 0.469,-4.427 1.421,-6.087c0.786,-1.36 1.829,-2.42 3.13,-3.176c1.397,-0.79 3.043,-1.181 4.933,-1.181c1.889,0 3.536,0.391 4.938,1.184c1.295,0.753 2.338,1.813 3.125,3.175c0.952,1.658 1.421,3.688 1.421,6.085c-0,0 -0,4.32 -0,4.32c-0,2.398 -0.469,4.428 -1.422,6.088c-0.786,1.36 -1.829,2.42 -3.13,3.176c-1.396,0.789 -3.043,1.18 -4.932,1.18Zm-2.315,-20.716c0.647,-0.393 1.418,-0.596 2.315,-0.596c0.897,0 1.668,0.203 2.315,0.596c0.712,0.394 1.304,0.998 1.765,1.813c0.612,1.055 0.946,2.429 0.98,4.129l-0,4.34c-0.034,1.701 -0.368,3.075 -0.977,4.124c-0.464,0.821 -1.056,1.425 -1.768,1.819c-0.647,0.393 -1.418,0.595 -2.315,0.595c-0.897,0 -1.668,-0.202 -2.315,-0.595c-0.713,-0.394 -1.305,-0.998 -1.766,-1.813c-0.612,-1.055 -0.945,-2.429 -0.979,-4.13l-0,-4.34c0.034,-1.7 0.367,-3.074 0.977,-4.124c0.463,-0.82 1.055,-1.424 1.768,-1.818Zm2.315,15.82c-0.699,0 -1.301,-0.147 -1.803,-0.454l-0.02,-0.012c-0.563,-0.309 -1.024,-0.792 -1.39,-1.44c-0.543,-0.934 -0.817,-2.152 -0.847,-3.652c-0,0.01 -0,-4.31 -0,-4.31c0.03,-1.489 0.304,-2.707 0.844,-3.636c0.369,-0.653 0.83,-1.136 1.393,-1.445l0.02,-0.012c0.502,-0.307 1.104,-0.455 1.803,-0.455c0.698,0 1.3,0.148 1.803,0.455l0.02,0.012c0.563,0.309 1.023,0.792 1.39,1.439c0.542,0.935 0.817,2.153 0.847,3.652c-0,-0.01 -0,4.31 -0,4.31c-0.03,1.49 -0.305,2.708 -0.845,3.637c-0.369,0.653 -0.829,1.136 -1.392,1.445l-0.02,0.012c-0.503,0.307 -1.105,0.454 -1.803,0.454Z" style="fill:#d4d7de;"/><path d="M335.191,180.337l-0,9.696c-0,0.277 -0.224,0.5 -0.5,0.5l-5.424,0c-0.276,0 -0.5,-0.223 -0.5,-0.5l-0,-35.28c-0,-0.276 0.224,-0.5 0.5,-0.5l5.424,0c0.276,0 0.5,0.224 0.5,0.5l-0,18.588c3.142,-2.751 5.298,-5.124 6.465,-7.136c0.387,-0.636 0.599,-1.169 0.599,-1.612c-0,-0.276 0.224,-0.5 0.5,-0.5l5.712,0c0.276,0 0.5,0.224 0.5,0.5c-0,0.704 -0.298,1.608 -0.931,2.698c-1.193,2.071 -3.17,4.434 -5.939,7.081c1.002,1.625 1.877,3.082 2.626,4.371c3.106,5.361 4.628,9.133 4.628,11.29c-0,0.277 -0.224,0.5 -0.5,0.5l-5.424,0c-0.273,0 -0.496,-0.219 -0.5,-0.492c-0.032,-2.071 -1.694,-5.902 -4.929,-11.525c-0.059,-0.105 -0.117,-0.207 -0.175,-0.307c-0.836,0.678 -1.714,1.387 -2.632,2.128Zm-1,-25.084l-4.424,0l-0,34.28l4.424,0l-0,-9.436c-0,-0.151 0.068,-0.294 0.186,-0.389c1.152,-0.927 2.239,-1.807 3.262,-2.639c0.112,-0.09 0.256,-0.128 0.398,-0.105c0.141,0.024 0.266,0.107 0.342,0.228c0.164,0.263 0.329,0.543 0.489,0.832c3.119,5.42 4.778,9.264 5.026,11.509l4.43,0c-0.214,-2.123 -1.719,-5.546 -4.465,-10.288c-0.798,-1.373 -1.74,-2.937 -2.826,-4.693c-0.124,-0.201 -0.09,-0.463 0.082,-0.626c2.836,-2.678 4.857,-5.054 6.055,-7.136c0.379,-0.651 0.629,-1.215 0.737,-1.697l-4.705,0c-0.094,0.476 -0.319,1.02 -0.687,1.623c-1.3,2.243 -3.795,4.946 -7.5,8.098c-0.149,0.127 -0.357,0.155 -0.534,0.073c-0.177,-0.081 -0.29,-0.259 -0.29,-0.454l-0,-19.18Z" style="fill:#d4d7de;"/><path d="M366.316,181.971c-0.242,-0.399 -0.579,-0.717 -1.016,-0.963c-0.663,-0.392 -1.844,-0.646 -3.534,-0.797c-2.204,-0.2 -3.887,-0.654 -5.056,-1.338c-1.194,-0.7 -2.15,-1.663 -2.868,-2.893c-0.748,-1.292 -1.123,-2.719 -1.123,-4.283c-0,-1.407 0.313,-2.642 0.93,-3.705c0.651,-1.129 1.59,-2.056 2.827,-2.778c1.763,-0.998 3.94,-1.505 6.535,-1.505c2.503,0 4.554,0.478 6.152,1.41c1.425,0.815 2.527,1.918 3.304,3.303c0.237,0.407 0.441,0.831 0.61,1.272c0.049,0.125 0.044,0.265 -0.011,0.387c-0.056,0.122 -0.159,0.217 -0.285,0.263l-5.04,1.824c-0.248,0.089 -0.523,-0.029 -0.628,-0.27c-0.198,-0.451 -0.45,-0.833 -0.76,-1.143c-0.779,-0.78 -1.898,-1.15 -3.342,-1.15c-1.585,0 -2.721,0.307 -3.391,1.006c-0.289,0.289 -0.445,0.65 -0.476,1.081c0.03,0.333 0.121,0.655 0.273,0.964c0.243,0.399 0.579,0.717 1.016,0.963c0.664,0.392 1.845,0.646 3.535,0.797c2.204,0.2 3.887,0.654 5.055,1.338c1.195,0.7 2.151,1.663 2.869,2.893c0.747,1.292 1.123,2.719 1.123,4.282c-0,1.408 -0.314,2.643 -0.931,3.706c-0.65,1.129 -1.589,2.056 -2.827,2.778c-1.763,0.997 -3.94,1.504 -6.534,1.504c-2.504,0 -4.554,-0.477 -6.152,-1.409c-1.426,-0.815 -2.528,-1.919 -3.304,-3.303c-0.238,-0.407 -0.441,-0.831 -0.611,-1.272c-0.048,-0.125 -0.044,-0.265 0.012,-0.387c0.056,-0.122 0.158,-0.217 0.285,-0.263l5.04,-1.824c0.247,-0.089 0.522,0.029 0.628,0.27c0.197,0.451 0.449,0.833 0.759,1.143c0.78,0.78 1.899,1.149 3.343,1.149c1.585,0 2.72,-0.306 3.39,-1.005c0.289,-0.289 0.446,-0.65 0.476,-1.081c-0.029,-0.333 -0.12,-0.655 -0.273,-0.964Zm5.629,-12.388c-0.104,-0.226 -0.219,-0.447 -0.346,-0.665c-0.692,-1.233 -1.67,-2.209 -2.936,-2.933c-1.47,-0.857 -3.356,-1.276 -5.652,-1.276c-2.398,0 -4.413,0.453 -6.036,1.372c-1.072,0.626 -1.893,1.427 -2.46,2.412c-0.534,0.919 -0.796,1.988 -0.796,3.204c-0,1.381 0.328,2.642 0.988,3.781c0.627,1.075 1.463,1.92 2.508,2.532c1.072,0.628 2.621,1.022 4.64,1.205c1.895,0.17 3.21,0.492 3.945,0.927c0.591,0.332 1.051,0.776 1.384,1.33c0.006,0.011 0.012,0.022 0.018,0.034c0.222,0.443 0.35,0.905 0.387,1.385c0.002,0.022 0.002,0.044 0.001,0.066c-0.039,0.707 -0.298,1.295 -0.762,1.758c-0.81,0.845 -2.17,1.306 -4.105,1.306c-1.756,0 -3.101,-0.494 -4.05,-1.442c-0.293,-0.293 -0.547,-0.635 -0.761,-1.027l-4.124,1.492c0.104,0.226 0.22,0.447 0.347,0.665c0.691,1.232 1.669,2.209 2.936,2.933c1.47,0.857 3.355,1.275 5.652,1.275c2.397,0 4.412,-0.453 6.036,-1.371c1.072,-0.626 1.893,-1.427 2.459,-2.412c0.534,-0.919 0.797,-1.988 0.797,-3.205c-0,-1.38 -0.329,-2.641 -0.988,-3.78c-0.627,-1.075 -1.463,-1.92 -2.509,-2.532c-1.071,-0.628 -2.62,-1.022 -4.64,-1.206c-1.894,-0.169 -3.209,-0.491 -3.944,-0.926c-0.591,-0.332 -1.052,-0.776 -1.384,-1.33c-0.007,-0.011 -0.013,-0.022 -0.018,-0.034c-0.222,-0.443 -0.351,-0.905 -0.388,-1.385c-0.001,-0.022 -0.002,-0.044 -0,-0.066c0.039,-0.707 0.298,-1.295 0.762,-1.758c0.809,-0.845 2.169,-1.307 4.105,-1.307c1.756,0 3.101,0.495 4.049,1.443c0.293,0.293 0.548,0.635 0.762,1.027l4.123,-1.492Z" style="fill:#d4d7de;"/><g transform="matrix(48,0,0,48,254.867,190.033)"><path d="M0.05,-0l0,-0.735l0.193,0c0.039,0 0.072,0.008 0.101,0.025c0.025,0.015 0.046,0.035 0.062,0.062c0.018,0.032 0.027,0.07 0.027,0.113c0,0.037 -0.007,0.068 -0.022,0.094c-0.014,0.023 -0.032,0.042 -0.055,0.056c0.005,0.002 0.009,0.004 0.014,0.007c0.028,0.016 0.049,0.037 0.064,0.064c0.016,0.027 0.024,0.06 0.024,0.099c0,0.046 -0.01,0.085 -0.029,0.118c-0.017,0.029 -0.039,0.052 -0.068,0.069c-0.033,0.019 -0.072,0.028 -0.118,0.028l-0.193,-0Zm0.113,-0.433l0.08,-0c0.013,-0 0.025,-0.003 0.036,-0.009c0.011,-0.006 0.019,-0.015 0.026,-0.027c0.01,-0.017 0.015,-0.039 0.015,-0.065c-0.001,-0.025 -0.006,-0.046 -0.015,-0.063c-0.007,-0.012 -0.015,-0.021 -0.026,-0.027c-0.011,-0.006 -0.023,-0.009 -0.036,-0.009l-0.08,0l-0,0.2Zm-0,0.331l0.081,-0c0.02,-0 0.037,-0.004 0.051,-0.013c0.014,-0.008 0.025,-0.019 0.034,-0.034c0.011,-0.018 0.016,-0.04 0.016,-0.067c-0,-0.027 -0.005,-0.049 -0.016,-0.068c-0.009,-0.015 -0.021,-0.027 -0.034,-0.034c-0.015,-0.009 -0.032,-0.013 -0.052,-0.013l-0.08,-0l-0,0.229Z" style="fill:#fff;fill-rule:nonzero;"/></g><g transform="matrix(48,0,0,48,278.867,190.033)"><path d="M0.25,0.008c-0.041,0 -0.077,-0.009 -0.108,-0.026c-0.029,-0.017 -0.052,-0.04 -0.069,-0.07c-0.021,-0.036 -0.031,-0.08 -0.031,-0.132l-0,-0.09c-0,-0.052 0.01,-0.096 0.031,-0.132c0.017,-0.03 0.04,-0.053 0.069,-0.07c0.031,-0.017 0.067,-0.026 0.108,-0.026c0.041,0 0.077,0.009 0.108,0.026c0.029,0.017 0.052,0.04 0.069,0.07c0.021,0.036 0.031,0.08 0.031,0.132l0,0.09c0,0.052 -0.01,0.096 -0.031,0.132c-0.017,0.03 -0.04,0.053 -0.069,0.07c-0.031,0.017 -0.067,0.026 -0.108,0.026Zm0,-0.102c0.017,-0 0.031,-0.004 0.043,-0.011c0.013,-0.007 0.024,-0.019 0.033,-0.034c0.012,-0.021 0.018,-0.048 0.019,-0.081l0,-0.09c-0.001,-0.033 -0.007,-0.06 -0.019,-0.081c-0.009,-0.015 -0.02,-0.027 -0.033,-0.034c-0.012,-0.007 -0.026,-0.011 -0.043,-0.011c-0.017,0 -0.031,0.004 -0.043,0.011c-0.013,0.007 -0.024,0.019 -0.033,0.034c-0.012,0.021 -0.018,0.048 -0.019,0.081l0,0.09c0.001,0.033 0.007,0.06 0.019,0.081c0.009,0.015 0.02,0.027 0.033,0.034c0.012,0.007 0.026,0.011 0.043,0.011Z" style="fill:#fff;fill-rule:nonzero;"/></g><g transform="matrix(48,0,0,48,302.867,190.033)"><path d="M0.25,0.008c-0.041,0 -0.077,-0.009 -0.108,-0.026c-0.029,-0.017 -0.052,-0.04 -0.069,-0.07c-0.021,-0.036 -0.031,-0.08 -0.031,-0.132l-0,-0.09c-0,-0.052 0.01,-0.096 0.031,-0.132c0.017,-0.03 0.04,-0.053 0.069,-0.07c0.031,-0.017 0.067,-0.026 0.108,-0.026c0.041,0 0.077,0.009 0.108,0.026c0.029,0.017 0.052,0.04 0.069,0.07c0.021,0.036 0.031,0.08 0.031,0.132l0,0.09c0,0.052 -0.01,0.096 -0.031,0.132c-0.017,0.03 -0.04,0.053 -0.069,0.07c-0.031,0.017 -0.067,0.026 -0.108,0.026Zm0,-0.102c0.017,-0 0.031,-0.004 0.043,-0.011c0.013,-0.007 0.024,-0.019 0.033,-0.034c0.012,-0.021 0.018,-0.048 0.019,-0.081l0,-0.09c-0.001,-0.033 -0.007,-0.06 -0.019,-0.081c-0.009,-0.015 -0.02,-0.027 -0.033,-0.034c-0.012,-0.007 -0.026,-0.011 -0.043,-0.011c-0.017,0 -0.031,0.004 -0.043,0.011c-0.013,0.007 -0.024,0.019 -0.033,0.034c-0.012,0.021 -0.018,0.048 -0.019,0.081l0,0.09c0.001,0.033 0.007,0.06 0.019,0.081c0.009,0.015 0.02,0.027 0.033,0.034c0.012,0.007 0.026,0.011 0.043,0.011Z" style="fill:#fff;fill-rule:nonzero;"/></g><g transform="matrix(48,0,0,48,326.867,190.033)"><path d="M0.05,-0l0,-0.735l0.113,0l0,0.41c0.076,-0.065 0.127,-0.12 0.154,-0.166c0.009,-0.015 0.014,-0.028 0.014,-0.039l0.119,0c0,0.013 -0.006,0.03 -0.018,0.051c-0.025,0.044 -0.068,0.094 -0.128,0.151c0.023,0.037 0.042,0.069 0.059,0.098c0.063,0.109 0.095,0.186 0.095,0.23l-0.113,0c-0.001,-0.044 -0.035,-0.126 -0.104,-0.245c-0.003,-0.006 -0.007,-0.012 -0.01,-0.017c-0.021,0.017 -0.044,0.036 -0.068,0.055l0,0.207l-0.113,0Z" style="fill:#fff;fill-rule:nonzero;"/></g><g transform="matrix(48,0,0,48,350.867,190.033)"><path d="M0.247,0.008c-0.05,0 -0.091,-0.009 -0.123,-0.028c-0.028,-0.016 -0.05,-0.038 -0.065,-0.065c-0.005,-0.008 -0.009,-0.016 -0.012,-0.025l0.105,-0.038c0.005,0.011 0.011,0.02 0.018,0.027c0.018,0.018 0.044,0.027 0.077,0.027c0.037,0 0.063,-0.008 0.078,-0.024c0.008,-0.008 0.012,-0.018 0.013,-0.03c-0.001,-0.009 -0.003,-0.017 -0.007,-0.025c-0.006,-0.01 -0.014,-0.018 -0.025,-0.024c-0.015,-0.009 -0.041,-0.015 -0.078,-0.018c-0.044,-0.004 -0.078,-0.013 -0.101,-0.026c-0.023,-0.014 -0.042,-0.033 -0.056,-0.057c-0.015,-0.025 -0.022,-0.053 -0.022,-0.084c0,-0.027 0.006,-0.051 0.018,-0.072c0.013,-0.022 0.031,-0.04 0.055,-0.054c0.035,-0.02 0.079,-0.03 0.131,-0.03c0.05,0 0.091,0.009 0.123,0.028c0.028,0.016 0.05,0.038 0.065,0.065c0.005,0.008 0.009,0.016 0.012,0.025l-0.105,0.038c-0.005,-0.011 -0.011,-0.02 -0.018,-0.027c-0.018,-0.018 -0.044,-0.027 -0.077,-0.027c-0.037,0 -0.063,0.008 -0.078,0.024c-0.008,0.008 -0.012,0.018 -0.013,0.03c0.001,0.009 0.003,0.017 0.007,0.025c0.006,0.01 0.014,0.018 0.025,0.024c0.015,0.009 0.041,0.015 0.078,0.018c0.044,0.004 0.078,0.013 0.101,0.027c0.023,0.013 0.042,0.032 0.056,0.056c0.015,0.025 0.022,0.053 0.022,0.084c0,0.027 -0.006,0.051 -0.018,0.072c-0.013,0.022 -0.031,0.04 -0.055,0.054c-0.035,0.02 -0.079,0.03 -0.131,0.03Z" style="fill:#fff;fill-rule:nonzero;"/></g></g></g></svg>