<?xml version="1.0" encoding="UTF-8" standalone="no"?>
<!DOCTYPE svg PUBLIC "-//W3C//DTD SVG 1.1//EN" "http://www.w3.org/Graphics/SVG/1.1/DTD/svg11.dtd">
<svg width="100%" height="100%" viewBox="0 0 200 200" version="1.1" xmlns="http://www.w3.org/2000/svg" xmlns:xlink="http://www.w3.org/1999/xlink" xml:space="preserve" xmlns:serif="http://www.serif.com/" style="fill-rule:evenodd;clip-rule:evenodd;stroke-linejoin:round;stroke-miterlimit:2;">
    <g transform="matrix(1,0,0,1,-150,-90)">
        <g transform="matrix(1.09995,0,0,1.09995,-14.9931,-8.99587)">
            <path d="M331.826,180.913C331.826,130.737 291.089,90 240.913,90C190.737,90 150,130.737 150,180.913C150,231.089 190.737,271.826 240.913,271.826C291.089,271.826 331.826,231.089 331.826,180.913Z" style="fill:rgb(40,44,52);"/>
        </g>
        <g transform="matrix(4.29847,0,0,4.29847,-644.811,-436.341)">
            <path d="M199.17,137.414C198.674,137.414 198.242,137.31 197.874,137.102C197.53,136.902 197.254,136.622 197.046,136.262C196.798,135.83 196.674,135.302 196.674,134.678L196.674,131.138C196.674,130.514 196.798,129.986 197.046,129.554C197.254,129.194 197.53,128.914 197.874,128.714C198.242,128.506 198.674,128.402 199.17,128.402C199.666,128.402 200.098,128.506 200.466,128.714C200.81,128.914 201.086,129.194 201.294,129.554C201.542,129.986 201.666,130.514 201.666,131.138L201.666,134.678C201.666,135.302 201.542,135.83 201.294,136.262C201.086,136.622 200.81,136.902 200.466,137.102C200.098,137.31 199.666,137.414 199.17,137.414ZM199.17,136.19C199.37,136.19 199.542,136.146 199.686,136.058C199.846,135.97 199.978,135.834 200.082,135.65C200.226,135.402 200.302,135.078 200.31,134.678L200.31,132.278L198.09,135.23C198.13,135.39 198.186,135.53 198.258,135.65C198.362,135.834 198.494,135.97 198.654,136.058C198.798,136.146 198.97,136.19 199.17,136.19ZM198.03,133.538L200.25,130.586C200.21,130.426 200.154,130.286 200.082,130.166C199.978,129.982 199.846,129.846 199.686,129.758C199.542,129.67 199.37,129.626 199.17,129.626C198.97,129.626 198.798,129.67 198.654,129.758C198.494,129.846 198.362,129.982 198.258,130.166C198.114,130.414 198.038,130.738 198.03,131.138L198.03,133.538Z" style="fill:rgb(63,197,107);fill-rule:nonzero;stroke:white;stroke-width:0.23px;"/>
            <path d="M204.846,137.318L204.846,130.082L203.79,130.874L202.986,129.89L204.846,128.498L206.214,128.498L206.214,137.318L204.846,137.318Z" style="fill:rgb(63,197,107);fill-rule:nonzero;stroke:white;stroke-width:0.23px;"/>
            <path d="M210.846,137.318L210.846,130.082L209.79,130.874L208.986,129.89L210.846,128.498L212.214,128.498L212.214,137.318L210.846,137.318Z" style="fill:rgb(63,197,107);fill-rule:nonzero;stroke:white;stroke-width:0.23px;"/>
            <path d="M217.17,137.414C216.674,137.414 216.242,137.31 215.874,137.102C215.53,136.902 215.254,136.622 215.046,136.262C214.798,135.83 214.674,135.302 214.674,134.678L214.674,131.138C214.674,130.514 214.798,129.986 215.046,129.554C215.254,129.194 215.53,128.914 215.874,128.714C216.242,128.506 216.674,128.402 217.17,128.402C217.666,128.402 218.098,128.506 218.466,128.714C218.81,128.914 219.086,129.194 219.294,129.554C219.542,129.986 219.666,130.514 219.666,131.138L219.666,134.678C219.666,135.302 219.542,135.83 219.294,136.262C219.086,136.622 218.81,136.902 218.466,137.102C218.098,137.31 217.666,137.414 217.17,137.414ZM217.17,136.19C217.37,136.19 217.542,136.146 217.686,136.058C217.846,135.97 217.978,135.834 218.082,135.65C218.226,135.402 218.302,135.078 218.31,134.678L218.31,132.278L216.09,135.23C216.13,135.39 216.186,135.53 216.258,135.65C216.362,135.834 216.494,135.97 216.654,136.058C216.798,136.146 216.97,136.19 217.17,136.19ZM216.03,133.538L218.25,130.586C218.21,130.426 218.154,130.286 218.082,130.166C217.978,129.982 217.846,129.846 217.686,129.758C217.542,129.67 217.37,129.626 217.17,129.626C216.97,129.626 216.798,129.67 216.654,129.758C216.494,129.846 216.362,129.982 216.258,130.166C216.114,130.414 216.038,130.738 216.03,131.138L216.03,133.538Z" style="fill:rgb(63,197,107);fill-rule:nonzero;stroke:white;stroke-width:0.23px;"/>
            <path d="M198.846,150.122L198.846,142.886L197.79,143.678L196.986,142.694L198.846,141.302L200.214,141.302L200.214,150.122L198.846,150.122Z" style="fill:rgb(63,197,107);fill-rule:nonzero;stroke:white;stroke-width:0.23px;"/>
            <path d="M205.17,150.218C204.674,150.218 204.242,150.114 203.874,149.906C203.53,149.706 203.254,149.426 203.046,149.066C202.798,148.634 202.674,148.106 202.674,147.482L202.674,143.942C202.674,143.318 202.798,142.79 203.046,142.358C203.254,141.998 203.53,141.718 203.874,141.518C204.242,141.31 204.674,141.206 205.17,141.206C205.666,141.206 206.098,141.31 206.466,141.518C206.81,141.718 207.086,141.998 207.294,142.358C207.542,142.79 207.666,143.318 207.666,143.942L207.666,147.482C207.666,148.106 207.542,148.634 207.294,149.066C207.086,149.426 206.81,149.706 206.466,149.906C206.098,150.114 205.666,150.218 205.17,150.218ZM205.17,148.994C205.37,148.994 205.542,148.95 205.686,148.862C205.846,148.774 205.978,148.638 206.082,148.454C206.226,148.206 206.302,147.882 206.31,147.482L206.31,145.082L204.09,148.034C204.13,148.194 204.186,148.334 204.258,148.454C204.362,148.638 204.494,148.774 204.654,148.862C204.798,148.95 204.97,148.994 205.17,148.994ZM204.03,146.342L206.25,143.39C206.21,143.23 206.154,143.09 206.082,142.97C205.978,142.786 205.846,142.65 205.686,142.562C205.542,142.474 205.37,142.43 205.17,142.43C204.97,142.43 204.798,142.474 204.654,142.562C204.494,142.65 204.362,142.786 204.258,142.97C204.114,143.218 204.038,143.542 204.03,143.942L204.03,146.342Z" style="fill:rgb(63,197,107);fill-rule:nonzero;stroke:white;stroke-width:0.23px;"/>
            <path d="M210.846,150.122L210.846,142.886L209.79,143.678L208.986,142.694L210.846,141.302L212.214,141.302L212.214,150.122L210.846,150.122Z" style="fill:rgb(63,197,107);fill-rule:nonzero;stroke:white;stroke-width:0.23px;"/>
            <path d="M217.17,150.218C216.674,150.218 216.242,150.114 215.874,149.906C215.53,149.706 215.254,149.426 215.046,149.066C214.798,148.634 214.674,148.106 214.674,147.482L214.674,143.942C214.674,143.318 214.798,142.79 215.046,142.358C215.254,141.998 215.53,141.718 215.874,141.518C216.242,141.31 216.674,141.206 217.17,141.206C217.666,141.206 218.098,141.31 218.466,141.518C218.81,141.718 219.086,141.998 219.294,142.358C219.542,142.79 219.666,143.318 219.666,143.942L219.666,147.482C219.666,148.106 219.542,148.634 219.294,149.066C219.086,149.426 218.81,149.706 218.466,149.906C218.098,150.114 217.666,150.218 217.17,150.218ZM217.17,148.994C217.37,148.994 217.542,148.95 217.686,148.862C217.846,148.774 217.978,148.638 218.082,148.454C218.226,148.206 218.302,147.882 218.31,147.482L218.31,145.082L216.09,148.034C216.13,148.194 216.186,148.334 216.258,148.454C216.362,148.638 216.494,148.774 216.654,148.862C216.798,148.95 216.97,148.994 217.17,148.994ZM216.03,146.342L218.25,143.39C218.21,143.23 218.154,143.09 218.082,142.97C217.978,142.786 217.846,142.65 217.686,142.562C217.542,142.474 217.37,142.43 217.17,142.43C216.97,142.43 216.798,142.474 216.654,142.562C216.494,142.65 216.362,142.786 216.258,142.97C216.114,143.218 216.038,143.542 216.03,143.942L216.03,146.342Z" style="fill:rgb(63,197,107);fill-rule:nonzero;stroke:white;stroke-width:0.23px;"/>
            <path d="M198.846,162.926L198.846,155.69L197.79,156.482L196.986,155.498L198.846,154.106L200.214,154.106L200.214,162.926L198.846,162.926Z" style="fill:rgb(63,197,107);fill-rule:nonzero;stroke:white;stroke-width:0.23px;"/>
            <path d="M204.846,162.926L204.846,155.69L203.79,156.482L202.986,155.498L204.846,154.106L206.214,154.106L206.214,162.926L204.846,162.926Z" style="fill:rgb(63,197,107);fill-rule:nonzero;stroke:white;stroke-width:0.23px;"/>
            <path d="M210.846,162.926L210.846,155.69L209.79,156.482L208.986,155.498L210.846,154.106L212.214,154.106L212.214,162.926L210.846,162.926Z" style="fill:rgb(63,197,107);fill-rule:nonzero;stroke:white;stroke-width:0.23px;"/>
            <path d="M217.17,163.022C216.674,163.022 216.242,162.918 215.874,162.71C215.53,162.51 215.254,162.23 215.046,161.87C214.798,161.438 214.674,160.91 214.674,160.286L214.674,156.746C214.674,156.122 214.798,155.594 215.046,155.162C215.254,154.802 215.53,154.522 215.874,154.322C216.242,154.114 216.674,154.01 217.17,154.01C217.666,154.01 218.098,154.114 218.466,154.322C218.81,154.522 219.086,154.802 219.294,155.162C219.542,155.594 219.666,156.122 219.666,156.746L219.666,160.286C219.666,160.91 219.542,161.438 219.294,161.87C219.086,162.23 218.81,162.51 218.466,162.71C218.098,162.918 217.666,163.022 217.17,163.022ZM217.17,161.798C217.37,161.798 217.542,161.754 217.686,161.666C217.846,161.578 217.978,161.442 218.082,161.258C218.226,161.01 218.302,160.686 218.31,160.286L218.31,157.886L216.09,160.838C216.13,160.998 216.186,161.138 216.258,161.258C216.362,161.442 216.494,161.578 216.654,161.666C216.798,161.754 216.97,161.798 217.17,161.798ZM216.03,159.146L218.25,156.194C218.21,156.034 218.154,155.894 218.082,155.774C217.978,155.59 217.846,155.454 217.686,155.366C217.542,155.278 217.37,155.234 217.17,155.234C216.97,155.234 216.798,155.278 216.654,155.366C216.494,155.454 216.362,155.59 216.258,155.774C216.114,156.022 216.038,156.346 216.03,156.746L216.03,159.146Z" style="fill:rgb(63,197,107);fill-rule:nonzero;stroke:white;stroke-width:0.23px;"/>
        </g>
    </g>
</svg>
